
<svg id="Layer_1" data-name="Layer 1" xmlns="http://www.w3.org/2000/svg" xmlns:xlink="http://www.w3.org/1999/xlink" viewBox="0 0 999.35 840.96"><defs>

<style>
.cls-d-1,.cls-d-3,.cls-d-7{fill:#6c63ff;}

.cls-d-1,.cls-d-6{opacity:0.1;}
.cls-d-1,.cls-d-10,.cls-d-6,.cls-d-7{isolation:isolate;}
.cls-d-2{fill:none;stroke:#535461;stroke-miterlimit:10;stroke-width:2px;}
.cls-d-4{fill:url(#linear-gradient);}
.cls-d-5{fill:#e8eaf1;}
.cls-d-7{opacity:0.5;}
.cls-d-8{fill:url(#linear-gradient-2);}
.cls-d-9{fill:#575988;}
.cls-d-10{opacity:0.05;}
.cls-d-11{fill:#67647e;}
.cls-d-12{fill:#f7c4a7;}
.cls-d-13{fill:#e6e6f0;}
.cls-d-14{fill:#787c9c;}
.cls-d-15{fill:#a37645;}
.cls-d-16{fill:url(#linear-gradient-3);}
.cls-d-17{fill:#f6f7f9;}
</style>

<linearGradient id="linear-gradient" x1="471.73" y1="26.61" x2="471.73" y2="658.26" gradientTransform="matrix(1, 0, 0, -1, 0.21, 841.46)" gradientUnits="userSpaceOnUse"><stop offset="0" stop-color="gray" stop-opacity="0.25"/><stop offset="0.54" stop-color="gray" stop-opacity="0.12"/><stop offset="1" stop-color="gray" stop-opacity="0.1"/></linearGradient><linearGradient id="linear-gradient-2" x1="547.29" y1="5.72" x2="547.29" y2="470.83" gradientTransform="translate(990.55 812.26) rotate(180)" xlink:href="#linear-gradient"/><linearGradient id="linear-gradient-3" x1="571.73" y1="4.15" x2="571.73" y2="208.37" gradientTransform="matrix(1, 0, 0, -1, -99.72, 812.26)" xlink:href="#linear-gradient"/></defs>

<symbol id="contact-svg">
<title>Contact Illustration</title>

<path class="cls-d-1" id="color-section" d="M731.23,5.87C684.36,3.6,636.67,4,591.4,15.16s-88.32,34.2-114.09,69.49c-14.75,20.21-23.55,43.87-40.73,62.46-29.8,32.23-78.51,43.3-123.46,54.42-105.56,26-211.71,63.52-288.28,133.86C13.85,345.47,3.14,357,.65,370.91c-3.82,21.44,13,41.5,31.64,55.22S73,450.73,86.8,468.53c17.6,22.69,18.59,52.68,13.59,79.94s-15.28,53.79-18,81.35c-.67,6.8-.83,13.88,2.12,20.17,3.9,8.33,12.59,14,21.1,18.74a343.47,343.47,0,0,0,96.62,36.45c58.33,12.5,119.16,10.15,178.88,15.29S503.05,740,545,778.49c25.74,23.62,49,58.06,85.67,56.89,20.57-.65,38.74-13.22,59.25-14.62,23.1-1.58,44,11,65.75,18.16,30.93,10.19,66.74,9.21,95.74-4.85s50.06-41.57,51.76-71.15c1.66-29-14.05-56.09-23.12-83.94-29.76-91.25,12.1-187.68,53.72-275.1S1018.36,220.75,990.67,129C958.52,22.52,834,10.84,731.23,5.87Z" transform="translate(-0.11 -4.76)"/><path class="cls-d-2" d="M236.77,543.29s-34.63-19-44.9-48.14a59.81,59.81,0,0,0-23-30,99.64,99.64,0,0,0-16.2-8.75" transform="translate(-0.11 -4.76)"/><path class="cls-d-3" id="color-section" d="M146,438c3.28,3.3,6.81,18.78,6.81,18.78s-15.46-3.63-18.74-6.92A8.41,8.41,0,0,1,146,438Z" transform="translate(-0.11 -4.76)"/><path class="cls-d-3" id="color-section" d="M174.06,446.47c1,4.55-4.5,19.46-4.5,19.46s-11-11.44-12-16a8.41,8.41,0,1,1,16.35-4c0,.17.07.35.11.52Z" transform="translate(-0.11 -4.76)"/><path class="cls-d-3" id="color-section" d="M204.62,478.08c-1.47,4.41-13.71,14.53-13.71,14.53s-3.72-15.44-2.25-19.84a8.42,8.42,0,1,1,16,5.31Z" transform="translate(-0.11 -4.76)"/><path class="cls-d-3" id="color-section" d="M222.36,507.2c-.7,4.59-11.05,16.64-11.05,16.64s-6.27-14.58-5.58-19.18a8.42,8.42,0,0,1,16.63,2.54Z" transform="translate(-0.11 -4.76)"/><path class="cls-d-3" id="color-section" d="M157.67,479c4.64,0,18-8.61,18-8.61s-13.56-8.26-18.2-8.21a8.41,8.41,0,0,0,.19,16.82Z" transform="translate(-0.11 -4.76)"/><path class="cls-d-3" id="color-section" d="M178.85,512.82c4.42-1.44,14.61-13.61,14.61-13.61s-15.41-3.82-19.82-2.38a8.41,8.41,0,0,0,5.21,16Z" transform="translate(-0.11 -4.76)"/><path class="cls-d-3" id="color-section" d="M204,542.85c4.59-.67,16.69-11,16.69-11s-14.55-6.37-19.14-5.7a8.43,8.43,0,1,0,2.24,16.72l.21,0Z" transform="translate(-0.11 -4.76)"/><path class="cls-d-2" d="M264,461.61s-24-31.41-21.56-62.2a59.81,59.81,0,0,0-8.89-36.8,101.26,101.26,0,0,0-11.27-14.56" transform="translate(-0.11 -4.76)"/><path class="cls-d-3" id="color-section" d="M223.69,328.62c1.66,4.34-1.38,19.93-1.38,19.93S209.64,339,208,334.64A8.42,8.42,0,0,1,223.45,328c.09.21.17.43.24.64Z" transform="translate(-0.11 -4.76)"/><path class="cls-d-3" id="color-section" d="M245.88,347.69c-1,4.55-12,16-12,16s-5.43-14.92-4.47-19.47a8.41,8.41,0,1,1,16.51,3.23,2.56,2.56,0,0,1-.05.27Z" transform="translate(-0.11 -4.76)"/><path class="cls-d-3" id="color-section" d="M261,389c-3.13,3.44-18.42,7.74-18.42,7.74s2.85-15.62,6-19.06a8.41,8.41,0,1,1,12.75,11c-.1.12-.21.23-.31.34Z" transform="translate(-0.11 -4.76)"/><path class="cls-d-3" id="color-section" d="M265.44,422.79c-2.49,3.92-16.83,10.73-16.83,10.73s.17-15.88,2.66-19.8a8.42,8.42,0,0,1,14.17,9.06Z" transform="translate(-0.11 -4.76)"/><path class="cls-d-3" id="color-section" d="M217.72,370.81c4.26,1.83,20-.58,20-.58s-9.06-13-13.33-14.87a8.41,8.41,0,0,0-6.63,15.46Z" transform="translate(-0.11 -4.76)"/><path class="cls-d-3" id="color-section" d="M223.39,410.27c4.62.47,18.88-6.53,18.88-6.53s-12.55-9.73-17.17-10.2a8.42,8.42,0,0,0-1.71,16.73Z" transform="translate(-0.11 -4.76)"/><path class="cls-d-3" id="color-section" d="M234.18,447.91c4.47,1.25,19.7-3.25,19.7-3.25s-10.72-11.71-15.2-13a8.42,8.42,0,0,0-4.89,16.11l.39.1Z" transform="translate(-0.11 -4.76)"/><path class="cls-d-2" d="M706.42,502.72s-4.85-39.22,12.77-64.58a59.85,59.85,0,0,0,10.89-36.27,101.24,101.24,0,0,0-2.38-18.26" transform="translate(-0.11 -4.76)"/><path class="cls-d-3" id="color-section" d="M738.7,367.56c-.76,4.58-11.24,16.5-11.24,16.5s-6.11-14.66-5.35-19.23a8.41,8.41,0,0,1,16.6,2.74Z" transform="translate(-0.11 -4.76)"/><path class="cls-d-3" id="color-section" d="M748.23,395.2c-3.12,3.43-18.4,7.74-18.4,7.74s2.83-15.62,6-19.06a8.42,8.42,0,0,1,12.44,11.32Z" transform="translate(-0.11 -4.76)"/><path class="cls-d-3" id="color-section" d="M740.48,438.49c-4.44,1.39-19.8-2.61-19.8-2.61s10.34-12.05,14.77-13.44a8.42,8.42,0,0,1,5,16.05Z" transform="translate(-0.11 -4.76)"/><path class="cls-d-3" id="color-section" d="M727.24,469.92c-4.14,2.12-20,.77-20,.77s8.16-13.63,12.29-15.75a8.42,8.42,0,1,1,7.81,14.91l-.14.08Z" transform="translate(-0.11 -4.76)"/><path class="cls-d-3" id="color-section" d="M712.26,401c2.76,3.74,17.53,9.58,17.53,9.58s-1.24-15.83-4-19.57a8.41,8.41,0,0,0-13.53,10Z" transform="translate(-0.11 -4.76)"/><path class="cls-d-3" id="color-section" d="M697.24,437.91c3.74,2.74,19.58,3.89,19.58,3.89s-5.92-14.73-9.67-17.47a8.41,8.41,0,0,0-9.91,13.59Z" transform="translate(-0.11 -4.76)"/><path class="cls-d-3" id="color-section" d="M687.56,475.83c3.24,3.34,18.65,7.14,18.65,7.14s-3.35-15.52-6.58-18.86a8.42,8.42,0,0,0-12.46,11.32c.13.14.25.27.38.39Z" transform="translate(-0.11 -4.76)"/><path class="cls-d-4" d="M471.64,183.64l-274,255.3V814.87h548V438.94Z" transform="translate(-0.11 -4.76)"/><path class="cls-d-5" d="M739.77,808.11H203.5V440.23L471.64,190.39,739.77,440.23Z" transform="translate(-0.11 -4.76)"/><path class="cls-d-6" d="M203.87,440.46H737.71V807.58H203.87Z" transform="translate(-0.11 -4.76)"/><rect class="cls-d-3" id="color-section" x="466.9" y="179.34" width="79.15" height="79.15" rx="11.84" ry="11.84"/><rect class="cls-d-3" id="color-section" x="565.84" y="63.41" width="79.15" height="79.15" rx="11.84" ry="11.84"/><rect class="cls-d-3" id="color-section" x="710.61" y="26.11" width="79.15" height="79.15" rx="11.84" ry="11.84"/><path class="cls-d-7" id="color-section" d="M395.8,533.92H377.33V517.14a11.85,11.85,0,0,0-11.84-11.85H310a11.85,11.85,0,0,0-11.85,11.85h0V572.6A11.84,11.84,0,0,0,310,584.44h18.46v16.79a11.84,11.84,0,0,0,11.84,11.84H395.8a11.84,11.84,0,0,0,11.84-11.84V545.77A11.85,11.85,0,0,0,395.8,533.92Z" transform="translate(-0.11 -4.76)"/><path class="cls-d-7" id="color-section" d="M633.25,496.87H577.79a11.85,11.85,0,0,0-11.85,11.84v26H538.21a11.85,11.85,0,0,0-11.84,11.85v26.89H500.32a11.84,11.84,0,0,0-11.84,11.84v55.46a11.85,11.85,0,0,0,11.84,11.85h55.42a11.85,11.85,0,0,0,11.84-11.85V613.91h26.14a11.84,11.84,0,0,0,11.84-11.84V576h27.73a11.85,11.85,0,0,0,11.8-11.87V508.7a11.83,11.83,0,0,0-11.84-11.83Z" transform="translate(-0.11 -4.76)"/><path class="cls-d-8" d="M354.12,416.2a11.47,11.47,0,0,0,6.77,6.32c1.34.43,2.76.58,4.13.93,6.52,1.62,11.14,7.25,17.08,10.37a3.26,3.26,0,0,0,1.58.49h.57a3.09,3.09,0,0,0,1.66-.7l.27-.2a19.82,19.82,0,0,1,.29,8.08c-2.35,0-17.67.94-15.58,19,2.27,19.59,25,47,25,47s15.89,16.23,10.78,71.62l-.57,26.87s6.11-.92,13.89-1.84c.18.36.37.71.55,1.06a41.5,41.5,0,0,0,8.39,10.36l12.9,30.76s1.11,2,2.75,5.16c.15,6.5-3.89,12.19-3.89,12.19-25,7.27-35.19,33.57-35.19,33.57s-14.09,8.44-17.14,17.87c-6,4.82-5.54,18-5.54,18s21,11.19,36.32,17.35a25.91,25.91,0,0,0,5.53,1.52l-3.41,7c-3.56,1.28-3.82,18.86-3.82,18.86s37.46,26.86,48.81,28.54,21-6.15,9.09-11.75c-9.61-4.51-20.31-21.71-24.11-28.24,4.76-6.52,19.75-27.63,20.7-36.11,1.14-10.07,15.32-18.46,15.32-18.46,20.43-21.83,6.81-47.56,5.1-61a5.19,5.19,0,0,0-.12-.83,146.14,146.14,0,0,0-4.8-17.2c2.23-14.08,4-36.08,5.08-50.6,4.51,1.45,8.93,3.17,8.93,3.17,8.28-16.82-19.86-86.08-28-105.27,4.72-1.56,12.87-4,24.55-6.64,19.87-4.47,21-14.55,21-14.55l15.32-41.4c-1.31.58-3.31.56-5.65.15V416.5c.12-3.92.49-10.2,1.65-11.34,0,0-3.77,0-8.35-.41v-.56L524,378.86s-2.84-28-12.48-24.07c-7.74,3.15-6.71,28.28-6,38.08a17,17,0,0,0,2.14,7.12l.65,1.15.45.79a8.73,8.73,0,0,1-1.22-.7v8.67c-1.07-.51-1.7-.83-1.7-.83.57,9.51-11.35,41.4-11.35,41.4s-21-2.24-27.81,2.24c-5,3.29-11.51-3.07-14.64-6.69l14.73-32a41.12,41.12,0,0,1-5.23-1.28c.07-.38.14-.79.22-1.21.74-4,2.08-9.67,3.88-10.38a63,63,0,0,0-8.06-3.69c.07-.32.13-.66.21-1,1.06-5.6,2.72-17.69-.66-26-4.54-11.19-6.25-33-14.76-28-6.76,4-7.08,28.08-6.93,37.85a16.86,16.86,0,0,0,1.94,7.58l3.28,6.22.45.86-.45.08v7.64c-1.44-.91-2.27-1.49-2.27-1.49-.29,10.76-7.41,25.1-14.36,36.64l-3.54-2.61-.87-.62a1.93,1.93,0,0,1,0-.34s-1.46-.41-3.76-.88c-2.85-5.43-4.45-12-5.34-17.41-.09-.57-.18-1.12-.26-1.66a22.75,22.75,0,0,0,2-9.26,23,23,0,0,0-19.44-22.59c.7-.77,1-1,1.22-1h.15a4.26,4.26,0,0,0,2.57-.69c1.74-.85,3.82-2.18,3.81-4.16,0-1.45-1.14-2.64-2.36-3.46-2.93-2-3-5.35-5.74-5.1a3.71,3.71,0,0,0-1.55.21c-2.5.82-4.67,2.38-7.09,3.38a16.67,16.67,0,0,1-5.34,1.22,22.84,22.84,0,0,0-3.5.28,10.24,10.24,0,0,0-2.64,1.07c-5.12,2.8-11,7.06-12.69,12.6-1.54,5.2.59,11.93-3.38,15.67a14.37,14.37,0,0,0-2,1.91,6.55,6.55,0,0,0-1,2.55,15.2,15.2,0,0,0,.8,9.23ZM457.88,685.27c.22,2.68-.29,4.58-1.86,5.2-8.52,3.36-18.16,34.13-18.16,34.13l-6.46,13.32a173.46,173.46,0,0,1-14.67-12.42l.7-4.83s18.16-13.43,19.3-17.35c.91-3.15,15.59-14,21.15-18.05Z" transform="translate(-0.11 -4.76)"/><path class="cls-d-9" d="M470.56,476.51s38.59,89.33,29.22,108.64c0,0-15.44-6.07-17.65-5s-24.26-115.24-24.26-115.24Z" transform="translate(-0.11 -4.76)"/><path class="cls-d-10" d="M470.56,476.51s38.59,89.33,29.22,108.64c0,0-15.44-6.07-17.65-5s-24.26-115.24-24.26-115.24Z" transform="translate(-0.11 -4.76)"/><path class="cls-d-9" d="M449.6,761s13.23,24.82,24.82,30.33,2.2,13.23-8.83,11.59-47.42-28.13-47.42-28.13.25-17.32,3.71-18.58S449.6,761,449.6,761Z" transform="translate(-0.11 -4.76)"/><path class="cls-d-9" d="M414.84,720.78s18.74,18.75,27,20.41-7.17,12.68-22.06,6.61-35.28-17.09-35.28-17.09-.55-17.64,8.82-19.29S414.84,720.78,414.84,720.78Z" transform="translate(-0.11 -4.76)"/><path class="cls-d-11" d="M492.06,567.49s-3.85,67.28-8.82,76.65-23.71,38.05-23.71,38.05S438,697.63,436.92,701.48s-18.75,17.09-18.75,17.09l-1.1,7.72s-29.22-1.66-27.57-11.59,17.09-19.29,17.09-19.29,9.92-25.92,34.19-33.09c0,0,7.71-11,1.1-19.85,0,0-16.54-41.35-25.92-46.32s3.87-33.61,3.87-33.61Z" transform="translate(-0.11 -4.76)"/><path class="cls-d-10" d="M492.06,567.49s-3.85,67.28-8.82,76.65-23.71,38.05-23.71,38.05S438,697.63,436.92,701.48s-18.75,17.09-18.75,17.09l-1.1,7.72s-29.22-1.66-27.57-11.59,17.09-19.29,17.09-19.29,9.92-25.92,34.19-33.09c0,0,7.71-11,1.1-19.85,0,0-16.54-41.35-25.92-46.32s3.87-33.61,3.87-33.61Z" transform="translate(-0.11 -4.76)"/><path class="cls-d-11" d="M438,722.44l-17.65,37c2.76,9.38,29.22,6.07,29.22,6.07S470,737.91,471.1,728,486,709.79,486,709.79c19.84-21.51,6.61-46.87,5-60.1a5.24,5.24,0,0,0-.12-.82c-1.46-8.88-10.39-34.41-17.32-53.53-4.68-12.88-8.47-22.85-8.47-22.85s-37,1.66-44.66,14.89c-3.54,6-2,12.37.8,17.43A41.27,41.27,0,0,0,429.37,615l12.55,30.26S464,685.53,455.7,688.84,438,722.44,438,722.44Z" transform="translate(-0.11 -4.76)"/><path class="cls-d-12" d="M503.88,395.49a16.87,16.87,0,0,0,2.08,7l.63,1.14,3.11,5.61h9.93l.21-2.61,2-25s-2.75-27.58-12.13-23.72C502.18,361.06,503.19,385.83,503.88,395.49Z" transform="translate(-0.11 -4.76)"/><path class="cls-d-6" d="M506.59,403.64l3.11,5.61h9.93l.21-2.61C515.22,406.27,509.72,405.38,506.59,403.64Z" transform="translate(-0.11 -4.76)"/><path class="cls-d-13" d="M505.84,403.73v12.68l20.41,5.52s0-1.32.06-3.16c.12-3.87.48-10,1.6-11.17,0,0-16.55,0-22.07-3.87Z" transform="translate(-0.11 -4.76)"/><path class="cls-d-6" d="M505.84,411.17v5.24l20.41,5.52s0-1.32.06-3.16c-6.8-1.19-16.61-5.73-20.47-7.6Z" transform="translate(-0.11 -4.76)"/><path class="cls-d-12" d="M386.85,432.09c4,11.62-1.21,16.86-1.21,16.86s49.63,3.31,37.5-5.52c-7.09-5.15-10.22-16.51-11.6-25.07a84.34,84.34,0,0,1-1.08-10.76S370.8,407,379,418.07a53.17,53.17,0,0,1,7.82,14Z" transform="translate(-0.11 -4.76)"/><path class="cls-d-6" d="M379,418.07c4,5.44,5.36,6.24,6.72,10.16a21.6,21.6,0,0,0,3.76.31c9.46,0,18.66-1.94,22-10.19a84.34,84.34,0,0,1-1.08-10.76S370.79,407,379,418.07Z" transform="translate(-0.11 -4.76)"/><circle class="cls-d-12" cx="390.5" cy="402.84" r="22.6"/><path class="cls-d-9" d="M504.2,411.46s21.5,11,27.57,8.27l-14.89,40.8s-1.1,9.93-20.41,14.34-28.67,8.26-28.67,8.26L432,440.67l18.2,5s9.38,13.23,16,8.83,27-2.21,27-2.21,11.65-31.45,11.07-40.82Z" transform="translate(-0.11 -4.76)"/><path class="cls-d-10" d="M504.2,411.46s21.5,11,27.57,8.27l-14.89,40.8s-1.1,9.93-20.41,14.34-28.67,8.26-28.67,8.26L432,440.67l18.2,5s9.38,13.23,16,8.83,27-2.21,27-2.21,11.65-31.45,11.07-40.82Z" transform="translate(-0.11 -4.76)"/><path class="cls-d-13" d="M418.9,436.39s-27.81-8.36-30.74,7.16c0,0,12.86-6.58,31.27,5,1.38.87,2.73,1.8,4.05,2.77,16.21,11.94,27.52,30.43,32.06,51.36L467.3,556.8l1.05,14.55s16.84,3.49,20-1.75,1.05-22.69-3.68-28.51-12.1-30.85-12.1-30.85L468,495.78a98.56,98.56,0,0,0-18-33.2l-1.12-1.42A69.45,69.45,0,0,0,423.15,441C420.49,439.76,418.53,438.26,418.9,436.39Z" transform="translate(-0.11 -4.76)"/><path class="cls-d-6" d="M493.68,547.53l-.25,9.49-7.71-5S472,502,462.28,488.33c-1.14-1.6-1.69-4-2.75-4.4L420.1,445.88v-8.82s20.13,14.89,21.78,17.65c.7,1.17,11.28,7,17.65,16a201.17,201.17,0,0,1,15.16,26.19l13.23,29.78Z" transform="translate(-0.11 -4.76)"/><path class="cls-d-14" d="M419.83,437.06v8.54l40,38.33c1.05.41,1.61,2.81,2.75,4.4C472.25,502,486,552,486,552l7.71,5,.24-9.49-5.74-20.82L475,496.93a201.17,201.17,0,0,0-15.16-26.19c-6.37-9-17-14.82-17.65-16-1.43-2.38-17-13.76-21.25-16.86Z" transform="translate(-0.11 -4.76)"/><path class="cls-d-6" d="M398.13,383.59c1.75-.86,3.71-2.14,3.7-4.09a4.49,4.49,0,0,0-2.29-3.41c-3.15-2.15-2.91-6-6.53-4.82-2.42.81-4.54,2.35-6.9,3.33a16.23,16.23,0,0,1-5.18,1.2,21.46,21.46,0,0,0-3.4.27,10,10,0,0,0-2.57,1.06,22.13,22.13,0,0,0-10.41,13c-1.5,5.12-1.35,11.18-5.21,14.86a14.2,14.2,0,0,0-1.92,1.88,6.69,6.69,0,0,0-1,2.51,15.33,15.33,0,0,0,.76,9.15,11.23,11.23,0,0,0,6.58,6.23c1.3.43,2.68.58,4,.91,6.33,1.6,10.82,7.15,16.59,10.22a3.16,3.16,0,0,0,1.52.48,3,3,0,0,0,1.62-.69c2.23-1.6,4.07-4.07,4-6.82A13.65,13.65,0,0,0,390,424a47.67,47.67,0,0,1-2.76-8.89,4.35,4.35,0,0,1-.06-2.15c.42-1.33,1.9-2,2.93-2.9,2-1.81,2.19-4.9,1.47-7.47s-2.24-4.82-3.37-7.24a5.73,5.73,0,0,1-.67-2.35c0-3.23,4.36-5,6.2-7.11,2.55-2.87,1-.56,4.38-2.25Z" transform="translate(-0.11 -4.76)"/><path class="cls-d-15" d="M397.58,383.59c1.75-.86,3.71-2.14,3.7-4.09a4.49,4.49,0,0,0-2.29-3.41c-3.15-2.15-2.91-6-6.53-4.82-2.42.81-4.54,2.35-6.9,3.33a16.23,16.23,0,0,1-5.18,1.2c-1.14.07-4.82-1.67-5.93-1.41a10.1,10.1,0,0,0-2.57,1.06,22.17,22.17,0,0,0-10.41,13c-1.5,5.12-.45,11.52-4.31,15.2-.65.62.23,2.5-.29,3.23a6.69,6.69,0,0,0-1,2.51,15.33,15.33,0,0,0,.76,9.15,11.23,11.23,0,0,0,6.58,6.23c1.3.43,2.68.58,4,.91,6.33,1.6,10.82,7.15,16.59,10.22a3.16,3.16,0,0,0,1.52.48,2.92,2.92,0,0,0,1.62-.69c2.23-1.6,4.07-4.07,4-6.82a13.65,13.65,0,0,0-1.48-4.9,47.67,47.67,0,0,1-2.76-8.89,4.35,4.35,0,0,1-.06-2.15c.42-1.33,1.9-2,2.93-2.9,2-1.81,2.19-4.9,1.47-7.47s-2.24-4.82-3.37-7.24A5.73,5.73,0,0,1,387,393c0-3.23,4.36-5,6.2-7.11,2.55-2.88,1-.57,4.38-2.26Z" transform="translate(-0.11 -4.76)"/><path class="cls-d-6" d="M421.18,604.77c10.08-1.2,22.84-2.37,28.42-1.43,9,1.5,21.64-6.53,23.91-8-4.68-12.88-8.47-22.85-8.47-22.85s-37,1.66-44.66,14.89c-3.55,6-2,12.33.8,17.39Z" transform="translate(-0.11 -4.76)"/><path class="cls-d-9" d="M373,462.18c2.21,19.3,24.27,46.32,24.27,46.32s15.44,16,10.47,70.58l-.55,26.47s32.53-5,42.46-3.31S473.88,594,473.88,594s5.51-95.39-18.2-115.24a137.44,137.44,0,0,0-9.53-13c-6.36-7.71-15-16.39-23.12-18.53a14.92,14.92,0,0,0-3.19-.49S395,432.93,388.41,443.4c0,0-17.66-.52-15.45,18.78Z" transform="translate(-0.11 -4.76)"/><path class="cls-d-6" d="M473.59,565s-8.79-3.84-23.71-2.75-41.4-12.09-41.4-12.09" transform="translate(-0.11 -4.76)"/><path class="cls-d-10" d="M457.6,688s-.55,1.66,6.61,3.86,9.38,4.41,9.38,4.41" transform="translate(-0.11 -4.76)"/><rect class="cls-d-3" id="color-section" x="439.58" y="307.09" width="79.15" height="79.15" rx="11.84" ry="11.84"/><path class="cls-d-12" d="M435.71,383.13a16.78,16.78,0,0,0,1.89,7.48l3.19,6.13L443,401l13.78,1.1s.29-1.14.64-3c1-5.51,2.65-17.42-.64-25.65-4.41-11-6.07-32.53-14.34-27.57C435.87,349.78,435.56,373.5,435.71,383.13Z" transform="translate(-0.11 -4.76)"/><path class="cls-d-6" d="M440.82,396.57v.17L443,401l13.78,1.1s.29-1.14.64-3C452.48,397.15,446,395.4,440.82,396.57Z" transform="translate(-0.11 -4.76)"/><path class="cls-d-13" d="M440.82,397.67v9.92l19.84,10.47s.23-1.8.65-4.12c.72-4,2-9.52,3.77-10.21,0,0-14.38-8.27-24.26-6.06Z" transform="translate(-0.11 -4.76)"/><path class="cls-d-10" d="M387.09,487.8a23.36,23.36,0,0,0,17.83,5.7c34.9-3.55,35.9-15.88,35.9-15.88l5.35-11.86c-6.36-7.71-15-16.39-23.12-18.53-5.79,9.33-10.91,16-10.91,16s-25.92-19.85-33.64-1.1c-4.52,10.91,2.2,20,8.59,25.62Z" transform="translate(-0.11 -4.76)"/><path class="cls-d-6" d="M440.82,403.74v3.85l19.84,10.47s.23-1.8.65-4.12c-8.59-2.73-17.05-7.93-20.49-10.2Z" transform="translate(-0.11 -4.76)"/><path class="cls-d-9" d="M438.58,403.73s14.89,10.47,27.57,12.68l-25.91,57.34s-.95,12.34-35.86,15.88a23.36,23.36,0,0,1-17.83-5.7c-6.39-5.66-13.12-14.7-8.62-25.62,7.71-18.74,33.64,1.1,33.64,1.1s26.45-34.72,27-55.68Z" transform="translate(-0.11 -4.76)"/><path class="cls-d-5" d="M203.5,440.23,471.64,624.17,203.5,808.11V440.23Z" transform="translate(-0.11 -4.76)"/><path class="cls-d-5" d="M739.77,440.23,471.64,624.17,739.77,808.11Z" transform="translate(-0.11 -4.76)"/><path class="cls-d-16" d="M203.5,808.11,461.11,607.68a17,17,0,0,1,21,0L739.77,808.11Z" transform="translate(-0.11 -4.76)"/><path class="cls-d-5" d="M203.5,808.11,461.11,616.44a17.61,17.61,0,0,1,21,0L739.77,808.11Z" transform="translate(-0.11 -4.76)"/><path class="cls-d-3" id="color-section" d="M761.56,66.84,712.18,64a1.42,1.42,0,0,0-1.46,1.39v57.87a1.42,1.42,0,0,0,1.46,1.39,1.5,1.5,0,0,0,1.07-.44l15.63-15.82a1.52,1.52,0,0,1,1.07-.44l54.15-5.63c.81,0,1.45.53,4,1.53l-.68-4a33.4,33.4,0,0,0,1-4.7L765.28,79.31c0-.76-2.91-8.83-3.72-8.83Z" transform="translate(-0.11 -4.76)"/><path class="cls-d-17" d="M717.7,49h59.83v4.3H717.7Z" transform="translate(-0.11 -4.76)"/><path class="cls-d-17" d="M717.7,59.39h40V63.7h-40Z" transform="translate(-0.11 -4.76)"/><path class="cls-d-17" d="M755.84,83.85h26.91v4.3H755.84Z" transform="translate(-0.11 -4.76)"/><path class="cls-d-17" d="M717.7,71.61h55.64v4.31H717.7Z" transform="translate(-0.11 -4.76)"/><path class="cls-d-17" d="M719.35,83.85h26.91v4.3H719.35Z" transform="translate(-0.11 -4.76)"/><path class="cls-d-3" id="color-section" d="M616.56,105.84,567.18,103a1.42,1.42,0,0,0-1.46,1.39v57.87a1.42,1.42,0,0,0,1.46,1.39,1.5,1.5,0,0,0,1.07-.44l15.63-15.82a1.52,1.52,0,0,1,1.07-.44l54.15-5.63c.81,0,1.45.53,4,1.53l-.68-4a33.4,33.4,0,0,0,1-4.7l-23.14-15.84c0-.76-2.91-8.83-3.72-8.83Z" transform="translate(-0.11 -4.76)"/><path class="cls-d-17" d="M573.7,85h59.83v4.3H573.7Z" transform="translate(-0.11 -4.76)"/><path class="cls-d-17" d="M573.7,119.39h40v4.31h-40Z" transform="translate(-0.11 -4.76)"/><path class="cls-d-17" d="M573.84,129.85h26.91v4.3H573.84Z" transform="translate(-0.11 -4.76)"/><path class="cls-d-17" d="M573.7,107.61h55.64v4.31H573.7Z" transform="translate(-0.11 -4.76)"/><path class="cls-d-17" d="M573.35,94.85h26.91v4.3H573.35Z" transform="translate(-0.11 -4.76)"/><path class="cls-d-17" d="M473.7,204h59.83v4.3H473.7Z" transform="translate(-0.11 -4.76)"/><path class="cls-d-17" d="M473.7,214.39h40.05v4.31H473.7Z" transform="translate(-0.11 -4.76)"/><path class="cls-d-17" d="M511.84,238.85h26.91v4.3H511.84Z" transform="translate(-0.11 -4.76)"/><path class="cls-d-17" d="M473.7,226.61h55.64v4.31H473.7Z" transform="translate(-0.11 -4.76)"/><path class="cls-d-17" d="M475.35,238.85h26.91v4.3H475.35Z" transform="translate(-0.11 -4.76)"/><path class="cls-d-17" d="M451.7,324h59.83v4.3H451.7Z" transform="translate(-0.11 -4.76)"/><path class="cls-d-17" d="M455.7,358.64h40.05v4.09H455.7Z" transform="translate(-0.11 -4.76)"/><path class="cls-d-17" d="M461.84,368.85h26.91v4.3H461.84Z" transform="translate(-0.11 -4.76)"/><path class="cls-d-17" d="M452,346.61h55.34v4.31H452Z" transform="translate(-0.11 -4.76)"/><path class="cls-d-17" d="M451.35,333.85h26.91v4.3H451.35Z" transform="translate(-0.11 -4.76)"/>

</symbol>
</svg>