<svg style="display: none"  id="f172ea3d-e53d-456a-964f-757e83e93cbf" xmlns="http://www.w3.org/2000/svg" xmlns:xlink="http://www.w3.org/1999/xlink" viewBox="0 0 941.05 793.62"><defs>

<style>

.cls-f-1,.cls-f-14{fill:#6c63ff;}

.cls-f-1,.cls-f-4,.cls-f-7{opacity:0.1;}.cls-f-1,.cls-f-13,.cls-f-4{isolation:isolate;}.cls-f-2{fill:url(#linear-gradient);}.cls-f-3{fill:#67647e;}.cls-f-5{fill:#cc818c;}.cls-f-6{fill:#444053;}.cls-f-8{fill:#585268;}.cls-f-9{fill:#f6f8fb;}.cls-f-10{fill:#535461;}.cls-f-11{fill:#9d9cb5;}.cls-f-12{fill:#f0f4f9;}.cls-f-13{opacity:0.03;}.cls-f-15,.cls-f-17{fill:none;}.cls-f-16{fill:#65617d;}.cls-f-17{stroke:#535461;stroke-miterlimit:10;stroke-width:2px;}</style>

<linearGradient id="linear-gradient" x1="862.5" y1="12.28" x2="862.5" y2="698.35" gradientTransform="matrix(1, 0, 0, -1, -129.48, 742.81)" gradientUnits="userSpaceOnUse"><stop offset="0" stop-color="gray" stop-opacity="0.25"/><stop offset="0.54" stop-color="gray" stop-opacity="0.12"/><stop offset="1" stop-color="gray" stop-opacity="0.1"/></linearGradient></defs>

<symbol id="print-svg">
<title>Print My Resume</title>
        

<path class="cls-f-1" id="color-section" d="M37.57,51.08c-9.85,5.24-19.69,11.56-25.72,21.35S4.31,94.33,3.19,106C-7.3,215.42,5.94,335,74.4,417.5c7.32,8.82,15.29,17.21,24.79,23.26,13.3,8.48,28.84,11.93,44.13,14.75,56,10.3,114.57,14.59,164.52,43.3,27.89,16,51.67,39,78.17,57.52s57.73,32.91,89.17,28.44c17.56-2.49,34-10.73,51.57-13.46,36.17-5.62,71.3,12.49,105.31,26.7a538,538,0,0,0,149,38.46c39.71,4.32,84,2.56,113.53-26,11.76-11.36,20.17-26.17,26.59-41.63a215.33,215.33,0,0,0,9.34-134.67c-7.26-28.09-20.29-54.78-22.56-83.8-2.62-33.4,9.25-65.87,16.13-98.58,10.5-49.91,8.43-105.66-19-147.67-10.58-16.21-24.48-29.71-39.32-41.56C809.11,17.32,736.66-5,666,1,612.77,5.47,561.91,25.23,510.7,41.41,451.05,60.25,389,74.48,326.94,69.16c-54-4.64-105.45-23.77-158-36.38C122.37,21.6,80.87,28,37.57,51.08Z" transform="translate(0.01 0)"/><ellipse class="cls-f-1" id="color-section" cx="500.69" cy="732.97" rx="440.36" ry="60.65"/><path class="cls-f-2" d="M842.52,171.71c-15.48-.31-29.14-11.28-36.88-24.59-1.88-3.23-3.5-6.88-3.72-10.52a12,12,0,0,1,.42-2.52,27.05,27.05,0,0,0,1.15-3.85,6,6,0,0,0,0-1.58v-.08c.37-2.84-1.3-5.6-3.41-7.56s-4.65-3.4-6.81-5.3c-6.65-5.85-8.68-15.21-8.8-24.13v-.46c.07-3.83.38-7.66.34-11.47a48.68,48.68,0,0,0-.28-6.5c-.63-5.4-2.7-10.91-6.94-14.35-11.07-9-29.7.37-41.16-8.13-2.79-2.06-5-5.14-8.42-6-2.56-.61-5.21.22-7.7,1-8.44,2.78-17.86,6.45-21.17,14.65-1.88,4.68-1.35,10-3.08,14.76-1.16,3.18-3.28,5.91-4.83,8.92a13.86,13.86,0,0,0-1.8,7.45,8.52,8.52,0,0,0,.54,4,10.11,10.11,0,0,0,2.76,4,12.67,12.67,0,0,1-1.64,2.62c-2.16,2.64-5.47,4.53-7.71,7.13-4.16,4.82-4,11.36-2,17s5.74,10.81,8.29,16.33c1.1,2.39,2,5.07.84,7.45-.79,1.65-2.44,2.9-3.73,4.33a13.61,13.61,0,0,0-3.39,7.53c-25.29,5.77-25.3,26.09-25.3,26.09h0l-13.64,34.38s-2.19,5.79-4.76,13.42l-16.17-2.92,11.22,18.79c-2.13,7.66-3.63,14.77-3.13,18.33,0,0-5,23.55,3.9,27.71l19.7,8.86a10.9,10.9,0,0,0,2.72,1.22l.81.36a2.1,2.1,0,0,0,1.83,0h.32a2.5,2.5,0,0,0,1.18-.17,2.17,2.17,0,0,0,1-1.07v-.11L669,305l5,5.91a72.88,72.88,0,0,0,6.62,4.2L672.85,392s-1.25,102.22-5,125.49C666.46,526.1,666.44,532,667,536l-.14.25c.93,6.57,3.35,7.87,3.35,7.87V544l.14.09a66,66,0,0,1,4-8.67v1.68c-.07,8.68-.34,20.81-1.24,28.71-1.53,13.43,3.9,57.89,3.9,57.89l1.88,40.47a37.31,37.31,0,0,1-4.6,19.7c-4.45,8.08-10.24,19.45-10.65,24.48a5.61,5.61,0,0,0,0,.82h0l-9.76,11.5s-3.77,5.82,4.74,8.17c4.57,1.27,12.46,0,18.78-1.49a12.57,12.57,0,0,0,9.74-12.22,43.39,43.39,0,0,1,8-15.26l1.59,9.3,10.6,2.64,1.37-25.52a11.55,11.55,0,0,0,.73-4.51h0c2.1-18.15-4.92-16.53-4.92-16.53a1,1,0,0,1,.34.64c-.12-.2-.23-.41-.33-.62h0c-4.29-8.47-2.17-22.47-2.17-22.47s5.57-40.44,7.52-51.11c1.39-7.54.82-32.25.36-46.08a15.17,15.17,0,0,0-.06-1.67c16.44-.21,36.59-.77,50.74-2.14l0,1.67L758.22,639a52.33,52.33,0,0,1-3.7,17.81l-.12.33a77.36,77.36,0,0,0-5.18,25L748,712.5v.84h0c-2.11.81-5.44,3.16-5.54,10-.14,10,17.43,6.65,17.43,6.65,17.57,0,17.71-18.28,17.71-18.28s.56-16.76,1.39-28-2.65-8.75-2.65-8.75l-.26,31.91V679.12l.27-4V675h0l.06-.86,2.17-32.91s16.18-54.86,18.69-65.38c1.79-7.47,1-30,.46-42.46a14.67,14.67,0,0,0-.09-1.65c5-.45,9.46-.5,11.22-.5h.82s-.84-88.1-2.93-121.34-5.44-63.58-13.8-72.73c-5.06-5.52-12.1-22.58-16.89-35.21,9.57,4,20.59,8,31,10.14,26.49,5.54,22.87-17.45,22.87-17.45l-2.69-43.5h.18a221.33,221.33,0,0,0-2.92-34c-1.4-8.63-3.55-17.54-6.83-24.74,2.88-1.1,5.71-2.32,8.5-3.56,7.2-3.18,15.31-7.68,16.35-15.44h-.35A13,13,0,0,0,842.52,171.71ZM678.26,234.63h0c.06,4.49-.11,12.28-.38,20.9l-8.36-11.23L678,230.62Zm116.22,39.78-14-4.5a63.82,63.82,0,0,1,8.66-10.72c.25-.22.78-.73,1.22-1.15l-.44.09.68-.61.4-.09-.64.61.76-.15a24,24,0,0,0,4.78,9.6c5,5.52-1.38,6.9-1.38,6.9Z" transform="translate(0.01 0)"/><polygon class="cls-f-3" points="709.35 678.71 707.7 709.79 697.25 707.17 695.04 694.25 709.35 678.71"/><polygon class="cls-f-4" points="709.35 678.71 707.7 709.79 697.25 707.17 695.04 694.25 709.35 678.71"/><path class="cls-f-5" d="M747.71,713.91l15.95,3.3,11.86-10.4V677.33l.27-4v-.12h0l.06-.86L778,639.68s16-54.46,18.43-64.91c1.76-7.42,1-29.79.45-42.15-.24-5.07-.45-8.46-.45-8.46l-35.21-8.53-.73,27.08-2.58,94.83a52.31,52.31,0,0,1-3.6,17.64c0,.11-.09.22-.13.32a77.51,77.51,0,0,0-5.11,24.85l-1.19,30.15v.83Z" transform="translate(0.01 0)"/><path class="cls-f-4" d="M775.75,672.36v.83h0l.06-.86Z" transform="translate(0.01 0)"/><path class="cls-f-4" d="M747.71,713.91l15.95,3.3,11.86-10.4v-2.5a3.32,3.32,0,0,1-1.69,2.69l-.17.1a31.71,31.71,0,0,1-17.91,3.54l-6.22-.53a6.22,6.22,0,0,0-1.65.4v.83Z" transform="translate(0.01 0)"/><path class="cls-f-3" d="M773.61,707.88l.18-.09a3.36,3.36,0,0,0,1.71-2.92l.26-31.69s3.44-2.45,2.61,8.69S777,709.65,777,709.65s-.14,18.16-17.48,18.16c0,0-17.33,3.3-17.19-6.6s7.19-10.32,7.19-10.32l6.22.54A31.67,31.67,0,0,0,773.61,707.88Z" transform="translate(0.01 0)"/><path class="cls-f-5" d="M664.64,707.18c.41,7.14,21.45,3,21.45,3l14.17-27.5s11.83-9.08,5.91-17.06a13.59,13.59,0,0,1-.88-1.35v-.08h0a5.84,5.84,0,0,1-.35-.65h0c-4.24-8.42-2.15-22.24-2.15-22.24s5.49-40.15,7.42-50.75c1.36-7.48.8-32,.35-45.74-.18-5.71-.35-9.54-.35-9.54l-34.93-9.35v10.42c-.08,8.61-.34,20.66-1.23,28.5-1.51,13.33,3.85,57.48,3.85,57.48l1.85,40.18a37.32,37.32,0,0,1-4.54,19.55c-4.38,8-10.09,19.31-10.49,24.31A4.47,4.47,0,0,0,664.64,707.18Z" transform="translate(0.01 0)"/><path class="cls-f-4" d="M664.64,707.18c.41,7.14,21.45,3,21.45,3l14.17-27.5s11.83-9.08,5.91-17.06a13.59,13.59,0,0,1-.88-1.35c-.19,4.18-4.77,14.54-4.77,14.54s-11.69,23.39-15.4,28.75-19.87-1-20.47-1.23A4.83,4.83,0,0,0,664.64,707.18Z" transform="translate(0.01 0)"/><path class="cls-f-3" d="M704.89,663.54s6.92-1.61,4.86,16.41h0a11.63,11.63,0,0,1-5.48,10.29c-5,3.11-12.59,9.8-16.45,22.82h0a12.45,12.45,0,0,1-9.6,12.13c-6.24,1.46-14,2.74-18.53,1.48-8.39-2.33-4.68-8.11-4.68-8.11l9.63-11.41s16.78,6.6,20.49,1.23,15.39-28.71,15.39-28.71S707,665.05,704.89,663.54Z" transform="translate(0.01 0)"/><path class="cls-f-4" d="M761.18,518.9,760.45,546c9.37-.92,16.09-2.19,17.23-4,2.48-3.84,11.49-5.46,19.16-6.12-.24-5.07-.45-8.46-.45-8.46Z" transform="translate(0.01 0)"/><path class="cls-f-4" d="M675.22,539.64c1.2-2.09,2.55-3.92,3.85-4.65,3.71-2.06,3.31,13.21,3.31,13.21s12.33.11,28.13-.09c-.18-5.71-.35-9.54-.35-9.54l-34.93-9.35S675.28,533.58,675.22,539.64Z" transform="translate(0.01 0)"/><path class="cls-f-6" d="M671.24,543.28s4.13-11.17,7.83-13.24,3.31,13.21,3.31,13.21,90.77.82,95.3-6.19,31-6.6,31-6.6S807.85,443,805.79,410s-5.36-63.13-13.62-72.2c-5.33-5.88-12.92-24.87-17.61-37.55-2.56-6.92-4.25-12-4.25-12l-86.64,4.95-.7,7-9.2,92s-1.25,101.55-5,124.62S671.24,543.28,671.24,543.28Z" transform="translate(0.01 0)"/><g class="cls-f-7"><path d="M770.65,537.06c4.54-7,31-6.6,31-6.6S800.82,443,798.76,410s-5.36-63.13-13.62-72.2c-5.33-5.88-12.92-24.87-17.61-37.55-2.15-5.82-3.69-10.3-4.12-11.58l6.72-.38s1.69,5,4.25,12C779.08,313,786.66,332,792,337.83c8.25,9.07,11.55,39.19,13.61,72.2S808.5,530.5,808.5,530.5s-26.4-.42-30.94,6.6c-3.88,6-70.67,6.26-90.06,6.21C712.32,543.21,767.15,542.47,770.65,537.06Z" transform="translate(0.01 0)"/><path d="M672,530c1.67-.93,2.51,1.67,2.92,4.79a65.91,65.91,0,0,0-3.9,8.45s-2.39-1.29-3.3-7.82C669.07,533.07,670.59,530.81,672,530Z" transform="translate(0.01 0)"/></g><path class="cls-f-8" d="M698,76.65c-6,8.18.07,19.81-6.37,27.76-2.12,2.62-5.39,4.5-7.6,7.08-4.11,4.78-3.95,11.28-1.93,16.89s5.66,10.74,8.17,16.22c1.09,2.37,2,5,.83,7.39-.78,1.64-2.41,2.89-3.68,4.3-4.13,4.62-4.25,11-2,16.47s6.47,10.12,10.66,14.71c1.65,1.81,3.74,3.8,6.49,3.75a9,9,0,0,0,4.08-1.33,43,43,0,0,0,20.68-24.33c3.12-9.79,2.21-20.33-1.77-29.9-3.48-8.35-9.29-16.34-9.34-25.17,0-7,3.59-13.67,4.23-20.64.78-8.46-4.24-21.91-14.45-25.6C706.66,69.68,701.05,72.49,698,76.65Z" transform="translate(0.01 0)"/><path class="cls-f-4" d="M698,76.65c-6,8.18.07,19.81-6.37,27.76-2.12,2.62-5.39,4.5-7.6,7.08-4.11,4.78-3.95,11.28-1.93,16.89s5.66,10.74,8.17,16.22c1.09,2.37,2,5,.83,7.39-.78,1.64-2.41,2.89-3.68,4.3-4.13,4.62-4.25,11-2,16.47s6.47,10.12,10.66,14.71c1.65,1.81,3.74,3.8,6.49,3.75a9,9,0,0,0,4.08-1.33,43,43,0,0,0,20.68-24.33c3.12-9.79,2.21-20.33-1.77-29.9-3.48-8.35-9.29-16.34-9.34-25.17,0-7,3.59-13.67,4.23-20.64.78-8.46-4.24-21.91-14.45-25.6C706.66,69.68,701.05,72.49,698,76.65Z" transform="translate(0.01 0)"/><path class="cls-f-4" d="M764.52,374.07c-12,.63-23.31,5.78-33.82,11.63s-20.68,12.5-32,16.6" transform="translate(0.01 0)"/><path class="cls-f-4" d="M757.06,402.36a49.51,49.51,0,0,0-31.17,15.15c-2.92,3.09-5.43,6.55-8.47,9.52a37.55,37.55,0,0,1-16.72,9.46" transform="translate(0.01 0)"/><path class="cls-f-4" d="M759.52,423.89A54.38,54.38,0,0,0,734.46,439c-1.84,2-3.52,4.12-5.37,6.1-9.93,10.71-24,16.33-37.57,21.71" transform="translate(0.01 0)"/><path class="cls-f-5" d="M758.52,125.31A245.72,245.72,0,0,0,761,154c1.1,6.77,2.68,12.8,5,15.49,6.57,7.83-32.2,18.35-32.2,18.35l-22.9-17.75s18.15-16.7,9.69-33S758.52,125.31,758.52,125.31Z" transform="translate(0.01 0)"/><path class="cls-f-4" d="M682.92,300.24h91.6c-2.56-6.92-4.25-12-4.25-12l-86.64,4.95Z" transform="translate(0.01 0)"/><path class="cls-f-3" d="M677,298.59h97.92c-2.75-9.84,0-18.95,3.92-26a57.65,57.65,0,0,1,10.26-13.3l.67-.61L824,251.11l1.84-.41s.28-62.16-21.73-70.69-35.21-20.07-35.21-20.07l-30.25,9.35L716.35,158c-7.15,7.7-26.13,4.67-26.13,4.67-31.08,3.59-31.08,27-31.08,27S677.29,232,678.67,232,677,298.59,677,298.59Z" transform="translate(0.01 0)"/><path class="cls-f-4" d="M710.83,259.08s-20-4.44-26.77-12.18" transform="translate(0.01 0)"/><path class="cls-f-4" d="M811.52,235.88l-23.17,19a39.59,39.59,0,0,0,.77,4.46l.67-.61L824,251.16Z" transform="translate(0.01 0)"/><path class="cls-f-4" d="M748.8,292s5.07,2.85,12.84,6.6h13.3c-2.75-9.84,0-18.95,3.92-26L755.41,265C763.38,272.46,748.8,292,748.8,292Z" transform="translate(0.01 0)"/><path class="cls-f-3" d="M672.89,182.25l-13.75,7.42-13.48,34.14s-14,37.4-12.65,47.31c0,0-5,23.38,3.85,27.5L659.77,309a2.12,2.12,0,0,0,2.75-2.93c-3.26-6.19-6.86-15.87-1.18-21.19l-6.6-13.75,23.93-39.06,8-13.48Z" transform="translate(0.01 0)"/><path class="cls-f-4" d="M703.52,251.26c1.19,4.86,5.21,12.33,18.52,15.15l14.64,12,15.54,7,6.33,2.87,2.68-19.39-6.1-3.34-7.1-3.88s-16-29.07-41.44-16.8A5.64,5.64,0,0,0,703.52,251.26Z" transform="translate(0.01 0)"/><path class="cls-f-5" d="M704.3,249.61c1.18,4.86,5.2,12.33,18.51,15.15l14.65,12,15.54,7,6.33,2.87L762,267.24l-6.1-3.34L748.8,260s-16-29.07-41.43-16.8A5.61,5.61,0,0,0,704.3,249.61Z" transform="translate(0.01 0)"/><circle class="cls-f-4" cx="732.92" cy="115" r="35.48"/><circle class="cls-f-5" cx="732.92" cy="114.17" r="35.48"/><path class="cls-f-4" d="M754.89,190l-10.67-20.74s15.62-6.3,16.76-13.62,14.95,8.58,12,13.84S754.89,190,754.89,190Z" transform="translate(0.01 0)"/><path class="cls-f-3" d="M754.89,188.33l-10.67-20.74S759.84,161.29,761,154s14.95,8.58,12,13.84S754.89,188.33,754.89,188.33Z" transform="translate(0.01 0)"/><path class="cls-f-9" d="M667.58,241.88l59,79.27S704.8,333,674.82,311.81l-12.93-15.4L625,234.25Z" transform="translate(0.01 0)"/><path class="cls-f-5" d="M656,285l5.36-.14s32.8-31.84,40.84-15.75-20.42,31.15-20.42,31.15L673.1,305l-11.35,3.3-7.22-9.7Z" transform="translate(0.01 0)"/><path class="cls-f-4" d="M663.89,302.17c.49,1.83,1,3.85.14,5.55a2.15,2.15,0,0,1-1,1.06,2.44,2.44,0,0,1-1.16.17,11.35,11.35,0,0,1-7.4-3.67,34.15,34.15,0,0,1-4.8-6.93c-1.46-2.55-3-5.38-2.45-8.27.58-3.16,3.41-5.35,6.09-7.13,5.44-3.59,5.57.6,6.81,5.23Z" transform="translate(0.01 0)"/><path class="cls-f-3" d="M663.07,302.17c.49,1.83,1,3.85.13,5.55a2.15,2.15,0,0,1-1,1.06A2.44,2.44,0,0,1,661,309a11.28,11.28,0,0,1-7.4-3.67,33.75,33.75,0,0,1-4.8-6.93c-1.47-2.55-3-5.38-2.45-8.27.57-3.16,3.4-5.35,6.08-7.13,5.44-3.59,5.58.6,6.82,5.23Z" transform="translate(0.01 0)"/><polygon class="cls-f-4" points="678.68 232.03 681.42 227.39 679.02 236.01 678.68 232.03"/><path class="cls-f-4" d="M753,283.81l6.33,2.87L762,267.29l-6.1-3.34C760.12,268.7,756.44,277.62,753,283.81Z" transform="translate(0.01 0)"/><path class="cls-f-4" d="M778.38,261.25s-20.42,1.24-29.09-4.33" transform="translate(0.01 0)"/><g class="cls-f-7"><path d="M775.84,274.27A57.65,57.65,0,0,1,786.1,261a28.16,28.16,0,0,1,3-1.65L821,252.81l1.84-.41s.28-62.16-21.73-70.69a132.08,132.08,0,0,1-34.31-19.33l2.41-.74s13.2,11.55,35.2,20.07,21.73,70.69,21.73,70.69h-3.3l-32.61,6.24s-1.4,1.36-1.83,1.76a62.69,62.69,0,0,0-10.41,13.77,34.5,34.5,0,0,0-2.73,26.09h-3.3C769.16,290.4,772,281.29,775.84,274.27Z" transform="translate(0.01 0)"/><path d="M688.91,164.58l1.58-.22a58.36,58.36,0,0,0,6.73.57A62.38,62.38,0,0,1,688.91,164.58Z" transform="translate(0.01 0)"/><path d="M735.6,171l-20.15-10.16a10.08,10.08,0,0,0,1.18-1.08l21,10.64Z" transform="translate(0.01 0)"/></g><path class="cls-f-3" d="M812.34,234.23l13.48,16.5,2.75,44.84s3.57,22.82-22.56,17.32-56.38-22.55-56.38-22.55,14.58-19.53,6.6-26.95l37.41,12.1s6.32-1.38,1.37-6.88-5.83-15.4-5.83-15.4Z" transform="translate(0.01 0)"/><path class="cls-f-4" d="M818.39,281.54l7.43,8.52A10.71,10.71,0,0,1,818.39,281.54Z" transform="translate(0.01 0)"/><polygon class="cls-f-4" points="805.75 280.16 817.3 295.02 811.53 296.39 805.75 280.16"/><path class="cls-f-4" d="M690.52,97.88c-1.27-3.1-.3-6.69,1.23-9.67s3.62-5.7,4.77-8.86c1.7-4.7,1.18-10,3-14.65,3.26-8.14,12.55-11.78,20.87-14.55,2.46-.82,5.08-1.64,7.6-1,3.33.8,5.55,3.85,8.3,5.9,11.31,8.43,29.68-.84,40.6,8.07,4.18,3.42,6.22,8.88,6.85,14.25s0,10.78-.07,16.18c-.18,9.46,1.59,19.8,8.67,26.07,2.13,1.89,4.65,3.31,6.72,5.26s3.73,4.69,3.36,7.51a26.59,26.59,0,0,1-1.13,3.82c-1.41,4.93.69,10.16,3.25,14.59,7.64,13.22,21.11,24.11,36.38,24.42-1,7.7-9,12.17-16.13,15.33-9,4-18.56,8-28.44,7.47s-20.13-6.87-21.83-16.61c-.6-3.33-.52-7.43-3.42-9.18-1.75-1.06-4-.8-5.9-1.59-2.73-1.15-4.08-4.19-5-7a63.23,63.23,0,0,1-2.93-18c-.12-7.23.84-15.13-3.26-21.08-3.8-5.52-10.55-8.31-14.92-13.38-4-4.69-8.44-10.36-15.06-11.26C714.91,98.69,696,111.14,690.52,97.88Z" transform="translate(0.01 0)"/><path class="cls-f-8" d="M690.52,96.23c-1.27-3.1-.3-6.69,1.23-9.67s3.62-5.7,4.77-8.86c1.7-4.7,1.18-10,3-14.65,3.26-8.14,12.55-11.78,20.87-14.55,2.46-.82,5.08-1.64,7.6-1,3.33.8,5.55,3.85,8.3,5.9,11.31,8.43,29.68-.84,40.6,8.07,4.18,3.42,6.22,8.88,6.85,14.25s0,10.78-.07,16.18c-.18,9.46,1.59,19.8,8.67,26.07,2.13,1.89,4.65,3.31,6.72,5.26s3.73,4.69,3.36,7.51a26.59,26.59,0,0,1-1.13,3.82c-1.41,4.93.69,10.16,3.25,14.59,7.64,13.22,21.11,24.11,36.38,24.42-1,7.7-9,12.17-16.13,15.33-9,4-18.56,8-28.44,7.47s-20.13-6.87-21.83-16.56c-.6-3.33-.52-7.43-3.42-9.18-1.75-1.06-4-.8-5.9-1.59-2.73-1.15-4.08-4.19-5-7a63.23,63.23,0,0,1-2.93-18c-.12-7.23.84-15.13-3.26-21.08-3.8-5.52-10.55-8.31-14.92-13.38-4-4.69-8.44-10.36-15.06-11.26C714.91,97,696,109.49,690.52,96.23Z" transform="translate(0.01 0)"/><path class="cls-f-4" d="M715.7,187.4,736,170.9s-13.93-7.55-15.59-14-12.8,3.06-11.66,8.83S715.7,187.4,715.7,187.4Z" transform="translate(0.01 0)"/><path class="cls-f-3" d="M716.52,184.93l20.34-16.51s-13.92-7.55-15.58-14-12.8,3.05-11.67,8.83S716.52,184.93,716.52,184.93Z" transform="translate(0.01 0)"/><circle class="cls-f-4" cx="737.67" cy="182.25" r="1.62"/><circle class="cls-f-4" cx="737.67" cy="191.22" r="1.62"/><circle class="cls-f-4" cx="737.67" cy="200.2" r="1.62"/><g class="cls-f-7"><path d="M698.75,73.3c1.6-4.42,1.26-9.37,2.76-13.81a15.59,15.59,0,0,0-1.72,3.16c-1.86,4.64-1.33,10-3,14.65a.82.82,0,0,1-.11.28A26,26,0,0,0,698.75,73.3Z" transform="translate(0.01 0)"/><path d="M827.07,184.47c-9,4-18.56,8-28.45,7.47s-20.19-6.84-22-16.58c-.59-3.33-.52-7.43-3.41-9.18-1.75-1.06-4-.8-5.91-1.59-2.73-1.15-4.08-4.19-5-7a62.84,62.84,0,0,1-2.94-18c-.12-7.23.84-15.13-3.26-21.08-3.8-5.52-10.54-8.31-14.92-13.38-4-4.69-8.43-10.36-15.06-11.26-9.09-1.24-28,11.21-33.45-2A10.48,10.48,0,0,1,693,84.2c-.39.66-.77,1.32-1.12,2-1.53,3-2.5,6.57-1.23,9.67,5.41,13.26,24.36.81,33.45,2,6.63.9,11,6.57,15.06,11.26,4.38,5.07,11.12,7.86,14.92,13.38,4.1,6,3.14,13.85,3.26,21.08a62.84,62.84,0,0,0,2.94,18c.89,2.82,2.24,5.86,5,7,1.89.79,4.16.53,5.91,1.59,2.89,1.75,2.82,5.85,3.41,9.18,1.76,9.74,12.07,16.08,22,16.58s19.41-3.44,28.45-7.47c6.51-2.9,13.76-6.91,15.71-13.5C837.66,179.27,832.14,182.21,827.07,184.47Z" transform="translate(0.01 0)"/></g><path class="cls-f-10" d="M531.77,304.35H632.35a7.93,7.93,0,0,1,7.92,7.92v8.25H531.77V304.35Z" transform="translate(0.01 0)"/><path class="cls-f-4" d="M531.77,304.35H632.35a7.93,7.93,0,0,1,7.92,7.92v8.25H531.77V304.35Z" transform="translate(0.01 0)"/><polygon class="cls-f-11" points="532.94 297.51 599.44 266.85 599.44 276.01 533.94 307.51 532.94 297.51"/><polygon class="cls-f-4" points="532.94 297.51 599.44 266.85 599.44 276.01 533.94 307.51 532.94 297.51"/><rect class="cls-f-9" x="533.11" y="318.35" width="132.67" height="1.33"/><rect class="cls-f-9" x="533.11" y="316.72" width="132.67" height="1.33"/><rect class="cls-f-9" x="533.11" y="315.1" width="132.67" height="1.33"/><polygon class="cls-f-9" points="614.69 259.01 509.72 324.31 511.74 327.81 624.19 265.76 614.69 259.01"/><polygon class="cls-f-12" points="610.54 261.41 509.72 324.31 511.74 327.81 619.88 268.25 610.54 261.41"/><polygon class="cls-f-13" points="610.54 261.41 509.72 324.31 511.74 327.81 619.88 268.25 610.54 261.41"/><rect class="cls-f-9" x="533.11" y="313.47" width="132.67" height="1.33"/><rect class="cls-f-9" x="533.11" y="311.85" width="132.67" height="1.33"/><rect class="cls-f-9" x="533.11" y="310.22" width="132.67" height="1.33"/><rect class="cls-f-9" x="533.11" y="308.6" width="132.67" height="1.33"/><polygon class="cls-f-11" points="608.94 266.85 533.49 302.99 534.44 315.6 547.61 312.43 608.61 276.51 608.94 266.85"/><path class="cls-f-10" d="M535.6,309.68H641.85a7.93,7.93,0,0,1,7.92,7.92v3.92H535.6V309.68Z" transform="translate(0.01 0)"/><rect class="cls-f-10" x="351.82" y="271.35" width="64.46" height="27.83"/><rect class="cls-f-4" x="351.82" y="271.34" width="64.45" height="27.84"/><rect class="cls-f-4" x="351.82" y="271.34" width="13.29" height="24.34"/><path class="cls-f-11" d="M277.43,268s21.67-3.33,41.67-13.16,43.5,7.16,44,13.16v27.67H277.43Z" transform="translate(0.01 0)"/><rect class="cls-f-4" x="284.78" y="273.76" width="11.33" height="6.75"/><rect class="cls-f-4" x="284.78" y="284.43" width="11.33" height="6.75"/><polygon class="cls-f-10" points="277.44 293.51 277.44 321.51 277.44 718.51 538.44 718.51 538.44 321.51 538.44 293.51 277.44 293.51"/><polygon class="cls-f-4" points="518.78 440.51 514.11 440.51 509.78 417.51 308.11 419.18 301.78 440.51 298.11 440.51 302.78 412.85 515.11 412.85 518.78 440.51"/><polygon class="cls-f-11" points="518.78 439.51 514.11 439.51 509.78 416.51 308.11 418.18 301.78 439.51 298.11 439.51 302.78 411.85 515.11 411.85 518.78 439.51"/><rect class="cls-f-4" x="504.44" y="321.51" width="34" height="66"/><polygon class="cls-f-4" points="502.49 346.01 313.44 346.01 320.14 322.51 498.63 322.51 502.49 346.01"/><polygon class="cls-f-11" points="500.69 345.01 314.94 345.01 321.52 321.51 496.9 321.51 500.69 345.01"/><polygon class="cls-f-4" points="381.78 341.43 321.86 341.43 326.61 325.85 379.66 325.85 381.78 341.43"/><polygon class="cls-f-14" id="color-section" points="380.19 341.01 323.44 341.01 327.94 326.26 378.19 326.26 380.19 341.01"/><polygon class="cls-f-10" points="538.44 557.01 538.44 552.76 340.94 552.76 336.69 552.76 277.44 552.76 277.44 557.01 336.69 557.01 336.69 638.26 277.44 638.26 277.44 642.51 336.69 642.51 336.69 673.26 277.44 673.26 277.44 677.51 336.69 677.51 336.69 718.51 340.94 718.51 340.94 677.51 538.44 677.51 538.44 673.26 340.94 673.26 340.94 642.51 538.44 642.51 538.44 638.26 340.94 638.26 340.94 557.01 538.44 557.01"/><rect class="cls-f-4" x="313.36" y="566.01" width="19.42" height="25.5"/><rect class="cls-f-11" x="314.69" y="567.76" width="16.75" height="22"/><rect class="cls-f-4" x="441.07" y="566.01" width="19.42" height="25.5"/><rect class="cls-f-11" x="442.4" y="567.76" width="16.75" height="22"/><rect class="cls-f-4" x="512.57" y="566.01" width="19.42" height="25.5"/><rect class="cls-f-11" x="513.9" y="567.76" width="16.75" height="22"/><rect class="cls-f-4" x="512.57" y="645.01" width="19.42" height="25.5"/><rect class="cls-f-11" x="513.9" y="646.76" width="16.75" height="22"/><rect class="cls-f-4" x="512.57" y="684.43" width="19.42" height="25.5"/><rect class="cls-f-11" x="513.9" y="686.18" width="16.75" height="22"/><rect class="cls-f-15" x="336.69" y="552.76" width="4.25" height="165.75"/><path class="cls-f-4" d="M538.43,557v-4.2h-261v4.25h59.25v81.25H277.43v4.25h59.25v30.75H277.43v4.25h59.25v41h4.25v-41h197.5v-4.25H340.93v-30.8h197.5v-4.25H472.84V557Zm-69.84,81.25H340.93V557H468.59Z" transform="translate(0.01 0)"/><rect class="cls-f-10" x="174.91" y="451.27" width="6" height="135"/><path class="cls-f-16" d="M218.59,585.86l-.38,6.08-.53,8.58-.22,3.58-.53,8.59-.23,3.58-.53,8.58-6,97.61A16.53,16.53,0,0,1,193.67,738H162.19a16.52,16.52,0,0,1-16.49-15.51l-6.06-97.65-.53-8.58-.22-3.58-.54-8.59-.22-3.58-.53-8.58-.38-6.08a8.56,8.56,0,0,1,8-9.07l.54,0h64.28a8.56,8.56,0,0,1,8.56,8.56C218.61,585.48,218.6,585.67,218.59,585.86Z" transform="translate(0.01 0)"/><polygon class="cls-f-11" points="218.22 591.94 217.69 600.52 138.14 600.52 137.61 591.94 218.22 591.94"/><polygon class="cls-f-11" points="217.47 604.1 216.94 612.69 138.9 612.69 138.36 604.1 217.47 604.1"/><polygon class="cls-f-11" points="216.71 616.27 216.18 624.85 139.65 624.85 139.12 616.27 216.71 616.27"/><path class="cls-f-14" id="color-section" d="M128.44,501.87c34.92,25.26,49.46,64.78,49.46,64.78s-42.08-1.45-77-26.71-49.46-64.77-49.46-64.77S93.52,476.61,128.44,501.87Z" transform="translate(0.01 0)"/><path class="cls-f-17" d="M51.44,475.17s43.67,24.24,57.69,44.31,68.77,47.17,68.77,47.17" transform="translate(0.01 0)"/><path class="cls-f-14" id="color-section" d="M151,451c19,13.75,26.92,35.26,26.92,35.26S155,485.44,136,471.69s-26.92-35.25-26.92-35.25S132,437.22,151,451Z" transform="translate(0.01 0)"/><path class="cls-f-17" d="M109.07,436.44s23.77,13.19,31.4,24.12,37.43,25.67,37.43,25.67" transform="translate(0.01 0)"/><path class="cls-f-14" id="color-section" d="M205.52,485.13c-21.83,24-26.45,55.35-26.45,55.35s30.78-7.55,52.61-31.54,26.46-55.35,26.46-55.35S227.36,461.14,205.52,485.13Z" transform="translate(0.01 0)"/><path class="cls-f-17" d="M258.14,453.59s-28.44,24.59-35.62,41.54-43.4,45.35-43.4,45.35" transform="translate(0.01 0)"/>

</symbol>
</svg>