<svg style="display: none"  id="_80df28fc-b448-4013-8ee3-62e531de40a8" data-name="80df28fc-b448-4013-8ee3-62e531de40a8" xmlns="http://www.w3.org/2000/svg" xmlns:xlink="http://www.w3.org/1999/xlink" viewBox="0 0 1113.56 840.44"><defs>

<style>

.cls-e-1,.cls-e-12,.cls-e-4{fill:#6c63ff;}

.cls-e-1,.cls-e-26,.cls-e-7{opacity:0.1;}.cls-e-1,.cls-e-11,.cls-e-12,.cls-e-26,.cls-e-33,.cls-e-35,.cls-e-5,.cls-e-7{isolation:isolate;}.cls-e-11,.cls-e-12,.cls-e-2,.cls-e-35,.cls-e-5{opacity:0.5;}.cls-e-3{fill:none;stroke:#535461;stroke-miterlimit:10;stroke-width:2px;}.cls-e-5,.cls-e-9{fill:#fff;}.cls-e-6{fill:#474059;}.cls-e-8{fill:url(#linear-gradient);}.cls-e-10,.cls-e-11{fill:#c0bccf;}.cls-e-13{fill:url(#linear-gradient-2);}.cls-e-14{fill:#493545;}.cls-e-15{fill:#c77485;}.cls-e-16{fill:#444176;}.cls-e-17{fill:url(#linear-gradient-3);}.cls-e-18{fill:#f1d2d7;}.cls-e-19{fill:#e82127;}.cls-e-20{fill:url(#linear-gradient-4);}.cls-e-21{fill:url(#linear-gradient-5);}.cls-e-22{fill:#f7c4a7;}.cls-e-23{fill:#a37645;}.cls-e-24{fill:#53526b;}.cls-e-25{fill:#555388;}.cls-e-26{fill:url(#linear-gradient-6);}.cls-e-27{fill:url(#linear-gradient-7);}.cls-e-28{fill:#efb7b9;}.cls-e-29{fill:#444053;}.cls-e-30{fill:#b07473;}.cls-e-31{fill:#e1e7ef;}.cls-e-32{fill:#67647e;}.cls-e-33{opacity:0.03;}.cls-e-34{fill:#72351c;}.cls-e-35{fill:url(#linear-gradient-8);}.cls-e-36{fill:#69f0ae;}
</style>

<linearGradient id="linear-gradient" x1="514.28" y1="51.41" x2="514.28" y2="806.71" gradientTransform="matrix(1, 0, 0, -1, 0, 846.01)" gradientUnits="userSpaceOnUse"><stop offset="0" stop-color="gray" stop-opacity="0.25"/><stop offset="0.54" stop-color="gray" stop-opacity="0.12"/><stop offset="1" stop-color="gray" stop-opacity="0.1"/></linearGradient><linearGradient id="linear-gradient-2" x1="353.42" y1="316.23" x2="353.42" y2="437.27" gradientTransform="matrix(1, 0, 0, -1, -43.2, 822.14)" xlink:href="#linear-gradient"/><linearGradient id="linear-gradient-3" x1="301" y1="157.67" x2="403.49" y2="157.67" gradientTransform="matrix(1, 0, 0, -1, -43.2, 822.14)" xlink:href="#linear-gradient"/><linearGradient id="linear-gradient-4" x1="478.6" y1="277.87" x2="478.6" y2="791.28" gradientTransform="matrix(1, 0, 0, -1, -43.2, 822.14)" xlink:href="#linear-gradient"/><linearGradient id="linear-gradient-5" x1="-3206.34" y1="578.3" x2="-3206.34" y2="699.01" gradientTransform="translate(-2901.94 822.14) rotate(180)" xlink:href="#linear-gradient"/><linearGradient id="linear-gradient-6" x1="807.11" y1="519.77" x2="807.11" y2="519.95" gradientTransform="matrix(1, 0, 0, -1, -88.3, 813.99)" xlink:href="#linear-gradient"/><linearGradient id="linear-gradient-7" x1="840.35" y1="427.03" x2="840.35" y2="504.97" gradientTransform="matrix(1, 0, 0, 1, 0, 0)" xlink:href="#linear-gradient"/><linearGradient id="linear-gradient-8" x1="201.4" y1="328.8" x2="201.4" y2="269.2" gradientTransform="translate(1127.31 -42.37) rotate(90)" xlink:href="#linear-gradient"/></defs>

<symbol id="view-svg">
<title>View My Resume</title>
        

<ellipse class="cls-e-1" id="color-section" cx="792.82" cy="810.48" rx="175.82" ry="29.96"/><path class="cls-e-1" id="color-section" d="M1047,458.22c-39.15,53.72-26.23,130.4-3.6,191.49,7.58,20.45,16.19,42.08,12.26,64.33-4.8,27.2-27.36,47.58-50.81,58.68-42.75,20.23-93.25,17-131.49-8.49-33-22-56.23-58.56-89.87-79.51-56.3-35.05-129.39-19.39-192,7.37C547.11,711,498.55,735.4,455.35,717.92c-30.4-12.3-50.87-43.61-61.64-77.08-5.2-16.16-8.84-33.7-19.2-46.35-6.16-7.52-14.3-12.76-22.67-17.14-76.39-40-174.65-15-248.71-59.63-50-30.14-81.12-88.63-94-150.12S-.65,241.2,4.5,177.4C8.16,132.06,14,83.61,41.21,48,70,10.31,118.36-4.66,161.57,1.24s82,29.9,115.84,58.55C319.8,95.53,358.8,140.4,411.52,154c35.91,9.24,74.06,2.7,111.39-.19,62.4-4.82,124.58.73,186.38,7,59.16,6,118.73,12.7,174.76,32.37,39.65,13.92,71.08,40.23,108.41,58.21,24.33,11.72,51.1,14.44,74,29.58,28.26,18.65,53.8,51.69,45.51,91.34C1104.14,410,1067.8,429.71,1047,458.22Z" transform="translate(0 0.01)"/><g class="cls-e-2"><path class="cls-e-3" d="M855,703.24s3.3-97.76,56.19-153c22.2-23.18,36.78-52.62,40.64-84.48a249.6,249.6,0,0,0,1.24-45.57" transform="translate(0 0.01)"/><path class="cls-e-4" id="color-section" d="M986.19,385.2c-3.62,10.92-33.88,36-33.88,36S943,383,946.66,372.08a20.82,20.82,0,1,1,39.53,13.11h0Z" transform="translate(0 0.01)"/><path class="cls-e-4" id="color-section" d="M998.8,456.5c-9,7.2-48,11.82-48,11.82s13-37.11,22-44.3a20.82,20.82,0,0,1,27.34,31.41C999.71,455.8,999.26,456.16,998.8,456.5Z" transform="translate(0 0.01)"/><path class="cls-e-4" id="color-section" d="M963.12,559.34c-11.38,1.68-47.41-14-47.41-14s29.94-25.48,41.32-27.16a20.82,20.82,0,1,1,6.09,41.2h0Z" transform="translate(0 0.01)"/><path class="cls-e-4" id="color-section" d="M918.59,631.08c-10.93,3.58-49.1-5.82-49.1-5.82s25.21-30.17,36.14-33.75a20.83,20.83,0,1,1,13,39.57Z" transform="translate(0 0.01)"/><path class="cls-e-4" id="color-section" d="M908.59,456.67c5.31,10.2,39.21,30.17,39.21,30.17s3.08-39.19-2.23-49.4a20.82,20.82,0,0,0-36.94,19.22Z" transform="translate(0 0.01)"/><path class="cls-e-4" id="color-section" d="M857.58,541.22c8.12,8.15,46.4,17.07,46.4,17.07s-8.79-38.32-16.9-46.47a20.82,20.82,0,0,0-29.5,29.39h0Z" transform="translate(0 0.01)"/><path class="cls-e-4" id="color-section" d="M819.28,630.21c6.62,9.4,42.85,24.67,42.85,24.67s-2.18-39.25-8.81-48.66a20.82,20.82,0,1,0-34.79,22.88c.25.38.51.75.79,1.12Z" transform="translate(0 0.01)"/><path class="cls-e-3" d="M866.61,662.78s-30-43.64-24.74-84.7a80.24,80.24,0,0,0-9.48-49.86A135.55,135.55,0,0,0,818.27,508" transform="translate(0 0.01)"/><path class="cls-e-4" id="color-section" d="M821.44,482.08c1.93,5.92-3.17,26.58-3.17,26.58S801.94,495,800,489.09a11.27,11.27,0,0,1,21.43-7Z" transform="translate(0 0.01)"/><path class="cls-e-4" id="color-section" d="M849.87,509.07c-1.59,6-17.11,20.59-17.11,20.59s-6.28-20.34-4.69-26.36a11.28,11.28,0,0,1,21.8,5.77Z" transform="translate(0 0.01)"/><path class="cls-e-4" id="color-section" d="M867.41,565.33c-4.41,4.39-25.16,9.14-25.16,9.14s4.84-20.73,9.26-25.12a11.28,11.28,0,1,1,15.9,16Z" transform="translate(0 0.01)"/><path class="cls-e-4" id="color-section" d="M871.1,610.9c-3.61,5.07-23.3,13.24-23.3,13.24s1.27-21.25,4.88-26.32a11.27,11.27,0,1,1,18.38,13.06h0Z" transform="translate(0 0.01)"/><path class="cls-e-4" id="color-section" d="M810.64,538.14c5.59,2.74,26.76.54,26.76.54s-11.27-18.06-16.86-20.79a11.27,11.27,0,0,0-9.9,20.25Z" transform="translate(0 0.01)"/><path class="cls-e-4" id="color-section" d="M815.63,591.39c6.16.94,25.7-7.49,25.7-7.49S825.17,570,819,569.14a11.27,11.27,0,1,0-3.39,22.29Z" transform="translate(0 0.01)"/><path class="cls-e-4" id="color-section" d="M827.57,642.46c5.91,2,26.6-3,26.6-3s-13.58-16.39-19.49-18.36a11.28,11.28,0,1,0-7.11,21.4Z" transform="translate(0 0.01)"/><path class="cls-e-5" d="M821.44,482.08c1.93,5.92-3.17,26.58-3.17,26.58S801.94,495,800,489.09a11.27,11.27,0,0,1,21.43-7Z" transform="translate(0 0.01)"/><path class="cls-e-5" d="M849.87,509.07c-1.59,6-17.11,20.59-17.11,20.59s-6.28-20.34-4.69-26.36a11.28,11.28,0,0,1,21.8,5.77Z" transform="translate(0 0.01)"/><path class="cls-e-5" d="M867.41,565.33c-4.41,4.39-25.16,9.14-25.16,9.14s4.84-20.73,9.26-25.12a11.28,11.28,0,1,1,15.9,16Z" transform="translate(0 0.01)"/><path class="cls-e-5" d="M871.1,610.9c-3.61,5.07-23.3,13.24-23.3,13.24s1.27-21.25,4.88-26.32a11.27,11.27,0,1,1,18.38,13.06h0Z" transform="translate(0 0.01)"/><path class="cls-e-5" d="M810.64,538.14c5.59,2.74,26.76.54,26.76.54s-11.27-18.06-16.86-20.79a11.27,11.27,0,0,0-9.9,20.25Z" transform="translate(0 0.01)"/><path class="cls-e-5" d="M815.63,591.39c6.16.94,25.7-7.49,25.7-7.49S825.17,570,819,569.14a11.27,11.27,0,1,0-3.39,22.29Z" transform="translate(0 0.01)"/><path class="cls-e-5" d="M827.57,642.46c5.91,2,26.6-3,26.6-3s-13.58-16.39-19.49-18.36a11.28,11.28,0,1,0-7.11,21.4Z" transform="translate(0 0.01)"/><polygon class="cls-e-6" points="811.1 781.12 896.43 781.12 917.77 650.99 789.77 650.99 811.1 781.12"/><polygon class="cls-e-7" points="806.1 650.99 826.03 772.59 897.83 772.59 896.43 781.12 811.1 781.12 789.77 650.99 806.1 650.99"/></g><rect class="cls-e-8" x="201.28" y="39.3" width="626" height="755.3"/><rect class="cls-e-9" x="209.28" y="48.96" width="610" height="736"/><rect class="cls-e-10" x="459.24" y="137.96" width="246" height="12"/><rect class="cls-e-10" x="459.24" y="168.92" width="246" height="12"/><rect class="cls-e-4" id="color-section" x="505.28" y="207.96" width="128" height="12"/><rect class="cls-e-11" x="446.28" y="372.96" width="246" height="12"/><rect class="cls-e-11" x="446.28" y="410.96" width="246" height="12"/><rect class="cls-e-12" id="color-section" x="505.28" y="448.96" width="128" height="12"/><rect class="cls-e-11" x="446.28" y="613.96" width="246" height="12"/><rect class="cls-e-11" x="446.28" y="651.96" width="246" height="12"/><rect class="cls-e-12" id="color-section" x="505.28" y="689.96" width="128" height="12"/><g class="cls-e-2"><path class="cls-e-10" d="M379.23,437.89a67.74,67.74,0,0,1-16.37,44.25c-.52.61-1.06,1.21-1.61,1.8q-.42.46-.84.9a66.53,66.53,0,0,1-7.26,6.59l-.18.13a66.5,66.5,0,0,1-12.9,7.92h0a66.23,66.23,0,0,1-7.24,2.9l-.91.29c-.56.19-1.14.36-1.71.52l-.23.07a68.27,68.27,0,0,1-37.55,0h-.1c-1-.29-2-.59-2.92-.92l-.85-.3a65.68,65.68,0,0,1-9.4-4.16l-.19-.1a67.48,67.48,0,0,1-13.32-9.43l-.33-.31a62.1,62.1,0,0,1-5.81-6c-.24-.27-.47-.55-.7-.83-.44-.52-.86-1.06-1.28-1.6a68,68,0,1,1,121.7-41.72Z" transform="translate(0 0.01)"/><path class="cls-e-13" d="M360.62,460.83l-5.16-2.32a20.6,20.6,0,0,0,.1-2.36c0-.66,0-1.33,0-2-.51-5.26-3.86-9.84-6.23-14.65a41.56,41.56,0,0,1-4.07-14c-.63-6,0-12.22-2.2-17.86-1.79-4.55-5.33-8.35-9.12-11.71a46.52,46.52,0,0,0-14.65-9.29c-5.54-2-11.91-2.51-17.45-.47-5,1.84-8.85,5.51-12.57,9.08a42.35,42.35,0,0,0-7.1,8.08c-2.27,3.72-3.24,8-4,12.22A184.68,184.68,0,0,0,275.71,436c-.39,5.71-1,12.19-5.88,15.69-2.38,1.71-5.73,2.67-6.82,5.26a5.27,5.27,0,0,0-.36,2.45,9,9,0,0,0,.15,2.07c.07.4.15.79.25,1.19a87.78,87.78,0,0,0-3.52,10.68c-.73,2.7-1.4,5.35-2,7.92H260l9.32.22h.13l10,.23h.05l9.32.22h.23l2.69.19h.88l37.27.86h.2l2.48.06h.87l7.46.17h0l11,.25H352l8.28.2h2.58l-.44-8.68C364.23,461.66,360.62,460.83,360.62,460.83Zm-41.87-1.06c0,7.36-7.88,16.37-7.88,16.37l-7.93-10.8.29-.42,7.64,10.4s7.88-9,7.88-16.37a8.43,8.43,0,0,1,.63-1.08l.18.56A9.75,9.75,0,0,0,318.75,459.77Zm12.12,28.88a6,6,0,0,0-.07-1.12c-.07-.37-.06-.7-.11-1.06s-.09-.71-.14-1.07-.12-.71-.19-1.07-.14-.71-.22-1.07a1.68,1.68,0,0,0-.08-.36q-.17-.7-.36-1.41c-.13-.47-.21-.76-.33-1.13a1.54,1.54,0,0,0-.16-.5c-.06-.16-.17-.54-.26-.81l-.18-.52c-.08-.23-.16-.47-.25-.7-.15-.42-.31-.83-.47-1.25s-.33-.83-.5-1.24c-.34-.84-.71-1.67-1.08-2.51-1.45-3.24-3.08-6.43-4.58-9.59a48.26,48.26,0,0,1-2.14-5.08l-.19.25a9.85,9.85,0,0,0-.81,1.35c0,7.36-7.88,16.37-7.88,16.37l-7.93-10.8-6.94,10c-1,.5-2,2.2-2.78,4.62-.22.65-.43,1.37-.63,2.12-.14.51-.27,1-.39,1.57-.07.27-.13.54-.19.82l-.18.85v.13c-.12.58-.24,1.18-.35,1.79s-.24,1.31-.35,2q-.12.66-.21,1.29c-.14.83-.26,1.67-.38,2.51-.07.49-.14,1-.2,1.45l-.24,1.86c.51,1.53,1.08,3,1.67,4.54a7.38,7.38,0,0,1,.65,2.57,72.88,72.88,0,0,0,37.55,0,.14.14,0,0,1,0-.09,9.9,9.9,0,0,1-.24-2.55h0a64.21,64.21,0,0,1,1-7.16,25.78,25.78,0,0,0,.19-3.52v-.42c0-.38,0-.72-.05-1Zm0,0a6,6,0,0,0-.07-1.12c-.07-.37-.06-.7-.11-1.06s-.09-.71-.14-1.07-.12-.71-.19-1.07-.14-.71-.22-1.07a1.68,1.68,0,0,0-.08-.36q-.17-.7-.36-1.41c-.13-.47-.21-.76-.33-1.13a1.54,1.54,0,0,0-.16-.5c-.06-.16-.17-.54-.26-.81l-.18-.52c-.08-.23-.16-.47-.25-.7-.15-.42-.31-.83-.47-1.25s-.33-.83-.5-1.24c-.34-.84-.71-1.67-1.08-2.51-1.45-3.24-3.08-6.43-4.58-9.59a48.26,48.26,0,0,1-2.14-5.08l-.19.25a9.85,9.85,0,0,0-.81,1.35c0,7.36-7.88,16.37-7.88,16.37l-7.93-10.8-6.94,10c-1,.5-2,2.2-2.78,4.62-.22.65-.43,1.37-.63,2.12-.14.51-.27,1-.39,1.57-.07.27-.13.54-.19.82l-.18.85v.13c-.12.58-.24,1.18-.35,1.79s-.24,1.31-.35,2q-.12.66-.21,1.29c-.14.83-.26,1.67-.38,2.51-.07.49-.14,1-.2,1.45l-.24,1.86c.51,1.53,1.08,3,1.67,4.54a7.38,7.38,0,0,1,.65,2.57,72.88,72.88,0,0,0,37.55,0,.14.14,0,0,1,0-.09,9.9,9.9,0,0,1-.24-2.55h0a64.21,64.21,0,0,1,1-7.16,25.78,25.78,0,0,0,.19-3.52v-.42c0-.38,0-.72-.05-1Zm0,0a6,6,0,0,0-.07-1.12c-.07-.37-.06-.7-.11-1.06s-.09-.71-.14-1.07-.12-.71-.19-1.07-.14-.71-.22-1.07a1.68,1.68,0,0,0-.08-.36q-.17-.7-.36-1.41c-.13-.47-.21-.76-.33-1.13a1.54,1.54,0,0,0-.16-.5c-.06-.16-.17-.54-.26-.81l-.18-.52c-.08-.23-.16-.47-.25-.7-.15-.42-.31-.83-.47-1.25s-.33-.83-.5-1.24c-.34-.84-.71-1.67-1.08-2.51-1.45-3.24-3.08-6.43-4.58-9.59a48.26,48.26,0,0,1-2.14-5.08l-.19.25a9.85,9.85,0,0,0-.81,1.35c0,7.36-7.88,16.37-7.88,16.37l-7.93-10.8-6.94,10c-1,.5-2,2.2-2.78,4.62-.22.65-.43,1.37-.63,2.12-.14.51-.27,1-.39,1.57-.07.27-.13.54-.19.82l-.18.85v.13c-.12.58-.24,1.18-.35,1.79s-.24,1.31-.35,2q-.12.66-.21,1.29c-.14.83-.26,1.67-.38,2.51-.07.49-.14,1-.2,1.45l-.24,1.86c.51,1.53,1.08,3,1.67,4.54a7.38,7.38,0,0,1,.65,2.57,72.88,72.88,0,0,0,37.55,0,.14.14,0,0,1,0-.09,9.9,9.9,0,0,1-.24-2.55h0a64.21,64.21,0,0,1,1-7.16,25.78,25.78,0,0,0,.19-3.52v-.42c0-.38,0-.72-.05-1Zm0,0a6,6,0,0,0-.07-1.12c-.07-.37-.06-.7-.11-1.06s-.09-.71-.14-1.07-.12-.71-.19-1.07-.14-.71-.22-1.07a1.68,1.68,0,0,0-.08-.36q-.17-.7-.36-1.41c-.13-.47-.21-.76-.33-1.13a1.54,1.54,0,0,0-.16-.5c-.06-.16-.17-.54-.26-.81l-.18-.52c-.08-.23-.16-.47-.25-.7-.15-.42-.31-.83-.47-1.25s-.33-.83-.5-1.24c-.34-.84-.71-1.67-1.08-2.51-1.45-3.24-3.08-6.43-4.58-9.59a48.26,48.26,0,0,1-2.14-5.08l-.19.25a9.85,9.85,0,0,0-.81,1.35c0,7.36-7.88,16.37-7.88,16.37l-7.93-10.8-6.94,10c-1,.5-2,2.2-2.78,4.62-.22.65-.43,1.37-.63,2.12-.14.51-.27,1-.39,1.57-.07.27-.13.54-.19.82l-.18.85v.13c-.12.58-.24,1.18-.35,1.79s-.24,1.31-.35,2q-.12.66-.21,1.29c-.14.83-.26,1.67-.38,2.51-.07.49-.14,1-.2,1.45l-.24,1.86c.51,1.53,1.08,3,1.67,4.54a7.38,7.38,0,0,1,.65,2.57,72.88,72.88,0,0,0,37.55,0,.14.14,0,0,1,0-.09,9.9,9.9,0,0,1-.24-2.55h0a64.21,64.21,0,0,1,1-7.16,25.78,25.78,0,0,0,.19-3.52v-.42c0-.38,0-.72-.05-1Z" transform="translate(0 0.01)"/><rect class="cls-e-14" x="285.23" y="418.91" width="46" height="31"/><path class="cls-e-15" d="M338.87,453.09l-19.25,27.12-20.12-1.75s-26.25,1.74-8.75-18.37c8.41-9.67,11.16-17.73,11.75-23.48.64-6.22-1.25-9.76-1.25-9.76l21.87-2.62a16.22,16.22,0,0,0-.36,9.13C325.5,444.72,338.87,453.09,338.87,453.09Z" transform="translate(0 0.01)"/><path class="cls-e-7" d="M322.75,433.33a21.85,21.85,0,0,1-20.26,3.26c.64-6.22-1.25-9.76-1.25-9.76l21.87-2.62A16.28,16.28,0,0,0,322.75,433.33Z" transform="translate(0 0.01)"/><circle class="cls-e-15" cx="309.56" cy="415.03" r="21.87"/><path class="cls-e-7" d="M338.07,454.21l-.51-2-.44-1.76-.65-2.6-.12-.48-.1-.4s.52-1.57-2.91-1.06l-.64.11c-.54.11-1.17.26-1.89.46l-.65.2-.86.27h0a18.77,18.77,0,0,0-7.26,4.38,16.24,16.24,0,0,0-2.43,2.94l-.18.27a9.34,9.34,0,0,0-.63,1.16c0,7.88-7.88,17.5-7.88,17.5l-7.69-11.11-.15-.22-1.83-2.66-.65-.86-.22-.3-4-5.37-1-1.34-.33-.45-.49-.65-1.15-1.53-4.5,2.63-6,3.5-3.5,22.75v.63l.11,1.88.73,12.36v.17L279,497.75l.19.1a65.68,65.68,0,0,0,9.4,4.16l.85.3c1,.33,1.94.63,2.92.92,0,.15.06.3.08.45v-.43a68.27,68.27,0,0,0,37.55,0l.23-.07c.57-.16,1.15-.33,1.71-.52l.91-.29a66.23,66.23,0,0,0,7.24-2.9l.84-17.9.6-12.91v-.74Z" transform="translate(0 0.01)"/><path class="cls-e-9" d="M330.87,487.46a6.91,6.91,0,0,0-.07-1.2c-.07-.4-.06-.75-.11-1.13s-.09-.76-.14-1.14-.12-.76-.19-1.14-.14-.76-.22-1.14a1.72,1.72,0,0,0-.08-.38c-.11-.5-.23-1-.36-1.51s-.21-.81-.33-1.21a1.7,1.7,0,0,0-.16-.53c-.06-.17-.17-.58-.26-.87l-.18-.56c-.08-.25-.16-.5-.25-.75-.15-.45-.31-.89-.47-1.34s-.33-.89-.5-1.33c-.34-.9-.71-1.79-1.08-2.68-1.45-3.46-3.08-6.87-4.58-10.25a55.13,55.13,0,0,1-2.14-5.43l-.19.27a10.79,10.79,0,0,0-.81,1.44c0,7.87-7.88,17.5-7.88,17.5l-7.93-11.55L296,473.2c-1,.53-2,2.35-2.78,4.94-.22.7-.43,1.46-.63,2.27-.14.54-.27,1.11-.39,1.68-.07.29-.13.58-.19.88l-.18.91V484c-.12.62-.24,1.26-.35,1.91s-.24,1.4-.35,2.11q-.12.69-.21,1.38c-.14.89-.26,1.79-.38,2.68-.07.52-.14,1-.2,1.55l-.24,2c.51,1.64,1.08,3.26,1.67,4.85a8.5,8.5,0,0,1,.65,2.75,68.27,68.27,0,0,0,37.55,0,.17.17,0,0,1,0-.1,11.33,11.33,0,0,1-.24-2.73h0a73.45,73.45,0,0,1,1-7.65,29.41,29.41,0,0,0,.19-3.76v-.45C330.89,488.18,330.88,487.82,330.87,487.46Zm0,0a6.91,6.91,0,0,0-.07-1.2c-.07-.4-.06-.75-.11-1.13s-.09-.76-.14-1.14-.12-.76-.19-1.14-.14-.76-.22-1.14a1.72,1.72,0,0,0-.08-.38c-.11-.5-.23-1-.36-1.51s-.21-.81-.33-1.21a1.7,1.7,0,0,0-.16-.53c-.06-.17-.17-.58-.26-.87l-.18-.56c-.08-.25-.16-.5-.25-.75-.15-.45-.31-.89-.47-1.34s-.33-.89-.5-1.33c-.34-.9-.71-1.79-1.08-2.68-1.45-3.46-3.08-6.87-4.58-10.25a55.13,55.13,0,0,1-2.14-5.43l-.19.27a10.79,10.79,0,0,0-.81,1.44c0,7.87-7.88,17.5-7.88,17.5l-7.93-11.55L296,473.2c-1,.53-2,2.35-2.78,4.94-.22.7-.43,1.46-.63,2.27-.14.54-.27,1.11-.39,1.68-.07.29-.13.58-.19.88l-.18.91V484c-.12.62-.24,1.26-.35,1.91s-.24,1.4-.35,2.11q-.12.69-.21,1.38c-.14.89-.26,1.79-.38,2.68-.07.52-.14,1-.2,1.55l-.24,2c.51,1.64,1.08,3.26,1.67,4.85a8.5,8.5,0,0,1,.65,2.75,68.27,68.27,0,0,0,37.55,0,.17.17,0,0,1,0-.1,11.33,11.33,0,0,1-.24-2.73h0a73.45,73.45,0,0,1,1-7.65,29.41,29.41,0,0,0,.19-3.76v-.45C330.89,488.18,330.88,487.82,330.87,487.46Zm0,0a6.91,6.91,0,0,0-.07-1.2c-.07-.4-.06-.75-.11-1.13s-.09-.76-.14-1.14-.12-.76-.19-1.14-.14-.76-.22-1.14a1.72,1.72,0,0,0-.08-.38c-.11-.5-.23-1-.36-1.51s-.21-.81-.33-1.21a1.7,1.7,0,0,0-.16-.53c-.06-.17-.17-.58-.26-.87l-.18-.56c-.08-.25-.16-.5-.25-.75-.15-.45-.31-.89-.47-1.34s-.33-.89-.5-1.33c-.34-.9-.71-1.79-1.08-2.68-1.45-3.46-3.08-6.87-4.58-10.25a55.13,55.13,0,0,1-2.14-5.43l-.19.27a10.79,10.79,0,0,0-.81,1.44c0,7.87-7.88,17.5-7.88,17.5l-7.93-11.55L296,473.2c-1,.53-2,2.35-2.78,4.94-.22.7-.43,1.46-.63,2.27-.14.54-.27,1.11-.39,1.68-.07.29-.13.58-.19.88l-.18.91V484c-.12.62-.24,1.26-.35,1.91s-.24,1.4-.35,2.11q-.12.69-.21,1.38c-.14.89-.26,1.79-.38,2.68-.07.52-.14,1-.2,1.55l-.24,2c.51,1.64,1.08,3.26,1.67,4.85a8.5,8.5,0,0,1,.65,2.75,68.27,68.27,0,0,0,37.55,0,.17.17,0,0,1,0-.1,11.33,11.33,0,0,1-.24-2.73h0a73.45,73.45,0,0,1,1-7.65,29.41,29.41,0,0,0,.19-3.76v-.45C330.89,488.18,330.88,487.82,330.87,487.46Zm10.6-18.77-3.57-14.25-.61-2.44-.17-.67h0l-.87-3.48v-.09h0a.87.87,0,0,0-.07-.45c-.13-.26-.46-.53-1.23-.6a6.46,6.46,0,0,0-.88,0h0a16,16,0,0,0-2.57.48c-.41.11-.85.23-1.32.38l-.86.27h-.08a19.21,19.21,0,0,0-6.3,3.5,17.08,17.08,0,0,0-3.2,3.54l-.19.27a10.79,10.79,0,0,0-.81,1.44c0,7.87-7.88,17.5-7.88,17.5l-7.93-11.55-.45-.65-.08-.11-1.15-1.69-.87-1.16-.23-.3-4.1-5.47h0l-1.3-1.77v-.06l-.45-.61-.86-1.14-3,1.75-7.5,4.37-3.46,22.51v.24l.1,1.64.74,12.53v.71l-1.13,4.51a65.68,65.68,0,0,0,9.4,4.16l.85.3c1,.33,1.94.63,2.92.92,0,.15.06.3.08.45v-.43a68.27,68.27,0,0,0,37.55,0l.23-.07c.57-.16,1.15-.33,1.71-.52l.91-.29a66.23,66.23,0,0,0,7.24-2.9h0l.83-17.88.6-12.77Zm-49.18,34.53c0,.15.06.3.08.45v-.43Zm38.58-15.76a6.91,6.91,0,0,0-.07-1.2c-.07-.4-.06-.75-.11-1.13s-.09-.76-.14-1.14-.12-.76-.19-1.14-.14-.76-.22-1.14a1.72,1.72,0,0,0-.08-.38c-.11-.5-.23-1-.36-1.51s-.21-.81-.33-1.21a1.7,1.7,0,0,0-.16-.53c-.06-.17-.17-.58-.26-.87l-.18-.56c-.08-.25-.16-.5-.25-.75-.15-.45-.31-.89-.47-1.34s-.33-.89-.5-1.33c-.34-.9-.71-1.79-1.08-2.68-1.45-3.46-3.08-6.87-4.58-10.25a55.13,55.13,0,0,1-2.14-5.43l-.19.27a10.79,10.79,0,0,0-.81,1.44c0,7.87-7.88,17.5-7.88,17.5l-7.93-11.55L296,473.2c-1,.53-2,2.35-2.78,4.94-.22.7-.43,1.46-.63,2.27-.14.54-.27,1.11-.39,1.68-.07.29-.13.58-.19.88l-.18.91V484c-.12.62-.24,1.26-.35,1.91s-.24,1.4-.35,2.11q-.12.69-.21,1.38c-.14.89-.26,1.79-.38,2.68-.07.52-.14,1-.2,1.55l-.24,2c.51,1.64,1.08,3.26,1.67,4.85a8.5,8.5,0,0,1,.65,2.75,68.27,68.27,0,0,0,37.55,0,.17.17,0,0,1,0-.1,11.33,11.33,0,0,1-.24-2.73h0a73.45,73.45,0,0,1,1-7.65,29.41,29.41,0,0,0,.19-3.76v-.45C330.89,488.18,330.88,487.82,330.87,487.46Zm0,0a6.91,6.91,0,0,0-.07-1.2c-.07-.4-.06-.75-.11-1.13s-.09-.76-.14-1.14-.12-.76-.19-1.14-.14-.76-.22-1.14a1.72,1.72,0,0,0-.08-.38c-.11-.5-.23-1-.36-1.51s-.21-.81-.33-1.21a1.7,1.7,0,0,0-.16-.53c-.06-.17-.17-.58-.26-.87l-.18-.56c-.08-.25-.16-.5-.25-.75-.15-.45-.31-.89-.47-1.34s-.33-.89-.5-1.33c-.34-.9-.71-1.79-1.08-2.68-1.45-3.46-3.08-6.87-4.58-10.25a55.13,55.13,0,0,1-2.14-5.43l-.19.27a10.79,10.79,0,0,0-.81,1.44c0,7.87-7.88,17.5-7.88,17.5l-7.93-11.55L296,473.2c-1,.53-2,2.35-2.78,4.94-.22.7-.43,1.46-.63,2.27-.14.54-.27,1.11-.39,1.68-.07.29-.13.58-.19.88l-.18.91V484c-.12.62-.24,1.26-.35,1.91s-.24,1.4-.35,2.11q-.12.69-.21,1.38c-.14.89-.26,1.79-.38,2.68-.07.52-.14,1-.2,1.55l-.24,2c.51,1.64,1.08,3.26,1.67,4.85a8.5,8.5,0,0,1,.65,2.75,68.27,68.27,0,0,0,37.55,0,.17.17,0,0,1,0-.1,11.33,11.33,0,0,1-.24-2.73h0a73.45,73.45,0,0,1,1-7.65,29.41,29.41,0,0,0,.19-3.76v-.45C330.89,488.18,330.88,487.82,330.87,487.46Zm0,0a6.91,6.91,0,0,0-.07-1.2c-.07-.4-.06-.75-.11-1.13s-.09-.76-.14-1.14-.12-.76-.19-1.14-.14-.76-.22-1.14a1.72,1.72,0,0,0-.08-.38c-.11-.5-.23-1-.36-1.51s-.21-.81-.33-1.21a1.7,1.7,0,0,0-.16-.53c-.06-.17-.17-.58-.26-.87l-.18-.56c-.08-.25-.16-.5-.25-.75-.15-.45-.31-.89-.47-1.34s-.33-.89-.5-1.33c-.34-.9-.71-1.79-1.08-2.68-1.45-3.46-3.08-6.87-4.58-10.25a55.13,55.13,0,0,1-2.14-5.43l-.19.27a10.79,10.79,0,0,0-.81,1.44c0,7.87-7.88,17.5-7.88,17.5l-7.93-11.55L296,473.2c-1,.53-2,2.35-2.78,4.94-.22.7-.43,1.46-.63,2.27-.14.54-.27,1.11-.39,1.68-.07.29-.13.58-.19.88l-.18.91V484c-.12.62-.24,1.26-.35,1.91s-.24,1.4-.35,2.11q-.12.69-.21,1.38c-.14.89-.26,1.79-.38,2.68-.07.52-.14,1-.2,1.55l-.24,2c.51,1.64,1.08,3.26,1.67,4.85a8.5,8.5,0,0,1,.65,2.75,68.27,68.27,0,0,0,37.55,0,.17.17,0,0,1,0-.1,11.33,11.33,0,0,1-.24-2.73h0a73.45,73.45,0,0,1,1-7.65,29.41,29.41,0,0,0,.19-3.76v-.45C330.89,488.18,330.88,487.82,330.87,487.46Zm0,0a6.91,6.91,0,0,0-.07-1.2c-.07-.4-.06-.75-.11-1.13s-.09-.76-.14-1.14-.12-.76-.19-1.14-.14-.76-.22-1.14a1.72,1.72,0,0,0-.08-.38c-.11-.5-.23-1-.36-1.51s-.21-.81-.33-1.21a1.7,1.7,0,0,0-.16-.53c-.06-.17-.17-.58-.26-.87l-.18-.56c-.08-.25-.16-.5-.25-.75-.15-.45-.31-.89-.47-1.34s-.33-.89-.5-1.33c-.34-.9-.71-1.79-1.08-2.68-1.45-3.46-3.08-6.87-4.58-10.25a55.13,55.13,0,0,1-2.14-5.43l-.19.27a10.79,10.79,0,0,0-.81,1.44c0,7.87-7.88,17.5-7.88,17.5l-7.93-11.55L296,473.2c-1,.53-2,2.35-2.78,4.94-.22.7-.43,1.46-.63,2.27-.14.54-.27,1.11-.39,1.68-.07.29-.13.58-.19.88l-.18.91V484c-.12.62-.24,1.26-.35,1.91s-.24,1.4-.35,2.11q-.12.69-.21,1.38c-.14.89-.26,1.79-.38,2.68-.07.52-.14,1-.2,1.55l-.24,2c.51,1.64,1.08,3.26,1.67,4.85a8.5,8.5,0,0,1,.65,2.75,68.27,68.27,0,0,0,37.55,0,.17.17,0,0,1,0-.1,11.33,11.33,0,0,1-.24-2.73h0a73.45,73.45,0,0,1,1-7.65,29.41,29.41,0,0,0,.19-3.76v-.45C330.89,488.18,330.88,487.82,330.87,487.46Zm0,0a6.91,6.91,0,0,0-.07-1.2c-.07-.4-.06-.75-.11-1.13s-.09-.76-.14-1.14-.12-.76-.19-1.14-.14-.76-.22-1.14a1.72,1.72,0,0,0-.08-.38c-.11-.5-.23-1-.36-1.51s-.21-.81-.33-1.21a1.7,1.7,0,0,0-.16-.53c-.06-.17-.17-.58-.26-.87l-.18-.56c-.08-.25-.16-.5-.25-.75-.15-.45-.31-.89-.47-1.34s-.33-.89-.5-1.33c-.34-.9-.71-1.79-1.08-2.68-1.45-3.46-3.08-6.87-4.58-10.25a55.13,55.13,0,0,1-2.14-5.43l-.19.27a10.79,10.79,0,0,0-.81,1.44c0,7.87-7.88,17.5-7.88,17.5l-7.93-11.55L296,473.2c-1,.53-2,2.35-2.78,4.94-.22.7-.43,1.46-.63,2.27-.14.54-.27,1.11-.39,1.68-.07.29-.13.58-.19.88l-.18.91V484c-.12.62-.24,1.26-.35,1.91s-.24,1.4-.35,2.11q-.12.69-.21,1.38c-.14.89-.26,1.79-.38,2.68-.07.52-.14,1-.2,1.55l-.24,2c.51,1.64,1.08,3.26,1.67,4.85a8.5,8.5,0,0,1,.65,2.75,68.27,68.27,0,0,0,37.55,0,.17.17,0,0,1,0-.1,11.33,11.33,0,0,1-.24-2.73h0a73.45,73.45,0,0,1,1-7.65,29.41,29.41,0,0,0,.19-3.76v-.45C330.89,488.18,330.88,487.82,330.87,487.46Zm0,0a6.91,6.91,0,0,0-.07-1.2c-.07-.4-.06-.75-.11-1.13s-.09-.76-.14-1.14-.12-.76-.19-1.14-.14-.76-.22-1.14a1.72,1.72,0,0,0-.08-.38c-.11-.5-.23-1-.36-1.51s-.21-.81-.33-1.21a1.7,1.7,0,0,0-.16-.53c-.06-.17-.17-.58-.26-.87l-.18-.56c-.08-.25-.16-.5-.25-.75-.15-.45-.31-.89-.47-1.34s-.33-.89-.5-1.33c-.34-.9-.71-1.79-1.08-2.68-1.45-3.46-3.08-6.87-4.58-10.25a55.13,55.13,0,0,1-2.14-5.43l-.19.27a10.79,10.79,0,0,0-.81,1.44c0,7.87-7.88,17.5-7.88,17.5l-7.93-11.55L296,473.2c-1,.53-2,2.35-2.78,4.94-.22.7-.43,1.46-.63,2.27-.14.54-.27,1.11-.39,1.68-.07.29-.13.58-.19.88l-.18.91V484c-.12.62-.24,1.26-.35,1.91s-.24,1.4-.35,2.11q-.12.69-.21,1.38c-.14.89-.26,1.79-.38,2.68-.07.52-.14,1-.2,1.55l-.24,2c.51,1.64,1.08,3.26,1.67,4.85a8.5,8.5,0,0,1,.65,2.75,68.27,68.27,0,0,0,37.55,0,.17.17,0,0,1,0-.1,11.33,11.33,0,0,1-.24-2.73h0a73.45,73.45,0,0,1,1-7.65,29.41,29.41,0,0,0,.19-3.76v-.45C330.89,488.18,330.88,487.82,330.87,487.46Zm0,0a6.91,6.91,0,0,0-.07-1.2c-.07-.4-.06-.75-.11-1.13s-.09-.76-.14-1.14-.12-.76-.19-1.14-.14-.76-.22-1.14a1.72,1.72,0,0,0-.08-.38c-.11-.5-.23-1-.36-1.51s-.21-.81-.33-1.21a1.7,1.7,0,0,0-.16-.53c-.06-.17-.17-.58-.26-.87l-.18-.56c-.08-.25-.16-.5-.25-.75-.15-.45-.31-.89-.47-1.34s-.33-.89-.5-1.33c-.34-.9-.71-1.79-1.08-2.68-1.45-3.46-3.08-6.87-4.58-10.25a55.13,55.13,0,0,1-2.14-5.43l-.19.27a10.79,10.79,0,0,0-.81,1.44c0,7.87-7.88,17.5-7.88,17.5l-7.93-11.55L296,473.2c-1,.53-2,2.35-2.78,4.94-.22.7-.43,1.46-.63,2.27-.14.54-.27,1.11-.39,1.68-.07.29-.13.58-.19.88l-.18.91V484c-.12.62-.24,1.26-.35,1.91s-.24,1.4-.35,2.11q-.12.69-.21,1.38c-.14.89-.26,1.79-.38,2.68-.07.52-.14,1-.2,1.55l-.24,2c.51,1.64,1.08,3.26,1.67,4.85a8.5,8.5,0,0,1,.65,2.75,68.27,68.27,0,0,0,37.55,0,.17.17,0,0,1,0-.1,11.33,11.33,0,0,1-.24-2.73h0a73.45,73.45,0,0,1,1-7.65,29.41,29.41,0,0,0,.19-3.76v-.45C330.89,488.18,330.88,487.82,330.87,487.46Zm0,0a6.91,6.91,0,0,0-.07-1.2c-.07-.4-.06-.75-.11-1.13s-.09-.76-.14-1.14-.12-.76-.19-1.14-.14-.76-.22-1.14a1.72,1.72,0,0,0-.08-.38c-.11-.5-.23-1-.36-1.51s-.21-.81-.33-1.21a1.7,1.7,0,0,0-.16-.53c-.06-.17-.17-.58-.26-.87l-.18-.56c-.08-.25-.16-.5-.25-.75-.15-.45-.31-.89-.47-1.34s-.33-.89-.5-1.33c-.34-.9-.71-1.79-1.08-2.68-1.45-3.46-3.08-6.87-4.58-10.25a55.13,55.13,0,0,1-2.14-5.43l-.19.27a10.79,10.79,0,0,0-.81,1.44c0,7.87-7.88,17.5-7.88,17.5l-7.93-11.55L296,473.2c-1,.53-2,2.35-2.78,4.94-.22.7-.43,1.46-.63,2.27-.14.54-.27,1.11-.39,1.68-.07.29-.13.58-.19.88l-.18.91V484c-.12.62-.24,1.26-.35,1.91s-.24,1.4-.35,2.11q-.12.69-.21,1.38c-.14.89-.26,1.79-.38,2.68-.07.52-.14,1-.2,1.55l-.24,2c.51,1.64,1.08,3.26,1.67,4.85a8.5,8.5,0,0,1,.65,2.75,68.27,68.27,0,0,0,37.55,0,.17.17,0,0,1,0-.1,11.33,11.33,0,0,1-.24-2.73h0a73.45,73.45,0,0,1,1-7.65,29.41,29.41,0,0,0,.19-3.76v-.45C330.89,488.18,330.88,487.82,330.87,487.46Z" transform="translate(0 0.01)"/><path class="cls-e-7" d="M303.08,461.86l-.67-.09a21.53,21.53,0,0,1-3-.6l-.37-.1c-2.44-.69-5.11-1.93-5.71-4.11a3.86,3.86,0,0,1,.06-2.13,17.85,17.85,0,0,1,1.36-3.44v-.06a5.05,5.05,0,0,1,.25-.45,10,10,0,0,1,3.61-3.93l-1.2.19h0l-10.16,1.65-15.75,2.54s-2.8-.56-6.61,9.94a1.62,1.62,0,0,1-.13.39c-.92,2.57-1.89,5.78-2.89,9.79-.69,2.78-1.32,5.51-1.9,8.16-.17.8-.34,1.59-.5,2.37a62.1,62.1,0,0,0,5.81,6l.33.31a67.48,67.48,0,0,0,13.32,9.43l.19.1a65.68,65.68,0,0,0,9.4,4.16l.85.3c.18-1.85.38-3.9.62-6a1.71,1.71,0,0,1,.08-.63l.24-2c.06-.51.13-1,.2-1.55.12-.89.24-1.79.38-2.68q.09-.69.21-1.38c.11-.71.23-1.42.35-2.11s.23-1.29.35-1.91v-.14L292,483c.06-.3.12-.59.19-.88.12-.57.25-1.14.39-1.68.2-.81.41-1.57.63-2.27.8-2.59,1.73-4.41,2.78-4.94l6.94-10.67.29-.45.13-.2Z" transform="translate(0 0.01)"/><path class="cls-e-16" d="M302.49,461.88l-7.37,11.32c-1,.51-1.94,2.28-2.73,4.79-.23.74-.46,1.55-.68,2.4a118.57,118.57,0,0,0-2.26,13.09,1.55,1.55,0,0,1-.08.6c-.34,2.78-.62,5.51-.85,7.92a65.68,65.68,0,0,1-9.4-4.16l-.19-.1a67.48,67.48,0,0,1-13.32-9.43l-.33-.31a62.1,62.1,0,0,1-5.81-6c-.24-.27-.47-.55-.7-.83.11-.52.22-1,.34-1.56.57-2.65,1.2-5.37,1.89-8.14a98.2,98.2,0,0,1,3.4-11.2,2.69,2.69,0,0,1,.13-.32c3.54-9.11,6.09-8.6,6.09-8.6l16.63-2.68,10.5-1.7-.33.19h0a10.73,10.73,0,0,0-2.89,3.08l-.29.49c-.12.19-.23.4-.35.61a17.22,17.22,0,0,0-1.38,3.5,3.65,3.65,0,0,0,.24,2.86c1,1.94,3.84,3,6.17,3.58l.39.1A22.63,22.63,0,0,0,302.49,461.88Z" transform="translate(0 0.01)"/><path class="cls-e-7" d="M360.28,482.09l-.41-8.88c1.75-14-1.75-14.87-1.75-14.87l-4.16-2h-.11l-16.73-8.11-.65-.32-.2-.09h0l-2.18-1.06h0l-1.38-.67-2.58-1.25-.87-.42v3.47c0,1,.09,2.17.17,3.53.18,3.42.51,8,1.1,13.4.33,3.13.75,6.55,1.27,10.22.31,2.17.53,4.33.67,6.44a113.14,113.14,0,0,1-.66,21.3l.91-.29a66.23,66.23,0,0,0,7.24-2.9h0a66.5,66.5,0,0,0,12.9-7.92l.18-.13A66.53,66.53,0,0,0,360.3,485Z" transform="translate(0 0.01)"/><path class="cls-e-16" d="M361.16,482.09l-.41-8.9c1.75-14-1.75-14.87-1.75-14.87l-5-2.42h-.1l-16.78-8.14-.77-.37-.15-.07-1.23-.6-1.63-.79-3.22-1.56v1.42h0v1.76c0,1,.09,2.31.18,3.8.17,3.19.47,7.37,1,12.34.36,3.41.81,7.2,1.4,11.28q.45,3.27.66,6.47a114.21,114.21,0,0,1-.62,21,66.23,66.23,0,0,0,7.24-2.9h0a66.5,66.5,0,0,0,12.9-7.92l.18-.13a66.53,66.53,0,0,0,7.26-6.59q.44-.43.84-.9Z" transform="translate(0 0.01)"/><path class="cls-e-7" d="M290.45,391c-1,1.38-.92,3.28-1.37,5-1.07,3.91-5.31,6.36-6.28,10.3-.57,2.3.09,4.74-.3,7.08-.71,4.31-4.65,7.23-6.85,11a14.82,14.82,0,0,0-.91,12.9,21.16,21.16,0,0,1,1.27,3.26,12.05,12.05,0,0,1-.31,5c-.75,3.56-1.52,7.48.2,10.69,1.45,2.71,4.46,4.3,7.49,4.8a28.82,28.82,0,0,0,9.17-.42c3.31-.51,6.7-1.1,9.58-2.8L291.31,431.7c-1.09-2.64-2.21-5.37-2.2-8.23a17.82,17.82,0,0,1,1.35-6.14,53.18,53.18,0,0,1,9-15.55c1.57,1.82,1.45,4.59,2.76,6.61a10.3,10.3,0,0,0,4.46,3.33,145.34,145.34,0,0,0,15.79,6.6,2.07,2.07,0,0,1,1.79,2.32,2,2,0,0,1-.25.76l-4.08,16.84c-.9,3.71-1.69,8,.62,11s7.52,4.42,7.55,8.29a11.3,11.3,0,0,0,0,1.84c.27,1.81,2.42,2.68,4.25,2.77a12.66,12.66,0,0,0,12.71-10.37c1-6.62-3.38-12.72-5.21-19.17-3.08-10.85,1-23.58-5.05-33.11-4.9-7.73-13.83-9.83-22.31-10.79C306.54,388,294.64,385.5,290.45,391Z" transform="translate(0 0.01)"/><path class="cls-e-14" d="M290.45,390c-1,1.38-.92,3.28-1.37,5-1.07,3.91-5.31,6.36-6.28,10.3-.57,2.3.09,4.74-.3,7.08-.71,4.31-4.65,7.23-6.85,11a14.82,14.82,0,0,0-.91,12.9,21.16,21.16,0,0,1,1.27,3.26,12.05,12.05,0,0,1-.31,5c-.75,3.56-1.52,7.48.2,10.69,1.45,2.71,4.46,4.3,7.49,4.8a28.82,28.82,0,0,0,9.17-.42c3.31-.51,6.7-1.1,9.58-2.8L291.31,430.7c-1.09-2.64-2.21-5.37-2.2-8.23a17.82,17.82,0,0,1,1.35-6.14,53.18,53.18,0,0,1,9-15.55c1.57,1.82,1.45,4.59,2.76,6.61a10.3,10.3,0,0,0,4.46,3.33,145.34,145.34,0,0,0,15.79,6.6,2.07,2.07,0,0,1,1.79,2.32,2,2,0,0,1-.25.76l-4.08,16.84c-.9,3.71-1.69,8,.62,11s7.52,4.42,7.55,8.29a11.3,11.3,0,0,0,0,1.84c.27,1.81,2.42,2.68,4.25,2.77a12.66,12.66,0,0,0,12.71-10.37c1-6.62-3.38-12.72-5.21-19.17-3.08-10.85,1-23.58-5.05-33.11-4.9-7.73-13.83-9.83-22.31-10.79C306.54,387,294.64,384.5,290.45,390Z" transform="translate(0 0.01)"/></g><g class="cls-e-2"><path class="cls-e-10" d="M378.28,657.94a67.65,67.65,0,0,1-16.37,44.25c-.52.61-1.06,1.21-1.61,1.8q-.41.46-.84.9a67.66,67.66,0,0,1-7.26,6.59l-.18.13a66.38,66.38,0,0,1-12.9,7.92h0a66.63,66.63,0,0,1-7.24,2.9l-.91.29c-.56.19-1.14.36-1.71.52l-.23.07a68.27,68.27,0,0,1-37.55,0h-.1c-1-.29-2-.59-2.92-.92l-.85-.3a65.68,65.68,0,0,1-9.4-4.16l-.19-.1a68.62,68.62,0,0,1-13.32-9.43l-.33-.31a62.1,62.1,0,0,1-5.81-6c-.24-.27-.47-.55-.7-.83-.44-.52-.86-1.06-1.28-1.6a68,68,0,1,1,121.7-41.72Z" transform="translate(0 0.01)"/><path class="cls-e-17" d="M360.21,701.76l-.41-9c1.75-14.23-1.75-15.12-1.75-15.12l-5-2.46-.1,0-16.78-8.27-.77-.38-.1-.41s.33-1-1.33-1.17a6.17,6.17,0,0,1-.42-2.55c.17-1.92,1.62-3.43,2.75-5a20.52,20.52,0,0,0,3.29-14.57A34.28,34.28,0,0,0,334,628.7l-.32-.47a16.93,16.93,0,0,0,.59-4.42c0-11.51-11.64-20.84-26-20.84-13,0-23.83,7.69-25.71,17.72a9,9,0,0,0-.79,1.24c-2.64,4.94,1.44,8.63,1.57,13.56.09,3.4-2.19,6.31-4,9.19s-3.15,6.71-1.29,9.55c.61.94,1.53,1.65,2.08,2.63,1.93,3.41-1.28,7.32-2.45,11.06a10.29,10.29,0,0,0-.32,1.33l-7.72,1.26s-2.55-.52-6.09,8.74c-.05.11-.09.22-.13.33A100.64,100.64,0,0,0,260,691q-1,4.23-1.89,8.27c-.12.53-.23,1.06-.34,1.59.23.28.46.57.7.84a63.4,63.4,0,0,0,5.81,6.12l.33.32A68.37,68.37,0,0,0,278,717.7l.19.1a64.94,64.94,0,0,0,9.4,4.23l.85.3c1,.34,1.94.64,2.92.94a3.69,3.69,0,0,1,.08.46v-.44a67.35,67.35,0,0,0,37.55,0l.23-.07c.57-.16,1.15-.34,1.71-.53l.91-.29a67,67,0,0,0,7.24-2.95h0a66.5,66.5,0,0,0,12.9-8.05l.18-.13a66.71,66.71,0,0,0,7.26-6.7c.29-.29.57-.6.84-.91Z" transform="translate(0 0.01)"/><path class="cls-e-16" d="M283.35,636.93c.09,3.35-2.19,6.21-4,9s-3.15,6.6-1.29,9.39c.61.92,1.53,1.63,2.08,2.59,1.93,3.35-1.28,7.2-2.45,10.88-1.35,4.25.22,9,3.06,12.45s6.76,5.78,10.72,7.83A95.53,95.53,0,0,0,318,698.51c4.84.89,10,1.29,14.54-.65a15.46,15.46,0,0,0,8.73-17c-1.15-5.26-5-9.49-7-14.46a6.79,6.79,0,0,1-.66-3.13c.17-1.89,1.62-3.37,2.75-4.9a20,20,0,0,0,3.24-14.23A33.46,33.46,0,0,0,334,630.28a15.15,15.15,0,0,0-4-4.4c-2.18-1.47-4.88-1.89-7.48-2.26-10.86-1.52-22.11-3.18-33.06-3.74-3.46-.18-6,.5-7.71,3.74C279.15,628.45,283.22,632.08,283.35,636.93Z" transform="translate(0 0.01)"/><path class="cls-e-15" d="M339.28,670.94l-20.61,29.31-20.12-1.75s-.66,7-8.75-18.37c-4.52-14.19,4.67-9.26,6.48-13.19s5-7.4,5.27-10.3c.64-6.22-1.25-9.76-1.25-9.76l21.87-2.62a16.31,16.31,0,0,0-.36,9.13C324.55,664.77,339.28,670.94,339.28,670.94Z" transform="translate(0 0.01)"/><ellipse class="cls-e-16" cx="308.28" cy="625.46" rx="26" ry="20.5"/><path class="cls-e-7" d="M321.8,653.38a21.84,21.84,0,0,1-20.26,3.26c.64-6.22-1.25-9.76-1.25-9.76l21.87-2.62A16.36,16.36,0,0,0,321.8,653.38Z" transform="translate(0 0.01)"/><circle class="cls-e-15" cx="308.61" cy="635.08" r="21.87"/><path class="cls-e-7" d="M337.12,674.26l-.51-2-.44-1.76-.65-2.6-.12-.48-.1-.4s.52-1.57-2.91-1.06l-.64.11c-.54.11-1.17.26-1.89.46l-.65.2-.86.27h0a18.73,18.73,0,0,0-7.26,4.38,16.31,16.31,0,0,0-2.43,2.94l-.18.27a8.68,8.68,0,0,0-.63,1.16c0,7.88-7.88,17.5-7.88,17.5l-7.69-11.11-.15-.22-1.83-2.66-.65-.86-.22-.3-4-5.37-1-1.34-.33-.45-.49-.65-1.15-1.53-4.5,2.63-6,3.5-3.5,22.75v.63l.11,1.88.73,12.36v.17L278,717.8l.19.1a65.68,65.68,0,0,0,9.4,4.16l.85.3c1,.33,1.94.63,2.92.92a3.54,3.54,0,0,1,.08.45v-.43a68.27,68.27,0,0,0,37.55,0l.23-.07c.57-.16,1.15-.33,1.71-.52l.91-.29a66.63,66.63,0,0,0,7.24-2.9l.84-17.9.6-12.91V688Z" transform="translate(0 0.01)"/><path class="cls-e-16" d="M329.92,707.51a6.91,6.91,0,0,0-.07-1.2c-.07-.4-.06-.75-.11-1.13s-.09-.76-.14-1.14-.12-.76-.19-1.14-.14-.76-.22-1.14a1.72,1.72,0,0,0-.08-.38c-.11-.5-.23-1-.36-1.51s-.21-.81-.33-1.21a1.7,1.7,0,0,0-.16-.53c-.06-.17-.17-.58-.26-.87l-.18-.56c-.08-.25-.16-.5-.25-.75-.15-.45-.31-.89-.47-1.34s-.33-.89-.5-1.33c-.34-.9-.71-1.79-1.08-2.68-1.45-3.46-3.08-6.87-4.58-10.25a55.13,55.13,0,0,1-2.14-5.43l-.19.27a12.67,12.67,0,0,0-.81,1.44c0,7.87-7.88,17.5-7.88,17.5L302,682.58l-6.94,10.67c-1,.53-2,2.35-2.78,4.94-.22.7-.43,1.46-.63,2.27-.14.54-.27,1.11-.39,1.68-.07.29-.13.58-.19.88l-.18.91v.14c-.12.62-.24,1.26-.35,1.91s-.24,1.4-.35,2.11q-.12.69-.21,1.38c-.14.89-.26,1.79-.38,2.68-.07.52-.14,1-.2,1.55l-.24,2c.51,1.64,1.08,3.26,1.67,4.85a7.9,7.9,0,0,1,.65,2.75,68.27,68.27,0,0,0,37.55,0v-.1a11.91,11.91,0,0,1-.24-2.73h0a75.49,75.49,0,0,1,1-7.65,27.78,27.78,0,0,0,.19-3.76v-.45C329.94,708.23,329.93,707.87,329.92,707.51Zm0,0a6.91,6.91,0,0,0-.07-1.2c-.07-.4-.06-.75-.11-1.13s-.09-.76-.14-1.14-.12-.76-.19-1.14-.14-.76-.22-1.14a1.72,1.72,0,0,0-.08-.38c-.11-.5-.23-1-.36-1.51s-.21-.81-.33-1.21a1.7,1.7,0,0,0-.16-.53c-.06-.17-.17-.58-.26-.87l-.18-.56c-.08-.25-.16-.5-.25-.75-.15-.45-.31-.89-.47-1.34s-.33-.89-.5-1.33c-.34-.9-.71-1.79-1.08-2.68-1.45-3.46-3.08-6.87-4.58-10.25a55.13,55.13,0,0,1-2.14-5.43l-.19.27a12.67,12.67,0,0,0-.81,1.44c0,7.87-7.88,17.5-7.88,17.5L302,682.58l-6.94,10.67c-1,.53-2,2.35-2.78,4.94-.22.7-.43,1.46-.63,2.27-.14.54-.27,1.11-.39,1.68-.07.29-.13.58-.19.88l-.18.91v.14c-.12.62-.24,1.26-.35,1.91s-.24,1.4-.35,2.11q-.12.69-.21,1.38c-.14.89-.26,1.79-.38,2.68-.07.52-.14,1-.2,1.55l-.24,2c.51,1.64,1.08,3.26,1.67,4.85a7.9,7.9,0,0,1,.65,2.75,68.27,68.27,0,0,0,37.55,0v-.1a11.91,11.91,0,0,1-.24-2.73h0a75.49,75.49,0,0,1,1-7.65,27.78,27.78,0,0,0,.19-3.76v-.45C329.94,708.23,329.93,707.87,329.92,707.51Zm0,0a6.91,6.91,0,0,0-.07-1.2c-.07-.4-.06-.75-.11-1.13s-.09-.76-.14-1.14-.12-.76-.19-1.14-.14-.76-.22-1.14a1.72,1.72,0,0,0-.08-.38c-.11-.5-.23-1-.36-1.51s-.21-.81-.33-1.21a1.7,1.7,0,0,0-.16-.53c-.06-.17-.17-.58-.26-.87l-.18-.56c-.08-.25-.16-.5-.25-.75-.15-.45-.31-.89-.47-1.34s-.33-.89-.5-1.33c-.34-.9-.71-1.79-1.08-2.68-1.45-3.46-3.08-6.87-4.58-10.25a55.13,55.13,0,0,1-2.14-5.43l-.19.27a12.67,12.67,0,0,0-.81,1.44c0,7.87-7.88,17.5-7.88,17.5L302,682.58l-6.94,10.67c-1,.53-2,2.35-2.78,4.94-.22.7-.43,1.46-.63,2.27-.14.54-.27,1.11-.39,1.68-.07.29-.13.58-.19.88l-.18.91v.14c-.12.62-.24,1.26-.35,1.91s-.24,1.4-.35,2.11q-.12.69-.21,1.38c-.14.89-.26,1.79-.38,2.68-.07.52-.14,1-.2,1.55l-.24,2c.51,1.64,1.08,3.26,1.67,4.85a7.9,7.9,0,0,1,.65,2.75,68.27,68.27,0,0,0,37.55,0v-.1a11.91,11.91,0,0,1-.24-2.73h0a75.49,75.49,0,0,1,1-7.65,27.78,27.78,0,0,0,.19-3.76v-.45C329.94,708.23,329.93,707.87,329.92,707.51Zm10.6-18.77L337,674.49l-.61-2.44-.17-.67h0l-.87-3.48v-.09h0a.78.78,0,0,0-.07-.45c-.13-.26-.46-.53-1.23-.6a6.46,6.46,0,0,0-.88,0h0a16,16,0,0,0-2.57.48c-.41.11-.85.23-1.32.38l-.86.27h-.08a19.13,19.13,0,0,0-6.3,3.5,16.83,16.83,0,0,0-3.2,3.54l-.19.27a12.67,12.67,0,0,0-.81,1.44c0,7.87-7.88,17.5-7.88,17.5L302,682.59l-.45-.65-.08-.11-1.15-1.69-.87-1.16-.23-.3-4.1-5.47h0l-1.3-1.77v-.06l-.45-.61-.86-1.14-3,1.75-7.5,4.37-3.46,22.51v.24l.1,1.64.74,12.53v.71l-1.13,4.51a65.68,65.68,0,0,0,9.4,4.16l.85.3c1,.33,1.94.63,2.92.92a3.54,3.54,0,0,1,.08.45v-.43a68.27,68.27,0,0,0,37.55,0l.23-.07c.57-.16,1.15-.33,1.71-.52l.91-.29a66.63,66.63,0,0,0,7.24-2.9h0l.83-17.88.6-12.77Zm-49.18,34.53a3.54,3.54,0,0,1,.08.45v-.43Zm38.58-15.76a6.91,6.91,0,0,0-.07-1.2c-.07-.4-.06-.75-.11-1.13s-.09-.76-.14-1.14-.12-.76-.19-1.14-.14-.76-.22-1.14a1.72,1.72,0,0,0-.08-.38c-.11-.5-.23-1-.36-1.51s-.21-.81-.33-1.21a1.7,1.7,0,0,0-.16-.53c-.06-.17-.17-.58-.26-.87l-.18-.56c-.08-.25-.16-.5-.25-.75-.15-.45-.31-.89-.47-1.34s-.33-.89-.5-1.33c-.34-.9-.71-1.79-1.08-2.68-1.45-3.46-3.08-6.87-4.58-10.25a55.13,55.13,0,0,1-2.14-5.43l-.19.27a12.67,12.67,0,0,0-.81,1.44c0,7.87-7.88,17.5-7.88,17.5L302,682.58l-6.94,10.67c-1,.53-2,2.35-2.78,4.94-.22.7-.43,1.46-.63,2.27-.14.54-.27,1.11-.39,1.68-.07.29-.13.58-.19.88l-.18.91v.14c-.12.62-.24,1.26-.35,1.91s-.24,1.4-.35,2.11q-.12.69-.21,1.38c-.14.89-.26,1.79-.38,2.68-.07.52-.14,1-.2,1.55l-.24,2c.51,1.64,1.08,3.26,1.67,4.85a7.9,7.9,0,0,1,.65,2.75,68.27,68.27,0,0,0,37.55,0v-.1a11.91,11.91,0,0,1-.24-2.73h0a75.49,75.49,0,0,1,1-7.65,27.78,27.78,0,0,0,.19-3.76v-.45C329.94,708.23,329.93,707.87,329.92,707.51Zm0,0a6.91,6.91,0,0,0-.07-1.2c-.07-.4-.06-.75-.11-1.13s-.09-.76-.14-1.14-.12-.76-.19-1.14-.14-.76-.22-1.14a1.72,1.72,0,0,0-.08-.38c-.11-.5-.23-1-.36-1.51s-.21-.81-.33-1.21a1.7,1.7,0,0,0-.16-.53c-.06-.17-.17-.58-.26-.87l-.18-.56c-.08-.25-.16-.5-.25-.75-.15-.45-.31-.89-.47-1.34s-.33-.89-.5-1.33c-.34-.9-.71-1.79-1.08-2.68-1.45-3.46-3.08-6.87-4.58-10.25a55.13,55.13,0,0,1-2.14-5.43l-.19.27a12.67,12.67,0,0,0-.81,1.44c0,7.87-7.88,17.5-7.88,17.5L302,682.58l-6.94,10.67c-1,.53-2,2.35-2.78,4.94-.22.7-.43,1.46-.63,2.27-.14.54-.27,1.11-.39,1.68-.07.29-.13.58-.19.88l-.18.91v.14c-.12.62-.24,1.26-.35,1.91s-.24,1.4-.35,2.11q-.12.69-.21,1.38c-.14.89-.26,1.79-.38,2.68-.07.52-.14,1-.2,1.55l-.24,2c.51,1.64,1.08,3.26,1.67,4.85a7.9,7.9,0,0,1,.65,2.75,68.27,68.27,0,0,0,37.55,0v-.1a11.91,11.91,0,0,1-.24-2.73h0a75.49,75.49,0,0,1,1-7.65,27.78,27.78,0,0,0,.19-3.76v-.45C329.94,708.23,329.93,707.87,329.92,707.51Zm0,0a6.91,6.91,0,0,0-.07-1.2c-.07-.4-.06-.75-.11-1.13s-.09-.76-.14-1.14-.12-.76-.19-1.14-.14-.76-.22-1.14a1.72,1.72,0,0,0-.08-.38c-.11-.5-.23-1-.36-1.51s-.21-.81-.33-1.21a1.7,1.7,0,0,0-.16-.53c-.06-.17-.17-.58-.26-.87l-.18-.56c-.08-.25-.16-.5-.25-.75-.15-.45-.31-.89-.47-1.34s-.33-.89-.5-1.33c-.34-.9-.71-1.79-1.08-2.68-1.45-3.46-3.08-6.87-4.58-10.25a55.13,55.13,0,0,1-2.14-5.43l-.19.27a12.67,12.67,0,0,0-.81,1.44c0,7.87-7.88,17.5-7.88,17.5L302,682.58l-6.94,10.67c-1,.53-2,2.35-2.78,4.94-.22.7-.43,1.46-.63,2.27-.14.54-.27,1.11-.39,1.68-.07.29-.13.58-.19.88l-.18.91v.14c-.12.62-.24,1.26-.35,1.91s-.24,1.4-.35,2.11q-.12.69-.21,1.38c-.14.89-.26,1.79-.38,2.68-.07.52-.14,1-.2,1.55l-.24,2c.51,1.64,1.08,3.26,1.67,4.85a7.9,7.9,0,0,1,.65,2.75,68.27,68.27,0,0,0,37.55,0v-.1a11.91,11.91,0,0,1-.24-2.73h0a75.49,75.49,0,0,1,1-7.65,27.78,27.78,0,0,0,.19-3.76v-.45C329.94,708.23,329.93,707.87,329.92,707.51Zm0,0a6.91,6.91,0,0,0-.07-1.2c-.07-.4-.06-.75-.11-1.13s-.09-.76-.14-1.14-.12-.76-.19-1.14-.14-.76-.22-1.14a1.72,1.72,0,0,0-.08-.38c-.11-.5-.23-1-.36-1.51s-.21-.81-.33-1.21a1.7,1.7,0,0,0-.16-.53c-.06-.17-.17-.58-.26-.87l-.18-.56c-.08-.25-.16-.5-.25-.75-.15-.45-.31-.89-.47-1.34s-.33-.89-.5-1.33c-.34-.9-.71-1.79-1.08-2.68-1.45-3.46-3.08-6.87-4.58-10.25a55.13,55.13,0,0,1-2.14-5.43l-.19.27a12.67,12.67,0,0,0-.81,1.44c0,7.87-7.88,17.5-7.88,17.5L302,682.58l-6.94,10.67c-1,.53-2,2.35-2.78,4.94-.22.7-.43,1.46-.63,2.27-.14.54-.27,1.11-.39,1.68-.07.29-.13.58-.19.88l-.18.91v.14c-.12.62-.24,1.26-.35,1.91s-.24,1.4-.35,2.11q-.12.69-.21,1.38c-.14.89-.26,1.79-.38,2.68-.07.52-.14,1-.2,1.55l-.24,2c.51,1.64,1.08,3.26,1.67,4.85a7.9,7.9,0,0,1,.65,2.75,68.27,68.27,0,0,0,37.55,0v-.1a11.91,11.91,0,0,1-.24-2.73h0a75.49,75.49,0,0,1,1-7.65,27.78,27.78,0,0,0,.19-3.76v-.45C329.94,708.23,329.93,707.87,329.92,707.51Zm0,0a6.91,6.91,0,0,0-.07-1.2c-.07-.4-.06-.75-.11-1.13s-.09-.76-.14-1.14-.12-.76-.19-1.14-.14-.76-.22-1.14a1.72,1.72,0,0,0-.08-.38c-.11-.5-.23-1-.36-1.51s-.21-.81-.33-1.21a1.7,1.7,0,0,0-.16-.53c-.06-.17-.17-.58-.26-.87l-.18-.56c-.08-.25-.16-.5-.25-.75-.15-.45-.31-.89-.47-1.34s-.33-.89-.5-1.33c-.34-.9-.71-1.79-1.08-2.68-1.45-3.46-3.08-6.87-4.58-10.25a55.13,55.13,0,0,1-2.14-5.43l-.19.27a12.67,12.67,0,0,0-.81,1.44c0,7.87-7.88,17.5-7.88,17.5L302,682.58l-6.94,10.67c-1,.53-2,2.35-2.78,4.94-.22.7-.43,1.46-.63,2.27-.14.54-.27,1.11-.39,1.68-.07.29-.13.58-.19.88l-.18.91v.14c-.12.62-.24,1.26-.35,1.91s-.24,1.4-.35,2.11q-.12.69-.21,1.38c-.14.89-.26,1.79-.38,2.68-.07.52-.14,1-.2,1.55l-.24,2c.51,1.64,1.08,3.26,1.67,4.85a7.9,7.9,0,0,1,.65,2.75,68.27,68.27,0,0,0,37.55,0v-.1a11.91,11.91,0,0,1-.24-2.73h0a75.49,75.49,0,0,1,1-7.65,27.78,27.78,0,0,0,.19-3.76v-.45C329.94,708.23,329.93,707.87,329.92,707.51Zm0,0a6.91,6.91,0,0,0-.07-1.2c-.07-.4-.06-.75-.11-1.13s-.09-.76-.14-1.14-.12-.76-.19-1.14-.14-.76-.22-1.14a1.72,1.72,0,0,0-.08-.38c-.11-.5-.23-1-.36-1.51s-.21-.81-.33-1.21a1.7,1.7,0,0,0-.16-.53c-.06-.17-.17-.58-.26-.87l-.18-.56c-.08-.25-.16-.5-.25-.75-.15-.45-.31-.89-.47-1.34s-.33-.89-.5-1.33c-.34-.9-.71-1.79-1.08-2.68-1.45-3.46-3.08-6.87-4.58-10.25a55.13,55.13,0,0,1-2.14-5.43l-.19.27a12.67,12.67,0,0,0-.81,1.44c0,7.87-7.88,17.5-7.88,17.5L302,682.58l-6.94,10.67c-1,.53-2,2.35-2.78,4.94-.22.7-.43,1.46-.63,2.27-.14.54-.27,1.11-.39,1.68-.07.29-.13.58-.19.88l-.18.91v.14c-.12.62-.24,1.26-.35,1.91s-.24,1.4-.35,2.11q-.12.69-.21,1.38c-.14.89-.26,1.79-.38,2.68-.07.52-.14,1-.2,1.55l-.24,2c.51,1.64,1.08,3.26,1.67,4.85a7.9,7.9,0,0,1,.65,2.75,68.27,68.27,0,0,0,37.55,0v-.1a11.91,11.91,0,0,1-.24-2.73h0a75.49,75.49,0,0,1,1-7.65,27.78,27.78,0,0,0,.19-3.76v-.45C329.94,708.23,329.93,707.87,329.92,707.51Zm0,0a6.91,6.91,0,0,0-.07-1.2c-.07-.4-.06-.75-.11-1.13s-.09-.76-.14-1.14-.12-.76-.19-1.14-.14-.76-.22-1.14a1.72,1.72,0,0,0-.08-.38c-.11-.5-.23-1-.36-1.51s-.21-.81-.33-1.21a1.7,1.7,0,0,0-.16-.53c-.06-.17-.17-.58-.26-.87l-.18-.56c-.08-.25-.16-.5-.25-.75-.15-.45-.31-.89-.47-1.34s-.33-.89-.5-1.33c-.34-.9-.71-1.79-1.08-2.68-1.45-3.46-3.08-6.87-4.58-10.25a55.13,55.13,0,0,1-2.14-5.43l-.19.27a12.67,12.67,0,0,0-.81,1.44c0,7.87-7.88,17.5-7.88,17.5L302,682.58l-6.94,10.67c-1,.53-2,2.35-2.78,4.94-.22.7-.43,1.46-.63,2.27-.14.54-.27,1.11-.39,1.68-.07.29-.13.58-.19.88l-.18.91v.14c-.12.62-.24,1.26-.35,1.91s-.24,1.4-.35,2.11q-.12.69-.21,1.38c-.14.89-.26,1.79-.38,2.68-.07.52-.14,1-.2,1.55l-.24,2c.51,1.64,1.08,3.26,1.67,4.85a7.9,7.9,0,0,1,.65,2.75,68.27,68.27,0,0,0,37.55,0v-.1a11.91,11.91,0,0,1-.24-2.73h0a75.49,75.49,0,0,1,1-7.65,27.78,27.78,0,0,0,.19-3.76v-.45C329.94,708.23,329.93,707.87,329.92,707.51Zm0,0a6.91,6.91,0,0,0-.07-1.2c-.07-.4-.06-.75-.11-1.13s-.09-.76-.14-1.14-.12-.76-.19-1.14-.14-.76-.22-1.14a1.72,1.72,0,0,0-.08-.38c-.11-.5-.23-1-.36-1.51s-.21-.81-.33-1.21a1.7,1.7,0,0,0-.16-.53c-.06-.17-.17-.58-.26-.87l-.18-.56c-.08-.25-.16-.5-.25-.75-.15-.45-.31-.89-.47-1.34s-.33-.89-.5-1.33c-.34-.9-.71-1.79-1.08-2.68-1.45-3.46-3.08-6.87-4.58-10.25a55.13,55.13,0,0,1-2.14-5.43l-.19.27a12.67,12.67,0,0,0-.81,1.44c0,7.87-7.88,17.5-7.88,17.5L302,682.58l-6.94,10.67c-1,.53-2,2.35-2.78,4.94-.22.7-.43,1.46-.63,2.27-.14.54-.27,1.11-.39,1.68-.07.29-.13.58-.19.88l-.18.91v.14c-.12.62-.24,1.26-.35,1.91s-.24,1.4-.35,2.11q-.12.69-.21,1.38c-.14.89-.26,1.79-.38,2.68-.07.52-.14,1-.2,1.55l-.24,2c.51,1.64,1.08,3.26,1.67,4.85a7.9,7.9,0,0,1,.65,2.75,68.27,68.27,0,0,0,37.55,0v-.1a11.91,11.91,0,0,1-.24-2.73h0a75.49,75.49,0,0,1,1-7.65,27.78,27.78,0,0,0,.19-3.76v-.45C329.94,708.23,329.93,707.87,329.92,707.51Z" transform="translate(0 0.01)"/><path class="cls-e-7" d="M302.13,681.91l-.67-.09a25.68,25.68,0,0,1-3-.6l-.37-.1c-2.44-.69-5.11-1.93-5.71-4.11a3.86,3.86,0,0,1,.06-2.13,18.51,18.51,0,0,1,1.36-3.44v-.06c.08-.15.16-.3.25-.45a10,10,0,0,1,3.61-3.93l-1.2.19h0l-10.16,1.65-15.75,2.54s-2.8-.56-6.61,9.94a1.62,1.62,0,0,1-.13.39c-.92,2.57-1.89,5.78-2.89,9.79-.69,2.78-1.32,5.51-1.9,8.16-.17.8-.34,1.59-.5,2.37a62.1,62.1,0,0,0,5.81,6l.33.31A68.62,68.62,0,0,0,278,717.77l.19.1a65.68,65.68,0,0,0,9.4,4.16l.85.3c.18-1.85.38-3.9.62-6a1.71,1.71,0,0,1,.08-.63l.24-2c.06-.51.13-1,.2-1.55.12-.89.24-1.79.38-2.68q.09-.69.21-1.38c.11-.71.23-1.42.35-2.11s.23-1.29.35-1.91v-.14L291,703c.06-.3.12-.59.19-.88.12-.57.25-1.14.39-1.68.2-.81.41-1.57.63-2.27.8-2.59,1.73-4.41,2.78-4.94L302,682.58l.29-.45.13-.2Z" transform="translate(0 0.01)"/><path class="cls-e-18" d="M301.54,681.93l-7.37,11.32c-1,.51-1.94,2.28-2.73,4.79-.23.74-.46,1.55-.68,2.4a118.57,118.57,0,0,0-2.26,13.09,1.55,1.55,0,0,1-.08.6c-.34,2.78-.62,5.51-.85,7.92a65.68,65.68,0,0,1-9.4-4.16l-.19-.1a68.62,68.62,0,0,1-13.32-9.43l-.33-.31a62.1,62.1,0,0,1-5.81-6c-.24-.27-.47-.55-.7-.83.11-.52.22-1,.34-1.56.57-2.65,1.2-5.37,1.89-8.14a99,99,0,0,1,3.4-11.2,3.05,3.05,0,0,1,.13-.32c3.54-9.11,6.09-8.6,6.09-8.6l16.63-2.68,10.5-1.7-.33.19h0a10.61,10.61,0,0,0-2.89,3.08l-.29.49c-.12.19-.23.4-.35.61a17.57,17.57,0,0,0-1.38,3.5,3.7,3.7,0,0,0,.24,2.86c1,1.94,3.84,3,6.17,3.58l.39.1A26.29,26.29,0,0,0,301.54,681.93Z" transform="translate(0 0.01)"/><path class="cls-e-7" d="M359.33,702.14l-.41-8.88c1.75-14-1.75-14.87-1.75-14.87l-4.16-2h-.11l-16.73-8.11-.65-.32-.2-.09h0l-2.18-1.06h0l-1.38-.67-2.58-1.25-.87-.42v3.47c0,1,.09,2.17.17,3.53.18,3.42.51,8,1.1,13.4.33,3.13.75,6.55,1.27,10.22.31,2.17.53,4.33.67,6.44a113.17,113.17,0,0,1-.66,21.3l.91-.29a66.63,66.63,0,0,0,7.24-2.9h0a66.38,66.38,0,0,0,12.9-7.92l.18-.13a67.66,67.66,0,0,0,7.26-6.59Z" transform="translate(0 0.01)"/><path class="cls-e-18" d="M360.21,702.14l-.41-8.9c1.75-14-1.75-14.87-1.75-14.87l-5-2.42H353l-16.78-8.14-.77-.37-.15-.07-1.23-.6-1.63-.79-3.22-1.56v1.42h0v1.76c0,1,.09,2.31.18,3.8.17,3.19.47,7.37,1,12.34.36,3.41.81,7.2,1.4,11.28q.47,3.27.66,6.47a113.39,113.39,0,0,1-.62,21,67.46,67.46,0,0,0,7.24-2.9h0a66.38,66.38,0,0,0,12.9-7.92l.18-.13a67.66,67.66,0,0,0,7.26-6.59q.44-.44.84-.9Z" transform="translate(0 0.01)"/><path class="cls-e-7" d="M303.8,628.67c3.12-.53,6.26-1.67,9.36-1,2.6.54,4.77,2.27,7.15,3.47a18.44,18.44,0,0,0,7.38,2,4.33,4.33,0,0,0,2.71-.53c1.24-.86,1.42-2.62,1.21-4.12-.6-4.26-3.26-7.92-6-11.24a21.87,21.87,0,0,0-3.76-3.81c-3.59-2.65-8.34-3.1-12.79-2.9-5.08.23-10.24,1.21-14.65,3.76-3,1.72-9.88,7.14-7.49,11.06C289.43,629.41,299.87,629.34,303.8,628.67Z" transform="translate(0 0.01)"/><path class="cls-e-16" d="M303.8,627.67c3.12-.53,6.26-1.67,9.36-1,2.6.54,4.77,2.27,7.15,3.47a18.44,18.44,0,0,0,7.38,2,4.33,4.33,0,0,0,2.71-.53c1.24-.86,1.42-2.62,1.21-4.12-.6-4.26-3.26-7.92-6-11.24a21.87,21.87,0,0,0-3.76-3.81c-3.59-2.65-8.34-3.1-12.79-2.9-5.08.23-10.24,1.21-14.65,3.76-3,1.72-9.88,7.14-7.49,11.06C289.43,628.41,299.87,628.34,303.8,627.67Z" transform="translate(0 0.01)"/></g><g id="b7475575-9269-4b4a-a721-bb0a166a2f3e"><g id="_338417f9-9740-4f15-9fb5-4758cf3f6efe" data-name="338417f9-9740-4f15-9fb5-4758cf3f6efe"><path id="a3b10f10-7568-4e16-9739-cab30d2da761" class="cls-e-19" d="M675.8,519.14a2.31,2.31,0,0,1-1.67,1.65h-2.6l-.13.05v6.56h-1.6v-6.56l-.15-.05h-2.6a2.34,2.34,0,0,1-1.67-1.65H675.8" transform="translate(0 0.01)"/></g></g><path class="cls-e-7" d="M710.8,501.14s-23.1,1.59-29.47-3.19a61,61,0,0,0,28.75,11.95Z" transform="translate(0 0.01)"/><path class="cls-e-20" d="M713.61,494.92l-273-220a17.05,17.05,0,0,0-12.1-5h-11.6a148,148,0,1,0-25.63,25.63v11.59a17.05,17.05,0,0,0,5,12.1l273,220a17,17,0,0,0,24,.1l.1-.1,20.12-20.1A17.18,17.18,0,0,0,713.61,494.92Zm-413.47-225a91.14,91.14,0,1,1,91.14-91.14h0a91.09,91.09,0,0,1-91,91.16h-.12Z" transform="translate(0 0.01)"/><path class="cls-e-10" d="M237.58,175.94a67.7,67.7,0,0,0,13.58,40.78c.89,1.19,1.82,2.34,2.79,3.47.52.61,1.06,1.21,1.61,1.8q.41.47.84.9a67.66,67.66,0,0,0,7.26,6.59l.18.13a66.38,66.38,0,0,0,12.9,7.92h0a66.63,66.63,0,0,0,7.24,2.9l.91.29c.56.19,1.14.36,1.71.52l.23.07c.29.08.58.17.88.24a67.54,67.54,0,0,0,17.83,2.37c1,0,2,0,3.07-.07a67.48,67.48,0,0,0,15.77-2.58h.1c.95-.28,1.89-.57,2.82-.89h.1l.85-.3a65.68,65.68,0,0,0,9.4-4.16l.19-.1,1-.55a68.26,68.26,0,0,0,12.34-8.88l.33-.31a62.1,62.1,0,0,0,5.81-6l.21-.25c.17-.19.33-.38.49-.58.44-.52.86-1.06,1.28-1.6a68,68,0,1,0-121.72-41.71Z" transform="translate(0 0.01)"/><path class="cls-e-21" d="M261.11,197.81s14.75-1.25,21.51-10.63c6.59-9.13,11.07-9.24,11.29-9.24h0c.17-1.22.29-2.38.37-3.46v-.15a2,2,0,0,1-.93.41c-1.32.2-2.48-1.05-3.14-2.38a18.72,18.72,0,0,0-2-3.94c-1.63-1.88-4.3-1.89-6.24-3.32a8.58,8.58,0,0,1-3-5.72,14.91,14.91,0,0,1-.12-2.5,28,28,0,0,1,.42-5.33c.52-3.31,1.29-6.7,3.14-9.31s5.47-3.17,7.27-5.64c8.43-11.56,14.44-7.89,21.69-11.77a11.56,11.56,0,0,1,4.64-1.69c2.91-.17,5.51,1.91,7.85,3.89a22.27,22.27,0,0,1,4,4c2.09,2.93,3.26,7.84,3.16,12.14a18.07,18.07,0,0,1-.46,4.75c-.58,2.3-2.15,2.15-3.87,1.63a20.77,20.77,0,0,1-7.06,26.08v1.28a47.71,47.71,0,0,0,.16,4.78c.17.09,16.34,9.26,18.17,13.61s8.61,7.5,8.61,7.5,7.45,4,11,16.56l-.21.25a63.4,63.4,0,0,1-5.81,6.12l-.33.32a68.18,68.18,0,0,1-12.34,9c-.32.19-.65.38-1,.56l-.19.1a64.94,64.94,0,0,1-9.4,4.23l-.85.31h-.1c-.93.33-1.87.62-2.82.9h-.1a65.92,65.92,0,0,1-15.77,2.62c-1,0-2,.07-3.07.07a66.76,66.76,0,0,1-17.78-2.31c-.3-.07-.59-.16-.88-.24l-.23-.07c-.57-.16-1.15-.34-1.71-.53l-.91-.29a65.5,65.5,0,0,1-7.27-3h0a66.5,66.5,0,0,1-12.9-8.05l-.18-.13a66.71,66.71,0,0,1-7.26-6.7c-.29-.29-.57-.6-.84-.92-.55-.6-1.09-1.21-1.61-1.83-1-1.15-1.9-2.32-2.79-3.53C256.57,195.75,261.11,197.81,261.11,197.81Z" transform="translate(0 0.01)"/><path class="cls-e-22" d="M312.11,214.55,333.62,198s-14.41,3.09-14-19.94v-.23a58.92,58.92,0,0,1,.5-6.87c3.69-30.73-25.81-3.69-25.81-3.69a44.7,44.7,0,0,1,0,8.18v.22a57.1,57.1,0,0,1-6.14,21.71C280.16,212.7,312.11,214.55,312.11,214.55Z" transform="translate(0 0.01)"/><path class="cls-e-7" d="M297.06,171.14c3.65,3.55,5.88,10,11.37,10a20.17,20.17,0,0,0,11.17-3.35,58.92,58.92,0,0,1,.5-6.87c3.69-30.73-25.81-3.69-25.81-3.69S297.45,166.14,297.06,171.14Z" transform="translate(0 0.01)"/><circle class="cls-e-22" cx="308.43" cy="159.87" r="20.28"/><path class="cls-e-7" d="M327.88,133.89a22.16,22.16,0,0,0-4-3.92c-2.34-1.95-4.94-4-7.85-3.82a11.66,11.66,0,0,0-4.64,1.66c-7.25,3.82-13.26.21-21.69,11.57-1.8,2.43-5.41,3-7.27,5.55s-2.61,5.9-3.14,9.16a22.48,22.48,0,0,0-.31,6.7,8.4,8.4,0,0,0,3,5.62c1.94,1.41,4.61,1.42,6.24,3.27a18.2,18.2,0,0,1,2,3.87c.66,1.3,1.82,2.53,3.14,2.34s2.11-1.62,2.3-3a18.51,18.51,0,0,0-.25-4.27c-.25-2.53.07-5.29,1.56-7.2,1-1.31,2.5-2.09,3.49-3.42,2.38-3.21,1.3-8.6,3.91-11.58a6.19,6.19,0,0,1,6-1.67,25.7,25.7,0,0,1,6,2.58,44.23,44.23,0,0,0,8.21,3.17c2.38.65,5.14,2.21,5.95-1C331.8,144.78,330.61,137.66,327.88,133.89Z" transform="translate(0 0.01)"/><path class="cls-e-23" d="M327.88,132.89a22.16,22.16,0,0,0-4-3.92c-2.34-2-4.94-4-7.85-3.82a11.66,11.66,0,0,0-4.64,1.66c-7.25,3.82-13.26.21-21.69,11.57-1.8,2.43-5.41,3-7.27,5.55s-2.61,5.9-3.14,9.16a22.48,22.48,0,0,0-.31,6.7,8.4,8.4,0,0,0,3,5.62c1.94,1.41,4.61,1.42,6.24,3.27a18.2,18.2,0,0,1,2,3.87c.66,1.3,1.82,2.53,3.14,2.34s2.11-1.62,2.3-3a18.51,18.51,0,0,0-.25-4.27c-.25-2.53.07-5.29,1.56-7.2,1-1.31,2.5-2.09,3.49-3.42,2.38-3.21,1.3-8.6,3.91-11.58a6.19,6.19,0,0,1,6-1.67,25.7,25.7,0,0,1,6,2.58,44.23,44.23,0,0,0,8.21,3.17c2.38.65,5.14,2.21,5.95-1C331.8,143.78,330.61,136.66,327.88,132.89Z" transform="translate(0 0.01)"/><path class="cls-e-7" d="M288.15,225.22l-.4,15.35a67.54,67.54,0,0,0,17.83,2.37c1,0,2.05,0,3.07-.07a67.48,67.48,0,0,0,15.77-2.58h.1c1-.28,1.89-.57,2.82-.89h.1l.85-.3a65.68,65.68,0,0,0,9.4-4.16l.19-.1,1-.55-1.55-20.69,2.47-14.19-13.52-9.21a23.49,23.49,0,0,1-2.54,3.08,17.07,17.07,0,0,1-4.62,3.42c-9.7,4.78-20.74-2.82-26.23-7.52l-1.25-1.11c-1.42-1.29-2.23-2.17-2.23-2.17l-6.76,10.44Z" transform="translate(0 0.01)"/><path class="cls-e-24" d="M288.15,226.22l-.4,15.35a67.54,67.54,0,0,0,17.83,2.37c1,0,2.05,0,3.07-.07a67.48,67.48,0,0,0,15.77-2.58h.1c1-.28,1.89-.57,2.82-.89h.1l.85-.3a65.68,65.68,0,0,0,9.4-4.16l.19-.1,1-.55-1.55-20.69,2.47-14.19-13.52-9.21a23.49,23.49,0,0,1-2.54,3.08,17.07,17.07,0,0,1-4.62,3.42c-9.7,4.78-20.74-2.82-26.23-7.52l-1.25-1.11c-1.42-1.29-2.23-2.17-2.23-2.17l-6.76,10.44Z" transform="translate(0 0.01)"/><path class="cls-e-25" d="M251.16,216.72c.89,1.19,1.82,2.34,2.79,3.47.52.61,1.06,1.21,1.61,1.8q.41.47.84.9a67.66,67.66,0,0,0,7.26,6.59l.18.13a66.38,66.38,0,0,0,12.9,7.92h0a66.63,66.63,0,0,0,7.24,2.9l.91.29c.56.19,1.14.36,1.71.52l.23.07c.29.08.58.17.88.24a67.54,67.54,0,0,0,17.83,2.37c1,0,2,0,3.07-.07.78-12.76,1-23-.22-25.63a41.54,41.54,0,0,0-2.47-4.42c-4.94-7.94-14-19.88-13.51-21.39a15.62,15.62,0,0,0,.41-2.25c.53-3.94,1.06-11.15,1.06-11.15h0c-.22,0-4.7.11-11.29,9.09-6.76,9.22-21.51,10.45-21.51,10.45S256.57,196.55,251.16,216.72Z" transform="translate(0 0.01)"/><path class="cls-e-25" d="M325.63,227.45s.74,5.89,1.71,12.93h.1l.85-.3a65.68,65.68,0,0,0,9.4-4.16l.19-.1,1-.55a68.26,68.26,0,0,0,12.34-8.88l.33-.31a62.1,62.1,0,0,0,5.81-6l.21-.25c-3.57-12.39-11-16.29-11-16.29s-6.76-3.08-8.61-7.38-18.18-13.39-18.18-13.39v.07c0,.77-.26,7.82-.65,14.91-.25,4.61-.56,9.24-.92,12.18a14.16,14.16,0,0,1-.52,2.82C316.42,215.78,325.63,227.45,325.63,227.45Z" transform="translate(0 0.01)"/><path class="cls-e-26" d="M717.63,294.54l.74.16A1,1,0,0,0,717.63,294.54Z" transform="translate(0 0.01)"/><path class="cls-e-27" d="M842.64,431.22l.05-.09c1,19.8-.2,62.05-.2,62.05s-1.36,5.41-2.82,11.79l-1-40.14-1-37.8Z" transform="translate(0 0.01)"/><path class="cls-e-28" d="M862.57,527l-.11.43a2.58,2.58,0,0,1-.14.47c-1.7,6-11.8,39.62-21.55,30.28-10.67-10.25-5.49-33.78-5.49-33.78h.1l22.45-2.3,4.45,4.58Z" transform="translate(0 0.01)"/><path class="cls-e-29" d="M849.58,692.59l.57,64.21c-8.79,14.59-8.08,27.58-8.08,27.58l-29,1.15c-7.08-4.76-2-18-2-18v-33s-4.53-32.31-2.37-41.3-9.09-25.55-9.09-25.55l-1.58-18c-5.49-7.21-8.09-47-8.09-47l-5.9-20c.15.87,3.21,17.66,0,20.75S779.59,620,779.59,620s3.18,37.81,0,45.46.86,12,.86,12l.59,39.25s-2.75,10.54.28,25.41,0,37.81,0,37.81H750.15l.14-16-5-13.57s-3.46-56-6.2-68.11a30.44,30.44,0,0,1,2.88-21.22s-5.77-9.24-5.48-15.73-4.4-18.9-4.4-18.9l-6.72-45.61a88.32,88.32,0,0,0-3.31-26c-3.91-13-9.67-30-9.67-30l6.51.58,32.89,2.92s79.92-5.37,83.52-.91a14.74,14.74,0,0,1,1.52,4.66c3.59,16.13,8.33,66.64,8.33,66.64s9.67,39.4,5.52,43.3S847,658.6,847,658.6c6.2,11.91,2.59,34,2.59,34Z" transform="translate(0 0.01)"/><path class="cls-e-30" d="M782,804.25c-.23,3.57-4.23,3.79-4.23,3.79-11.69,1.84-14.16,6.4-14.16,6.4s-11.26,11.14-28.13,9.57c-14.37-1.38-13-4-12.24-8.69a18.52,18.52,0,0,0,.23-2.68c0-6.5,5-8.34,12.77-13.21s7.58-9,10.82-12.56,3.58-10.49,3.58-10.49c3.68-6.39,13,1,13,1,.43,2.27,14.28,2,14.28,2s1.84,7.36,2.78,7.79c.62.29,1.09,6.07,1.28,11,.09,2.5.1,4.87,0,6.09Z" transform="translate(0 0.01)"/><path class="cls-e-7" d="M782,804.25c-.23,3.57-4.23,3.79-4.23,3.79-11.69,1.84-14.16,6.4-14.16,6.4s-11.26,11.14-28.13,9.57c-14.37-1.38-13-4-12.24-8.69,6.42,1.59,18.71,3.81,25.88-.08,10-5.42,17.11-9.21,17.11-9.21L782,798c.11,2.63.12,5,0,6.22Z" transform="translate(0 0.01)"/><path class="cls-e-30" d="M843.05,827.58s-18.65-14.44-24.25-14.77-8.66-5.2-8.66-5.2.11-3.35.47-7.25c.44-4.6,1.21-10,2.56-11.37,2.49-2.6,3-6.16,8.66-3.89,0,0,8-14.1,17.42-3.21L849,796.68s1.84,6.17,14.19,12.77c4.94,2.65,7.17,5.77,7.76,8.61a7.66,7.66,0,0,1-.86,5.46h0a6.27,6.27,0,0,1-3.6,3" transform="translate(0 0.01)"/><path class="cls-e-7" d="M843.05,827.58s-18.65-14.44-24.25-14.77-8.66-5.2-8.66-5.2.11-3.35.47-7.25c5.72,1.72,14.41,4.75,16.74,8,3.57,5,14.41,11.9,14.41,11.9S862,818.31,871,818a7.66,7.66,0,0,1-.86,5.48h0c-1.1.93-2.33,1.93-3.6,3" transform="translate(0 0.01)"/><path class="cls-e-28" d="M791.43,319.87,764.79,348s-32.25-2.37-26.62-11.9c2.87-4.85,3.32-15,3.07-23.84-.24-8.52-1.12-15.77-1.12-15.77S785.36,274,781.9,295a34.74,34.74,0,0,0-.13,12c2,10.61,9.66,12.9,9.66,12.9Z" transform="translate(0 0.01)"/><path class="cls-e-7" d="M782.15,294.7s0,4-.32,12.8c-5.47,3-12.75,8.19-19.56,8.19a38,38,0,0,1-26.18-10.19,33.36,33.36,0,0,0-.15-12.36C732.11,271.48,782.15,294.7,782.15,294.7Z" transform="translate(0 0.01)"/><path class="cls-e-7" d="M836.77,532c-8.3,19.76-61.71,20.17-61.71,20.17V530.62l-3.23-.21c1.4,6.17-2,21.21-2,21.21-42.21,6-52.49-18.07-52.49-18.07l1.46-8.23,32.89,2.92s79.92-5.37,83.52-.91a14.82,14.82,0,0,1,1.56,4.66Z" transform="translate(0 0.01)"/><path class="cls-e-31" d="M775.06,549.56V528l-3.23-.2c1.4,6.17-2,21.21-2,21.21-31.76,4.48-45.45-8-50.28-14.48a20.1,20.1,0,0,1-2.21-3.6l12.88-72.52,3-106.72L737.86,333l1.08-9v-.1l.11.05,3.28,1.41L762,333.84,784.44,317l.32-.25,1.11-.84,1.85,1.49,4.59,3.67L807,416.11s25.54,73.18,30.27,102.72c.19,1.18.35,2.28.47,3.31C840.88,549.06,775.06,549.56,775.06,549.56Z" transform="translate(0 0.01)"/><circle class="cls-e-32" cx="764.46" cy="335.9" r="1.9"/><circle class="cls-e-32" cx="765.33" cy="353.22" r="1.9"/><circle class="cls-e-32" cx="767.22" cy="381.26" r="1.9"/><circle class="cls-e-32" cx="770.37" cy="411.45" r="1.9"/><circle class="cls-e-32" cx="772.26" cy="439.81" r="1.9"/><circle class="cls-e-32" cx="774.16" cy="470.01" r="1.9"/><circle class="cls-e-32" cx="773.4" cy="499.89" r="1.9"/><path class="cls-e-7" d="M740.28,469s-2.12,27.78-6,35.85-5.64,30.74-5.64,30.74l-9-1a20.1,20.1,0,0,1-2.21-3.6l12.88-72.52,3-106.72L738,333l1.08-9a.21.21,0,0,1,.12-.05,3.64,3.64,0,0,1,3.22.05l.44.22c-.13.37-.26.75-.38,1.14-3.52,11-4.84,31.4-4.84,31.4s5.06,37.23,5.63,54.55-3,57.65-3,57.65Z" transform="translate(0 0.01)"/><path class="cls-e-7" d="M837.45,525.75s-21.79,8.23-28.72,1-6.2-41-6.2-41-6.64-62.35-10.83-72.59-2-84.15-2-84.15-2.84-9.54-5.26-12.06a2.33,2.33,0,0,0-.52-.43l.84.18,3,.65,4.59,3.67,14.72,95.05s25.54,73.18,30.27,102.72Z" transform="translate(0 0.01)"/><path class="cls-e-7" d="M862.57,527.91h-.25c-2.74.35-27,3.28-27.07-1.75a17,17,0,0,1,.1-1.75l22.45-2.3,4.45,4.58c.08.29.15.55.21.75Z" transform="translate(0 0.01)"/><path class="cls-e-32" d="M873.7,468.1c-6.82,16.22-6.21,48.42-6.21,48.42s-3.89,5.91-5.48,4.32.58,6.2.58,6.2-27.21,3.62-27.34-1.73,6.25-30.89,6.25-30.89,1.73-60.76-.73-70.28-1.39-69-1.39-69h0l15.93,8.3s13.22,34.32,15.39,49c0,0,9.81,39.43,3,55.64" transform="translate(0 0.01)"/><path class="cls-e-7" d="M791.85,419.82s-9,21.93-11.84,23.38.58,7.21.58,7.21S796.9,427.61,791.85,419.82Z" transform="translate(0 0.01)"/><path class="cls-e-7" d="M786.51,342.89c.1-.42-10.69,10.58-13.56,12.22S783.44,355,786.51,342.89Z" transform="translate(0 0.01)"/><path class="cls-e-7" d="M756.46,418.08S740,428.73,742.17,432.93,756.46,418.08,756.46,418.08Z" transform="translate(0 0.01)"/><path class="cls-e-7" d="M786.36,573.38s14,9,35.8,11.26Z" transform="translate(0 0.01)"/><path class="cls-e-7" d="M752.74,595s13,16.3,18.91,16.74S752.74,595,752.74,595Z" transform="translate(0 0.01)"/><path class="cls-e-7" d="M770.92,659c-.58.29-7.36,14.72-14.29,15.16S770.92,659,770.92,659Z" transform="translate(0 0.01)"/><path class="cls-e-7" d="M831.11,690.56s12.87-2.88,15.72,6.35C846.83,696.91,846,694,831.11,690.56Z" transform="translate(0 0.01)"/><path class="cls-e-7" d="M822.45,743.39s15.58-3.18,18.9,1.16S822.45,743.39,822.45,743.39Z" transform="translate(0 0.01)"/><path class="cls-e-7" d="M778.33,750.75c0,.14-15.87,3.18-15.24,5.2s16.92,1.72,17.5-1.45a3,3,0,0,0-2.07-3.7l-.19,0Z" transform="translate(0 0.01)"/><path class="cls-e-7" d="M817.25,764.46s26.08-3.18,24.44,2.3-24.44-2.3-24.44-2.3Z" transform="translate(0 0.01)"/><path class="cls-e-7" d="M680.72,443.2" transform="translate(0 0.01)"/><path class="cls-e-7" d="M763.07,790.62s5.07,6.49,3.77,10.17S763.07,790.62,763.07,790.62Z" transform="translate(0 0.01)"/><path class="cls-e-7" d="M832.07,806.85s1.13-8.71,5.67-8.79,4.77-.47,8.23.86,6.72,3.41,5.69,3.73-6-5-11-2.29A36.57,36.57,0,0,0,832.07,806.85Z" transform="translate(0 0.01)"/><path class="cls-e-7" d="M747.85,344.72l14.23-10s-20.89-12.35-23.38-10.61-4.19,17.32-4.19,17.32Z" transform="translate(0 0.01)"/><path class="cls-e-31" d="M747.79,344.07l14.29-10.23s-20.89-12.34-23.38-10.61-4.19,18.19-4.19,18.19Z" transform="translate(0 0.01)"/><path class="cls-e-33" d="M747.79,344.07l14.29-10.23s-20.89-12.34-23.38-10.61-4.19,18.19-4.19,18.19Z" transform="translate(0 0.01)"/><path class="cls-e-7" d="M783.73,338.38l-17.8-6.59S788.6,307,791.42,320.74Z" transform="translate(0 0.01)"/><path class="cls-e-31" d="M783.73,337.5l-17.8-6.59s22.67-24.82,25.49-11.06Z" transform="translate(0 0.01)"/><path class="cls-e-33" d="M783.73,337.5l-17.8-6.59s22.67-24.82,25.49-11.06Z" transform="translate(0 0.01)"/><path class="cls-e-7" d="M783.16,316.41a1,1,0,0,1,.73.15Z" transform="translate(0 0.01)"/><path class="cls-e-32" d="M784.88,314.67l47.24,10.19s13,2.88,22.36,35.49-12.84,72.58-12.84,72.58l-4.91-4.17L839.19,524s-21.8,8.22-28.72,1-6.21-41-6.21-41-6.64-62.37-10.83-72.64-2-84.14-2-84.14S787.52,314.1,784.88,314.67Z" transform="translate(0 0.01)"/><path class="cls-e-7" d="M828.07,375.37c-.67.62-1.44,29.44,1.45,51.38a280.54,280.54,0,0,0,8.18,39.54l-4.28-87.92s-3.33-4.91-5.35-3Z" transform="translate(0 0.01)"/><path class="cls-e-7" d="M822.3,350.54c1.16.72,6.21,12.7,3.89,17.61S822.3,350.54,822.3,350.54Z" transform="translate(0 0.01)"/><path class="cls-e-34" d="M733.9,256.75s14.76,29.95,56.36,12.56l-9.68-15.19L763.39,248Z" transform="translate(0 0.01)"/><path class="cls-e-34" d="M753.28,250.08l-16.58,6.17-9.34,15.19c40.13,17.39,54.37-12.56,54.37-12.56Z" transform="translate(0 0.01)"/><ellipse class="cls-e-34" cx="758.63" cy="279.49" rx="35.16" ry="33.48" transform="translate(473.11 1035.87) rotate(-89.54)"/><path class="cls-e-28" d="M791.42,284.62c0,17-14.57,30.71-32.56,30.72s-32.57-13.74-32.57-30.7,14.57-30.7,32.55-30.71a33.83,33.83,0,0,1,20.32,6.7A30.1,30.1,0,0,1,791.42,284.62Z" transform="translate(0 0.01)"/><path class="cls-e-34" d="M733.69,256.73a15.78,15.78,0,0,1,5-6.39c6.89-5.33,18.18-6.46,23.95-12.56,1.38,1.67.33,4.29-2.07,5,5.55,0,12-.4,15.13-4a6.9,6.9,0,0,1-1.74,8.61c4.92.16,10.17,2.77,10.49,6.63.2,2.57-1.83,5-4.52,6.46a30.22,30.22,0,0,1-9.15,2.71c-9.39,1.61-43.24,8.41-37.11-6.5Z" transform="translate(0 0.01)"/><path class="cls-e-28" d="M665.58,556.89c-13.83,13.93-13.17-19.8-12.83-27.78l.08-1.64,6.26-6.47,10.57,1.83a27.57,27.57,0,0,1,2.22,4.81C674.27,534.13,676.29,546.1,665.58,556.89Z" transform="translate(0 0.01)"/><path class="cls-e-7" d="M714.84,399.08c-.51.84-1.1,39.85,1.11,69.54,1.36,18.09,3.45,36,6.26,53.52l-3.28-119s-2.55-6.65-4.09-4.07Z" transform="translate(0 0.01)"/><path class="cls-e-7" d="M680.59,434.62c.68.12,17.13-12.84,27.89-24.82a189.55,189.55,0,0,0,17.88-23.39L679.55,430s-1,4.31,1,4.64Z" transform="translate(0 0.01)"/><path class="cls-e-32" d="M699.78,363.54l-10.12,3.18-18.38,35.5s-18.72,29.24-17.59,54.18,1.87,39.19,1.87,39.19-6.65,28.53-2.73,31.88a13.46,13.46,0,0,0,7.95,3.36l-7.95-3.36s19.31,14.78,25.86,8.09,5.86-34.63,5.86-34.63-5.47-21.67-1.63-29,5.49-28.22,5.62-28.7,5.87-11,8.57-20.06c2.06-7,12.22-18.46,12.22-18.46l-.23-14.75Z" transform="translate(0 0.01)"/><path class="cls-e-4" id="color-section" d="M715.61,492.92l-273-220a17.05,17.05,0,0,0-12.1-5h-11.6a148,148,0,1,0-25.63,25.63v11.59a17.05,17.05,0,0,0,5,12.1l273,220a17,17,0,0,0,24,.1l.1-.1,20.12-20.1A17.18,17.18,0,0,0,715.61,492.92Zm-413.47-225a91.14,91.14,0,1,1,91.14-91.14h0a91.09,91.09,0,0,1-91,91.16h-.12Z" transform="translate(0 0.01)"/><path class="cls-e-32" d="M741.06,323.35l-.43-.22a3.69,3.69,0,0,0-4,.42L693.8,358.3s-9.31,12.88-8,35.11l16.39,20.5s9.48-14.4,12.94-12.09c0,0,7.19,79.62,2.28,88.57s-7.07,42.43-7.07,42.43l16.59,1.88S728.66,512,732.56,504s6-35.86,6-35.86,3.51-40.35,2.93-57.68-5.63-54.54-5.63-54.54,1.41-21.82,5.21-32.53Z" transform="translate(0 0.01)"/><path class="cls-e-35" d="M753,190.42c-16.41,0-29.76-14-29.76-31.39s13.33-31.39,29.76-31.39S782.81,141.7,782.81,159,769.48,190.42,753,190.42" transform="translate(0 0.01)"/><path class="cls-e-36" d="M753.24,188.26c-15.51,0-28.09-13.25-28.09-29.56s12.58-29.57,28.09-29.57,28.08,13.25,28.08,29.57-12.57,29.56-28.08,29.56" transform="translate(0 0.01)"/><path class="cls-e-9" d="M741.05,154.74l10.53,10.19,14.92-23.1,5.27,4.62-20.18,27.72-14.92-17.55Z" transform="translate(0 0.01)"/>

</symbol>
</svg>