<?xml version="1.0" encoding="utf-8"?>
<!-- Generator: Adobe Illustrator 16.0.4, SVG Export Plug-In . SVG Version: 6.00 Build 0)  -->
<!DOCTYPE svg PUBLIC "-//W3C//DTD SVG 1.1//EN" "http://www.w3.org/Graphics/SVG/1.1/DTD/svg11.dtd">
<svg version="1.1" id="Layer_1" xmlns="http://www.w3.org/2000/svg" xmlns:xlink="http://www.w3.org/1999/xlink" x="0px" y="0px"
	 width="142.664px" height="79.155px" viewBox="0 0 142.664 79.155" enable-background="new 0 0 142.664 79.155"
	 xml:space="preserve">
<path fill="#414141" d="M50.623,40.498h2.761c0.508,0,0.92-0.412,0.92-0.92V28.533c0-0.509-0.412-0.921-0.92-0.921h-2.761
	c-0.51,0-0.921,0.412-0.921,0.921v11.045C49.702,40.086,50.113,40.498,50.623,40.498 M51.543,29.453h0.92v9.204h-0.92V29.453z"/>
<path fill="#414141" d="M69.95,27.612c-0.508,0-0.92,0.412-0.92,0.921v11.045c0,0.508,0.412,0.92,0.92,0.92h2.763
	c0.508,0,0.92-0.412,0.92-0.92V28.533c0-0.509-0.412-0.921-0.92-0.921H69.95z M71.792,38.657h-0.92v-9.204h0.92V38.657z"/>
<path fill="#414141" d="M89.279,40.498h2.762c0.509,0,0.921-0.412,0.921-0.92V28.533c0-0.509-0.412-0.921-0.921-0.921h-2.762
	c-0.509,0-0.921,0.412-0.921,0.921v11.045C88.358,40.086,88.771,40.498,89.279,40.498 M90.2,29.453h0.92v9.204H90.2V29.453z"/>
<path fill="#414141" d="M141.743,11.045h-7.363V9.204c0-0.508-0.412-0.92-0.921-0.92h-24.852c-0.508,0-0.92,0.412-0.92,0.92v1.841
	h-3.682V0.921c0-0.509-0.412-0.921-0.92-0.921H39.578c-0.51,0-0.922,0.412-0.922,0.921v10.124h-3.681V9.204
	c0-0.508-0.412-0.92-0.921-0.92H9.204c-0.509,0-0.92,0.412-0.92,0.92v1.841H0.921C0.412,11.045,0,11.457,0,11.965v65.349v0.921v0.92
	h0.921h8.283h24.851h8.284h57.986h8.282h24.852h8.284h0.921v-0.92v-0.921V11.965C142.664,11.457,142.252,11.045,141.743,11.045
	 M8.284,77.314H1.841V12.885h6.443V77.314z M33.135,11.965v65.349h-23.01V11.965v-1.84h23.01V11.965z M41.419,77.314h-6.443V12.886
	h3.681h0.922h0.92h0.921V77.314z M99.403,77.314H43.259v-0.92h56.145V77.314z M99.403,74.553H43.259v-0.92h56.145V74.553z
	 M60.747,71.792H48.781v-23.01h11.966V71.792z M77.314,71.792H65.35v-23.01h11.965V71.792z M93.882,71.792H81.917v-23.01h11.965
	V71.792z M99.403,11.965v59.827h-3.681V47.861c0-0.508-0.412-0.92-0.921-0.92H80.996c-0.509,0-0.921,0.412-0.921,0.92v23.931h-0.921
	V47.861c0-0.508-0.411-0.92-0.92-0.92H64.429c-0.508,0-0.921,0.412-0.921,0.92v23.931h-0.92V47.861c0-0.508-0.412-0.92-0.92-0.92
	H47.86c-0.508,0-0.92,0.412-0.92,0.92v23.931h-3.682V11.965c0-0.508-0.412-0.92-0.92-0.92h-1.841V1.841h61.668v9.204h-1.841
	C99.815,11.045,99.403,11.457,99.403,11.965 M107.688,77.314h-6.442V12.886h0.921h0.92h0.92h3.682V77.314z M132.539,11.965v65.349
	h-23.011V11.965v-1.84h23.011V11.965z M140.822,77.314h-6.442V12.885h6.442V77.314z"/>
<path fill="#414141" d="M14.727,40.498h5.522c0.509,0,0.921-0.412,0.921-0.92V23.01c0-0.508-0.412-0.92-0.921-0.92h-5.522
	c-0.509,0-0.921,0.412-0.921,0.92v16.568C13.806,40.086,14.218,40.498,14.727,40.498 M15.646,23.931h3.683v14.727h-3.683V23.931z"/>
<path fill="#414141" d="M23.01,40.498h5.522c0.509,0,0.921-0.412,0.921-0.92V23.01c0-0.508-0.412-0.92-0.921-0.92H23.01
	c-0.508,0-0.92,0.412-0.92,0.92v16.568C22.09,40.086,22.502,40.498,23.01,40.498 M23.931,23.931h3.682v14.727h-3.682V23.931z"/>
<path fill="#414141" d="M14.727,62.588h5.522c0.509,0,0.921-0.412,0.921-0.921V45.1c0-0.508-0.412-0.92-0.921-0.92h-5.522
	c-0.509,0-0.921,0.412-0.921,0.92v16.567C13.806,62.176,14.218,62.588,14.727,62.588 M15.646,46.021h3.683v14.727h-3.683V46.021z"/>
<path fill="#414141" d="M23.01,62.588h5.522c0.509,0,0.921-0.412,0.921-0.921V45.1c0-0.508-0.412-0.92-0.921-0.92H23.01
	c-0.508,0-0.92,0.412-0.92,0.92v16.567C22.09,62.176,22.502,62.588,23.01,62.588 M23.931,46.021h3.682v14.727h-3.682V46.021z"/>
<path fill="#414141" d="M114.131,40.498h5.521c0.51,0,0.921-0.412,0.921-0.92V23.01c0-0.508-0.411-0.92-0.921-0.92h-5.521
	c-0.509,0-0.921,0.412-0.921,0.92v16.568C113.21,40.086,113.622,40.498,114.131,40.498 M115.051,23.931h3.682v14.727h-3.682V23.931z
	"/>
<path fill="#414141" d="M122.415,40.498h5.521c0.508,0,0.92-0.412,0.92-0.92V23.01c0-0.508-0.412-0.92-0.92-0.92h-5.521
	c-0.51,0-0.922,0.412-0.922,0.92v16.568C121.493,40.086,121.905,40.498,122.415,40.498 M123.335,23.931h3.682v14.727h-3.682V23.931z
	"/>
<path fill="#414141" d="M114.131,62.588h5.521c0.51,0,0.921-0.412,0.921-0.921V45.1c0-0.508-0.411-0.92-0.921-0.92h-5.521
	c-0.509,0-0.921,0.412-0.921,0.92v16.567C113.21,62.176,113.622,62.588,114.131,62.588 M115.051,46.021h3.682v14.727h-3.682V46.021z
	"/>
<path fill="#414141" d="M122.415,62.588h5.521c0.508,0,0.92-0.412,0.92-0.921V45.1c0-0.508-0.412-0.92-0.92-0.92h-5.521
	c-0.51,0-0.922,0.412-0.922,0.92v16.567C121.493,62.176,121.905,62.588,122.415,62.588 M123.335,46.021h3.682v14.727h-3.682V46.021z
	"/>
<path fill="#414141" d="M68.494,15.037c-0.584,0.652-0.942,1.509-0.942,2.451c0,2.03,1.652,3.681,3.682,3.681
	c2.03,0,3.682-1.651,3.682-3.681c0-0.682-0.189-1.318-0.514-1.867l7.245-7.245c0.359-0.359,0.359-0.942,0-1.301
	c-0.359-0.36-0.941-0.36-1.302,0L73.1,14.32c-0.548-0.324-1.185-0.514-1.866-0.514c-0.424,0-0.829,0.076-1.21,0.209l-2.619-3.93
	c-0.281-0.423-0.854-0.537-1.276-0.255s-0.537,0.853-0.255,1.276L68.494,15.037z M69.585,16.674
	c0.285-0.574,0.859-0.978,1.532-1.021c0.039-0.002,0.077-0.006,0.116-0.006c0.164,0,0.323,0.024,0.476,0.064
	c0.633,0.17,1.132,0.669,1.301,1.302c0.041,0.152,0.065,0.31,0.065,0.475c0,1.015-0.826,1.841-1.842,1.841
	c-1.015,0-1.841-0.826-1.841-1.841C69.393,17.195,69.463,16.92,69.585,16.674"/>
</svg>
