<?xml version="1.0" encoding="utf-8"?>
<!-- Generator: Adobe Illustrator 16.0.4, SVG Export Plug-In . SVG Version: 6.00 Build 0)  -->
<!DOCTYPE svg PUBLIC "-//W3C//DTD SVG 1.1//EN" "http://www.w3.org/Graphics/SVG/1.1/DTD/svg11.dtd">
<svg version="1.1" id="Layer_1" xmlns="http://www.w3.org/2000/svg" xmlns:xlink="http://www.w3.org/1999/xlink" x="0px" y="0px"
	 width="197.535px" height="80.727px" viewBox="0 0 197.535 80.727" enable-background="new 0 0 197.535 80.727"
	 xml:space="preserve">
<g>
	<path fill="#414141" d="M0,40.363c0-0.82,0.664-1.484,1.484-1.484h194.566c0.819,0,1.484,0.664,1.484,1.484
		c0,0.82-0.665,1.484-1.484,1.484H1.484C0.664,41.847,0,41.183,0,40.363"/>
	<path fill="#414141" d="M30.023,29.439h-3.38l-5.777-7.445c-0.77,0.128-1.54,0.171-2.396,0.171h-3.553v7.274h-2.78V0.343h6.333
		c7.916,0,12.023,4.664,12.023,10.953c0,4.665-2.311,8.473-6.804,10.056L30.023,29.439z M18.299,19.726
		c6.633,0,9.285-3.552,9.285-8.43c0-4.877-2.694-8.472-9.285-8.472h-3.381v16.902H18.299z"/>
	<polygon fill="#414141" points="37.47,0.343 55.014,0.343 55.014,2.825 40.25,2.825 40.25,17.373 53.43,17.373 53.43,19.812 
		40.25,19.812 40.25,26.958 55.611,26.958 55.611,29.438 37.47,29.438 	"/>
	<path fill="#414141" d="M62.758,22.678c1.541,2.91,4.193,4.578,7.616,4.578c3.979,0,6.333-1.968,6.333-5.006
		c0-3.209-1.968-4.664-5.478-6.29l-2.353-1.112c-4.193-1.969-6.718-3.851-6.718-7.916C62.159,2.781,65.368,0,69.646,0
		c3.638,0,6.162,1.369,7.959,4.279l-2.14,1.369c-1.326-2.182-3.123-3.209-5.776-3.209c-2.866,0-4.793,1.84-4.793,4.407
		c0,2.781,1.584,3.808,5.136,5.477l2.354,1.113c4.664,2.225,7.102,4.364,7.102,8.729c0,4.792-3.637,7.616-9.07,7.616
		c-4.749,0-8.13-2.311-10.012-5.862L62.758,22.678z"/>
	<polygon fill="#414141" points="91.599,2.824 82.569,2.824 82.569,0.342 103.365,0.342 103.365,2.824 94.38,2.824 94.38,29.439 
		91.599,29.439 	"/>
	<path fill="#414141" d="M105.248,14.891C105.248,6.29,111.923,0,120.182,0c8.258,0,14.933,6.29,14.933,14.891
		s-6.675,14.89-14.933,14.89C111.923,29.781,105.248,23.492,105.248,14.891 M132.205,14.891c0-7.06-5.092-12.366-12.023-12.366
		s-12.023,5.306-12.023,12.366s5.092,12.366,12.023,12.366S132.205,21.951,132.205,14.891"/>
	<path fill="#414141" d="M159.463,29.439h-3.381l-5.776-7.445c-0.771,0.128-1.54,0.171-2.396,0.171h-3.551v7.274h-2.782V0.343h6.333
		c7.916,0,12.024,4.664,12.024,10.953c0,4.665-2.312,8.473-6.804,10.056L159.463,29.439z M147.738,19.726
		c6.632,0,9.285-3.552,9.285-8.43c0-4.877-2.695-8.472-9.285-8.472h-3.38v16.902H147.738z"/>
	<polygon fill="#414141" points="166.908,0.343 184.452,0.343 184.452,2.825 169.689,2.825 169.689,17.373 182.868,17.373 
		182.868,19.812 169.689,19.812 169.689,26.958 185.051,26.958 185.051,29.438 166.908,29.438 	"/>
	<path fill="#414141" d="M16.747,80.342h-4.579V51.246h7.445c8.002,0,12.409,4.407,12.409,11.125c0,6.675-4.45,11.082-12.409,11.082
		h-2.866V80.342z M19.442,69.388c5.605,0,7.873-2.653,7.873-7.017c0-4.408-2.312-7.061-7.873-7.061h-2.695v14.078H19.442z"/>
	<path fill="#414141" d="M38.185,70.073V51.246h4.579v18.57c0,4.664,2.31,6.761,6.546,6.761c4.193,0,6.504-2.097,6.504-6.761v-18.57
		h4.578v18.827c0,7.103-4.792,10.654-11.082,10.654C42.977,80.727,38.185,77.176,38.185,70.073"/>
	<polygon fill="#414141" points="68.052,51.246 72.63,51.246 72.63,76.277 85.467,76.277 85.467,80.342 68.052,80.342 	"/>
	<polygon fill="#414141" points="91.587,51.246 96.165,51.246 96.165,76.277 109.002,76.277 109.002,80.342 91.587,80.342 	"/>
	<rect x="115.249" y="51.246" fill="#414141" width="4.579" height="29.096"/>
	<path fill="#414141" d="M130.141,80.342h-4.622l12.751-29.695h0.257l12.794,29.695h-4.836l-1.668-4.065h-13.008L130.141,80.342z
		 M138.355,60.702l-4.835,11.51h9.584L138.355,60.702z"/>
	<polygon fill="#414141" points="156.884,50.647 157.098,50.647 171.304,67.035 185.339,50.647 185.553,50.647 185.553,80.342 
		181.23,80.342 181.23,61.472 171.304,73.325 171.09,73.325 161.204,61.472 161.204,80.342 156.884,80.342 	"/>
</g>
</svg>
