<?xml version="1.0" encoding="utf-8"?>
<!-- Generator: Adobe Illustrator 22.1.0, SVG Export Plug-In . SVG Version: 6.00 Build 0)  -->
<svg version="1.1" id="ae7ad495-543d-4c4b-9483-8059c5566fe6"
	 xmlns="http://www.w3.org/2000/svg" xmlns:xlink="http://www.w3.org/1999/xlink" x="0px" y="0px" viewBox="0 0 1009.5 839.6"
	 style="enable-background:new 0 0 1009.5 839.6;" xml:space="preserve">
<style type="text/css">
	.st0{opacity:0.1;fill:#6C63FF;enable-background:new    ;}
	.st1{fill:#6C63FF;}
	.st2{fill:#3A3768;}
	.st3{fill:#E6E8EC;}
	.st4{opacity:0.1;enable-background:new    ;}
	.st5{fill:url(#SVGID_1_);}
	.st6{fill:#8E6F7F;}
	.st7{fill:#5F5570;}
	.st8{fill:#EAEAF2;}
	.st9{fill:#BC8487;}
	.st10{fill:#FFC4D0;}
	.st11{opacity:0.1;}
	.st12{fill:#FFD037;}
	.st13{fill:#A8A8A8;}
	.st14{opacity:0.2;enable-background:new    ;}
	.st15{fill:#FFFFFF;}
	.st16{fill:none;stroke:#FFFFFF;stroke-width:5;stroke-miterlimit:10;}
	.st17{font-family:'MyriadPro-Regular';}
	.st18{font-size:47.4376px;}
</style>
<title>personalization</title>
<ellipse class="st0" cx="506" cy="781" rx="304" ry="41.1"/>
<path class="st1" d="M354.3,234.3c0,0,27.7-36.1,42.8-33.3c0,0-16.8,32.2-42.8,37V234.3z"/>
<path class="st1" d="M368.3,189.8c0,0,24.5-27.7,37.7-27.6c0,0-19.3,37-38.7,36.7L368.3,189.8z"/>
<path class="st2" d="M645.1,289.8h4.3c1.3,0,2.3,1,2.3,2.3v68.4c0,1.3-1,2.3-2.3,2.3h-4.3c-1.3,0-2.3-1-2.3-2.3v-68.4
	C642.8,290.8,643.8,289.8,645.1,289.8z"/>
<path class="st2" d="M350.7,232.6h0.4c1.3,0,2.3,1,2.3,2.3v19.5c0,1.3-1,2.3-2.3,2.3h-0.4c-1.3,0-2.3-1-2.3-2.3v-19.5
	C348.4,233.6,349.4,232.6,350.7,232.6z"/>
<path class="st2" d="M350.5,276.6h1c1.3,0,2.3,1,2.3,2.3v37.3c0,1.3-1,2.3-2.3,2.3h-1c-1.3,0-2.3-1-2.3-2.3v-37.3
	C348.2,277.7,349.2,276.6,350.5,276.6z"/>
<path class="st2" d="M350.6,333.1h0.7c1.3,0,2.3,1,2.3,2.3V373c0,1.3-1,2.3-2.3,2.3h-0.7c-1.3,0-2.3-1-2.3-2.3v-37.6
	C348.3,334.1,349.3,333.1,350.6,333.1z"/>
<path class="st2" d="M390.2,153.2h218.4c21.5,0,39,17.5,39,39v524.4c0,21.5-17.5,39-39,39H390.2c-21.5,0-39-17.5-39-39V192.2
	C351.2,170.6,368.6,153.2,390.2,153.2z"/>
<path class="st1" d="M605.8,168.8h-34v4.1c0,10.7-8.7,19.4-19.4,19.4c0,0,0,0,0,0H444.2c-10.7,0-19.4-8.7-19.4-19.4c0,0,0,0,0,0
	v-4.1H393c-13,0-23.5,10.5-23.5,23.5v0v524c0,13,10.5,23.5,23.5,23.5h212.7c13,0,23.5-10.5,23.5-23.5V192.4
	C629.3,179.4,618.8,168.8,605.8,168.8C605.8,168.8,605.8,168.8,605.8,168.8z"/>
<path class="st3" d="M474.7,171.2h33.6c2.1,0,3.9,1.7,3.9,3.9v0.7c0,2.1-1.7,3.9-3.9,3.9h-33.6c-2.1,0-3.9-1.7-3.9-3.9V175
	C470.8,172.9,472.5,171.2,474.7,171.2z"/>
<circle class="st3" cx="523.2" cy="175.4" r="4.8"/>
<rect x="397" y="219.4" class="st4" width="206.9" height="442.9"/>
<linearGradient id="SVGID_1_" gradientUnits="userSpaceOnUse" x1="491.1981" y1="201.0188" x2="698.0695" y2="201.0188" gradientTransform="matrix(1 0 0 -1 -95.23 811.82)">
	<stop  offset="0" style="stop-color:#808080;stop-opacity:0.25"/>
	<stop  offset="0.54" style="stop-color:#808080;stop-opacity:0.12"/>
	<stop  offset="1" style="stop-color:#808080;stop-opacity:0.1"/>
</linearGradient>
<path class="st5" d="M596.5,788c0,0-4.9-11.4-7.1-16.6c-1.2-3-3.3-3.5-4.9-3.4l0.1-1l0.4-4.7l0.1-1c3.8-0.8,7-1.4,7-1.4l-2.4-121.3
	c0,0-1-1.3-3.4-9c-1.2-3.8-7-8.6-12.4-12.3c-0.8-0.6-1.7-1.2-2.5-1.7c2-1.7,4-3.2,6.2-4.6c3.1-1.8,4.1-12,4.1-12l-0.5,1
	c0.5-1,0-27.1,0-27.1l-1.8-27.1c0,0-1.3-32.2-11.3-40.6s-22.6-11.4-22.6-11.4l-7-1.8l0,0l-12.9-3.3c-0.4-0.6-0.7-1.2-1-1.9
	c-0.1-0.2-0.2-0.5-0.4-0.8c8-5.7,12.8-14.9,12.8-24.6c0-1.6-0.1-3.2-0.4-4.8c0-0.3-0.1-0.6-0.2-0.9c1.1-0.7,2.1-1.5,3-2.4
	c1.5-1.2,2.8-2.7,3.7-4.5l0,0c0.1-0.3,0.3-0.7,0.3-1c0-0.1,0-0.2,0.1-0.3s0.1-0.5,0.1-0.8c0-0.1,0-0.2,0-0.3c0-0.3,0-0.6,0-0.9
	c0-0.1,0-0.1,0-0.2c0-0.3,0-0.7-0.1-1c0,0,0,0,0-0.1l0,0c-0.2-1.2-0.5-2.3-0.9-3.4c-1-2.6-2.3-5-2.8-7.8c-0.6-3.2,0.1-6.8-1.5-9.7
	c-1.3-2.2-3.5-3.8-6.1-4.2c-2.5-0.4-5.1-0.1-7.5,0.9c-1.2,0.6-2.4,0.9-3.7,1c-0.9-0.1-1.9-0.3-2.7-0.7c-3-1.2-5.8-2.7-8.4-4.5
	c-1.9-1.5-3.9-2.8-6-3.9c-2.1-1.1-4.7-1.2-6.9-0.3c-3.7,1.9-4.4,7.1-7.8,9.4c-2.4,1.6-5.5,1.4-8.3,1.5s-6.1,0.8-7.5,3.3
	c-1,1.7-0.8,3.8-0.6,5.8l0.1,0.7c0,0.2,0,0.5,0.1,0.7c0.2,2.6-0.2,5.1-1.1,7.6c-1.4,3.7-4,7.3-3.9,11l0,0c0,0.6,0.1,1.2,0.2,1.8
	c0.1,0.3,0.2,0.6,0.3,0.9l0,0c0.6,1.2,1.2,2.4,1.8,3.6l0.1,0.2c0.1,0.1,0.1,0.3,0.2,0.4s0.2,0.4,0.2,0.6s0.1,0.2,0.1,0.3
	s0.1,0.4,0.2,0.6c0.2,0.6,0.2,1.2,0.2,1.7c-0.1,0.8-0.2,1.5-0.2,2.3c0,0.8,0.6,1.5,1.3,1.6c0.4,0,0.8-0.1,1.2-0.4
	c0.9-0.5,1.8-1.1,2.5-1.8c0,0.3,0,0.6,0.1,1c0.7,7.2,3.9,13.8,9.1,18.8c0,0.3,0,0.6-0.1,1s0,0.7-0.1,1.1l0,0l-11.2,3.5
	c0,0,0.1,0.2,0.2,0.5l-1.2,0.5l0,0c-5.8,2.3-12.3,5.3-15.9,7.9c-1.6,1.2-3.1,2.1-4.4,2.9c-4.8,2.9-8.4,7.3-10.4,12.5l-0.2,0.4
	c-1,2.3-5.9,17.9-5.9,17.9s-3.6,8.7-4.1,14.3c0,0-5.9,18.6-4.4,30.9c0,0-4.6,17.6-2.8,20.4c0,0-1.8,7.6,6.2,15.2
	c-0.6,0.4-1.2,0.8-1.9,1.2c-6.3,3.9-15.3,10.3-16.8,15.3c-2.4,7.7-3.4,9-3.4,9l-2.4,121.1c0,0,3.2,0.6,7,1.4l0.1,1l0.4,4.7l0.1,1
	c-1.6-0.1-3.7,0.5-4.9,3.4c-2.2,5.2-7,16.6-7,16.6s-10.8,10-4.2,19.3c0.3,0.4,0.6,0.8,1,1.2c4.7,4.3,14.7,1.5,21.8-1.2
	c3.6-1.5,6.7-4.1,9-7.3c0.6-0.8,1.4-1.2,2.4-1.3c1.6-0.3,3.2-0.9,4.5-2c1.6-1.2,2.5-3,2.5-5c0,0,0-0.1,0-0.2l-0.6-14.2
	c0,0-0.8-9.9-3.2-9.3l-0.6,0.2l-0.2-1l0,0l-0.3-1.9l-0.2-1h1.4c0,0,0.3-11.2,4.5-20.1s6.8-80.2,6.8-80.2s50.9,0.8,52.6-3.9l0,0
	c1,0,2.1,0,3.1-0.1c1.7,4.8,49.7,5,49.7,5s2.7,71.5,6.8,80.3c0.9,1.9,1.6,3.9,2.2,5.9l0,0c1.3,4.6,2.1,9.4,2.3,14.2h1.4l-0.2,1
	l-0.3,1.9l-0.2,1l-0.7-0.2c-2.4-0.6-3.2,9.3-3.2,9.3l-0.7,14.3c-0.1,2,0.8,3.8,2.4,5c1.3,1,2.9,1.7,4.5,2c1,0.1,1.8,0.6,2.4,1.3
	c2.3,3.2,5.4,5.7,9,7.3c7.7,3,18.7,5.9,22.8,0.1C607.3,798,596.5,788,596.5,788z M467.2,609.7L467.2,609.7h0.1H467.2z M547.6,568.8
	c0,0,1.3,4.8,3.6,7.4s1.2,18.4,1.2,18.4c-0.9,0.1-1.8,0.2-2.7,0.4C547.9,584.5,546.2,572.8,547.6,568.8z"/>
<polygon class="st6" points="437,768.4 416.9,770.4 416.3,763.7 415.9,759.1 415.4,752.3 434.4,753.3 435.9,762 436.2,763.9 
	436.2,763.9 "/>
<polygon class="st6" points="583.4,753.3 582.9,760.1 582.5,764.7 581.9,771.4 561.8,769.4 562.6,764.9 562.9,763 564.4,754.3 "/>
<path class="st7" d="M562.1,655.9l-59.8,2.8c-2.7,0.1-5.4,0.1-8.2,0l-57.1-2.8v-45.3h125.1V655.9z"/>
<path class="st4" d="M562.1,655.9l-59.8,2.8c-2.7,0.1-5.4,0.1-8.2,0l-57.1-2.8v-45.3h125.1V655.9z"/>
<path class="st8" d="M485.5,488.7c0,0-19.9,6.7-27.4,12.2c-1.6,1.1-3,2.1-4.3,2.8c-4.6,2.9-8.2,7.2-10.1,12.3c0,0.1-0.1,0.3-0.2,0.4
	c-1,2.2-5.8,17.5-5.8,17.5s-3.5,8.5-4,14s28.5,20.2,28.5,20.2s-14,30.5-7.8,38.2s97.5,11.5,95.5,0s-5.5-30.5-3.8-35.8l31-22.5
	c0,0-1.2-31.5-11-39.8s-22-11.2-22-11.2l-19.4-5c0,0-6.8,17-14.3,19.2C503.1,513.7,486.7,503.3,485.5,488.7z"/>
<path class="st4" d="M513.5,517.4c0,0-8.5,7.1-12.9,0c0,0-4,11.9,0,15.9l-0.2,0.8l-0.7,3.6l-9.3,77l7.6,13.2l13.9-17.4l-1.1-72
	l-0.5-4.1l-0.1-1h2.4C512.6,533.3,518.9,522.4,513.5,517.4z"/>
<path class="st4" d="M515.5,517.4c0,0-8.5,7.1-12.9,0c0,0-4,11.9,0,15.9l-0.2,0.8l-0.7,3.6l-9.3,77l7.6,13.2l13.9-17.4l-1.1-72
	l-0.5-4.1l-0.1-1h2.4C514.6,533.3,520.9,522.4,515.5,517.4z"/>
<polygon class="st9" points="513,609.4 499.1,626.8 491.5,613.7 500.7,536.7 501.4,533.1 501.6,532.3 502.9,529.1 511.2,532.3 
	511.4,533.3 511.9,537.4 "/>
<path class="st4" d="M435.9,762c-4.3,0-8.6-0.5-12.8-1.3c-2.1-0.5-4.7-1.1-7.1-1.6l-0.6-6.8l19,1L435.9,762z"/>
<path class="st7" d="M499.2,658.8c-1.7,4.7-51.2,3.8-51.2,3.8s-2.7,70-6.7,78.7S437,761,437,761s-8.7,0-14-1.3s-14-3-14-3l2.3-118.8
	c0,0,1-1.2,3.3-8.8c1.5-4.8,10.3-11.1,16.4-15c3.4-2.1,5.9-3.5,5.9-3.5l29.6,1.2l18.3,0.7C484.9,612.6,500.9,654.2,499.2,658.8z"/>
<path class="st4" d="M437,768.4l-20.1,2l-0.6-6.7c0.8,0,1.5,0.2,2.2,0.5c3.7,2.6,14.2,0.5,17.7-0.3l0,0L437,768.4z"/>
<path class="st9" d="M440.8,787.9c0,1.9-0.9,3.8-2.4,4.9c-1.3,1-2.8,1.6-4.3,1.9c-0.9,0.1-1.8,0.6-2.3,1.3c-2.2,3.1-5.3,5.6-8.8,7.1
	c-6.9,2.7-16.7,5.4-21.2,1.2c-0.4-0.3-0.7-0.7-1-1.1c-6.4-9.1,4.1-18.9,4.1-18.9s4.7-11.1,6.9-16.2c0.9-2.6,3.8-4,6.4-3.1
	c0.2,0.1,0.3,0.1,0.5,0.2c4,2.9,16.1,0.1,18.5-0.5s3.1,9.1,3.1,9.1l0.6,13.9C440.8,787.8,440.8,787.8,440.8,787.9z"/>
<path class="st4" d="M583.4,753.3l-0.6,6.8c-2.4,0.5-5,1.1-7.1,1.6c-4.2,0.8-8.5,1.3-12.8,1.3l1.5-8.7L583.4,753.3z"/>
<path class="st7" d="M589.8,757.7c0,0-8.7,1.7-14,3s-14,1.3-14,1.3s-0.3-11-4.3-19.7s-6.7-78.7-6.7-78.7s-46.8-0.3-48.5-4.9
	s20.4-45,20.4-45l13.5-0.7l25.6-1.4c0,0,5,2.7,10.2,6.4s10.9,8.3,12.1,12.1c2.3,7.5,3.3,8.8,3.3,8.8L589.8,757.7z"/>
<path class="st4" d="M582.5,764.7l-0.6,6.7l-20.1-2l0.8-4.5c3.5,0.8,14,2.9,17.7,0.3C581,764.9,581.7,764.7,582.5,764.7z"/>
<path class="st9" d="M580.3,766.2c2.5-1.2,5.5-0.1,6.7,2.4c0.1,0.2,0.2,0.3,0.2,0.5c2.1,5.1,6.9,16.2,6.9,16.2s10.5,9.8,4.1,18.9
	c-4,5.7-14.8,2.8-22.2-0.1c-3.5-1.5-6.6-4-8.8-7.1c-0.6-0.7-1.4-1.2-2.3-1.3c-1.6-0.3-3.2-1-4.4-2c-1.5-1.1-2.4-3-2.3-4.9l0.6-14
	c0,0,0.8-9.7,3.1-9.1S576.3,769,580.3,766.2z"/>
<path class="st10" d="M528.6,497.2l-20.2,21.4l-0.6,0.6l-0.7-0.4c-4.2-2.5-25.3-15.2-23.5-19.1c1-2.2,1.6-6.7,1.9-10.6
	c0-0.5,0.1-0.9,0.1-1.4c0.2-3.1,0.2-5.5,0.2-5.5s38-6.5,36.5,0c-0.6,2.6,0.3,5.6,1.6,8.2c0.4,0.8,0.8,1.5,1.2,2.1
	C526.2,494.1,527.3,495.7,528.6,497.2z"/>
<path class="st4" d="M523.9,490.4c-11.7,8.6-28,7.5-38.3-2.7c0.2-3.1,0.2-5.5,0.2-5.5s38-6.5,36.5,0
	C521.8,484.8,522.7,487.8,523.9,490.4z"/>
<path class="st10" d="M536,465.5c0.2,16.4-12.9,29.9-29.2,30.1c-15.6,0.2-28.7-11.7-30-27.3c-0.1-0.9-0.1-1.9-0.1-2.8
	c-0.3-16.4,12.7-29.9,29.1-30.2c16.4-0.3,29.9,12.7,30.2,29.1C536,464.7,536,465.1,536,465.5L536,465.5z"/>
<path class="st4" d="M535.6,460.7c-1.6,1.3-3.6,1.8-5.6,1.5c-4.6-1-6.2-8-10.8-8.5s-7.8,6-12.5,5.9c-2,0-3.8-1.4-5.6-2.3
	c-3.2-1.6-8.5-2.6-12-1.4c-5.2,1.8-7,6.6-10.3,10.5c-0.6,0.7-1.2,1.3-1.9,1.8c-0.1-0.9-0.1-1.9-0.1-2.8c-0.1-16.4,13-29.8,29.4-29.9
	C520.9,435.4,533.5,446.1,535.6,460.7L535.6,460.7z"/>
<path class="st6" d="M501.1,456.4c1.8,0.9,3.6,2.2,5.6,2.3c4.7,0.1,7.8-6.4,12.5-5.9s6.2,7.5,10.8,8.5c3.1,0.7,6-1.6,8.3-3.8
	c1.5-1.2,2.7-2.7,3.6-4.4c1-2.5,0.5-5.3-0.5-7.9s-2.2-4.9-2.7-7.6c-0.6-3.2,0.1-6.7-1.4-9.5c-1.3-2.2-3.4-3.7-5.9-4.1
	c-2.5-0.4-5-0.1-7.3,0.8c-1.1,0.5-2.4,0.9-3.6,1c-0.9-0.1-1.8-0.3-2.7-0.6c-2.9-1.1-5.6-2.6-8.2-4.4c-1.8-1.5-3.8-2.7-5.8-3.8
	c-2.1-1.1-4.6-1.2-6.7-0.3c-3.6,1.8-4.3,7-7.6,9.2c-2.3,1.6-5.3,1.4-8.1,1.5s-6,0.8-7.3,3.2c-1.2,2.1-0.6,4.7-0.4,7
	c0.1,2.5-0.2,5-1.1,7.4c-1.5,4.1-4.7,8.2-3.6,12.5c0.7,2.8,3.2,5.1,3.1,8c-0.1,0.7-0.2,1.5-0.2,2.2c0,0.8,0.6,1.4,1.3,1.6
	c0.4,0,0.8-0.1,1.1-0.4c1.7-0.9,3.2-2.1,4.4-3.6c3.4-3.9,5.1-8.7,10.4-10.5C492.6,453.8,497.8,454.8,501.1,456.4z"/>
<path class="st10" d="M535.5,630.9l-5.4,1.5l-12.5,3.4c-2.9,2.2-6.1,3.8-9.6,4.8c-7.6,1.9-12.6-2.3-16.7-8.8
	c-1.7-2.6-0.8-4.7,1.3-6.3c5.2-3.9,18.1-5.2,22-4.7c2.6,0.2,5.2-0.2,7.6-1.2c1.7-0.6,3.3-1.4,4.9-2.3L535.5,630.9z"/>
<path class="st4" d="M535.5,630.9l-5.4,1.5c-1.5-4.7-4.1-10.5-7.8-12.8c1.7-0.6,3.3-1.4,4.9-2.3L535.5,630.9z"/>
<path class="st4" d="M572,618.1c-2.2,1.8-4.1,3.5-4.1,3.5s-26,8.2-31,18.4c0,0-4-20-12.5-20.2c0,0,9.2-3.6,11.8-6.7l25.6-1.3
	C561.8,611.7,566.8,614.4,572,618.1z"/>
<path class="st8" d="M571.6,539.7l5.8,8.5l1.8,26.5c0,0,0.5,25.5,0,26.5l0.5-1c0,0-1,10-4,11.8s-9.8,7.6-9.8,7.6s-26,8.2-31,18.4
	c0,0-4-20-12.5-20.2c0,0,12.8-5,12.5-8.2c0,0,9.8-8.8,10.5-11s5.6-2.5,5.6-2.5s1.1-15.5-1.1-18s-3.5-7.2-3.5-7.2L571.6,539.7z"/>
<path class="st4" d="M508,640.6c-7.6,1.9-12.6-2.3-16.7-8.8c-1.7-2.6-0.8-4.7,1.3-6.3l0.8,0.3C493.5,625.8,507.2,631.8,508,640.6z"
	/>
<path class="st10" d="M504.9,648.5c-9,12.5-25.8-4.9-27-8.4c-0.5-1.3-2.2-2.4-4.1-3.3c-2.5-1.1-5.1-2-7.8-2.6l14.9-12.1l2.8,1.1
	l8.8,3.5C492.5,626.8,513.9,636,504.9,648.5z"/>
<path class="st4" d="M483.7,623.3c-8.2,3.9-10,9.5-10,13.5c-2.5-1.1-5.1-2-7.8-2.6l14.9-12.1L483.7,623.3z"/>
<path class="st4" d="M470.6,644.9c0,0-24-19-35.5-27.2c-1.4-1-2.8-2.2-4-3.5c3.4-2.1,5.9-3.5,5.9-3.5l29.6,1.2
	c0.8,1.4,1.3,2.3,1.3,2.3l16,10.5C464.6,630.9,470.6,644.9,470.6,644.9z"/>
<path class="st8" d="M438.6,545.2l-4.8,2.8c0,0-5.8,18.2-4.2,30.2c0,0-4.5,17.2-2.8,20c0,0-2.2,9.2,9.2,17.5s35.5,27.2,35.5,27.2
	s-6-14,13.2-20.2l-16-10.5c0,0-5.4-10.7-10.5-13c0,0-4-4-1.5-6.8s4.5-5.8,4.5-8.5s1-15.8,1-15.8l3-14L438.6,545.2z"/>
<path class="st4" d="M511.4,533.3h-9.8c-0.1-0.1-0.1-0.1-0.2-0.2l0.2-0.8l1.2-3.2l8.4,3.2L511.4,533.3z"/>
<path class="st9" d="M514.5,516.4c0,0-8.5,7.1-12.9,0c0,0-4,11.9,0,15.9h12C513.6,532.3,519.9,521.4,514.5,516.4z"/>
<path class="st4" d="M525.9,493.2l12.6,3.2c0,0-11.9,31-14.6,31l-15.1-7.2L525.9,493.2z"/>
<path class="st4" d="M528.6,497.2l-20.2,21.4l-0.6,0.6l-0.7-0.4l17.6-26.9l0.4,0.7C526.2,494.2,527.3,495.7,528.6,497.2z"/>
<path class="st8" d="M524.9,492.2l12.6,3.2c0,0-11.9,31-14.6,31l-15.1-7.2L524.9,492.2z"/>
<path class="st4" d="M484.5,489.7l-10.9,3.4c0,0,10.8,32.5,13.8,34.2l19.5-7.2L484.5,489.7z"/>
<path class="st4" d="M508.4,518.6l-0.6,0.6c0,0-26.2-15.2-24.2-19.5c1-2.2,1.6-6.7,1.9-10.6v-0.6L508.4,518.6z"/>
<path class="st8" d="M485.5,488.7l-10.9,3.4c0,0,10.8,32.5,13.8,34.2l19.5-7.2L485.5,488.7z"/>
<path class="st4" d="M459.5,541.8c0,0,6.6,1.2,6.5,8s2.7-8.8,2.7-8.8L459.5,541.8z"/>
<path class="st4" d="M461,562.8c0,0-1.8,10.3,0,19.7s1.7,12.5,3.1,13S461,562.8,461,562.8z"/>
<path class="st4" d="M545,561.8c-2,0.3-3.4,2.1-3.1,4c0,0.2,0.1,0.4,0.1,0.6C542.9,570.7,545,561.8,545,561.8z"/>
<path class="st4" d="M430.7,596.8c0,0,21.4-1.8,25,2S430.7,596.8,430.7,596.8z"/>
<path class="st4" d="M555,598.3c0,0,15.7-1.9,19.3,0.7"/>
<path class="st4" d="M561.4,600.8c0,0,9.3,0.3,11.5,1.5"/>
<path class="st4" d="M563.2,604.2c0,0,8.5-0.3,9.7,1"/>
<path class="st4" d="M443.3,651.2c0,0,7.3,3.8,6.5,7.7S443.3,651.2,443.3,651.2z"/>
<path class="st4" d="M437,653c0,0,11.1,14.4,9.6,19.2S437,653,437,653z"/>
<path class="st4" d="M556.1,655.4c0,0-5.5,4.5-5.3,8.3"/>
<path class="st4" d="M429.1,744.7c0,0,0,4.2,7.9,10.5"/>
<path class="st4" d="M568,734.7c0,0-0.8,8.8-8.5,13.4"/>
<g class="st11">
	<path d="M473.6,434.6c0-0.7-0.1-1.4-0.2-2.1c-0.1,1.5-0.1,3.1,0.1,4.6C473.6,436.3,473.6,435.5,473.6,434.6z"/>
	<path d="M472,462.6c0.2-2.9-2.4-5.2-3.1-8c0-0.1-0.1-0.3-0.1-0.4c-0.2,1.1-0.2,2.3,0.1,3.4c0.6,2.3,2.4,4.2,2.9,6.5
		C471.9,463.5,472,463.1,472,462.6z"/>
	<path d="M542,450.1c-0.9,1.7-2.1,3.2-3.6,4.4c-2.3,2.1-5.2,4.5-8.3,3.8c-4.6-1-6.2-8-10.8-8.5s-7.8,6-12.5,5.9
		c-2,0-3.8-1.4-5.6-2.3c-3.2-1.6-8.5-2.6-12-1.4c-5.2,1.8-7,6.6-10.4,10.5c-1.3,1.4-2.7,2.6-4.4,3.6c-0.3,0.2-0.7,0.3-1.1,0.4
		c-0.5-0.1-0.9-0.4-1.1-0.9v0.1c-0.1,0.7-0.2,1.5-0.2,2.2c0,0.8,0.6,1.4,1.3,1.6c0.4,0,0.8-0.1,1.1-0.4c1.7-0.9,3.1-2.1,4.4-3.6
		c3.4-3.9,5.1-8.7,10.4-10.5c3.5-1.2,8.8-0.2,12,1.4c1.8,0.9,3.6,2.2,5.6,2.3c4.7,0.1,7.8-6.4,12.5-5.9s6.3,7.4,10.8,8.5
		c3.1,0.7,6-1.6,8.3-3.8c1.5-1.2,2.7-2.7,3.6-4.4c0.6-1.4,0.7-3,0.4-4.5C542.3,449.1,542.2,449.6,542,450.1z"/>
</g>
<path class="st4" d="M404.8,784.3c0,0,8.2-2.5,11.6,2.3"/>
<path class="st4" d="M594,785.3c0,0-13.5-0.8-13,2.9"/>
<path class="st1" d="M302.4,723.3c0,0,5.5,7.2-2.5,18s-14.6,20-12,26.8c0,0,12.1-20.2,22-20.4S313.3,735.4,302.4,723.3z"/>
<path class="st4" d="M302.4,723.3c0.5,0.7,0.9,1.5,1.1,2.3c9.6,11.3,14.8,21.8,5.5,22.1c-8.6,0.2-18.9,15.7-21.4,19.5
	c0.1,0.3,0.2,0.6,0.3,0.9c0,0,12.1-20.2,22-20.4S313.3,735.4,302.4,723.3z"/>
<path class="st12" d="M312.7,732.4c0,2.5-0.3,4.6-0.6,4.6s-0.6-2-0.6-4.6s0.4-1.3,0.7-1.3S312.7,729.9,312.7,732.4z"/>
<path class="st12" d="M316.2,735.5c-2.2,1.2-4.2,1.9-4.3,1.6s1.5-1.5,3.7-2.8s1.4-0.3,1.5,0S318.4,734.2,316.2,735.5z"/>
<path class="st1" d="M273.4,723.3c0,0-5.5,7.2,2.5,18s14.6,20,12,26.8c0,0-12.1-20.2-22-20.4S262.6,735.4,273.4,723.3z"/>
<path class="st4" d="M273.4,723.3c-0.5,0.7-0.9,1.5-1.1,2.3c-9.6,11.3-14.7,21.8-5.5,22.1c8.6,0.2,19,15.7,21.4,19.5
	c-0.1,0.3-0.2,0.6-0.3,0.9c0,0-12.1-20.2-22-20.4S262.6,735.4,273.4,723.3z"/>
<path class="st12" d="M263.2,732.4c0,2.5,0.3,4.6,0.6,4.6s0.6-2,0.6-4.6s-0.4-1.3-0.7-1.3C263.4,731.1,263.2,729.9,263.2,732.4z"/>
<path class="st12" d="M259.7,735.5c2.2,1.2,4.1,1.9,4.3,1.6s-1.5-1.5-3.7-2.8s-1.3-0.3-1.5,0C258.6,734.7,257.5,734.2,259.7,735.5z"
	/>
<path class="st13" d="M265,767.1c0,0,15.4-0.5,20-3.8s23.6-7.2,24.8-2s23.1,26.3,5.8,26.4s-40.3-2.7-44.9-5.5S265,767.1,265,767.1z"
	/>
<path class="st14" d="M315.8,786c-17.3,0.1-40.3-2.7-44.9-5.5c-3.5-2.2-4.9-9.8-5.4-13.4H265c0,0,1,12.4,5.6,15.2s27.6,5.7,44.9,5.5
	c5,0,6.7-1.8,6.6-4.5C321.4,785,319.5,786,315.8,786z"/>
<g>
	<path class="st15" d="M442.2,274.4h-24.1v23H445v6.9h-34.8v-63.8h33.5v6.9h-25.5v20.2h24.1V274.4z"/>
	<path class="st15" d="M456,272.7c0-5.4-0.1-10-0.4-14.3h7.1l0.3,9h0.4c2-6.2,6.9-10,12.3-10c0.9,0,1.6,0.1,2.3,0.3v7.9
		c-0.8-0.2-1.7-0.3-2.8-0.3c-5.7,0-9.7,4.5-10.8,10.7c-0.2,1.1-0.4,2.5-0.4,3.9v24.4h-8V272.7z"/>
	<path class="st15" d="M487.4,272.7c0-5.4-0.1-10-0.4-14.3h7.1l0.3,9h0.4c2-6.2,6.9-10,12.3-10c0.9,0,1.6,0.1,2.3,0.3v7.9
		c-0.8-0.2-1.7-0.3-2.8-0.3c-5.7,0-9.7,4.5-10.9,10.7c-0.2,1.1-0.4,2.5-0.4,3.9v24.4h-8V272.7z"/>
	<path class="st15" d="M557.7,281c0,16.9-11.4,24.3-22.2,24.3c-12,0-21.3-9.1-21.3-23.6c0-15.3,9.7-24.3,22.1-24.3
		C549.1,257.4,557.7,267,557.7,281z M522.4,281.5c0,10,5.6,17.6,13.5,17.6c7.7,0,13.5-7.5,13.5-17.8c0-7.8-3.8-17.6-13.3-17.6
		C526.5,263.7,522.4,272.7,522.4,281.5z"/>
	<path class="st15" d="M568.8,272.7c0-5.4-0.1-10-0.4-14.3h7.1l0.3,9h0.4c2-6.2,6.9-10,12.3-10c0.9,0,1.6,0.1,2.3,0.3v7.9
		c-0.8-0.2-1.7-0.3-2.8-0.3c-5.7,0-9.7,4.5-10.8,10.7c-0.2,1.1-0.4,2.5-0.4,3.9v24.4h-8V272.7z"/>
</g>
<g>
	<polygon class="st16" points="500.2,327.2 463.7,388.6 536.7,388.6 	"/>
	<text transform="matrix(1.2973 0 0 1 492.8163 380.6371)" class="st15 st17 st18">!</text>
</g>
</svg>
