<?xml version="1.0" encoding="utf-8"?>
<!-- Generator: Adobe Illustrator 16.0.4, SVG Export Plug-In . SVG Version: 6.00 Build 0)  -->
<!DOCTYPE svg PUBLIC "-//W3C//DTD SVG 1.1//EN" "http://www.w3.org/Graphics/SVG/1.1/DTD/svg11.dtd">
<svg version="1.1" xmlns="http://www.w3.org/2000/svg" xmlns:xlink="http://www.w3.org/1999/xlink" x="0px" y="0px" width="288px"
	 height="432px" viewBox="0 0 288 432" enable-background="new 0 0 288 432" xml:space="preserve">
<g id="Layer_1" display="none">
	
		<image display="inline" overflow="visible" width="2000" height="3008" xlink:href="../../../Dropbox/picturetheskyimages/pilots and balloons/Al Jenkins -Twister Too - Brighton, CO.jpg"  transform="matrix(0.24 0 0 0.24 -93.6675 -124.3335)">
	</image>
</g>
<g id="Layer_17" display="none">
	<rect display="inline" width="288" height="432"/>
</g>
<g id="Layer_19" display="none">
	
		<image display="inline" overflow="visible" width="3872" height="2592" xlink:href="../../../Dropbox/picturetheskyimages/pilots and balloons/Mark Purdy - B.A.B.E. - Eaton, CO.jpg"  transform="matrix(0.24 0 0 0.24 -219.0293 -89)">
	</image>
</g>
<g id="Layer_20" display="none">
	
		<image display="inline" overflow="visible" width="3072" height="2304" xlink:href="../../../Dropbox/picturetheskyimages/pilots and balloons/Tamie Folley - Storm&apos;s End - Fort Collins, CO.jpg"  transform="matrix(0.2097 0 0 0.2097 176.6299 -24.5781)">
	</image>
</g>
<g id="basket_x5F_Lines">
	<g>
		
			<rect x="150.947" y="385.355" transform="matrix(0.868 0.4966 -0.4966 0.868 212.8949 -23.9238)" fill="#BCBEC0" stroke="#808285" stroke-width="0.15" stroke-miterlimit="10" width="0.999" height="6.252"/>
	</g>
	<g>
		
			<rect x="133.957" y="387.981" transform="matrix(0.4969 0.8678 -0.8678 0.4969 406.1075 76.4946)" fill="#BCBEC0" stroke="#808285" stroke-width="0.15" stroke-miterlimit="10" width="6.252" height="1"/>
	</g>
</g>
<g id="Basket">
	<path fill="#36200D" d="M154.499,405.688c-0.213,1.625-1.438,4.094-3.604,4.094s-3.391-2.469-3.604-4.094
		c-0.172-1.317-1.274-3.781-3.178-3.781c-1.903,0-3.006,2.464-3.178,3.781c-0.212,1.625-1.437,4.094-3.603,4.094
		s-3.391-2.469-3.603-4.094c-0.172-1.317-1.275-3.781-3.178-3.781v8.625l13.562,12.312l13.562-12.312v-8.625
		C155.774,401.906,154.671,404.37,154.499,405.688z"/>
	<path fill="none" stroke="#36200D" stroke-miterlimit="10" d="M143.782,409.146l2.17-17.807c0.375-1.386-0.04-3.396-1.184-3.534
		l-2.533-0.307c-1.13-0.136-2.607,1.835-2.923,3.001l-7.386,16.789"/>
	<path fill="none" stroke="#7C592F" stroke-miterlimit="10" d="M143.412,409.146l2.17-17.807c0.375-1.386-0.04-3.396-1.184-3.534
		l-2.533-0.307c-1.13-0.136-2.607,1.835-2.923,3.001l-7.386,16.789"/>
	<g>
		<path fill="#808285" stroke="#6D6E71" stroke-width="0.25" stroke-miterlimit="10" d="M145.415,389.35
			c0,0.185-0.236,0.334-0.527,0.334h-1.548c-0.291,0-0.526-0.149-0.526-0.334v-0.457c0-0.185,0.236-0.334,0.526-0.334h1.548
			c0.291,0,0.527,0.149,0.527,0.334V389.35z"/>
		<path fill="#808285" stroke="#6D6E71" stroke-width="0.25" stroke-miterlimit="10" d="M145.837,388.787
			c0,0.185-0.312,0.334-0.698,0.334h-2.049c-0.385,0-0.697-0.149-0.697-0.334v-0.457c0-0.185,0.312-0.334,0.697-0.334h2.049
			c0.386,0,0.698,0.149,0.698,0.334V388.787z"/>
		<path fill="#808285" stroke="#6D6E71" stroke-width="0.25" stroke-miterlimit="10" d="M146.197,388.225
			c0,0.185-0.377,0.334-0.844,0.334h-2.479c-0.466,0-0.844-0.149-0.844-0.334v-0.457c0-0.185,0.378-0.334,0.844-0.334h2.479
			c0.467,0,0.844,0.149,0.844,0.334V388.225z"/>
		<path fill="#808285" stroke="#6D6E71" stroke-width="0.25" stroke-miterlimit="10" d="M146.5,387.662
			c0,0.185-0.433,0.334-0.967,0.334h-2.838c-0.534,0-0.966-0.149-0.966-0.334v-0.457c0-0.185,0.433-0.334,0.966-0.334h2.838
			c0.534,0,0.967,0.149,0.967,0.334V387.662z"/>
		<path fill="#808285" stroke="#6D6E71" stroke-width="0.25" stroke-miterlimit="10" d="M146.583,387.1c0,0.185-0.447,0.334-1,0.334
			h-2.938c-0.552,0-1-0.149-1-0.334v-0.457c0-0.185,0.448-0.334,1-0.334h2.938c0.553,0,1,0.149,1,0.334V387.1z"/>
		<path fill="#808285" stroke="#6D6E71" stroke-width="0.25" stroke-miterlimit="10" d="M146.583,386.537
			c0,0.185-0.447,0.334-1,0.334h-2.938c-0.552,0-1-0.149-1-0.334v-0.457c0-0.185,0.448-0.334,1-0.334h2.938c0.553,0,1,0.149,1,0.334
			V386.537z"/>
		<path fill="#808285" stroke="#6D6E71" stroke-width="0.25" stroke-miterlimit="10" d="M142.709,385.094
			c0,0.373-0.028,0.675-0.064,0.675h-0.188c-0.036,0-0.064-0.302-0.064-0.675v-0.923c0-0.372,0.028-0.675,0.064-0.675h0.188
			c0.036,0,0.064,0.303,0.064,0.675V385.094z"/>
		<path fill="#808285" stroke="#6D6E71" stroke-width="0.25" stroke-miterlimit="10" d="M141.963,386.105
			c0,0.373-0.029,0.675-0.064,0.675h-0.189c-0.036,0-0.064-0.302-0.064-0.675v-0.923c0-0.372,0.029-0.675,0.064-0.675h0.189
			c0.036,0,0.064,0.303,0.064,0.675V386.105z"/>
		<path fill="#808285" stroke="#6D6E71" stroke-width="0.25" stroke-miterlimit="10" d="M146.583,386.105
			c0,0.373-0.028,0.675-0.064,0.675h-0.188c-0.036,0-0.064-0.302-0.064-0.675v-0.923c0-0.372,0.028-0.675,0.064-0.675h0.188
			c0.036,0,0.064,0.303,0.064,0.675V386.105z"/>
		<path fill="#808285" stroke="#6D6E71" stroke-width="0.25" stroke-miterlimit="10" d="M145.837,385.083
			c0,0.373-0.028,0.675-0.064,0.675h-0.188c-0.036,0-0.064-0.302-0.064-0.675v-0.923c0-0.372,0.028-0.675,0.064-0.675h0.188
			c0.036,0,0.064,0.303,0.064,0.675V385.083z"/>
		<path fill="#808285" stroke="#6D6E71" stroke-width="0.25" stroke-miterlimit="10" d="M146.583,384.287
			c0,0.185-0.447,0.334-1,0.334h-2.938c-0.552,0-1-0.149-1-0.334v-0.457c0-0.185,0.448-0.334,1-0.334h2.938c0.553,0,1,0.149,1,0.334
			V384.287z"/>
		<path fill="#808285" stroke="#6D6E71" stroke-width="0.25" stroke-miterlimit="10" d="M146.583,383.725
			c0,0.185-0.447,0.334-1,0.334h-2.938c-0.552,0-1-0.149-1-0.334v-0.457c0-0.185,0.448-0.334,1-0.334h2.938c0.553,0,1,0.149,1,0.334
			V383.725z"/>
		<path fill="#808285" stroke="#6D6E71" stroke-width="0.25" stroke-miterlimit="10" d="M146.583,383.162
			c0,0.185-0.447,0.334-1,0.334h-2.938c-0.552,0-1-0.149-1-0.334v-0.457c0-0.185,0.448-0.334,1-0.334h2.938c0.553,0,1,0.149,1,0.334
			V383.162z"/>
		<path fill="#808285" stroke="#6D6E71" stroke-width="0.25" stroke-miterlimit="10" d="M146.583,382.6c0,0.185-0.447,0.334-1,0.334
			h-2.938c-0.552,0-1-0.149-1-0.334v-0.457c0-0.185,0.448-0.334,1-0.334h2.938c0.553,0,1,0.149,1,0.334V382.6z"/>
		<path fill="#808285" stroke="#6D6E71" stroke-width="0.25" stroke-miterlimit="10" d="M146.583,382.037
			c0,0.185-0.447,0.334-1,0.334h-2.938c-0.552,0-1-0.149-1-0.334v-0.457c0-0.185,0.448-0.334,1-0.334h2.938c0.553,0,1,0.149,1,0.334
			V382.037z"/>
		<path fill="#808285" stroke="#6D6E71" stroke-width="0.25" stroke-miterlimit="10" d="M146.583,381.475
			c0,0.185-0.447,0.334-1,0.334h-2.938c-0.552,0-1-0.149-1-0.334v-0.457c0-0.185,0.448-0.334,1-0.334h2.938c0.553,0,1,0.149,1,0.334
			V381.475z"/>
	</g>
	<path fill="none" stroke="#7C592F" stroke-miterlimit="10" d="M144.696,409.146l-2.17-17.807c-0.375-1.386,0.04-3.396,1.184-3.534
		l2.533-0.307c1.13-0.136,2.607,1.835,2.923,3.001l7.386,16.789"/>
	<path fill="none" stroke="#9B6E31" stroke-miterlimit="10" d="M145.118,409.146l-2.17-17.807c-0.375-1.386,0.04-3.396,1.184-3.534
		l2.533-0.307c1.13-0.136,2.607,1.835,2.923,3.001l7.386,16.789"/>
	<path fill="#9B6E31" d="M146.011,424.457c0,0,9.458-1.305,9.562-1.322c1.261-0.229,2.104-1.135,2.104-2.822s0-9.781,0-9.781v-8.625
		c-1.902,0.264-3.006,2.88-3.178,4.221c-0.213,1.654-1.438,4.293-3.604,4.592c-2.166,0.3-3.391-2-3.604-3.596
		c-0.172-1.293-1.274-3.604-3.178-3.342c-1.903-0.263-3.006,2.048-3.178,3.342c-0.212,1.596-1.437,3.895-3.603,3.596
		c-2.166-0.3-3.391-2.938-3.603-4.592c-0.172-1.342-1.275-3.958-3.178-4.221v8.625c0,0,0,8.188,0,9.781s1.105,2.854,2.334,2.854
		l9.285,1.283C143.614,424.812,144.708,424.844,146.011,424.457z"/>
	<path fill="#7C592F" d="M144.114,403.781c-1.903-0.263-3.006,2.048-3.178,3.342c-0.212,1.596-1.437,3.895-3.603,3.596
		c-2.166-0.3-3.391-2.938-3.603-4.592c-0.172-1.342-1.275-3.958-3.178-4.221v8.625c0,0,0,8.188,0,9.781s1.105,2.854,2.334,2.854
		l9.285,1.283c0.71,0.179,1.336,0.277,1.943,0.285V403.781z"/>
</g>
<g id="Layer_9_copy">
	<g>
		<defs>
			<path id="SVGID_1_" d="M144.114,5.498v335.156l37.309,0.128l0.008-0.014l4.469,0.014l76.426-114.314
				c15.087-22.565,23.884-49.693,23.884-78.875C286.209,69.115,222.591,5.498,144.114,5.498z"/>
		</defs>
		<clipPath id="SVGID_2_">
			<use xlink:href="#SVGID_1_"  overflow="visible"/>
		</clipPath>
		<g clip-path="url(#SVGID_2_)">
			<path fill="#27AAE1" d="M303.654,174.147c-22.884-26.919-298.795-26.919-321.681,0c-5.544-8.428-8.317-12.642-13.861-21.07
				c31.349-41.077,318.056-41.078,349.403,0C311.971,161.505,309.199,165.719,303.654,174.147z"/>
			<path fill="#00A14B" d="M289.793,195.217c-15.22-12.179-278.731-12.178-293.958,0c-5.544-8.428-8.317-12.642-13.861-21.07
				c22.885-26.919,298.797-26.919,321.681,0C298.109,182.575,295.338,186.789,289.793,195.217z"/>
			<path fill="#21409A" d="M317.516,153.077C286.168,112-0.539,112-31.888,153.077c-5.544-8.428-8.316-12.642-13.861-21.07
				c40.686-53.707,336.443-53.707,377.126,0C325.832,140.435,323.061,144.649,317.516,153.077z"/>
			<path fill="#21409A" d="M331.377,132.007c-40.683-53.707-336.44-53.707-377.126,0c-5.545-8.428-8.317-12.642-13.861-21.07
				c57.103-61.099,347.745-61.099,404.849,0C339.694,119.365,336.922,123.579,331.377,132.007z"/>
			<path fill="#ED1C24" d="M345.238,110.937c-57.104-61.099-347.746-61.099-404.849,0c-5.544-8.428-8.317-12.642-13.861-21.07
				c86.84-59.537,345.729-59.537,432.571,0C353.556,98.295,350.782,102.508,345.238,110.937z"/>
			<path fill="#F26522" d="M359.1,89.867c-86.842-59.537-345.731-59.537-432.571,0c-5.544-8.428-8.316-12.641-13.86-21.069
				c117.657-53.604,342.635-53.605,460.293,0C367.416,77.226,364.644,81.438,359.1,89.867z"/>
			<path fill="#FFDE17" d="M386.878,47.638c-149.762-42.295-338.368-42.295-488.13,0c-5.544-8.428-8.316-12.642-13.861-21.07
				c182.952-24.755,332.902-24.756,515.856,0C395.198,34.996,392.423,39.209,386.878,47.638z"/>
			<path fill="#FFDE17" d="M373.019,68.708c-117.79-53.57-342.619-53.57-460.409,0c-5.545-8.428-8.317-12.642-13.862-21.07
				c149.763-42.295,338.369-42.295,488.13,0C381.333,56.066,378.563,60.28,373.019,68.708z"/>
			<path fill="#ED1C24" d="M400.743,26.567c-182.954-24.756-332.904-24.755-515.856,0c-5.544-8.428-8.317-12.642-13.861-21.07
				c217.431,0,326.146,0,543.577,0C409.058,13.926,406.288,18.139,400.743,26.567z"/>
			<path fill="#21409A" d="M220.486,300.566c-25.004,19.834-130.337,19.833-155.344,0c-5.544-8.428-8.317-12.641-13.862-21.068
				c18.141,21.575,164.929,21.577,183.068,0C228.805,287.926,226.03,292.139,220.486,300.566z"/>
			<path fill="#21409A" d="M206.625,321.638c-32.261,12.995-95.363,12.995-127.622,0c-5.544-8.429-8.316-12.643-13.861-21.071
				c25.007,19.833,130.34,19.834,155.344,0C214.941,308.995,212.17,313.209,206.625,321.638z"/>
			<path fill="#ED1C24" d="M234.349,279.498c-18.14,21.577-164.928,21.575-183.068,0c-5.545-8.429-8.316-12.642-13.861-21.07
				c11.733,19.165,199.061,19.166,210.79,0C242.664,266.856,239.894,271.069,234.349,279.498z"/>
			<path fill="#F26522" d="M248.209,258.428c-11.729,19.166-199.057,19.165-210.79,0c-5.545-8.429-8.318-12.643-13.863-21.071
				c5.851,13.547,232.67,13.547,238.514,0C256.526,245.785,253.754,249.999,248.209,258.428z"/>
			<path fill="#FFDE17" d="M262.07,237.356c-5.844,13.547-232.663,13.547-238.514,0c-5.544-8.428-8.315-12.641-13.86-21.069
				c8.299,2.199,257.94,2.197,266.234,0C270.387,224.716,267.614,228.929,262.07,237.356z"/>
			<path fill="#FFDE17" d="M275.931,216.288c-8.294,2.197-257.935,2.199-266.234,0c-5.544-8.428-8.317-12.643-13.861-21.071
				c15.227-12.178,278.738-12.179,293.958,0C284.248,203.645,281.476,207.859,275.931,216.288z"/>
			<path fill="#27AAE1" d="M192.669,342.852c-39.885,0-59.825,0-99.71,0c-5.544-8.429-8.317-12.642-13.861-21.07
				c32.311,12.93,95.122,12.93,127.433,0C200.985,330.21,198.214,334.423,192.669,342.852z"/>
		</g>
	</g>
</g>
<g id="Layer_16">
	<g>
		<defs>
			<path id="SVGID_3_" d="M144.271,5.5c-0.053,0-0.104-0.003-0.157-0.003v0v335.156l30.593,0.128l0.012-0.023l6.704,0.023
				l68.237-114.314c13.47-22.565,21.324-49.693,21.324-78.875C270.984,69.174,214.268,5.595,144.271,5.5z"/>
		</defs>
		<clipPath id="SVGID_4_">
			<use xlink:href="#SVGID_3_"  overflow="visible"/>
		</clipPath>
		<g clip-path="url(#SVGID_4_)">
			<path fill="#21409A" d="M303.654,174.147c-22.884-26.919-298.795-26.919-321.681,0c-5.544-8.428-8.317-12.642-13.861-21.07
				c31.349-41.077,318.056-41.078,349.403,0C311.971,161.505,309.199,165.719,303.654,174.147z"/>
			<path fill="#27AAE1" d="M289.793,195.217c-15.22-12.179-278.731-12.178-293.958,0c-5.544-8.428-8.317-12.642-13.861-21.07
				c22.885-26.919,298.797-26.919,321.681,0C298.109,182.575,295.338,186.789,289.793,195.217z"/>
			<path fill="#21409A" d="M317.516,153.077C286.168,112-0.539,112-31.888,153.077c-5.544-8.428-8.316-12.642-13.861-21.07
				c40.686-53.707,336.443-53.707,377.126,0C325.832,140.435,323.061,144.649,317.516,153.077z"/>
			<path fill="#ED1C24" d="M331.377,132.007c-40.683-53.707-336.44-53.707-377.126,0c-5.545-8.428-8.317-12.642-13.861-21.07
				c57.103-61.099,347.745-61.099,404.849,0C339.694,119.365,336.922,123.579,331.377,132.007z"/>
			<path fill="#F26522" d="M345.238,110.937c-57.104-61.099-347.746-61.099-404.849,0c-5.544-8.428-8.317-12.642-13.861-21.07
				c86.84-59.537,345.729-59.537,432.571,0C353.556,98.295,350.782,102.508,345.238,110.937z"/>
			<path fill="#FFDE17" d="M359.1,89.867c-86.842-59.537-345.731-59.537-432.571,0c-5.544-8.428-8.316-12.641-13.86-21.069
				c117.657-53.604,342.635-53.605,460.293,0C367.416,77.226,364.644,81.438,359.1,89.867z"/>
			<path fill="#00A14B" d="M386.878,47.638c-149.762-42.295-338.368-42.295-488.13,0c-5.544-8.428-8.316-12.642-13.861-21.07
				c182.952-24.755,332.902-24.756,515.856,0C395.198,34.996,392.423,39.209,386.878,47.638z"/>
			<path fill="#FFDE17" d="M373.019,68.708c-117.79-53.57-342.619-53.57-460.409,0c-5.545-8.428-8.317-12.642-13.862-21.07
				c149.763-42.295,338.369-42.295,488.13,0C381.333,56.066,378.563,60.28,373.019,68.708z"/>
			<path fill="#27AAE1" d="M400.743,26.567c-182.954-24.756-332.904-24.755-515.856,0c-5.544-8.428-8.317-12.642-13.861-21.07
				c217.431,0,326.146,0,543.577,0C409.058,13.926,406.288,18.139,400.743,26.567z"/>
			<path fill="#ED1C24" d="M220.486,300.566c-25.004,19.834-130.337,19.833-155.344,0c-5.544-8.428-8.317-12.641-13.862-21.068
				c18.141,21.575,164.929,21.577,183.068,0C228.805,287.926,226.03,292.139,220.486,300.566z"/>
			<path fill="#21409A" d="M206.625,321.638c-32.261,12.995-95.363,12.995-127.622,0c-5.544-8.429-8.316-12.643-13.861-21.071
				c25.007,19.833,130.34,19.834,155.344,0C214.941,308.995,212.17,313.209,206.625,321.638z"/>
			<path fill="#F26522" d="M234.349,279.498c-18.14,21.577-164.928,21.575-183.068,0c-5.545-8.429-8.316-12.642-13.861-21.07
				c11.733,19.165,199.061,19.166,210.79,0C242.664,266.856,239.894,271.069,234.349,279.498z"/>
			<path fill="#FFDE17" d="M248.209,258.428c-11.729,19.166-199.057,19.165-210.79,0c-5.545-8.429-8.318-12.643-13.863-21.071
				c5.851,13.547,232.67,13.547,238.514,0C256.526,245.785,253.754,249.999,248.209,258.428z"/>
			<path fill="#FFDE17" d="M262.07,237.356c-5.844,13.547-232.663,13.547-238.514,0c-5.544-8.428-8.315-12.641-13.86-21.069
				c8.299,2.199,257.94,2.197,266.234,0C270.387,224.716,267.614,228.929,262.07,237.356z"/>
			<path fill="#00A14B" d="M275.931,216.288c-8.294,2.197-257.935,2.199-266.234,0c-5.544-8.428-8.317-12.643-13.861-21.071
				c15.227-12.178,278.738-12.179,293.958,0C284.248,203.645,281.476,207.859,275.931,216.288z"/>
			<path fill="#21409A" d="M192.669,342.852c-39.885,0-59.825,0-99.71,0c-5.544-8.429-8.317-12.642-13.861-21.07
				c32.311,12.93,95.122,12.93,127.433,0C200.985,330.21,198.214,334.423,192.669,342.852z"/>
		</g>
	</g>
</g>
<g id="Layer_13">
	<g>
		<defs>
			<path id="SVGID_5_" d="M144.114,5.497v335.156l21.888,0.128l0.013-0.036l8.692,0.036l55.955-114.314
				c11.045-22.565,17.485-49.692,17.485-78.875C248.147,69.115,201.57,5.497,144.114,5.497z"/>
		</defs>
		<clipPath id="SVGID_6_">
			<use xlink:href="#SVGID_5_"  overflow="visible"/>
		</clipPath>
		<g clip-path="url(#SVGID_6_)">
			<path fill="#21409A" d="M303.654,174.147c-22.884-26.919-298.795-26.919-321.681,0c-5.544-8.428-8.317-12.642-13.861-21.07
				c31.349-41.077,318.056-41.078,349.403,0C311.971,161.505,309.199,165.719,303.654,174.147z"/>
			<path fill="#21409A" d="M289.793,195.217c-15.22-12.179-278.731-12.178-293.958,0c-5.544-8.428-8.317-12.642-13.861-21.07
				c22.885-26.919,298.797-26.919,321.681,0C298.109,182.575,295.338,186.789,289.793,195.217z"/>
			<path fill="#ED1C24" d="M317.516,153.077C286.168,112-0.539,112-31.888,153.077c-5.544-8.428-8.316-12.642-13.861-21.07
				c40.686-53.707,336.443-53.707,377.126,0C325.832,140.435,323.061,144.649,317.516,153.077z"/>
			<path fill="#F26522" d="M331.377,132.007c-40.683-53.707-336.44-53.707-377.126,0c-5.545-8.428-8.317-12.642-13.861-21.07
				c57.103-61.099,347.745-61.099,404.849,0C339.694,119.365,336.922,123.579,331.377,132.007z"/>
			<path fill="#FFDE17" d="M345.238,110.937c-57.104-61.099-347.746-61.099-404.849,0c-5.544-8.428-8.317-12.642-13.861-21.07
				c86.84-59.537,345.729-59.537,432.571,0C353.556,98.295,350.782,102.508,345.238,110.937z"/>
			<path fill="#FFDE17" d="M359.1,89.867c-86.842-59.537-345.731-59.537-432.571,0c-5.544-8.428-8.316-12.641-13.86-21.069
				c117.657-53.604,342.635-53.605,460.293,0C367.416,77.226,364.644,81.438,359.1,89.867z"/>
			<path fill="#27AAE1" d="M386.878,47.638c-149.762-42.295-338.368-42.295-488.13,0c-5.544-8.428-8.316-12.642-13.861-21.07
				c182.952-24.755,332.902-24.756,515.856,0C395.198,34.996,392.423,39.209,386.878,47.638z"/>
			<path fill="#00A14B" d="M373.019,68.708c-117.79-53.57-342.619-53.57-460.409,0c-5.545-8.428-8.317-12.642-13.862-21.07
				c149.763-42.295,338.369-42.295,488.13,0C381.333,56.066,378.563,60.28,373.019,68.708z"/>
			<path fill="#21409A" d="M400.743,26.567c-182.954-24.756-332.904-24.755-515.856,0c-5.544-8.428-8.317-12.642-13.861-21.07
				c217.431,0,326.146,0,543.577,0C409.058,13.926,406.288,18.139,400.743,26.567z"/>
			<path fill="#F26522" d="M220.486,300.566c-25.004,19.834-130.337,19.833-155.344,0c-5.544-8.428-8.317-12.641-13.862-21.068
				c18.141,21.575,164.929,21.577,183.068,0C228.805,287.926,226.03,292.139,220.486,300.566z"/>
			<path fill="#ED1C24" d="M206.625,321.638c-32.261,12.995-95.363,12.995-127.622,0c-5.544-8.429-8.316-12.643-13.861-21.071
				c25.007,19.833,130.34,19.834,155.344,0C214.941,308.995,212.17,313.209,206.625,321.638z"/>
			<path fill="#FFDE17" d="M234.349,279.498c-18.14,21.577-164.928,21.575-183.068,0c-5.545-8.429-8.316-12.642-13.861-21.07
				c11.733,19.165,199.061,19.166,210.79,0C242.664,266.856,239.894,271.069,234.349,279.498z"/>
			<path fill="#FFDE17" d="M248.209,258.428c-11.729,19.166-199.057,19.165-210.79,0c-5.545-8.429-8.318-12.643-13.863-21.071
				c5.851,13.547,232.67,13.547,238.514,0C256.526,245.785,253.754,249.999,248.209,258.428z"/>
			<path fill="#00A14B" d="M262.07,237.356c-5.844,13.547-232.663,13.547-238.514,0c-5.544-8.428-8.315-12.641-13.86-21.069
				c8.299,2.199,257.94,2.197,266.234,0C270.387,224.716,267.614,228.929,262.07,237.356z"/>
			<path fill="#27AAE1" d="M275.931,216.288c-8.294,2.197-257.935,2.199-266.234,0c-5.544-8.428-8.317-12.643-13.861-21.071
				c15.227-12.178,278.738-12.179,293.958,0C284.248,203.645,281.476,207.859,275.931,216.288z"/>
			<path fill="#21409A" d="M192.669,342.852c-39.885,0-59.825,0-99.71,0c-5.544-8.429-8.317-12.642-13.861-21.07
				c32.311,12.93,95.122,12.93,127.433,0C200.985,330.21,198.214,334.423,192.669,342.852z"/>
		</g>
	</g>
</g>
<g id="Layer_12">
	<g>
		<defs>
			<path id="SVGID_7_" d="M144.114,5.497v335.156l7.96,0.128l0.011-0.081l13.917,0.081l40.032-114.314
				c7.903-22.565,12.511-49.692,12.511-78.875C218.545,69.115,185.221,5.497,144.114,5.497z"/>
		</defs>
		<clipPath id="SVGID_8_">
			<use xlink:href="#SVGID_7_"  overflow="visible"/>
		</clipPath>
		<g clip-path="url(#SVGID_8_)">
			<path fill="#ED1C24" d="M303.654,174.147c-22.884-26.919-298.795-26.919-321.681,0c-5.544-8.428-8.317-12.642-13.861-21.07
				c31.349-41.077,318.056-41.078,349.403,0C311.971,161.505,309.199,165.719,303.654,174.147z"/>
			<path fill="#21409A" d="M289.793,195.217c-15.22-12.179-278.731-12.178-293.958,0c-5.544-8.428-8.317-12.642-13.861-21.07
				c22.885-26.919,298.797-26.919,321.681,0C298.109,182.575,295.338,186.789,289.793,195.217z"/>
			<path fill="#F26522" d="M317.516,153.077C286.168,112-0.539,112-31.888,153.077c-5.544-8.428-8.316-12.642-13.861-21.07
				c40.686-53.707,336.443-53.707,377.126,0C325.832,140.435,323.061,144.649,317.516,153.077z"/>
			<path fill="#FFDE17" d="M331.377,132.007c-40.683-53.707-336.44-53.707-377.126,0c-5.545-8.428-8.317-12.642-13.861-21.07
				c57.103-61.099,347.745-61.099,404.849,0C339.694,119.365,336.922,123.579,331.377,132.007z"/>
			<path fill="#FFDE17" d="M345.238,110.937c-57.104-61.099-347.746-61.099-404.849,0c-5.544-8.428-8.317-12.642-13.861-21.07
				c86.84-59.537,345.729-59.537,432.571,0C353.556,98.295,350.782,102.508,345.238,110.937z"/>
			<path fill="#00A14B" d="M359.1,89.867c-86.842-59.537-345.731-59.537-432.571,0c-5.544-8.428-8.316-12.641-13.86-21.069
				c117.657-53.604,342.635-53.605,460.293,0C367.416,77.226,364.644,81.438,359.1,89.867z"/>
			<path fill="#21409A" d="M386.878,47.638c-149.762-42.295-338.368-42.295-488.13,0c-5.544-8.428-8.316-12.642-13.861-21.07
				c182.952-24.755,332.902-24.756,515.856,0C395.198,34.996,392.423,39.209,386.878,47.638z"/>
			<path fill="#27AAE1" d="M373.019,68.708c-117.79-53.57-342.619-53.57-460.409,0c-5.545-8.428-8.317-12.642-13.862-21.07
				c149.763-42.295,338.369-42.295,488.13,0C381.333,56.066,378.563,60.28,373.019,68.708z"/>
			<path fill="#21409A" d="M400.743,26.567c-182.954-24.756-332.904-24.755-515.856,0c-5.544-8.428-8.317-12.642-13.861-21.07
				c217.431,0,326.146,0,543.577,0C409.058,13.926,406.288,18.139,400.743,26.567z"/>
			<path fill="#FFDE17" d="M220.486,300.566c-25.004,19.834-130.337,19.833-155.344,0c-5.544-8.428-8.317-12.641-13.862-21.068
				c18.141,21.575,164.929,21.577,183.068,0C228.805,287.926,226.03,292.139,220.486,300.566z"/>
			<path fill="#F26522" d="M206.625,321.638c-32.261,12.995-95.363,12.995-127.622,0c-5.544-8.429-8.316-12.643-13.861-21.071
				c25.007,19.833,130.34,19.834,155.344,0C214.941,308.995,212.17,313.209,206.625,321.638z"/>
			<path fill="#FFDE17" d="M234.349,279.498c-18.14,21.577-164.928,21.575-183.068,0c-5.545-8.429-8.316-12.642-13.861-21.07
				c11.733,19.165,199.061,19.166,210.79,0C242.664,266.856,239.894,271.069,234.349,279.498z"/>
			<path fill="#00A14B" d="M248.209,258.428c-11.729,19.166-199.057,19.165-210.79,0c-5.545-8.429-8.318-12.643-13.863-21.071
				c5.851,13.547,232.67,13.547,238.514,0C256.526,245.785,253.754,249.999,248.209,258.428z"/>
			<path fill="#27AAE1" d="M262.07,237.356c-5.844,13.547-232.663,13.547-238.514,0c-5.544-8.428-8.315-12.641-13.86-21.069
				c8.299,2.199,257.94,2.197,266.234,0C270.387,224.716,267.614,228.929,262.07,237.356z"/>
			<path fill="#21409A" d="M275.931,216.288c-8.294,2.197-257.935,2.199-266.234,0c-5.544-8.428-8.317-12.643-13.861-21.071
				c15.227-12.178,278.738-12.179,293.958,0C284.248,203.645,281.476,207.859,275.931,216.288z"/>
			<path fill="#ED1C24" d="M192.669,342.852c-39.885,0-59.825,0-99.71,0c-5.544-8.429-8.317-12.642-13.861-21.07
				c32.311,12.93,95.122,12.93,127.433,0C200.985,330.21,198.214,334.423,192.669,342.852z"/>
		</g>
	</g>
</g>
<g id="Layer_11">
	<g>
		<defs>
			<path id="SVGID_9_" d="M2.02,147.591c0,29.182,8.797,56.31,23.884,78.875l76.426,114.314l4.468-0.014l0.008,0.014l37.309-0.129
				V5.497C65.638,5.497,2.02,69.115,2.02,147.591z"/>
		</defs>
		<clipPath id="SVGID_10_">
			<use xlink:href="#SVGID_9_"  overflow="visible"/>
		</clipPath>
		<g clip-path="url(#SVGID_10_)">
			<path fill="#27AAE1" d="M303.654,174.147c-22.884-26.919-298.795-26.919-321.681,0c-5.544-8.428-8.317-12.642-13.861-21.07
				c31.349-41.077,318.056-41.078,349.403,0C311.971,161.505,309.199,165.719,303.654,174.147z"/>
			<path fill="#00A14B" d="M289.793,195.217c-15.22-12.179-278.731-12.178-293.958,0c-5.544-8.428-8.317-12.642-13.861-21.07
				c22.885-26.919,298.797-26.919,321.681,0C298.109,182.575,295.338,186.789,289.793,195.217z"/>
			<path fill="#21409A" d="M317.516,153.077C286.168,112-0.539,112-31.888,153.077c-5.544-8.428-8.316-12.642-13.861-21.07
				c40.686-53.707,336.443-53.707,377.126,0C325.832,140.435,323.061,144.649,317.516,153.077z"/>
			<path fill="#21409A" d="M331.377,132.007c-40.683-53.707-336.44-53.707-377.126,0c-5.545-8.428-8.317-12.642-13.861-21.07
				c57.103-61.099,347.745-61.099,404.849,0C339.694,119.365,336.922,123.579,331.377,132.007z"/>
			<path fill="#ED1C24" d="M345.238,110.937c-57.104-61.099-347.746-61.099-404.849,0c-5.544-8.428-8.317-12.642-13.861-21.07
				c86.84-59.537,345.729-59.537,432.571,0C353.556,98.295,350.782,102.508,345.238,110.937z"/>
			<path fill="#F26522" d="M359.1,89.867c-86.842-59.537-345.731-59.537-432.571,0c-5.544-8.428-8.316-12.641-13.86-21.069
				c117.657-53.604,342.635-53.605,460.293,0C367.416,77.226,364.644,81.438,359.1,89.867z"/>
			<path fill="#FFDE17" d="M386.878,47.638c-149.762-42.295-338.368-42.295-488.13,0c-5.544-8.428-8.316-12.642-13.861-21.07
				c182.952-24.755,332.902-24.756,515.856,0C395.198,34.996,392.423,39.209,386.878,47.638z"/>
			<path fill="#FFDE17" d="M373.019,68.708c-117.79-53.57-342.619-53.57-460.409,0c-5.545-8.428-8.317-12.642-13.862-21.07
				c149.763-42.295,338.369-42.295,488.13,0C381.333,56.066,378.563,60.28,373.019,68.708z"/>
			<path fill="#00A14B" d="M400.743,26.567c-182.954-24.756-332.904-24.755-515.856,0c-5.544-8.428-8.317-12.642-13.861-21.07
				c217.431,0,326.146,0,543.577,0C409.058,13.926,406.288,18.139,400.743,26.567z"/>
			<path fill="#21409A" d="M220.486,300.566c-25.004,19.834-130.337,19.833-155.344,0c-5.544-8.428-8.317-12.641-13.862-21.068
				c18.141,21.575,164.929,21.577,183.068,0C228.805,287.926,226.03,292.139,220.486,300.566z"/>
			<path fill="#21409A" d="M206.625,321.638c-32.261,12.995-95.363,12.995-127.622,0c-5.544-8.429-8.316-12.643-13.861-21.071
				c25.007,19.833,130.34,19.834,155.344,0C214.941,308.995,212.17,313.209,206.625,321.638z"/>
			<path fill="#ED1C24" d="M234.349,279.498c-18.14,21.577-164.928,21.575-183.068,0c-5.545-8.429-8.316-12.642-13.861-21.07
				c11.733,19.165,199.061,19.166,210.79,0C242.664,266.856,239.894,271.069,234.349,279.498z"/>
			<path fill="#F26522" d="M248.209,258.428c-11.729,19.166-199.057,19.165-210.79,0c-5.545-8.429-8.318-12.643-13.863-21.071
				c5.851,13.547,232.67,13.547,238.514,0C256.526,245.785,253.754,249.999,248.209,258.428z"/>
			<path fill="#FFDE17" d="M262.07,237.356c-5.844,13.547-232.663,13.547-238.514,0c-5.544-8.428-8.315-12.641-13.86-21.069
				c8.299,2.199,257.94,2.197,266.234,0C270.387,224.716,267.614,228.929,262.07,237.356z"/>
			<path fill="#FFDE17" d="M275.931,216.288c-8.294,2.197-257.935,2.199-266.234,0c-5.544-8.428-8.317-12.643-13.861-21.071
				c15.227-12.178,278.738-12.179,293.958,0C284.248,203.645,281.476,207.859,275.931,216.288z"/>
			<path fill="#27AAE1" d="M192.669,342.852c-39.885,0-59.825,0-99.71,0c-5.544-8.429-8.317-12.642-13.861-21.07
				c32.311,12.93,95.122,12.93,127.433,0C200.985,330.21,198.214,334.423,192.669,342.852z"/>
		</g>
	</g>
</g>
<g id="Layer_10">
	<g>
		<defs>
			<path id="SVGID_11_" d="M143.957,5.5C73.961,5.595,17.244,69.174,17.244,147.592c0,29.182,7.854,56.31,21.324,78.875
				l68.237,114.314l6.705-0.023l0.011,0.023l30.593-0.128V5.498v0C144.062,5.497,144.01,5.5,143.957,5.5z"/>
		</defs>
		<clipPath id="SVGID_12_">
			<use xlink:href="#SVGID_11_"  overflow="visible"/>
		</clipPath>
		<g clip-path="url(#SVGID_12_)">
			<path fill="#00A14B" d="M303.654,174.147c-22.884-26.919-298.795-26.919-321.681,0c-5.544-8.428-8.317-12.642-13.861-21.07
				c31.349-41.077,318.056-41.078,349.403,0C311.971,161.505,309.199,165.719,303.654,174.147z"/>
			<path fill="#FFDE17" d="M289.793,195.217c-15.22-12.179-278.731-12.178-293.958,0c-5.544-8.428-8.317-12.642-13.861-21.07
				c22.885-26.919,298.797-26.919,321.681,0C298.109,182.575,295.338,186.789,289.793,195.217z"/>
			<path fill="#27AAE1" d="M317.516,153.077C286.168,112-0.539,112-31.888,153.077c-5.544-8.428-8.316-12.642-13.861-21.07
				c40.686-53.707,336.443-53.707,377.126,0C325.832,140.435,323.061,144.649,317.516,153.077z"/>
			<path fill="#21409A" d="M331.377,132.007c-40.683-53.707-336.44-53.707-377.126,0c-5.545-8.428-8.317-12.642-13.861-21.07
				c57.103-61.099,347.745-61.099,404.849,0C339.694,119.365,336.922,123.579,331.377,132.007z"/>
			<path fill="#21409A" d="M345.238,110.937c-57.104-61.099-347.746-61.099-404.849,0c-5.544-8.428-8.317-12.642-13.861-21.07
				c86.84-59.537,345.729-59.537,432.571,0C353.556,98.295,350.782,102.508,345.238,110.937z"/>
			<path fill="#ED1C24" d="M359.1,89.867c-86.842-59.537-345.731-59.537-432.571,0c-5.544-8.428-8.316-12.641-13.86-21.069
				c117.657-53.604,342.635-53.605,460.293,0C367.416,77.226,364.644,81.438,359.1,89.867z"/>
			<path fill="#FFDE17" d="M386.878,47.638c-149.762-42.295-338.368-42.295-488.13,0c-5.544-8.428-8.316-12.642-13.861-21.07
				c182.952-24.755,332.902-24.756,515.856,0C395.198,34.996,392.423,39.209,386.878,47.638z"/>
			<path fill="#F26522" d="M373.019,68.708c-117.79-53.57-342.619-53.57-460.409,0c-5.545-8.428-8.317-12.642-13.862-21.07
				c149.763-42.295,338.369-42.295,488.13,0C381.333,56.066,378.563,60.28,373.019,68.708z"/>
			<path fill="#FFDE17" d="M400.743,26.567c-182.954-24.756-332.904-24.755-515.856,0c-5.544-8.428-8.317-12.642-13.861-21.07
				c217.431,0,326.146,0,543.577,0C409.058,13.926,406.288,18.139,400.743,26.567z"/>
			<path fill="#21409A" d="M220.486,300.566c-25.004,19.834-130.337,19.833-155.344,0c-5.544-8.428-8.317-12.641-13.862-21.068
				c18.141,21.575,164.929,21.577,183.068,0C228.805,287.926,226.03,292.139,220.486,300.566z"/>
			<path fill="#27AAE1" d="M206.625,321.638c-32.261,12.995-95.363,12.995-127.622,0c-5.544-8.429-8.316-12.643-13.861-21.071
				c25.007,19.833,130.34,19.834,155.344,0C214.941,308.995,212.17,313.209,206.625,321.638z"/>
			<path fill="#21409A" d="M234.349,279.498c-18.14,21.577-164.928,21.575-183.068,0c-5.545-8.429-8.316-12.642-13.861-21.07
				c11.733,19.165,199.061,19.166,210.79,0C242.664,266.856,239.894,271.069,234.349,279.498z"/>
			<path fill="#ED1C24" d="M248.209,258.428c-11.729,19.166-199.057,19.165-210.79,0c-5.545-8.429-8.318-12.643-13.863-21.071
				c5.851,13.547,232.67,13.547,238.514,0C256.526,245.785,253.754,249.999,248.209,258.428z"/>
			<path fill="#F26522" d="M262.07,237.356c-5.844,13.547-232.663,13.547-238.514,0c-5.544-8.428-8.315-12.641-13.86-21.069
				c8.299,2.199,257.94,2.197,266.234,0C270.387,224.716,267.614,228.929,262.07,237.356z"/>
			<path fill="#FFDE17" d="M275.931,216.288c-8.294,2.197-257.935,2.199-266.234,0c-5.544-8.428-8.317-12.643-13.861-21.071
				c15.227-12.178,278.738-12.179,293.958,0C284.248,203.645,281.476,207.859,275.931,216.288z"/>
			<path fill="#00A14B" d="M192.669,342.852c-39.885,0-59.825,0-99.71,0c-5.544-8.429-8.317-12.642-13.861-21.07
				c32.311,12.93,95.122,12.93,127.433,0C200.985,330.21,198.214,334.423,192.669,342.852z"/>
		</g>
	</g>
</g>
<g id="Layer_9">
	<g>
		<defs>
			<path id="SVGID_13_" d="M40.081,147.591c0,29.183,6.44,56.31,17.485,78.875l55.955,114.314l8.692-0.037l0.013,0.037l21.888-0.129
				V5.497C86.658,5.497,40.081,69.115,40.081,147.591z"/>
		</defs>
		<clipPath id="SVGID_14_">
			<use xlink:href="#SVGID_13_"  overflow="visible"/>
		</clipPath>
		<g clip-path="url(#SVGID_14_)">
			<path fill="#FFDE17" d="M303.654,174.147c-22.884-26.919-298.795-26.919-321.681,0c-5.544-8.428-8.317-12.642-13.861-21.07
				c31.349-41.077,318.056-41.078,349.403,0C311.971,161.505,309.199,165.719,303.654,174.147z"/>
			<path fill="#FFDE17" d="M289.793,195.217c-15.22-12.179-278.731-12.178-293.958,0c-5.544-8.428-8.317-12.642-13.861-21.07
				c22.885-26.919,298.797-26.919,321.681,0C298.109,182.575,295.338,186.789,289.793,195.217z"/>
			<path fill="#00A14B" d="M317.516,153.077C286.168,112-0.539,112-31.888,153.077c-5.544-8.428-8.316-12.642-13.861-21.07
				c40.686-53.707,336.443-53.707,377.126,0C325.832,140.435,323.061,144.649,317.516,153.077z"/>
			<path fill="#27AAE1" d="M331.377,132.007c-40.683-53.707-336.44-53.707-377.126,0c-5.545-8.428-8.317-12.642-13.861-21.07
				c57.103-61.099,347.745-61.099,404.849,0C339.694,119.365,336.922,123.579,331.377,132.007z"/>
			<path fill="#21409A" d="M345.238,110.937c-57.104-61.099-347.746-61.099-404.849,0c-5.544-8.428-8.317-12.642-13.861-21.07
				c86.84-59.537,345.729-59.537,432.571,0C353.556,98.295,350.782,102.508,345.238,110.937z"/>
			<path fill="#21409A" d="M359.1,89.867c-86.842-59.537-345.731-59.537-432.571,0c-5.544-8.428-8.316-12.641-13.86-21.069
				c117.657-53.604,342.635-53.605,460.293,0C367.416,77.226,364.644,81.438,359.1,89.867z"/>
			<path fill="#F26522" d="M386.878,47.638c-149.762-42.295-338.368-42.295-488.13,0c-5.544-8.428-8.316-12.642-13.861-21.07
				c182.952-24.755,332.902-24.756,515.856,0C395.198,34.996,392.423,39.209,386.878,47.638z"/>
			<path fill="#ED1C24" d="M373.019,68.708c-117.79-53.57-342.619-53.57-460.409,0c-5.545-8.428-8.317-12.642-13.862-21.07
				c149.763-42.295,338.369-42.295,488.13,0C381.333,56.066,378.563,60.28,373.019,68.708z"/>
			<path fill="#FFDE17" d="M400.743,26.567c-182.954-24.756-332.904-24.755-515.856,0c-5.544-8.428-8.317-12.642-13.861-21.07
				c217.431,0,326.146,0,543.577,0C409.058,13.926,406.288,18.139,400.743,26.567z"/>
			<path fill="#27AAE1" d="M220.486,300.566c-25.004,19.834-130.337,19.833-155.344,0c-5.544-8.428-8.317-12.641-13.862-21.068
				c18.141,21.575,164.929,21.577,183.068,0C228.805,287.926,226.03,292.139,220.486,300.566z"/>
			<path fill="#00A14B" d="M206.625,321.638c-32.261,12.995-95.363,12.995-127.622,0c-5.544-8.429-8.316-12.643-13.861-21.071
				c25.007,19.833,130.34,19.834,155.344,0C214.941,308.995,212.17,313.209,206.625,321.638z"/>
			<path fill="#21409A" d="M234.349,279.498c-18.14,21.577-164.928,21.575-183.068,0c-5.545-8.429-8.316-12.642-13.861-21.07
				c11.733,19.165,199.061,19.166,210.79,0C242.664,266.856,239.894,271.069,234.349,279.498z"/>
			<path fill="#21409A" d="M248.209,258.428c-11.729,19.166-199.057,19.165-210.79,0c-5.545-8.429-8.318-12.643-13.863-21.071
				c5.851,13.547,232.67,13.547,238.514,0C256.526,245.785,253.754,249.999,248.209,258.428z"/>
			<path fill="#ED1C24" d="M262.07,237.356c-5.844,13.547-232.663,13.547-238.514,0c-5.544-8.428-8.315-12.641-13.86-21.069
				c8.299,2.199,257.94,2.197,266.234,0C270.387,224.716,267.614,228.929,262.07,237.356z"/>
			<path fill="#F26522" d="M275.931,216.288c-8.294,2.197-257.935,2.199-266.234,0c-5.544-8.428-8.317-12.643-13.861-21.071
				c15.227-12.178,278.738-12.179,293.958,0C284.248,203.645,281.476,207.859,275.931,216.288z"/>
			<path fill="#FFDE17" d="M192.669,342.852c-39.885,0-59.825,0-99.71,0c-5.544-8.429-8.317-12.642-13.861-21.07
				c32.311,12.93,95.122,12.93,127.433,0C200.985,330.21,198.214,334.423,192.669,342.852z"/>
		</g>
	</g>
</g>
<g id="Layer_8">
	<g>
		<defs>
			<path id="SVGID_15_" d="M69.684,147.592c0,29.183,4.607,56.31,12.511,78.875l40.032,114.314l13.917-0.081l0.01,0.081l7.96-0.127
				V5.498C103.008,5.498,69.684,69.116,69.684,147.592z"/>
		</defs>
		<clipPath id="SVGID_16_">
			<use xlink:href="#SVGID_15_"  overflow="visible"/>
		</clipPath>
		<g clip-path="url(#SVGID_16_)">
			<path fill="#FFDE17" d="M303.565,174.044c-23.759-26.76-297.742-26.76-321.502,0c-5.532-8.45-8.297-12.675-13.828-21.124
				c32.225-40.833,316.933-40.833,349.157,0C311.861,161.369,309.098,165.594,303.565,174.044z"/>
			<path fill="#F26522" d="M289.73,195.171c-16.092-12.107-277.738-12.107-293.836-0.001c-5.533-8.451-8.299-12.676-13.831-21.126
				c23.76-26.76,297.743-26.76,321.502,0C298.033,182.494,295.264,186.72,289.73,195.171z"/>
			<path fill="#FFDE17" d="M317.393,152.92c-32.225-40.833-316.933-40.833-349.157,0c-5.531-8.449-8.297-12.673-13.827-21.119
				c41.56-53.382,335.251-53.382,376.81,0C325.688,140.247,322.924,144.471,317.393,152.92z"/>
			<path fill="#00A14B" stroke="#00A14B" stroke-miterlimit="10" d="M331.218,131.801c-41.559-53.382-335.25-53.382-376.81,0
				c-5.53-8.446-8.297-12.67-13.797-21.099c57.882-60.735,346.521-60.735,404.405,0
				C339.518,119.131,336.747,123.355,331.218,131.801z"/>
			<path fill="#27AAE1" d="M345.017,110.702c-57.884-60.735-346.523-60.735-404.405,0c-5.5-8.429-8.248-12.642-13.746-21.064
				c87.337-59.212,344.56-59.213,431.899,0C353.267,98.061,350.516,102.273,345.017,110.702z"/>
			<path fill="#21409A" stroke="#21409A" stroke-miterlimit="10" d="M358.765,89.638c-87.34-59.213-344.562-59.212-431.899,0
				c-5.498-8.422-8.248-12.632-13.744-21.047C30.989,15.257,254.635,15.256,372.505,68.59
				C367.009,77.005,364.263,81.216,358.765,89.638z"/>
			<path fill="#ED1C24" stroke="#ED1C24" stroke-miterlimit="10" d="M386.301,47.475C236.618,5.38,49.008,5.38-100.675,47.476
				c-5.495-8.406-8.241-12.607-13.733-21.003c182.58-24.644,331.864-24.645,514.446,0C394.545,34.869,391.795,39.069,386.301,47.475
				z"/>
			<path fill="#21409A" d="M372.564,68.503c-118.001-53.3-341.501-53.299-459.501,0c-5.497-8.415-8.244-12.621-13.739-21.027
				c149.683-42.095,337.293-42.096,486.976,0C380.807,55.881,378.061,60.088,372.564,68.503z"/>
			<path fill="#F26522" d="M400.037,26.473c-182.582-24.645-331.866-24.644-514.446,0c-5.493-8.396-8.239-12.592-13.729-20.976
				c216.762,0,325.142,0,541.904,0C408.275,13.881,405.529,18.077,400.037,26.473z"/>
			<path fill="#00A14B" d="M220.391,300.646c-25.255,19.76-129.894,19.76-155.152,0.001c-5.555-8.422-8.333-12.638-13.888-21.066
				c18.576,21.489,164.353,21.49,182.928,0C228.725,288.009,225.945,292.224,220.391,300.646z"/>
			<path fill="#FFDE17" d="M206.501,321.688c-32.326,12.948-95.047,12.947-127.372-0.001c-5.556-8.413-8.335-12.618-13.89-21.04
				c25.258,19.759,129.897,19.759,155.152-0.001C214.835,309.067,212.057,313.274,206.501,321.688z"/>
			<path fill="#27AAE1" d="M234.279,279.58c-18.575,21.49-164.352,21.489-182.928,0c-5.555-8.429-8.333-12.644-13.887-21.078
				c12.353,19.08,198.351,19.079,210.7-0.002C242.61,266.935,239.834,271.151,234.279,279.58z"/>
			<path fill="#21409A" stroke="#21409A" stroke-miterlimit="10" d="M248.164,258.5c-12.349,19.081-198.347,19.082-210.7,0.002
				c-5.554-8.435-8.33-12.653-13.883-21.092c6.652,13.473,231.819,13.473,238.464,0C256.492,245.849,253.718,250.065,248.164,258.5z
				"/>
			<path fill="#21409A" stroke="#21409A" stroke-miterlimit="10" d="M262.045,237.41c-6.645,13.473-231.812,13.473-238.464,0
				c-5.553-8.438-8.317-12.664-13.851-21.113c9.165,2.185,257.009,2.184,266.168,0C270.364,224.746,267.598,228.972,262.045,237.41z
				"/>
			<path fill="#ED1C24" d="M275.898,216.297c-9.159,2.184-257.004,2.185-266.168,0c-5.535-8.45-8.302-12.676-13.835-21.127
				c16.098-12.106,277.744-12.106,293.836,0.001C284.197,203.622,281.433,207.847,275.898,216.297z"/>
			<path fill="#FFDE17" d="M192.516,342.852c-39.762,0-59.641,0.001-99.403,0.001c-5.556-8.403-8.335-12.608-13.891-21.021
				c32.375,12.883,94.812,12.882,127.187-0.001C200.853,330.243,198.072,334.448,192.516,342.852z"/>
		</g>
	</g>
</g>
<g id="Layer_7">
	<g>
		<defs>
			<path id="SVGID_17_" d="M144.114,5.497c-14.948,0-27.065,63.618-27.065,142.095c0,29.183,1.675,56.31,4.549,78.875
				l14.557,114.314l7.96-0.128l7.96,0.128l14.557-114.314c2.874-22.565,4.549-49.692,4.549-78.875
				C171.18,69.115,159.062,5.497,144.114,5.497z"/>
		</defs>
		<clipPath id="SVGID_18_">
			<use xlink:href="#SVGID_17_"  overflow="visible"/>
		</clipPath>
		<g clip-path="url(#SVGID_18_)">
			<path fill="#F26522" d="M303.565,174.044c-23.759-26.76-297.742-26.76-321.502,0c-5.532-8.45-8.297-12.675-13.828-21.124
				c32.225-40.833,316.933-40.833,349.157,0C311.861,161.369,309.098,165.594,303.565,174.044z"/>
			<path fill="#ED1C24" d="M289.73,195.171c-16.092-12.107-277.738-12.107-293.836-0.001c-5.533-8.451-8.299-12.676-13.831-21.126
				c23.76-26.76,297.743-26.76,321.502,0C298.033,182.494,295.264,186.72,289.73,195.171z"/>
			<path fill="#FFDE17" d="M317.393,152.92c-32.225-40.833-316.933-40.833-349.157,0c-5.531-8.449-8.297-12.673-13.827-21.119
				c41.56-53.382,335.251-53.382,376.81,0C325.688,140.247,322.924,144.471,317.393,152.92z"/>
			<path fill="#FFDE17" stroke="#FFDE17" stroke-miterlimit="10" d="M331.218,131.801c-41.559-53.382-335.25-53.382-376.81,0
				c-5.53-8.446-8.297-12.67-13.797-21.099c57.882-60.735,346.521-60.735,404.405,0
				C339.518,119.131,336.747,123.355,331.218,131.801z"/>
			<path fill="#00A14B" d="M345.017,110.702c-57.884-60.735-346.523-60.735-404.405,0c-5.5-8.429-8.248-12.642-13.746-21.064
				c87.337-59.212,344.56-59.213,431.899,0C353.267,98.061,350.516,102.273,345.017,110.702z"/>
			<path fill="#27AAE1" d="M358.765,89.638c-87.34-59.213-344.562-59.212-431.899,0c-5.498-8.422-8.248-12.632-13.744-21.047
				C30.989,15.257,254.635,15.256,372.505,68.59C367.009,77.005,364.263,81.216,358.765,89.638z"/>
			<path fill="#21409A" stroke="#21409A" stroke-miterlimit="10" d="M386.301,47.475C236.618,5.38,49.008,5.38-100.675,47.476
				c-5.495-8.406-8.241-12.607-13.733-21.003c182.58-24.644,331.864-24.645,514.446,0C394.545,34.869,391.795,39.069,386.301,47.475
				z"/>
			<path fill="#21409A" d="M372.564,68.503c-118.001-53.3-341.501-53.299-459.501,0c-5.497-8.415-8.244-12.621-13.739-21.027
				c149.683-42.095,337.293-42.096,486.976,0C380.807,55.881,378.061,60.088,372.564,68.503z"/>
			<path fill="#ED1C24" d="M400.037,26.473c-182.582-24.645-331.866-24.644-514.446,0c-5.493-8.396-8.239-12.592-13.729-20.976
				c216.762,0,325.142,0,541.904,0C408.275,13.881,405.529,18.077,400.037,26.473z"/>
			<path fill="#FFDE17" d="M220.391,300.646c-25.255,19.76-129.894,19.76-155.152,0.001c-5.555-8.422-8.333-12.638-13.888-21.066
				c18.576,21.489,164.353,21.49,182.928,0C228.725,288.009,225.945,292.224,220.391,300.646z"/>
			<path fill="#FFDE17" d="M206.501,321.688c-32.326,12.948-95.047,12.947-127.372-0.001c-5.556-8.413-8.335-12.618-13.89-21.04
				c25.258,19.759,129.897,19.759,155.152-0.001C214.835,309.067,212.057,313.274,206.501,321.688z"/>
			<path fill="#00A14B" d="M234.279,279.58c-18.575,21.49-164.352,21.489-182.928,0c-5.555-8.429-8.333-12.644-13.887-21.078
				c12.353,19.08,198.351,19.079,210.7-0.002C242.61,266.935,239.834,271.151,234.279,279.58z"/>
			<path fill="#27AAE1" stroke="#27AAE1" stroke-miterlimit="10" d="M248.164,258.5c-12.349,19.081-198.347,19.082-210.7,0.002
				c-5.554-8.435-8.33-12.653-13.883-21.092c6.652,13.473,231.819,13.473,238.464,0C256.492,245.849,253.718,250.065,248.164,258.5z
				"/>
			<path fill="#21409A" stroke="#21409A" stroke-miterlimit="10" d="M262.045,237.41c-6.645,13.473-231.812,13.473-238.464,0
				c-5.553-8.438-8.317-12.664-13.851-21.113c9.165,2.185,257.009,2.184,266.168,0C270.364,224.746,267.598,228.972,262.045,237.41z
				"/>
			<path fill="#21409A" d="M275.898,216.297c-9.159,2.184-257.004,2.185-266.168,0c-5.535-8.45-8.302-12.676-13.835-21.127
				c16.098-12.106,277.744-12.106,293.836,0.001C284.197,203.622,281.433,207.847,275.898,216.297z"/>
			<path fill="#F26522" d="M192.516,342.852c-39.762,0-59.641,0.001-99.403,0.001c-5.556-8.403-8.335-12.608-13.891-21.021
				c32.375,12.883,94.812,12.882,127.187-0.001C200.853,330.243,198.072,334.448,192.516,342.852z"/>
		</g>
	</g>
</g>
<g id="Layer_15_copy" display="none">
	<g display="inline">
		<path fill="#F26522" d="M303.565,174.044c-23.759-26.76-297.742-26.76-321.502,0c-5.532-8.45-8.297-12.675-13.828-21.124
			c32.225-40.833,316.933-40.833,349.157,0C311.861,161.369,309.098,165.594,303.565,174.044z"/>
		<path fill="#ED1C24" d="M289.73,195.171c-16.092-12.107-277.738-12.107-293.836-0.001c-5.533-8.451-8.299-12.676-13.831-21.126
			c23.76-26.76,297.743-26.76,321.502,0C298.033,182.494,295.264,186.72,289.73,195.171z"/>
		<path fill="#FFDE17" d="M317.393,152.92c-32.225-40.833-316.933-40.833-349.157,0c-5.531-8.449-8.297-12.673-13.827-21.119
			c41.56-53.382,335.251-53.382,376.81,0C325.688,140.247,322.924,144.471,317.393,152.92z"/>
		<path fill="#FFDE17" stroke="#FFDE17" stroke-miterlimit="10" d="M331.218,131.801c-41.559-53.382-335.25-53.382-376.81,0
			c-5.53-8.446-8.297-12.67-13.797-21.099c57.882-60.735,346.521-60.735,404.405,0C339.518,119.131,336.747,123.355,331.218,131.801
			z"/>
		<path fill="#00A14B" d="M345.017,110.702c-57.884-60.735-346.523-60.735-404.405,0c-5.5-8.429-8.248-12.642-13.746-21.064
			c87.337-59.212,344.56-59.213,431.899,0C353.267,98.061,350.516,102.273,345.017,110.702z"/>
		<path fill="#27AAE1" d="M358.765,89.638c-87.34-59.213-344.562-59.212-431.899,0c-5.498-8.422-8.248-12.632-13.744-21.047
			C30.989,15.257,254.635,15.256,372.505,68.59C367.009,77.005,364.263,81.216,358.765,89.638z"/>
		<path fill="#21409A" stroke="#21409A" stroke-miterlimit="10" d="M386.301,47.475C236.618,5.38,49.008,5.38-100.675,47.476
			c-5.495-8.406-8.241-12.607-13.733-21.003c182.58-24.644,331.864-24.645,514.446,0C394.545,34.869,391.795,39.069,386.301,47.475z
			"/>
		<path fill="#21409A" d="M372.564,68.503c-118.001-53.3-341.501-53.299-459.501,0c-5.497-8.415-8.244-12.621-13.739-21.027
			c149.683-42.095,337.293-42.096,486.976,0C380.807,55.881,378.061,60.088,372.564,68.503z"/>
		<path fill="#ED1C24" d="M400.037,26.473c-182.582-24.645-331.866-24.644-514.446,0c-5.493-8.396-8.239-12.592-13.729-20.976
			c216.762,0,325.142,0,541.904,0C408.275,13.881,405.529,18.077,400.037,26.473z"/>
		<path fill="#FFDE17" d="M220.391,300.646c-25.255,19.76-129.894,19.76-155.152,0.001c-5.555-8.422-8.333-12.638-13.888-21.066
			c18.576,21.489,164.353,21.49,182.928,0C228.725,288.009,225.945,292.224,220.391,300.646z"/>
		<path fill="#FFDE17" d="M206.501,321.688c-32.326,12.948-95.047,12.947-127.372-0.001c-5.556-8.413-8.335-12.618-13.89-21.04
			c25.258,19.759,129.897,19.759,155.152-0.001C214.835,309.067,212.057,313.274,206.501,321.688z"/>
		<path fill="#00A14B" d="M234.279,279.58c-18.575,21.49-164.352,21.489-182.928,0c-5.555-8.429-8.333-12.644-13.887-21.078
			c12.353,19.08,198.351,19.079,210.7-0.002C242.61,266.935,239.834,271.151,234.279,279.58z"/>
		<path fill="#27AAE1" stroke="#27AAE1" stroke-miterlimit="10" d="M248.164,258.5c-12.349,19.081-198.347,19.082-210.7,0.002
			c-5.554-8.435-8.33-12.653-13.883-21.092c6.652,13.473,231.819,13.473,238.464,0C256.492,245.849,253.718,250.065,248.164,258.5z"
			/>
		<path fill="#21409A" stroke="#21409A" stroke-miterlimit="10" d="M262.045,237.41c-6.645,13.473-231.812,13.473-238.464,0
			c-5.553-8.438-8.317-12.664-13.851-21.113c9.165,2.185,257.009,2.184,266.168,0C270.364,224.746,267.598,228.972,262.045,237.41z"
			/>
		<path fill="#21409A" d="M275.898,216.297c-9.159,2.184-257.004,2.185-266.168,0c-5.535-8.45-8.302-12.676-13.835-21.127
			c16.098-12.106,277.744-12.106,293.836,0.001C284.197,203.622,281.433,207.847,275.898,216.297z"/>
		<path fill="#F26522" d="M192.516,342.852c-39.762,0-59.641,0.001-99.403,0.001c-5.556-8.403-8.335-12.608-13.891-21.021
			c32.375,12.883,94.812,12.882,127.187-0.001C200.853,330.243,198.072,334.448,192.516,342.852z"/>
	</g>
</g>
<g id="Section_Lines">
	<path fill="none" stroke="#FFFFFF" stroke-width="0.25" stroke-miterlimit="10" d="M144.114,5.498
		C65.638,5.498,2.02,69.115,2.02,147.592c0,29.182,8.797,56.31,23.883,78.875l76.426,114.314l41.785-0.128"/>
	<path fill="none" stroke="#FFFFFF" stroke-width="0.25" stroke-miterlimit="10" d="M144.114,5.498
		c-70.068,0-126.87,63.618-126.87,142.094c0,29.182,7.854,56.31,21.324,78.875l68.237,114.314l37.309-0.128"/>
	<path fill="none" stroke="#FFFFFF" stroke-width="0.25" stroke-miterlimit="10" d="M144.114,5.497
		c-57.456,0-104.033,63.618-104.033,142.095c0,29.183,6.44,56.31,17.486,78.875l55.955,114.314l30.592-0.128"/>
	<path fill="none" stroke="#FFFFFF" stroke-width="0.25" stroke-miterlimit="10" d="M144.114,5.497
		c-41.107,0-74.43,63.618-74.43,142.095c0,29.183,4.607,56.31,12.51,78.875l40.032,114.314l21.888-0.128"/>
	<path fill="none" stroke="#FFFFFF" stroke-width="0.25" stroke-miterlimit="10" d="M144.114,5.497
		c-14.948,0-27.065,63.618-27.065,142.095c0,29.183,1.675,56.31,4.549,78.875l14.557,114.314l7.959-0.128"/>
	<path fill="none" stroke="#FFFFFF" stroke-width="0.25" stroke-miterlimit="10" d="M144.114,5.498
		c78.477,0,142.095,63.618,142.095,142.094c0,29.182-8.797,56.31-23.884,78.875l-76.426,114.314l-41.785-0.128"/>
	<path fill="none" stroke="#FFFFFF" stroke-width="0.25" stroke-miterlimit="10" d="M144.114,5.498
		c70.068,0,126.87,63.618,126.87,142.094c0,29.182-7.854,56.31-21.324,78.875l-68.237,114.314l-37.309-0.128"/>
	<path fill="none" stroke="#FFFFFF" stroke-width="0.25" stroke-miterlimit="10" d="M144.114,5.497
		c57.456,0,104.033,63.618,104.033,142.095c0,29.183-6.44,56.31-17.485,78.875l-55.955,114.314l-30.593-0.128"/>
	<path fill="none" stroke="#FFFFFF" stroke-width="0.25" stroke-miterlimit="10" d="M144.114,5.497
		c41.106,0,74.431,63.618,74.431,142.095c0,29.183-4.607,56.31-12.511,78.875l-40.032,114.314l-21.888-0.128"/>
	<path fill="none" stroke="#FFFFFF" stroke-width="0.25" stroke-miterlimit="10" d="M144.114,5.497
		c14.948,0,27.065,63.618,27.065,142.095c0,29.183-1.675,56.31-4.549,78.875l-14.557,114.314l-7.96-0.128"/>
</g>
<g id="Layer_18">
	<path opacity="0.2" d="M143.551,5.498c-2.938,0-5.851,0.1-8.744,0.276c-51.908,35.348-86.14,95.885-86.14,164.643
		c0,72.536,38.097,135.923,94.854,170.237h0.03l41.785,0.128l76.426-114.314c15.087-22.565,23.884-49.693,23.884-78.875
		C285.646,69.115,222.027,5.498,143.551,5.498z"/>
</g>
<g id="Balloon">
	<path display="none" fill="#282828" d="M144.076,6.059C65.6,6.059,1.982,69.677,1.982,148.153c0,29.182,8.797,56.31,23.883,78.875
		l76.426,114.314l83.417,0.001l76.507-114.206c15.131-22.587,23.956-49.755,23.956-78.984
		C286.171,69.677,222.553,6.059,144.076,6.059z"/>
	<path fill="#282828" d="M185.486,339.962c-2.829-2.876-20.32-5.088-41.486-5.088c-21.617,0-39.405,2.308-41.652,5.272
		c-0.158,0.209-0.244,0.42-0.244,0.635c0,0.163,0.047,0.325,0.14,0.485c0.004,0.008,0.009,0.016,0.014,0.023
		c0.011,0.018,0.021,0.035,0.033,0.053c2.006,3,19.915,5.346,41.709,5.346c21.794,0,39.699-2.346,41.708-5.345
		c0.124-0.186,0.188-0.373,0.188-0.562C185.896,340.503,185.75,340.23,185.486,339.962z"/>
	<path fill="#282828" d="M185.708,341.344c0,0-12.781,22.739-12.781,24.438h-57.625c-0.53-5.155-13.011-24.438-13.011-24.438
		L185.708,341.344z"/>
	<path fill="#161616" d="M144,368.844c14.867,0,27.1-1.587,28.645-3.626c-1.945-1.978-13.974-3.499-28.53-3.499
		c-14.866,0-27.1,1.587-28.645,3.626C117.416,367.322,129.444,368.844,144,368.844z"/>
	<path fill="#282828" d="M172.645,365.218c-1.545,2.039-13.777,3.626-28.645,3.626c-14.556,0-26.584-1.521-28.53-3.499
		c-0.109,0.144-0.168,0.289-0.168,0.437c0,2.244,12.9,4.062,28.812,4.062c15.913,0,28.812-1.818,28.812-4.062
		C172.927,365.59,172.826,365.402,172.645,365.218z"/>
	<g>
		<g>
			<polygon fill="#BCBEC0" points="152.875,385.818 152.825,358.583 153.125,358.533 153.175,385.818 			"/>
			<path fill="#808285" d="M153.125,358.583v27.186h-0.25v-27.186H153.125 M153.225,358.483h-0.1h-0.25h-0.1v0.1v27.186v0.1h0.1
				h0.25h0.1v-0.1v-27.186V358.483L153.225,358.483z"/>
		</g>
	</g>
	<g>
		<g>
			<polygon fill="#BCBEC0" points="152.866,385.773 161.919,360.524 162.217,360.578 153.147,385.874 			"/>
			<path fill="#808285" d="M161.966,360.541l0.234,0.084l-9.083,25.186l-0.234-0.084L161.966,360.541 M161.905,360.413l-0.033,0.094
				l-9.083,25.186l-0.034,0.095l0.094,0.033l0.234,0.084l0.095,0.034l0.033-0.094l9.083-25.186l0.034-0.095l-0.094-0.033
				L162,360.447L161.905,360.413L161.905,360.413z"/>
		</g>
	</g>
	<g>
		<g>
			<polygon fill="#BCBEC0" points="152.867,385.748 166.767,362.161 167.05,362.271 153.125,385.9 			"/>
			<path fill="#808285" d="M166.81,362.187l0.215,0.127l-13.917,23.519l-0.215-0.127L166.81,362.187 M166.774,362.05l-0.051,0.086
				l-13.917,23.519l-0.051,0.086l0.086,0.051l0.215,0.127l0.086,0.051l0.051-0.086l13.917-23.519l0.051-0.086l-0.086-0.051
				l-0.215-0.127L166.774,362.05L166.774,362.05z"/>
		</g>
	</g>
	<g>
		<g>
			<polygon fill="#BCBEC0" points="152.87,385.734 170.192,362.146 170.463,362.284 153.111,385.913 			"/>
			<path fill="#808285" d="M170.232,362.176l0.201,0.148l-17.333,23.519l-0.201-0.148L170.232,362.176 M170.211,362.036l-0.059,0.08
				l-17.333,23.519l-0.06,0.081l0.08,0.059l0.201,0.148l0.081,0.06l0.059-0.08l17.333-23.519l0.06-0.081l-0.08-0.059l-0.201-0.148
				L170.211,362.036L170.211,362.036z"/>
		</g>
	</g>
	<g>
		<g>
			<polygon fill="#BCBEC0" points="135.405,385.818 135.355,358.583 135.655,358.533 135.705,385.818 			"/>
			<path fill="#808285" d="M135.655,358.583v27.186h-0.25v-27.186H135.655 M135.755,358.483h-0.1h-0.25h-0.1v0.1v27.186v0.1h0.1
				h0.25h0.1v-0.1v-27.186V358.483L135.755,358.483z"/>
		</g>
	</g>
	<g>
		<g>
			<polygon fill="#BCBEC0" points="126.283,360.642 126.548,360.494 135.695,385.71 135.429,385.857 135.382,385.874 			"/>
			<path fill="#808285" d="M126.565,360.541l9.083,25.186l-0.235,0.084l-9.083-25.186L126.565,360.541 M126.625,360.413
				l-0.094,0.034l-0.235,0.084l-0.094,0.033l0.034,0.095l9.083,25.186l0.034,0.094l0.094-0.034l0.235-0.084l0.094-0.033
				l-0.034-0.095l-9.083-25.186L126.625,360.413L126.625,360.413z"/>
		</g>
	</g>
	<g>
		<g>
			<polygon fill="#BCBEC0" points="121.463,362.339 121.695,362.144 135.681,385.68 135.448,385.875 135.405,385.9 			"/>
			<path fill="#808285" d="M121.721,362.187l13.917,23.519l-0.215,0.127l-13.917-23.519L121.721,362.187 M121.756,362.05
				l-0.086,0.051l-0.215,0.127l-0.086,0.051l0.051,0.086l13.917,23.519l0.051,0.086l0.086-0.051l0.215-0.127l0.086-0.051
				l-0.051-0.086l-13.917-23.519L121.756,362.05L121.756,362.05z"/>
		</g>
	</g>
	<g>
		<g>
			<polygon fill="#BCBEC0" points="118.057,362.354 118.268,362.136 135.671,385.665 135.459,385.883 135.419,385.913 			"/>
			<path fill="#808285" d="M118.298,362.176l17.333,23.519l-0.201,0.148l-17.333-23.519L118.298,362.176 M118.319,362.036
				l-0.081,0.06l-0.201,0.148l-0.08,0.059l0.059,0.081l17.333,23.519l0.06,0.08l0.081-0.06l0.201-0.148l0.08-0.059l-0.059-0.081
				l-17.333-23.519L118.319,362.036L118.319,362.036z"/>
		</g>
	</g>
	<circle fill="#BCBEC0" stroke="#808285" stroke-width="0.15" stroke-miterlimit="10" cx="153" cy="385.769" r="0.72"/>
	<circle fill="#BCBEC0" stroke="#808285" stroke-width="0.15" stroke-miterlimit="10" cx="135.53" cy="385.769" r="0.72"/>
	<path fill="#282828" d="M102.291,341.343c0,0,12.48,19.283,13.011,24.438h0.78c-0.256-0.143-0.466-0.288-0.612-0.437
		c1.545-2.039,13.778-3.626,28.645-3.626c14.556,0,26.585,1.521,28.53,3.499c-0.146,0.192-0.387,0.38-0.715,0.563h0.996
		c0-1.698,12.781-24.438,12.781-24.438L102.291,341.343z"/>
</g>
</svg>
