<?xml version="1.0" standalone="no"?>
<?xml-stylesheet type="text/css" href="../../css/style.css"?>

<svg id="Layer_1" data-name="Layer 1" xmlns="http://www.w3.org/2000/svg" xmlns:xlink="http://www.w3.org/1999/xlink" viewBox="0 0 1032.61 798.6"><defs>

<style>
.cls-1,.cls-12{fill:#6c63ff;}

.cls-1,.cls-4{opacity:0.1;isolation:isolate;}
.cls-2{fill:url(#linear-gradient);}
.cls-3{fill:#63667e;}
.cls-5{fill:#33363d;}
.cls-6{fill:#f7c4a7;}
.cls-7{fill:#ced7e7;}
.cls-8{fill:#4e5a86;}
.cls-11,.cls-9{fill:none;stroke-miterlimit:10;}
.cls-9{stroke:#c1272d;}.cls-10{opacity:0.15;}
.cls-11{stroke:#535461;stroke-width:2px;}
.cls-13{opacity:0.3;}
.cls-14{fill:#a37645;}
</style>

<linearGradient id="linear-gradient" x1="234.07" y1="19.73" x2="234.07" y2="272.63" gradientTransform="matrix(1, 0, 0, -1, -79.65, 749.24)" gradientUnits="userSpaceOnUse"><stop offset="0" stop-color="gray" stop-opacity="0.25"/><stop offset="0.54" stop-color="gray" stop-opacity="0.12"/><stop offset="1" stop-color="gray" stop-opacity="0.1"/></linearGradient></defs>

 <symbol id="about-svg">
<title>About Me Illustration</title>

<path class="cls-1" id="color-section" d="M617.34,131.87c-64.67-2.66-126.26-27.35-185.07-54.37S315.16,20.55,252.07,6.23c-40.6-9.2-87-10.5-119.76,15.24C100.83,46.25,90.66,89,85.19,128.7c-4.11,29.86-6.53,61.29,4.74,89.23,7.82,19.41,21.72,35.73,31.33,54.31,33.45,64.68,9.81,144.43-26.42,207.59-17,29.61-36.73,57.88-49.85,89.42s-19.18,67.66-7.7,99.83c11.37,31.88,38.48,55.83,67.85,72.68,59.64,34.21,129.89,44,198.45,49.55,151.7,12.27,304.22,7,456.33,1.64,56.29-2,112.83-4,168.21-14.27,30.75-5.71,62.5-14.79,84.82-36.7,28.35-27.81,35.37-74.94,16.38-109.77-31.86-58.5-119.91-73-142.2-135.81-12.25-34.55.33-73,18.15-105.08,38.2-68.75,102.25-129.06,105.61-207.64,2.32-54-28.46-108-76.07-133.54C884.93,23.37,815.74,26.73,779,71c-37.89,45.62-104.5,63.18-161.61,60.83Z" transform="translate(-7.36 -0.2)"/><path class="cls-2" d="M34.06,480.76l-2.8-3.94A28.68,28.68,0,0,1,34.06,480.76ZM273,641.48c-.16,2-.28,4.35-.29,7-.08,8.28.73,19.31,4.46,29.85l-1.59,41.52h-.13c-1.34-.14-2.59,4.09-3.55,9.68a44.69,44.69,0,0,0-2.94-6.68c-1.9-2.78-.31-18.22-.31-18.22s-7.94-12.67-8.56-15.46S250,641.27,250,641.27s-.63-35.21-4.11-44.17-4.44-47.89-4.44-47.89,17.43,28.11,18.7,42.33l13.62,43.56s-.42,2.38-.71,6.38Z" transform="translate(-7.36 -0.2)"/><path class="cls-3" d="M311.16,674.85s-.51,49.43-5.72,56.16-32.44.31-32.44.31L275,677c-3.6-10.43-4.4-21.36-4.31-29.56,0-2.61.13-5,.28-6.92.29-4,.69-6.35.69-6.35L258.5,591c-1.23-14.09-18.06-42-18.06-42s.92,38.56,4.29,47.43,4,43.76,4,43.76,9.19,44.68,9.8,47.44,8.26,15.3,8.26,15.3-1.53,15.3.31,18.06,9.48,24.18,7.64,28.15-34.88-1.53-34.88-4.59c0-1.61-2.4-8.73-4.67-15.06l-1.45-4.06c-1.38-3.76-2.45-6.58-2.45-6.58s-12.75-31-19.42-54.25l-.8-2.85q-.45-1.65-.84-3.21a86.75,86.75,0,0,1-2.1-10.6,20.81,20.81,0,0,1-.09-5.29c2.13-14.39-11.63-46.82-11.63-46.82s-15.61-49.59-18.37-52-6.13-26.31-7.34-36.72c-.28-2.44-.77-5.48-1.36-8.71-.2-1.15-.42-2.32-.64-3.5-1.87-9.64-4.17-19.62-4.17-19.62l34.32-22.65,90.28-9.79s2.52,19.34,5.69,40.66c.22,1.48.45,3,.68,4.49,3,20,6.52,40.79,8.93,48.18,5.2,15.92,5.2,63.35,6.73,87.52S311.16,674.85,311.16,674.85Z" transform="translate(-7.36 -0.2)"/><path class="cls-4" d="M222.36,471.11l11.37,58h5.39l-10.79-60-6,2Z" transform="translate(-7.36 -0.2)"/><path class="cls-4" d="M169.37,498.42c-.2-1.15-.42-2.32-.64-3.5,5.28-1.07,17.24-5.48,15.38-23.15h3.67S191.26,495,169.37,498.42Z" transform="translate(-7.36 -0.2)"/><path class="cls-4" d="M295.53,488c-6.86,1.26-28.28,4.95-32.77,2.51-5.34-2.91-10.63-18.67-10.63-18.67l4.9-.77s-4.32,23.12,37.82,12.44c.22,1.48.45,3,.68,4.49Z" transform="translate(-7.36 -0.2)"/><path class="cls-5" d="M293.68,469c-6.18,3.58-20.68,5.31-37.55,6-1.54.06-3.09.12-4.67.16-27.36.86-59.3-.69-72-1.42-3.59-.2-5.65-.34-5.65-.34L185,465.65l18.37-6.74L242,451.34l49.5-1.38.5,4.25Z" transform="translate(-7.36 -0.2)"/><path class="cls-3" d="M256.13,475c-1.54.06-3.09.12-4.67.16-1.94-8.21-8.05-21.34-8.05-21.34l5.19-.69Z" transform="translate(-7.36 -0.2)"/><path class="cls-6" d="M47.7,492.05s-2.16,2.5-5.47,5.87c-10.08,10.24-30.81,28.54-34.35,9.73-3.66-19.49,12.87-32,20.36-36.59,2.12-1.31,3.5-2,3.5-2Z" transform="translate(-7.36 -0.2)"/><path class="cls-7" d="M233.16,271.82s-11.7-7.34-13.88-6.65,0,10.54,0,10.54a28.68,28.68,0,0,1-12.74,12.41A178.09,178.09,0,0,0,188.4,299a32.51,32.51,0,0,0-25,8.26A20,20,0,0,1,147.24,310c-9.07-2.52-9.52-14.91-8.26-19.61,1-3.7,16.13-13.29,22.64-17.29,1.8-1.1,2.94-1.77,2.94-1.77s29.4-1,36-13.54a24.57,24.57,0,0,1,8.81-9.43l.17-.09.84-.5.27-.15a26.52,26.52,0,0,1,10-3.14c14.35,9.18,12.48,27.31,12.48,27.31Z" transform="translate(-7.36 -0.2)"/><path class="cls-4" d="M233.16,271.82s-11.7-7.34-13.88-6.65,0,10.54,0,10.54a28.68,28.68,0,0,1-12.74,12.41A178.09,178.09,0,0,0,188.4,299a32.51,32.51,0,0,0-25,8.26A20,20,0,0,1,147.24,310c-9.07-2.52-9.52-14.91-8.26-19.61,1-3.7,16.13-13.29,22.64-17.29,1.8-1.1,2.94-1.77,2.94-1.77s29.4-1,36-13.54a24.57,24.57,0,0,1,8.81-9.43l.17-.09.84-.5.27-.15a26.52,26.52,0,0,1,10-3.14c14.35,9.18,12.48,27.31,12.48,27.31Z" transform="translate(-7.36 -0.2)"/><path class="cls-4" d="M292,454.25c-5.51-5.21-39.78,4.27-39.78,4.27s-23.6,6.78-41.61,7.88a69.51,69.51,0,0,1-7.36.09c-7.56-.39-15.45,2.67-22.06,6.33l-1.67,1c-3.59-.2-5.65-.34-5.65-.34L185,465.76,203.36,459,242,451.45l49.5-1.38Z" transform="translate(-7.36 -0.2)"/><path class="cls-4" d="M42.23,497.92c2.28-15.25-9.55-24.11-14-26.86,2.12-1.31,3.5-2,3.5-2l16,23S45.54,494.55,42.23,497.92Z" transform="translate(-7.36 -0.2)"/><path class="cls-7" d="M421.37,290.19s-24.49,3-34.28,15.9-30.91,11.63-30.91,11.63-18.37,9.8-36.72,10.41c-10.9.36-16,3.09-18.31,5.26a40.47,40.47,0,0,1-6.13,4.87c-8.34,5.17-9.64,12.52-9.08,18.18A185.44,185.44,0,0,1,287,376.71c-.22,19,3.09,52.1,3.09,52.1s7.35,28.76,1.83,23.57-39.78,4.27-39.78,4.27-23.6,6.78-41.61,7.89a66.94,66.94,0,0,1-7.36.08c-7.56-.39-15.45,2.67-22.06,6.34a90.08,90.08,0,0,0-15.88,11.4c-5.86-14.51-3.42-33.19-1.5-42.84a27.21,27.21,0,0,0-.68-13.41l-8.84-28.36s-19.28,6.58-28.46,23.71S74.63,471.65,66.36,473.8c-3.79,1-6.23,3.95-7.76,6.89a31.75,31.75,0,0,1-8.1,10.21,38.91,38.91,0,0,0-8,9.22c5.51-20.81-15-30.91-15-30.91s8.25-2.76,11.62-13.75,19-22.34,19-22.34S74,405,83.22,400.37s25.71-26.62,25.71-26.62c3.36-24.79,19-37.64,19-37.64s17.15-7.34,19-13.41c.64-2.08,2.74-5.94,5.25-10.12,2.34-3.94,5-8.13,7.14-11.39s3.84-5.79,3.84-5.79l27.48-.26,5-.05,14.63-27.56s5.21-5.19,14.23.92a14.46,14.46,0,0,0,8.8,2.42,25.37,25.37,0,0,0,11.56-3.64c34.89-9.49,49.58,8.48,49.58,8.48s24.17-2,25.39,0,13.77,0,13.77,0l33.36-3.28,51.42-8.25Z" transform="translate(-7.36 -0.2)"/><path class="cls-6" d="M220.61,281,205,306.7s-42.54,30.92-36.41,6.74a40.71,40.71,0,0,0,1-12.44c-.09-1.63-.28-3.26-.52-4.87a78.72,78.72,0,0,0-5.84-19.33c-.31-.74-.63-1.45-1-2.15-.48-1-.95-2-1.42-2.94a97.91,97.91,0,0,0-6.7-11.52s46.21-37.64,47.74-14.08a48.33,48.33,0,0,0,3.6,15.48l.36.83a48,48,0,0,0,10.88,15.42,31.76,31.76,0,0,0,3.87,3.16Z" transform="translate(-7.36 -0.2)"/><path class="cls-7" d="M158.79,304.87l7.2,21.42L195.26,331,212,312.57s9.65-13.77,10.25-14.08S224.43,285,224.43,285l1.8-7.43-11.32-3.81L199,291.08l-6.5,4-7.23,1.76-24,7Z" transform="translate(-7.36 -0.2)"/><path class="cls-4" d="M233.16,273.66s-8-.08-10.13.61-3.75,3.27-3.75,3.27A28.7,28.7,0,0,1,206.54,290a178.09,178.09,0,0,0-18.14,10.89,32.43,32.43,0,0,0-25,8.26,20.39,20.39,0,0,1-11.32,3.46c2.34-3.94,5-8.13,7.14-11.39,9.88-1.08,30.77-4.91,30.77-4.91l.55-1.14c1.94-4,8.5-17.49,10.92-21.57,2.82-4.76,11.65-19.62,11.93-20.08l-8.67,7.93,4.63-11.17.17-.09.84-.5.27-.15a26.52,26.52,0,0,1,10-3.14c10.94,7,12.5,19.09,12.62,24.53a25.55,25.55,0,0,1-.11,2.77Z" transform="translate(-7.36 -0.2)"/><path class="cls-4" d="M161.59,271.3l2.27,5s-.19.16-.59.46c-.31-.74-.63-1.45-1-2.15-.48-1-1-2-1.42-2.94.24-.14.46-.29.68-.41Z" transform="translate(-7.36 -0.2)"/><path class="cls-4" d="M216.78,277.84a30.53,30.53,0,0,1-10.24,8.44,178.17,178.17,0,0,0-18.14,10.9A32.47,32.47,0,0,0,169.64,301c-.09-1.63-.28-3.26-.52-4.87,9.83-1.52,20.89-3.55,20.89-3.55s8.61-17.89,11.47-22.71c1-1.62,2.64-4.44,4.42-7.45a48,48,0,0,0,10.88,15.42Z" transform="translate(-7.36 -0.2)"/><path class="cls-7" d="M233.16,271.82s-8-.08-10.14.61-3.74,3.28-3.74,3.28a28.68,28.68,0,0,1-12.74,12.41A178.09,178.09,0,0,0,188.4,299a32.51,32.51,0,0,0-25,8.26A20,20,0,0,1,147.24,310c-9.07-2.52-9.52-14.91-8.26-19.61,1-3.7,16.13-13.29,22.64-17.29l2.27,5.05a140.84,140.84,0,0,1-14.82,9.94c-9.76,5.84-4.82,12.16-4.82,12.16a50.56,50.56,0,0,1,10.64-.7c5.05.34,35.12-5.17,35.12-5.17s8.61-17.9,11.47-22.71l11.93-20.08-8.67,8,4.63-11.17.17-.09.84-.5.27-.15a26.52,26.52,0,0,1,10-3.14C235,253.68,233.16,271.82,233.16,271.82Z" transform="translate(-7.36 -0.2)"/><path class="cls-4" d="M205.54,261.61a34.92,34.92,0,0,1-43.26,13,101.55,101.55,0,0,0-8.12-14.46s46.21-37.64,47.74-14.08A48.45,48.45,0,0,0,205.54,261.61Z" transform="translate(-7.36 -0.2)"/><path class="cls-4" d="M119.63,353.23s7.68,14.38,17.13,22.29,15,20.2,15,20.2S149,371.89,119.63,353.23Z" transform="translate(-7.36 -0.2)"/><path class="cls-4" d="M107.69,389.34s27-6.74,40.55,0Z" transform="translate(-7.36 -0.2)"/><path class="cls-4" d="M97.89,429.48l29-10S108.32,432.79,97.89,429.48Z" transform="translate(-7.36 -0.2)"/><path class="cls-4" d="M47.7,468.6S60.25,468,64.23,472C64.23,472,52,472.88,47.7,468.6Z" transform="translate(-7.36 -0.2)"/><path class="cls-4" d="M340.55,275s-28.14,16.7-29.39,43.63Z" transform="translate(-7.36 -0.2)"/><path class="cls-4" d="M374.54,300.28s-34.89,7-40.7,10.71-18.36,5.51-18.36,5.51,50.49-6.73,59.06-16.22Z" transform="translate(-7.36 -0.2)"/><path class="cls-4" d="M272.2,448c-2.54,2.64-33.87,10.07-61.87,16.29a69.37,69.37,0,0,1-7.63.09c-7.84-.4-16,2.75-22.88,6.52-8.46,1.8-13.92,2.93-13.92,2.93s-9.2-7.25,3.49-23.63S184.3,408,184.3,408l56.5-14.45s15.24,21,22.53,24.36S276.89,443.12,272.2,448Z" transform="translate(-7.36 -0.2)"/><path class="cls-7" d="M270.2,448.7c-2.46,2.58-32.67,9.79-59.67,15.84a66.94,66.94,0,0,1-7.36.08c-7.56-.39-15.45,2.67-22.06,6.34-8.16,1.74-13.43,2.84-13.43,2.84s-8.88-7,3.37-23,14.37-41,14.37-41l54.48-14.07s14.69,20.39,21.72,23.66S274.69,444,270.2,448.7Z" transform="translate(-7.36 -0.2)"/><path class="cls-4" d="M226,649.3l-15.73,9.32a86.75,86.75,0,0,1-2.1-10.6c2.28,1.91,17.83,1.28,17.83,1.28Z" transform="translate(-7.36 -0.2)"/><path class="cls-4" d="M211.1,661.83c5.56-1.06,18.75-3.69,26-6.17-6.55,3.2-18.41,8.54-25.15,9C211.62,663.72,211.36,662.76,211.1,661.83Z" transform="translate(-7.36 -0.2)"/><path class="cls-4" d="M241.72,653.3c-.58.71-2.28,1.51-4.63,2.32C239.9,654.3,241.72,653.3,241.72,653.3Z" transform="translate(-7.36 -0.2)"/><path class="cls-4" d="M251.21,730.24c-4.45.37-11.7-.23-16-.67l-1.45-4.06c4.58.49,13.68,1.26,17.44.14,5.13-1.52,6.67,4.06,0,4.59Z" transform="translate(-7.36 -0.2)"/><path class="cls-4" d="M291,648.91c-.74-.1-12.63-1.44-20.28-1.48,0-2.61.13-5,.28-6.92C276.3,642.74,290.24,648.64,291,648.91Z" transform="translate(-7.36 -0.2)"/><path class="cls-7" d="M282.28,780.51c-1.38,5.69-23.64,4.69-23.64,4.69l-1.84,2.43s-8.57,3.14-15,1.3-26-1.45-26-1.45V781.2c0-8.18,9.18-10.86,9.18-10.86s7.73-6.43,10.4-12.93a95.75,95.75,0,0,1,5.81-11.7s-7.18-8.73,12.09-11c19-2.2,11.54,15,11.33,15.51.31-.28,7.44-6.68,11.39-4.66,2.86,1.47,5.45,15.38,6.26,25.45C282.66,775.29,282.68,778.84,282.28,780.51Z" transform="translate(-7.36 -0.2)"/><path class="cls-4" d="M282.28,780.51c-1.38,5.69-23.64,4.69-23.64,4.69l-1.84,2.43s-8.57,3.14-15,1.3-26-1.45-26-1.45v-6c11.77.58,35.33,1.36,40.63-1.37,0,0,6.34-1.61,7.8-2.68,1.23-.91,14.16-5.13,18-6.38C282.66,775.29,282.68,778.84,282.28,780.51Z" transform="translate(-7.36 -0.2)"/><path class="cls-7" d="M331,781.14c-20.28,2.22-30.84-2.69-30.84-2.69a13.67,13.67,0,0,1-6.34-9.48c-1.07-6.66-11.25-13.38-11.25-13.38s-12.54,1.22-14.08-2.46a16.61,16.61,0,0,1-.42-4.77c0-9.86,2.47-30.57,5.31-30.27,3.36.37,13.74,14.12,14.78,15.5-.91-1.48-9.94-16.88,10.09-18.71,0,0,16.37-9.25,14.69,12.32L319.84,742s13.55,20,16.9,19.28c1.61-.33,5,3.67,5.9,8.19C343.61,774.43,341.6,780,331,781.14Z" transform="translate(-7.36 -0.2)"/><path class="cls-4" d="M331,781.14c-20.28,2.22-30.84-2.69-30.84-2.69a13.67,13.67,0,0,1-6.34-9.48c-1.07-6.66-11.25-13.38-11.25-13.38s-12.54,1.22-14.08-2.46a16.61,16.61,0,0,1-.42-4.77c4.63,1.11,15.32,3.66,18.62,4.61,4.3,1.22,16.85,21.57,16.85,21.57,12.08,6.36,32.08-1.79,39.09-5,1,4.88-1,10.43-11.63,11.59Z" transform="translate(-7.36 -0.2)"/><path class="cls-4" d="M241.22,745.71s-6.18,9.47,23.42,4.57" transform="translate(-7.36 -0.2)"/><path class="cls-4" d="M288.18,733.59s31.22,6.78,24.78-6.39" transform="translate(-7.36 -0.2)"/><path class="cls-8" d="M480.33,798.8H363.93a9.73,9.73,0,0,1-9.74-9.71,11.28,11.28,0,0,1,.07-1.16L382.6,547.12l.59-5.08a9.75,9.75,0,0,1,9.66-8.6H454a9.74,9.74,0,0,1,9.67,8.7l.51,4.82L490,788a9.72,9.72,0,0,1-8.63,10.72,9.42,9.42,0,0,1-1.06.06Z" transform="translate(-7.36 -0.2)"/><path class="cls-4" d="M390.63,562.24s4.28,109.25-12.24,150.88c0,0,1.72,8.88,6.37,0s20.56-101.3,12.91-149.34C397.67,563.77,396.1,558.56,390.63,562.24Z" transform="translate(-7.36 -0.2)"/><path class="cls-4" d="M411.14,562.24s4.27,109.25-12.24,150.88c0,0,1.71,8.88,6.36,0s20.56-101.3,12.91-149.34C418.17,563.77,416.64,558.56,411.14,562.24Z" transform="translate(-7.36 -0.2)"/><path class="cls-4" d="M461.05,562.24s-4.29,109.25,12.24,150.88c0,0-1.73,8.88-6.38,0S446.33,611.81,454,563.77c0,0,1.54-5.21,7.08-1.53Z" transform="translate(-7.36 -0.2)"/><path class="cls-4" d="M440.51,562.24s-4.28,109.25,12.24,150.88c0,0-1.73,8.88-6.37,0s-20.56-101.31-12.91-149.35c0,0,1.54-5.21,7-1.53Z" transform="translate(-7.36 -0.2)"/><path class="cls-8" d="M395.33,19.61h55.31V502.26H395.33Z" transform="translate(-7.36 -0.2)"/><path class="cls-9" d="M356.66,385.66" transform="translate(-7.36 -0.2)"/><path class="cls-4" d="M464.14,547a7.18,7.18,0,0,1-1.9.25H383.75a7.33,7.33,0,0,1-1.15-.09l.59-5.08a9.75,9.75,0,0,1,9.66-8.6H454a9.74,9.74,0,0,1,9.67,8.7Z" transform="translate(-7.36 -0.2)"/><path class="cls-4" d="M395.33,492.62h55.88v9.64H395.33Z" transform="translate(-7.36 -0.2)"/><rect class="cls-8" x="369.03" y="494.25" width="93.19" height="50.95" rx="7.99" ry="7.99"/><path class="cls-4" d="M399.05,19.61H407v459.7h-7.95Z" transform="translate(-7.36 -0.2)"/><path class="cls-4" d="M412.35,19.61h8v459.7h-8Z" transform="translate(-7.36 -0.2)"/><path class="cls-4" d="M425.66,19.61h8v459.7h-8Z" transform="translate(-7.36 -0.2)"/><path class="cls-4" d="M439,19.61h8v459.7h-8Z" transform="translate(-7.36 -0.2)"/><path class="cls-6" d="M454.1,250.06s-18.2-5.67-15.45,14.38,9.8,21.27,9.8,21.27,6.11-1.38,6.88-9.33-1.23-26.32-1.23-26.32Z" transform="translate(-7.36 -0.2)"/><g class="cls-10"><path class="cls-11" d="M446.11,609.33s61.53-156.87,179.17-216.21c49.38-24.91,90-64.35,114.56-113.92A429.82,429.82,0,0,0,768,205.9" transform="translate(-7.36 -0.2)"/><path class="cls-12" id="color-section" d="M842,168.06c-12.15,15.66-75.72,39-75.72,39s6.89-67.39,19-83a35.87,35.87,0,0,1,57.56,42.82c-.29.39-.58.77-.88,1.14Z" transform="translate(-7.36 -0.2)"/><path class="cls-12" id="color-section" d="M821.48,291.13c-18.7,6.53-84.78-8.4-84.78-8.4s42.42-52.81,61.12-59.34a35.88,35.88,0,0,1,23.66,67.74Z" transform="translate(-7.36 -0.2)"/><path class="cls-12" id="color-section" d="M704.42,437.68c-19.45-3.8-68.94-50-68.94-50s63.28-24.18,82.72-20.37a35.87,35.87,0,1,1-13.77,70.41h0Z" transform="translate(-7.36 -0.2)"/><path class="cls-12" id="color-section" d="M590.87,528.63c-19.8-.46-76.41-37.67-76.41-37.67s58.28-34.52,78.09-34.07a35.88,35.88,0,0,1-1.68,71.74Z" transform="translate(-7.36 -0.2)"/><path class="cls-12" id="color-section" d="M674.88,239.63c2.76,19.61,46.28,71.51,46.28,71.51s27.53-61.89,24.77-81.52a35.88,35.88,0,0,0-71,10Z" transform="translate(-7.36 -0.2)"/><path class="cls-12" id="color-section" d="M543.41,347.61c8.5,17.92,65.52,54.4,65.52,54.4s7.75-67.3-.76-85.19a35.87,35.87,0,1,0-64.8,30.79h0Z" transform="translate(-7.36 -0.2)"/><path class="cls-12" id="color-section" d="M430.07,470.15c5.36,19.08,55.44,64.7,55.44,64.7s19-65,13.65-84.09a35.88,35.88,0,0,0-69.09,19.39Z" transform="translate(-7.36 -0.2)"/></g><g class="cls-13"><path class="cls-11" d="M446.82,323.25s22.23-56.68,64.73-78.11A92.24,92.24,0,0,0,552.93,204a155,155,0,0,0,10.19-26.48" transform="translate(-7.36 -0.2)"/><path class="cls-12" id="color-section" d="M589.84,163.86c-4.39,5.65-27.36,14.1-27.36,14.1s2.49-24.34,6.89-30A13,13,0,1,1,591,162.35,14.26,14.26,0,0,1,589.84,163.86Z" transform="translate(-7.36 -0.2)"/><path class="cls-12" id="color-section" d="M582.43,208.31c-6.76,2.36-30.63-3-30.63-3s15.32-19.09,22.08-21.45a13,13,0,1,1,8.55,24.47Z" transform="translate(-7.36 -0.2)"/><path class="cls-12" id="color-section" d="M540.13,261.26c-7-1.38-24.9-18.08-24.9-18.08s22.85-8.74,29.88-7.36a13,13,0,1,1-3.36,25.76,13.19,13.19,0,0,1-1.64-.32Z" transform="translate(-7.36 -0.2)"/><path class="cls-12" id="color-section" d="M499.11,294.12c-7.15-.17-27.59-13.61-27.59-13.61s21.05-12.48,28.2-12.31a13,13,0,0,1-.61,25.92Z" transform="translate(-7.36 -0.2)"/><path class="cls-12" id="color-section" d="M529.45,189.69c1,7.08,16.73,25.84,16.73,25.84s10-22.36,9-29.45a13,13,0,1,0-25.91,1.9,12.56,12.56,0,0,0,.24,1.71Z" transform="translate(-7.36 -0.2)"/><path class="cls-12" id="color-section" d="M488.87,222.49c2.23,6.8,21,22.5,21,22.5s5.86-23.75,3.63-30.56a13,13,0,0,0-24.63,8.06Z" transform="translate(-7.36 -0.2)"/><path class="cls-12" id="color-section" d="M461.26,245c.9,7.1,16.3,26.08,16.3,26.08s10.34-22.21,9.39-29.32A13,13,0,1,0,461.2,245Z" transform="translate(-7.36 -0.2)"/></g><g class="cls-13"><path class="cls-11" d="M623.17,797s.94-60.88,33.22-95.85a92.08,92.08,0,0,0,24.34-53,154.52,154.52,0,0,0,.25-28.37" transform="translate(-7.36 -0.2)"/><path class="cls-12" id="color-section" d="M701.2,597.53c-2.13,6.81-20.68,22.8-20.68,22.8s-6.19-23.69-4.06-30.52a13,13,0,0,1,24.74,7.71Z" transform="translate(-7.36 -0.2)"/><path class="cls-12" id="color-section" d="M709.85,641.76c-5.51,4.58-29.75,7.9-29.75,7.9s7.66-23.24,13.16-27.83a13,13,0,0,1,16.59,19.93Z" transform="translate(-7.36 -0.2)"/><path class="cls-12" id="color-section" d="M688.87,706.17c-7.07,1.18-29.67-8.2-29.67-8.2s18.35-16.19,25.4-17.37a13,13,0,0,1,4.27,25.57Z" transform="translate(-7.36 -0.2)"/><path class="cls-12" id="color-section" d="M661.89,751.32c-6.77,2.35-30.63-3.06-30.63-3.06s15.39-19,22.14-21.42a13,13,0,1,1,8.49,24.48Z" transform="translate(-7.36 -0.2)"/><path class="cls-12" id="color-section" d="M653.72,642.89c3.42,6.29,24.73,18.33,24.73,18.33s1.46-24.42-2-30.71a13,13,0,0,0-22.78,12.38Z" transform="translate(-7.36 -0.2)"/><path class="cls-12" id="color-section" d="M622.92,696.1c5.14,5,29.08,10.09,29.08,10.09s-5.91-23.74-11.06-28.73a13,13,0,0,0-18,18.64Z" transform="translate(-7.36 -0.2)"/><path class="cls-12" id="color-section" d="M600.12,751.91c4.22,5.78,27,14.87,27,14.87s-1.81-24.41-6-30.19a13,13,0,0,0-20.91,15.32Z" transform="translate(-7.36 -0.2)"/></g><g class="cls-13"><path class="cls-11" d="M473.34,787.37s.94-60.88,33.22-95.85a92.18,92.18,0,0,0,24.34-53,155.41,155.41,0,0,0,.25-28.37" transform="translate(-7.36 -0.2)"/><path class="cls-12" id="color-section" d="M551.37,588c-2.13,6.84-20.68,22.8-20.68,22.8s-6.19-23.67-4.07-30.5a13,13,0,0,1,25.3,5.92A14.07,14.07,0,0,1,551.37,588Z" transform="translate(-7.36 -0.2)"/><path class="cls-12" id="color-section" d="M560,632.18c-5.51,4.58-29.75,7.9-29.75,7.9s7.66-23.24,13.16-27.82A13,13,0,0,1,560,632.18Z" transform="translate(-7.36 -0.2)"/><path class="cls-12" id="color-section" d="M539,696.6c-7.07,1.16-29.67-8.21-29.67-8.21s18.34-16.2,25.4-17.36a13,13,0,1,1,5.95,25.28A12.3,12.3,0,0,1,539,696.6Z" transform="translate(-7.36 -0.2)"/><path class="cls-12" id="color-section" d="M512.1,741.74c-6.77,2.36-30.63-3.07-30.63-3.07s15.35-19,22.1-21.42a13,13,0,1,1,10.16,23.91,12.12,12.12,0,0,1-1.63.57Z" transform="translate(-7.36 -0.2)"/><path class="cls-12" id="color-section" d="M503.89,633.32c3.42,6.29,24.72,18.33,24.72,18.33s1.47-24.42-2-30.71a13,13,0,1,0-23.83,10.34,13.43,13.43,0,0,0,1.11,2Z" transform="translate(-7.36 -0.2)"/><path class="cls-12" id="color-section" d="M473.11,686.51c5.14,5,29.07,10.11,29.07,10.11s-5.9-23.76-11.05-28.73A13,13,0,0,0,471.61,685a12.66,12.66,0,0,0,1.54,1.48Z" transform="translate(-7.36 -0.2)"/><path class="cls-12" id="color-section" d="M450.29,742.33c4.22,5.78,27,14.87,27,14.87s-1.8-24.41-6-30.19A13,13,0,0,0,449.34,741a15.25,15.25,0,0,0,1,1.38Z" transform="translate(-7.36 -0.2)"/></g><path class="cls-12" id="color-section" d="M405.09,77.61c2,6.16-3.42,27.58-3.42,27.58s-16.86-14.26-18.84-20.44a11.7,11.7,0,1,1,21.94-8.14C404.89,76.94,405,77.27,405.09,77.61Z" transform="translate(-7.36 -0.2)"/><path class="cls-12" id="color-section" d="M322.16,214.65c2,6.15-3.42,27.57-3.42,27.57S301.85,228,299.87,221.81a11.71,11.71,0,0,1,22.29-7.16Z" transform="translate(-7.36 -0.2)"/><path class="cls-12" id="color-section" d="M496.88,154.24c2,6.16-3.43,27.58-3.43,27.58s-16.88-14.25-18.85-20.4a11.71,11.71,0,1,1,22.23-7.34,1,1,0,0,0,.05.16Z" transform="translate(-7.36 -0.2)"/><path class="cls-12" id="color-section" d="M587.27,257.79c2,6.15-3.42,27.57-3.42,27.57S567,271.11,565,265a11.71,11.71,0,0,1,22.13-7.64l.15.47Z" transform="translate(-7.36 -0.2)"/><path class="cls-12" id="color-section" d="M526.28,87.75c-3.29,5.56-22.9,15.74-22.9,15.74s-.55-22.08,2.74-27.64a11.71,11.71,0,0,1,20.16,11.9Z" transform="translate(-7.36 -0.2)"/><path class="cls-12" id="color-section" d="M662,103.62c-3.29,5.56-22.89,15.75-22.89,15.75s-.54-22.1,2.75-27.65a11.7,11.7,0,1,1,20.38,11.49Z" transform="translate(-7.36 -0.2)"/><path class="cls-12" id="color-section" d="M302.17,114c-6.25,1.62-27.34-5-27.34-5s15.2-16,21.46-17.67A11.71,11.71,0,0,1,302.17,114Z" transform="translate(-7.36 -0.2)"/><path class="cls-12" id="color-section" d="M504.73,366.83c-3.29,5.56-22.89,15.74-22.89,15.74s-.55-22.08,2.74-27.64a11.7,11.7,0,1,1,20.19,11.83Z" transform="translate(-7.36 -0.2)"/><circle class="cls-14" cx="154.64" cy="223.4" r="43.97"/><circle class="cls-6" cx="158.55" cy="231.25" r="40.38"/><path class="cls-4" d="M123.76,211.4s30.64,23.33,64.67-16l-17.8-10.71-20.92,2.47Z" transform="translate(-7.36 -0.2)"/><path class="cls-14" d="M123.54,211s30.64,23.33,64.66-16L170.4,184.2l-20.92,2.47Z" transform="translate(-7.36 -0.2)"/><path class="cls-14" d="M159,172.24c2.34,2.52,2.85,4.95,1.25,8.1,5.3-.54,9.08-.59,10.17,4.25.73,3.24.9,2.07.57,4.72s-5.14,4.69-7.26,6.1c-6.21,4.09-39.48,24.43-42,13.19-.13-1-.21-.45,0,0-.42-1.82,1.25-6.16,3-8.68,5.29-7.54,14.37-14.46,19.61-22.62,2.33,1.61,1.42,3.49-.2,5.31,5.65-2.74,10.93-5.35,14.88-10.37" transform="translate(-7.36 -0.2)"/><ellipse class="cls-6" cx="129.73" cy="249.43" rx="3.76" ry="7.04" transform="translate(-104.96 83.79) rotate(-26.48)"/><ellipse class="cls-6" cx="203.38" cy="223.74" rx="3.76" ry="7.04" transform="translate(-49.46 47) rotate(-12.01)"/>

</symbol>
</svg>