<svg id="Layer_1" data-name="Layer 1" xmlns="http://www.w3.org/2000/svg" xmlns:xlink="http://www.w3.org/1999/xlink" viewBox="0 0 960.6 804.99">
<defs>

<style>
.cls-b-1,.cls-b-3,.cls-b-8{fill:#6c63ff;}

.cls-b-1,.cls-b-14{opacity:0.1;}
.cls-b-1,.cls-b-11,.cls-b-14,.cls-b-8{isolation:isolate;}
.cls-b-2{fill:none;stroke:#535461;stroke-miterlimit:10;stroke-width:2px;}
.cls-b-4{fill:url(#linear-gradient);}.cls-b-5{fill:#535461;}.cls-b-6{fill:#f1f1f4;}.cls-b-7{fill:#fff;}.cls-b-8{opacity:0.2;}.cls-b-9{fill:url(#linear-gradient-2);}.cls-b-10{fill:#575988;}.cls-b-11{opacity:0.05;}.cls-b-12{fill:#67647e;}.cls-b-13{fill:#f7c4a7;}.cls-b-15{fill:#e6e6f0;}.cls-b-16{fill:#787c9c;}.cls-b-17{fill:#a37645;}
</style>

<linearGradient id="linear-gradient" x1="516.71" y1="30.01" x2="516.71" y2="758.74" gradientTransform="matrix(1, 0, 0, -1, -119.28, 758.31)" gradientUnits="userSpaceOnUse"><stop offset="0" stop-color="gray" stop-opacity="0.25"/><stop offset="0.54" stop-color="gray" stop-opacity="0.12"/><stop offset="1" stop-color="gray" stop-opacity="0.1"/></linearGradient><linearGradient id="linear-gradient-2" x1="802.37" y1="6.26" x2="802.37" y2="558.34" xlink:href="#linear-gradient"/></defs>

<symbol id="portfolio-svg">
<title>Portfolio Illustration</title>

<path class="cls-b-1" id="color-section" d="M97.58,24.14C61.46,30.6,20,42.13,5.38,77.56-8,110,7.7,146.44,18.24,180a348.32,348.32,0,0,1,16,102.24C34.5,331,25,382.44,44.3,426.78c21.79,50,75.71,79,94.61,130.22,7.93,21.5,8.89,45,12.66,67.74,8.38,50.34,31.26,97.89,64.84,134.72,22.32,24.48,51.4,45,83.6,45.52,24.42.38,47.49-10.7,70.12-20.41a711.84,711.84,0,0,1,81-29.08c11.62-3.39,23.58-6.51,35.59-5.45,23.15,2,42.46,19,64.42,27,59.54,21.58,121.09-25.33,183.9-30.28,53.85-4.24,107.94,22.83,160.85,11.53,7.79-1.67,16.13-4.7,20.22-11.9,6.76-11.92-1.63-28.42,4.38-40.78s22.26-13.65,31.8-23.05c9.7-9.57,10.49-26.11,5.54-39.11S943.36,620.09,934.19,610A1433.65,1433.65,0,0,1,809.07,450.47c-38.66-57.15-74.84-124.39-64-193.66,3.76-23.83,13-46.39,17.18-70.15s2.47-50.66-12.89-68.59c-9.17-10.71-22-16.9-34.54-22.79C598.34,40.28,473.5-16,347.35,4.78c-20.54,3.39-40.87,8.82-61.64,9.56C255.63,15.42,227.33,2,198,6.35,164.61,11.27,130.9,18.17,97.58,24.14Z" transform="translate(-0.24 0)"/><path class="cls-b-2" d="M189.74,170.75s-41.11-22.56-53.3-57.13A71,71,0,0,0,109.09,78a119.36,119.36,0,0,0-19.23-10.4" transform="translate(-0.24 0)"/><path class="cls-b-3" id="color-section" d="M82.06,45.81C86,49.72,90.14,68.1,90.14,68.1S71.79,63.8,67.9,59.89A10,10,0,0,1,82.06,45.81Z" transform="translate(-0.24 0)"/><path class="cls-b-3" id="color-section" d="M115.29,55.84c1.14,5.4-5.32,23.09-5.32,23.09S96.9,65.35,95.76,60a10,10,0,0,1,19.54-4.12Z" transform="translate(-0.24 0)"/><path class="cls-b-3" id="color-section" d="M151.57,93.36c-1.74,5.22-16.26,17.25-16.26,17.25s-4.42-18.32-2.68-23.56a10,10,0,1,1,19,6.31Z" transform="translate(-0.24 0)"/><path class="cls-b-3" id="color-section" d="M172.67,127.93c-.83,5.44-13.11,19.75-13.11,19.75s-7.46-17.31-6.63-22.76a10,10,0,0,1,19.89,2q-.06.48-.15,1Z" transform="translate(-0.24 0)"/><path class="cls-b-3" id="color-section" d="M95.85,94.48c5.52-.06,21.39-10.24,21.39-10.24s-16.1-9.79-21.62-9.73a10,10,0,0,0,.23,20Z" transform="translate(-0.24 0)"/><path class="cls-b-3" id="color-section" d="M121,134.59c5.24-1.71,17.34-16.16,17.34-16.16s-18.3-4.53-23.54-2.82a10,10,0,0,0,6.2,19Z" transform="translate(-0.24 0)"/><path class="cls-b-3" id="color-section" d="M150.77,170.23c5.46-.8,19.83-13,19.83-13s-17.27-7.56-22.71-6.76a10,10,0,0,0,2,19.89,7.91,7.91,0,0,0,.85-.13Z" transform="translate(-0.24 0)"/><path class="cls-b-2" d="M152.76,308.67s-41.1-22.56-53.3-57.13a71,71,0,0,0-27.35-35.67,119.36,119.36,0,0,0-19.23-10.4" transform="translate(-0.24 0)"/><path class="cls-b-3" id="color-section" d="M45.08,183.73C49,187.64,53.16,206,53.16,206s-18.35-4.3-22.24-8.21a10,10,0,0,1,14.16-14.08Z" transform="translate(-0.24 0)"/><path class="cls-b-3" id="color-section" d="M78.31,193.76c1.14,5.4-5.32,23.1-5.32,23.1s-13.06-13.59-14.2-19a10,10,0,0,1,19.53-4.12Z" transform="translate(-0.24 0)"/><path class="cls-b-3" id="color-section" d="M114.59,231.28c-1.73,5.22-16.26,17.25-16.26,17.25S93.92,230.21,95.65,225a10,10,0,0,1,19,6.31Z" transform="translate(-0.24 0)"/><path class="cls-b-3" id="color-section" d="M135.69,265.85c-.83,5.44-13.11,19.75-13.11,19.75s-7.46-17.31-6.63-22.76a10,10,0,0,1,19.89,2c0,.32-.08.64-.15,1Z" transform="translate(-0.24 0)"/><path class="cls-b-3" id="color-section" d="M58.88,232.4c5.51-.06,21.38-10.24,21.38-10.24s-16.1-9.79-21.61-9.73a10,10,0,1,0,.23,20Z" transform="translate(-0.24 0)"/><path class="cls-b-3" id="color-section" d="M84,272.51c5.24-1.7,17.34-16.16,17.34-16.16s-18.3-4.52-23.53-2.81a10,10,0,0,0,5.48,19.22c.24-.07.48-.15.71-.24Z" transform="translate(-0.24 0)"/><path class="cls-b-3" id="color-section" d="M113.79,308.15c5.46-.8,19.83-13,19.83-13s-17.27-7.55-22.71-6.75a10,10,0,1,0,2,19.88,8.13,8.13,0,0,0,.84-.13Z" transform="translate(-0.24 0)"/><path class="cls-b-4" d="M629.29,0H165a42.53,42.53,0,0,0-42.6,42.48h0V685.83A42.53,42.53,0,0,0,165,728.31H629.29a42.54,42.54,0,0,0,42.6-42.47h0V42.47A42.54,42.54,0,0,0,629.29,0Z" transform="translate(-0.24 0)"/><rect class="cls-b-5" x="128.7" y="8.73" width="536.41" height="713.03" rx="19.99" ry="19.99"/><path class="cls-b-6" d="M156.19,76.18h481.9V654.32H156.19Z" transform="translate(-0.24 0)"/><circle class="cls-b-7" cx="394.73" cy="41.43" r="6.55"/><circle class="cls-b-7" cx="394.73" cy="686.87" r="19.63"/><rect class="cls-b-3" id="color-section" x="214.01" y="151.27" width="93.95" height="93.95" rx="11.84" ry="11.84"/><rect class="cls-b-8" id="color-section" x="485.86" y="151.27" width="93.95" height="93.95" rx="11.84" ry="11.84"/><rect class="cls-b-3" id="color-section" x="349.93" y="151.27" width="93.95" height="93.95" rx="11.84" ry="11.84"/><rect class="cls-b-3" id="color-section" x="214.01" y="317.18" width="93.95" height="93.95" rx="11.84" ry="11.84"/><rect class="cls-b-8" id="color-section" x="485.86" y="317.18" width="93.95" height="93.95" rx="11.84" ry="11.84"/><rect class="cls-b-8" id="color-section" x="349.93" y="317.18" width="93.95" height="93.95" rx="11.84" ry="11.84"/><rect class="cls-b-3" id="color-section" x="214.01" y="483.08" width="93.95" height="93.95" rx="11.84" ry="11.84"/><rect class="cls-b-3" id="color-section" x="485.86" y="483.08" width="93.95" height="93.95" rx="11.84" ry="11.84"/><rect class="cls-b-3" id="color-section" x="349.93" y="483.08" width="93.95" height="93.95" rx="11.84" ry="11.84"/><path class="cls-b-9" d="M789.81,277.74a8,8,0,0,0-1.19-3,18,18,0,0,0-2.35-2.27c-4.72-4.43-2.18-12.43-4-18.6-2-6.58-9-11.63-15.07-15a12.61,12.61,0,0,0-3.14-1.27,26.19,26.19,0,0,0-4.15-.33,20,20,0,0,1-6.34-1.43c-2.89-1.18-5.47-3-8.43-4a4.21,4.21,0,0,0-1.8-.25c-3.22-.3-3.33,3.72-6.8,6-1.44,1-2.81,2.38-2.81,4.1,0,2.35,2.4,3.9,4.54,4.93s2.63.83,3.05.82h.18c.29,0,.61.3,1.43,1.21a27.34,27.34,0,0,0-23.13,26.87,26.75,26.75,0,0,0,2.35,11c-.09.64-.19,1.3-.3,2-1.05,6.44-3,14.22-6.34,20.65-2.74.56-4.47,1-4.47,1a1.83,1.83,0,0,1,.05.4l-1,.74-4.19,3c-8.27-13.7-16.71-30.71-17-43.48,0,0-1,.68-2.7,1.76v-9.07l-.54-.1.54-1,3.9-7.38a20,20,0,0,0,2.3-9c.18-11.59-.2-40.18-8.21-44.92-10.11-6-12.12,19.92-17.51,33.21-4,9.9-2,24.25-.78,30.9.09.45.17.86.25,1.24a75.14,75.14,0,0,0-9.57,4.39c2.13.83,3.72,7.5,4.6,12.3l.26,1.45a51,51,0,0,1-6.2,1.52l17.37,37.89c-3.71,4.3-11.45,11.83-17.37,7.93-8.09-5.32-33-2.66-33-2.66s-14.23-37.79-13.55-49.1l-2,1V271a10.83,10.83,0,0,1-1.45.82l.53-.93.77-1.37a20.22,20.22,0,0,0,2.56-8.46c.84-11.62,2.07-41.47-7.12-45.19-11.46-4.65-14.83,28.55-14.83,28.55l2.44,30.06.05.67c-5.43.48-9.9.48-9.9.48,1.37,1.35,1.81,8.8,2,13.46v1.33c-2.78.48-5.16.52-6.71-.18l18.19,49.15s1.35,12,24.93,17.27c13.86,3.12,23.52,6,29.14,7.87-9.61,22.79-43,104.94-33.19,124.93,0,0,5.24-2,10.59-3.76,1.24,17.23,3.39,43.33,6,60.05-2.85,8.8-5,16.19-5.7,20.42-.06.35-.11.68-.15,1-2,15.94-18.19,46.49,6.07,72.38,0,0,16.84,10,18.19,21.92,1.13,10.06,18.93,35.12,24.56,42.86C669.12,712,656.4,732.45,645,737.8c-14.14,6.64-2.7,15.94,10.77,14s58-33.87,58-33.87-.31-20.87-4.53-22.39l-4-8.35a30.44,30.44,0,0,0,6.55-1.8c18.19-7.31,43.12-20.59,43.12-20.59s.49-15.6-6.58-21.32c-3.62-11.16-20.37-21.19-20.37-21.19s-12.14-31.23-41.78-39.88c0,0-4.79-6.75-4.61-14.47,2-3.74,3.27-6.12,3.27-6.12l15.33-36.38a49.57,49.57,0,0,0,10-12.3c.23-.42.45-.83.66-1.25,9.25,1.09,16.49,2.18,16.49,2.18l-.67-31.89c-6.1-65.78,12.77-85,12.77-85s27-32.54,29.64-55.79c2.49-21.45-15.68-22.53-18.49-22.57a23.62,23.62,0,0,1,.35-9.58l.32.23a3.71,3.71,0,0,0,2,.83,1.62,1.62,0,0,0,.44,0h.24a3.91,3.91,0,0,0,1.87-.58c7-3.69,12.53-10.38,20.27-12.31,1.62-.4,3.3-.58,4.89-1.1a13.63,13.63,0,0,0,8-7.5A18.09,18.09,0,0,0,789.81,277.74Zm-98.95,351.8c1.35,4.65,22.91,20.59,22.91,20.59l.83,5.73a205.86,205.86,0,0,1-17.42,14.74l-7.66-15.82S678.06,618.25,668,614.27c-1.87-.74-2.47-3-2.21-6.17,6.57,4.81,24,17.71,25.08,21.47Z" transform="translate(-0.24 0)"/><path class="cls-b-10" d="M650.68,360.35s-45.82,106-34.69,128.93c0,0,18.33-7.2,21-5.89s28.79-136.78,28.79-136.78Z" transform="translate(-0.24 0)"/><path class="cls-b-11" d="M650.68,360.35s-45.82,106-34.69,128.93c0,0,18.33-7.2,21-5.89s28.79-136.78,28.79-136.78Z" transform="translate(-0.24 0)"/><path class="cls-b-10" d="M675.54,698.05s-15.71,29.45-29.45,36-2.62,15.71,10.47,13.74,56.29-33.38,56.29-33.38-.3-20.56-4.41-22.06-32.9,5.72-32.9,5.72Z" transform="translate(-0.24 0)"/><path class="cls-b-10" d="M716.78,650.28s-22.25,22.25-32.07,24.21,8.5,15.06,26.17,7.86,41.89-20.29,41.89-20.29.65-21-10.47-22.91-25.52,11.13-25.52,11.13Z" transform="translate(-0.24 0)"/><path class="cls-b-12" d="M629.74,468.84s4.41,79.63,10.08,90.7,27.09,45,27.09,45,24.56,18.29,25.82,22.85,21.41,20.23,21.41,20.23l1.26,9.14s33.38-2,31.49-13.7-19.53-22.85-19.53-22.85S716,589.56,688.31,581.08c0,0-8.81-13.06-1.26-23.49,0,0,18.9-49,29.61-54.82S712.24,463,712.24,463Z" transform="translate(-0.24 0)"/><path class="cls-b-11" d="M631.15,468.85s4.34,79.85,9.94,90.95S667.78,605,667.78,605s24.21,18.33,25.46,22.91,21.1,20.29,21.1,20.29l1.24,9.16s32.9-2,31-13.74-19.25-22.9-19.25-22.9S716.2,589.9,688.88,581.4c0,0-8.69-13.09-1.24-23.56,0,0,18.63-49.08,29.18-55S712.47,463,712.47,463Z" transform="translate(-0.24 0)"/><path class="cls-b-12" d="M689.29,652.24l21,43.84c-3.26,11.13-34.69,7.2-34.69,7.2s-24.21-32.72-25.52-44.51-17.67-21.59-17.67-21.59c-23.56-25.53-7.86-55.63-5.89-71.34a8.52,8.52,0,0,1,.14-1C628.38,554.3,639,524,647.21,501.3c5.56-15.29,10-27.12,10-27.12s43.85,2,53,17.67c4.2,7.19,2.32,14.68-1,20.68a48.63,48.63,0,0,1-9.67,12.12l-14.9,35.92s-26.17,47.81-16.31,51.75,20.9,39.92,20.9,39.92Z" transform="translate(-0.24 0)"/><path class="cls-b-13" d="M611.13,264.18a20,20,0,0,1-2.48,8.33l-.75,1.35-3.69,6.65H592.43l-.25-3.1-2.37-29.62s3.27-32.72,14.4-28.15C613.14,223.32,612,252.73,611.13,264.18Z" transform="translate(-0.24 0)"/><path class="cls-b-14" d="M607.9,273.85l-3.69,6.65H592.43l-.25-3.1C597.67,276.92,604.19,275.92,607.9,273.85Z" transform="translate(-0.24 0)"/><path class="cls-b-15" d="M608.79,274V289l-24.21,6.55s0-1.57-.07-3.75c-.14-4.59-.57-11.93-1.9-13.26C582.62,278.57,602.25,278.57,608.79,274Z" transform="translate(-0.24 0)"/><path class="cls-b-14" d="M608.79,282.79V289l-24.21,6.55s0-1.57-.07-3.75C592.57,290.4,604.21,285,608.79,282.79Z" transform="translate(-0.24 0)"/><path class="cls-b-13" d="M750,307.62c-4.78,13.8,1.43,20,1.43,20s-58.91,3.93-44.5-6.54c8.4-6.12,12.13-19.61,13.77-29.77A102.42,102.42,0,0,0,722,278.57s47.07-.69,37.31,12.43a62.88,62.88,0,0,0-9.3,16.62Z" transform="translate(-0.24 0)"/><path class="cls-b-14" d="M759.34,291c-4.8,6.46-6.37,7.41-8,12.07a26.58,26.58,0,0,1-4.46.37c-11.22,0-22.14-2.31-26.15-12.1A100.7,100.7,0,0,0,722,278.57S769.08,277.85,759.34,291Z" transform="translate(-0.24 0)"/><circle class="cls-b-13" cx="745.34" cy="278.54" r="26.83"/><path class="cls-b-10" d="M610.75,283.12s-25.52,13.09-32.72,9.81l17.67,48.43s1.31,11.79,24.22,17,34,9.81,34,9.81l42.53-50.39-21.6,5.89s-11.12,15.71-19,10.47-32-2.6-32-2.6-13.74-37.29-13.09-48.42Z" transform="translate(-0.24 0)"/><path class="cls-b-11" d="M610.75,283.12s-25.52,13.09-32.72,9.81l17.67,48.43s1.31,11.79,24.22,17,34,9.81,34,9.81l42.53-50.39-21.6,5.89s-11.12,15.71-19,10.47-32-2.6-32-2.6-13.74-37.29-13.09-48.42Z" transform="translate(-0.24 0)"/><path class="cls-b-14" d="M712.29,314.06s32.74-10,36.18,8.61c0,0-15.13-7.91-36.81,6.09-1.62,1-3.21,2.16-4.73,3.33-19.07,14.33-32.4,36.52-37.75,61.72l-13.84,65-1.24,17.47s-19.86,4.2-23.53-2.1-1.24-27.27,4.33-34.26,14.22-37.09,14.22-37.09l5.42-17.45a118.84,118.84,0,0,1,21.21-39.9l1.31-1.7a82.09,82.09,0,0,1,30.19-24.22c3.17-1.47,5.47-3.33,5-5.53Z" transform="translate(-0.24 0)"/><path class="cls-b-15" d="M712.29,312.75s32.74-10,36.18,8.6c0,0-15.13-7.9-36.81,6.08-1.62,1-3.21,2.16-4.73,3.32-19.07,14.32-32.4,36.48-37.75,61.65l-13.84,64.94L654.1,474.8s-19.86,4.2-23.53-2.1-1.24-27.24,4.33-34.22,14.25-37,14.25-37L654.57,384a118.61,118.61,0,0,1,21.21-39.85l1.3-1.69a82.14,82.14,0,0,1,30.2-24.2c3.14-1.49,5.44-3.34,5-5.54Z" transform="translate(-0.24 0)"/><path class="cls-b-14" d="M632.68,439.22l.26,10.8,8.17-5.64s14.55-56.94,24.8-72.46c1.21-1.83,1.78-4.56,2.92-5l41.72-43.29V313.55s-21.3,16.94-23,20.12c-.75,1.33-11.94,7.91-18.72,18.2a233,233,0,0,0-16,29.8l-14,33.88Z" transform="translate(-0.24 0)"/><path class="cls-b-16" d="M709.8,312.33v9.74l-42.36,43.66c-1.12.46-1.71,3.2-2.91,5-10.27,15.56-24.83,72.57-24.83,72.57L631.52,449l-.26-10.82,6.1-23.72,14-33.93a232.26,232.26,0,0,1,16.05-29.84c6.75-10.31,17.95-16.89,18.74-18.23,1.51-2.71,18-15.68,22.51-19.2Z" transform="translate(-0.24 0)"/><path class="cls-b-14" d="M736.64,250.06c-2.07-1-4.41-2.55-4.41-4.86,0-1.69,1.33-3.09,2.73-4,3.74-2.55,3.45-7.15,7.75-5.71,2.87,1,5.38,2.78,8.18,3.94a19.2,19.2,0,0,0,6.16,1.42,25.36,25.36,0,0,1,4,.32,11.82,11.82,0,0,1,3,1.25,26.31,26.31,0,0,1,12.36,15.42c1.77,6.08,1.59,13.28,6.17,17.64a17.16,17.16,0,0,1,2.28,2.23,7.74,7.74,0,0,1,1.15,3,18.11,18.11,0,0,1-.9,10.86,13.34,13.34,0,0,1-7.8,7.39c-1.55.51-3.18.68-4.76,1.08-7.52,1.9-12.84,8.49-19.7,12.13a3.78,3.78,0,0,1-1.82.57,3.6,3.6,0,0,1-1.92-.82c-2.65-1.89-4.83-4.83-4.76-8.08a16.55,16.55,0,0,1,1.75-5.83,55.72,55.72,0,0,0,3.28-10.54,5.12,5.12,0,0,0,.07-2.55c-.5-1.59-2.26-2.33-3.48-3.46-2.32-2.15-2.6-5.81-1.74-8.86s2.66-5.73,4-8.6a6.79,6.79,0,0,0,.79-2.79c0-3.83-5.18-5.91-7.35-8.43-2.84-3.46-1-.72-5-2.72Z" transform="translate(-0.24 0)"/><path class="cls-b-17" d="M737.3,250.06c-2.07-1-4.41-2.55-4.41-4.86,0-1.69,1.33-3.09,2.73-4,3.74-2.55,3.45-7.15,7.74-5.71,2.88,1,5.39,2.78,8.19,3.94a19.2,19.2,0,0,0,6.16,1.42c1.35.08,5.71-2,7-1.68a12,12,0,0,1,3,1.25,26.25,26.25,0,0,1,12.35,15.42c1.78,6.08.54,13.68,5.12,18,.77.74-.28,3,.34,3.83a7.74,7.74,0,0,1,1.15,3,18.11,18.11,0,0,1-.9,10.86,13.33,13.33,0,0,1-7.81,7.39c-1.54.51-3.17.68-4.75,1.08-7.52,1.9-12.84,8.49-19.7,12.13a3.78,3.78,0,0,1-1.82.57,3.6,3.6,0,0,1-1.92-.82c-2.65-1.89-4.83-4.83-4.76-8.08a16.55,16.55,0,0,1,1.75-5.83A55.72,55.72,0,0,0,750,287.42a5.12,5.12,0,0,0,.07-2.55c-.5-1.59-2.26-2.33-3.48-3.46-2.32-2.15-2.6-5.81-1.74-8.86s2.66-5.73,4-8.6a6.79,6.79,0,0,0,.79-2.79c0-3.83-5.18-5.91-7.35-8.43-2.84-3.41-1-.67-5-2.67Z" transform="translate(-0.24 0)"/><path class="cls-b-14" d="M709.28,512.58c-12-1.42-27.1-2.81-33.74-1.7-10.68,1.78-25.67-7.75-28.37-9.53,5.56-15.29,10-27.12,10-27.12s43.85,2,53,17.67c4.25,7.19,2.37,14.68-.9,20.68Z" transform="translate(-0.24 0)"/><path class="cls-b-10" d="M766.52,343.33c-2.62,22.91-28.79,55-28.79,55s-18.33,19-12.43,83.77l.64,31.42s-38.61-5.89-50.39-3.93-28.79-9.82-28.79-9.82S640.2,386.51,668.39,363a167,167,0,0,1,11.27-15.44c7.56-9.14,17.83-19.45,27.45-22a17.81,17.81,0,0,1,3.78-.58S740.35,308.6,748.2,321c0,0,20.93-.61,18.32,22.29Z" transform="translate(-0.24 0)"/><path class="cls-b-14" d="M647.08,465.39s10.47-4.57,28.14-3.26,49.14-14.41,49.14-14.41" transform="translate(-0.24 0)"/><path class="cls-b-11" d="M666.06,611.38s.65,2-7.86,4.58-11.12,5.24-11.12,5.24" transform="translate(-0.24 0)"/><rect class="cls-b-3" id="color-section" x="593.14" y="164.91" width="93.95" height="93.95" rx="11.84" ry="11.84"/><path class="cls-b-13" d="M692,249.51a19.85,19.85,0,0,1-2.23,8.87L686,265.66l-2.62,5L667,272s-.34-1.34-.76-3.57c-1.22-6.55-3.15-20.69.76-30.46,5.24-13.09,7.19-38.61,17-32.72C691.84,209.91,692.21,238.08,692,249.51Z" transform="translate(-0.24 0)"/><path class="cls-b-14" d="M686,265.45v.2l-2.62,5L667,272s-.34-1.34-.76-3.57c5.86-2.23,13.53-4.31,19.74-2.93Z" transform="translate(-0.24 0)"/><path class="cls-b-15" d="M686,266.76v11.81L662.46,291s-.27-2.13-.77-4.88c-.86-4.73-2.4-11.31-4.47-12.13C657.22,274,674.23,264.14,686,266.76Z" transform="translate(-0.24 0)"/><path class="cls-b-11" d="M749.74,373.74a27.73,27.73,0,0,1-21.17,6.77C687.14,376.3,686,361.66,686,361.66l-6.36-14.13c7.56-9.14,17.83-19.45,27.45-22,6.86,11.07,13,19,13,19S750.86,321,760,343.28c5.3,13-2.69,23.75-10.29,30.46Z" transform="translate(-0.24 0)"/><path class="cls-b-14" d="M686,274v4.6L662.46,291s-.27-2.13-.77-4.88C671.85,282.83,681.89,276.66,686,274Z" transform="translate(-0.24 0)"/><path class="cls-b-10" d="M688.64,274S671,286.4,655.91,289l30.77,68.07s1.13,14.64,42.55,18.85a27.76,27.76,0,0,0,21.16-6.78c7.6-6.71,15.57-17.45,10.23-30.4-9.16-22.25-39.92,1.31-39.92,1.31S689.29,298.83,688.64,274Z" transform="translate(-0.24 0)"/><path class="cls-b-3" id="color-section" d="M844.55,741.06H805.88a6.32,6.32,0,0,1-6.52-6.11V698.67a6.33,6.33,0,0,1,6.52-6.11h38.67a6.33,6.33,0,0,1,6.52,6.11V735A6.32,6.32,0,0,1,844.55,741.06Z" transform="translate(-0.24 0)"/><path class="cls-b-3" id="color-section" d="M869,692.5H831.54a6.34,6.34,0,0,1-6.32-6.37V648.35a6.34,6.34,0,0,1,6.32-6.37H869a6.34,6.34,0,0,1,6.32,6.37v37.78A6.34,6.34,0,0,1,869,692.5Z" transform="translate(-0.24 0)"/><path class="cls-b-3" id="color-section" d="M899.43,741.23H861.94a6.23,6.23,0,0,1-6.31-6.15V698.55a6.23,6.23,0,0,1,6.31-6.16h37.49a6.24,6.24,0,0,1,6.32,6.16v36.53A6.23,6.23,0,0,1,899.43,741.23Z" transform="translate(-0.24 0)"/>

</symbol>
</svg>