<svg id="Layer_1" data-name="Layer 1" xmlns="http://www.w3.org/2000/svg" xmlns:xlink="http://www.w3.org/1999/xlink" viewBox="0 0 1028.04 711.88"><defs>

<style>
.cls-c-1,.cls-c-3{fill:#6c63ff;}

.cls-c-1,.cls-c-14,.cls-c-9{opacity:0.1;}
.cls-c-1,.cls-c-12,.cls-c-15,.cls-c-16,.cls-c-19,.cls-c-2,.cls-c-23,.cls-c-24,.cls-c-27,.cls-c-29,.cls-c-30,.cls-c-9{isolation:isolate;}
.cls-c-15,.cls-c-16,.cls-c-19,.cls-c-2,.cls-c-23,.cls-c-24,.cls-c-27,.cls-c-29,.cls-c-30{opacity:0.5;}
.cls-c-2{fill:url(#linear-gradient);}
.cls-c-4,.cls-c-5{fill:none;}
.cls-c-4{stroke:#535461;stroke-miterlimit:10;stroke-width:2px;}
.cls-c-6{fill:url(#linear-gradient-2);}
.cls-c-7{fill:#65617d;}.cls-c-8{fill:#a27772;}.cls-c-10{fill:#f7c4a7;}.cls-c-11{fill:#7c7cdd;}.cls-c-12{opacity:0.05;}.cls-c-13{fill:#a37645;}.cls-c-15{fill:url(#linear-gradient-3);}.cls-c-16{fill:url(#linear-gradient-4);}.cls-c-17{fill:#f5f5f5;}.cls-c-18{fill:#e0e0e0;}.cls-c-19{fill:url(#linear-gradient-5);}.cls-c-20{fill:#fda57d;}.cls-c-21{fill:#333;}.cls-c-22{fill:#fdd835;}.cls-c-23{fill:url(#linear-gradient-6);}.cls-c-24{fill:url(#linear-gradient-7);}.cls-c-25{fill:#3ad29f;}.cls-c-26{fill:#be7c5e;}.cls-c-27{fill:url(#linear-gradient-8);}.cls-c-28{fill:#fff;}.cls-c-29{fill:url(#linear-gradient-9);}.cls-c-30{fill:url(#linear-gradient-10);}.cls-c-31{fill:#69f0ae;}.cls-c-32{fill:#4d8af0;}
</style>

<linearGradient id="linear-gradient" x1="522.1" y1="-405.07" x2="522.1" y2="2.78" gradientTransform="matrix(0.66, 0.09, -0.07, -0.19, 173.2, 463.85)" gradientUnits="userSpaceOnUse"><stop offset="0" stop-color="gray" stop-opacity="0.25"/><stop offset="0.54" stop-color="gray" stop-opacity="0.12"/><stop offset="1" stop-color="gray" stop-opacity="0.1"/></linearGradient><linearGradient id="linear-gradient-2" x1="947.9" y1="34.55" x2="947.9" y2="694.39" gradientTransform="matrix(1, 0, 0, -1, -59.59, 803.69)" xlink:href="#linear-gradient"/><linearGradient id="linear-gradient-3" x1="629.3" y1="-146.48" x2="629.3" y2="227.62" gradientTransform="matrix(0.99, 0.15, 0.15, -0.99, -135.78, 312.9)" xlink:href="#linear-gradient"/><linearGradient id="linear-gradient-4" x1="623.8" y1="253.14" x2="623.8" y2="256.92" gradientTransform="matrix(0.99, 0.15, 0.15, -0.99, -135.78, 312.9)" xlink:href="#linear-gradient"/><linearGradient id="linear-gradient-5" x1="567.61" y1="121.16" x2="567.61" y2="203.72" gradientTransform="matrix(0.99, 0.15, 0.15, -0.99, -135.88, 312.91)" xlink:href="#linear-gradient"/><linearGradient id="linear-gradient-6" x1="459.98" y1="472.68" x2="459.98" y2="876.2" gradientTransform="matrix(0.99, -0.16, -0.16, -0.99, -120.79, 1150.68)" xlink:href="#linear-gradient"/><linearGradient id="linear-gradient-7" x1="407.14" y1="738.6" x2="407.14" y2="823.43" gradientTransform="matrix(0.99, -0.16, -0.16, -0.99, -118.99, 1146.92)" xlink:href="#linear-gradient"/><linearGradient id="linear-gradient-8" x1="671.52" y1="25.48" x2="671.52" y2="390.51" gradientTransform="matrix(0, 1, 1, 0, 584.39, -217.46)" xlink:href="#linear-gradient"/><linearGradient id="linear-gradient-9" x1="-730.7" y1="370.29" x2="-730.7" y2="457.22" gradientTransform="translate(-398.13 759.06) rotate(180)" xlink:href="#linear-gradient"/><linearGradient id="linear-gradient-10" x1="784.96" y1="-29.63" x2="784.96" y2="82.93" gradientTransform="matrix(0, 1, 1, 0, 584.39, -217.46)" xlink:href="#linear-gradient"/></defs>

<symbol id="resume-svg">
<title>Resume Illustration</title>

<path class="cls-c-1" id="color-section" d="M222.42,92.58c-50.23,2.42-101,15.64-140.18,44.06-34.39,25-59.19,64.18-53.14,103.59C36.24,286.75,82.31,320.59,99.4,365c11,28.53,9.29,60,2.09,89.53-4.63,19-11.75,38.05-25.44,53.12-24.64,27.11-35.29,24.19-47.41,57.49-13.17,36.22,0,79.08,31.14,104.83C84.67,690.5,97,719.61,128.33,730.87c22.93,8.25,47.82,11.21,72.49,12.39a531.68,531.68,0,0,0,199.85-28.77c30.48-10.65,60-24.16,91.87-30.58,68-13.7,137.92,6.05,206.82,15.29a685.74,685.74,0,0,0,178.19.48c37.2-4.78,75.63-13.41,103.64-36,28.39-22.89,42.59-58.33,41-92.66s-17.65-67.39-41.32-94.35c-30.58-34.82-72.76-59.59-109.45-89.26A438.28,438.28,0,0,1,777.28,282.6C762.87,260,750.6,236,731.93,216c-29.13-31-71.37-49.51-113.58-63.77C521,119.4,420,112.71,318.47,98.19c-31.72-4.56-63.91-7.13-96.05-5.61Z" transform="translate(-18.08 -92.14)"/><path class="cls-c-2" d="M468.75,510l134.63,12.27-8.65,74.21-138.87-21.5,12.89-65" transform="translate(-18.08 -92.14)"/><path class="cls-c-3" id="color-section" d="M710.87,378.5c-2.76,5.15-20.08,15.1-20.08,15.1s-1.35-19.93,1.43-25.08a10.58,10.58,0,0,1,18.65,10Z" transform="translate(-18.08 -92.14)"/><path class="cls-c-3" id="color-section" d="M701,424.29c-5.75,1.07-24.35-6.18-24.35-6.18s14.69-13.53,20.44-14.62A10.58,10.58,0,0,1,701,424.28Z" transform="translate(-18.08 -92.14)"/><path class="cls-c-3" id="color-section" d="M673.29,453.25c-5.85-.14-22.53-11.09-22.53-11.09s17.2-10.17,23-10a10.57,10.57,0,0,1-.5,21.1Z" transform="translate(-18.08 -92.14)"/><path class="cls-c-3" id="color-section" d="M637.51,480.57c-5.78.85-24.08-7.16-24.08-7.16s15.23-12.92,21-13.76a10.58,10.58,0,0,1,3.67,20.84l-.6.08Z" transform="translate(-18.08 -92.14)"/><path class="cls-c-3" id="color-section" d="M655.3,403.11c1.77,5.56,17,18.49,17,18.49s4.94-19.35,3.16-24.92a10.58,10.58,0,0,0-20.15,6.43Z" transform="translate(-18.08 -92.14)"/><path class="cls-c-3" id="color-section" d="M618.11,434.48c2.84,5.13,20.23,14.9,20.23,14.9s1.14-19.94-1.67-25.07a10.58,10.58,0,0,0-18.56,10.17Z" transform="translate(-18.08 -92.14)"/><path class="cls-c-3" id="color-section" d="M688.19,288c-5.49,2-25-2.09-25-2.09s12.28-15.74,17.77-17.74a10.58,10.58,0,0,1,7.63,19.74l-.37.13Z" transform="translate(-18.08 -92.14)"/><path class="cls-c-3" id="color-section" d="M661,323.77c-5.81.53-23.65-8.45-23.65-8.45s15.91-12.08,21.72-12.62A10.58,10.58,0,0,1,661,323.77Z" transform="translate(-18.08 -92.14)"/><path class="cls-c-3" id="color-section" d="M635.26,280.59c2.38,5.36,18.86,16.59,18.86,16.59s2.85-19.77.5-25.11a10.58,10.58,0,0,0-19.36,8.52Z" transform="translate(-18.08 -92.14)"/><path class="cls-c-3" id="color-section" d="M691.36,225.21c-1,5.73-14.53,20.48-14.53,20.48s-7.34-18.58-6.27-24.32A10.58,10.58,0,1,1,691.39,225Z" transform="translate(-18.08 -92.14)"/><path class="cls-c-3" id="color-section" d="M700.09,254.86c-5.15,2.75-25.08,1.36-25.08,1.36s10-17.29,15.15-20a10.58,10.58,0,0,1,10.44,18.41Z" transform="translate(-18.08 -92.14)"/><path class="cls-c-3" id="color-section" d="M652.11,246.69c2.5,5.29,19.31,16.07,19.31,16.07s2.31-19.85-.19-25.12a10.58,10.58,0,1,0-19.3,8.68Z" transform="translate(-18.08 -92.14)"/><path class="cls-c-3" id="color-section" d="M614.89,304.66c.68,5.8,13.12,21.42,13.12,21.42s8.57-18.05,7.9-23.84a10.58,10.58,0,0,0-21.09,1.83c0,.2,0,.39.07.59Z" transform="translate(-18.08 -92.14)"/><path class="cls-c-3" id="color-section" d="M85.38,449.93c-2,4.64-14.9,14-14.9,14s-1-17.51,1-22.13,6.65-6.8,10.53-4.68,5.47,7.63,3.53,12.33a4.84,4.84,0,0,1-.21.47Z" transform="translate(-18.08 -92.14)"/><path class="cls-c-3" id="color-section" d="M98.54,482.45c.15,5.14-7.33,19.77-7.33,19.77s-8.29-15.18-8.43-20.3,3.27-9.16,7.63-9,8,4.45,8.14,9.58h0Z" transform="translate(-18.08 -92.14)"/><path class="cls-c-3" id="color-section" d="M42.73,453.19c4.32.12,17.05-8.83,17.05-8.83s-12.35-9.7-16.68-9.83-7.85,4.15-7.87,9.31,3.29,9.16,7.5,9.37Z" transform="translate(-18.08 -92.14)"/><path class="cls-c-3" id="color-section" d="M58.8,484.18c4.15-1.43,14-14.54,14-14.54s-14.22-4.84-18.38-3.41S48,473,49.34,477.94c1.25,4.76,5.42,7.51,9.46,6.24Z" transform="translate(-18.08 -92.14)"/><path class="cls-c-3" id="color-section" d="M79.93,521c4.31-.56,15.91-11.47,15.91-11.47s-13.31-7.64-17.63-7.05c-4.31.28-7.62,4.68-7.39,9.83s3.93,9.09,8.25,8.81A6.35,6.35,0,0,0,79.93,521Z" transform="translate(-18.08 -92.14)"/><path class="cls-c-3" id="color-section" d="M60.85,414.88C61.59,420,56,436.3,56,436.3s-9.87-13.14-10.61-18.22,1.91-10,6.15-11,8.37,2.27,9.22,7.33C60.81,414.57,60.83,414.73,60.85,414.88Z" transform="translate(-18.08 -92.14)"/><path class="cls-c-3" id="color-section" d="M43.17,453.4c4.32-.08,16.62-9.61,16.62-9.61s-12.79-9.12-17.12-9-7.65,4.51-7.43,9.66,3.72,9,7.93,9Z" transform="translate(-18.08 -92.14)"/><path class="cls-c-3" id="color-section" d="M79.38,521c4.3-.56,15.91-11.47,15.91-11.47S82,501.85,77.66,502.44c-4.32.28-7.62,4.68-7.39,9.83s3.93,9.09,8.25,8.81A6.35,6.35,0,0,0,79.38,521Z" transform="translate(-18.08 -92.14)"/><path class="cls-c-4" d="M111.4,523s-30.31-21.78-39.31-55.13c-3.7-14-10.77-26.1-20.17-34.41a83.86,83.86,0,0,0-14.18-10" transform="translate(-18.08 -92.14)"/><line class="cls-c-5" x1="24.27" y1="345.97" x2="23.96" y2="345.97"/><path class="cls-c-3" id="color-section" d="M30.57,404.71C34,408,39.21,424.8,39.21,424.8S24.43,422.23,21,418.9a10.64,10.64,0,0,1-1.14-13.15,7,7,0,0,1,10.73-1Z" transform="translate(-18.08 -92.14)"/><path class="cls-c-4" d="M691.67,392s-15.89,37.38-48.82,54.52C629,453.68,617.94,464,611.37,475.91a92.41,92.41,0,0,0-7.27,17.45" transform="translate(-18.08 -92.14)"/><path class="cls-c-4" d="M677.65,243.56s-8.69,45.81-33.11,64.09c-10.3,7.57-18,19.48-22,34A140.74,140.74,0,0,0,618.64,363" transform="translate(-18.08 -92.14)"/><path class="cls-c-1" id="color-section" d="M715.87,771.16c28.13,13.51,62.45,5.29,94.37,6.25,4.36.13,9,.53,12.49,2.86s5.23,6.11,7.63,9.36c8.95,12,27.28,15.92,43.29,13.88s30.71-8.82,45.83-14c26.12-8.91,56-13,81.76-3.24,2.36.88,4.9,1.91,7.39,1.55,5.65-.78,7.34-7.25,11.28-10.94,7.14-6.68,22.63-4.86,25.77-13.65,1.83-5.15-2.39-10.43-7-13.94-17.63-13.46-42.81-15.68-65.86-13.6s-45.71,7.8-68.88,7.82c-28.87,0-56.77-8.78-85.35-12.39-19.8-2.48-41.42-2.16-60,5.16-20.12,7.92-31.74,19.17-42.74,34.85Z" transform="translate(-18.08 -92.14)"/><path class="cls-c-6" d="M986,236.08C962.21,222.42,953.24,219,953.19,219l-.48-.35a19.79,19.79,0,0,1-6-7.56v-1.47c.38-7.23,5.53-13.81,10.41-19.56l12.48-14.69a14.18,14.18,0,0,0,3.22-5.09,11.39,11.39,0,0,0,.34-3.13v-1.28c-.06-3.64-.17-7.3-.3-11-.12-3.19-.94-7.2-4.13-7.86-1.66-.34-3.84.26-4.72-1.17a2.69,2.69,0,0,1-.21-1.89.38.38,0,0,0,0,.15v-.18a42.29,42.29,0,0,0,1.19-7.5,10.63,10.63,0,0,0-.52-3.8c-1.85-5.29-8.21-7.46-13.83-8.46s-11.92-1.86-15.45-6.26c-1.09-1.35-1.83-3-3.06-4.22a12.28,12.28,0,0,0-5.75-2.84,32.5,32.5,0,0,0-20.9,1.82c-2.72,1.21-5.45,2.85-8.42,2.67s-5.75-2.33-8.81-2.85c-4.93-.84-9.66,2.79-12.08,7.07a17.15,17.15,0,0,0-2.24,8.36v.49a12.16,12.16,0,0,0,3.2,8.52c2.13,2.21,5.31,3.72,6.19,6.63.36,1.18.27,2.46.59,3.66a1.41,1.41,0,0,0,.14.44l-.16.21a37,37,0,0,0-7.83,22.86,37.87,37.87,0,0,0,26.6,35.91v1.11c0,4.54-1.29,9.17-5.16,12.57l-33.63,13.53s-20.28-2.41-27.59,27.23a50,50,0,0,0-1.26,15c.27,4.47-.35,12.34-5.54,22.52-8.33,16.29-6.43,53.68,10.58,57.38,16.05,3.5,22.34,2,23,1.87v.65c-.26,7-2.81,67.53-12.07,74.85-2.56,2-2.08,3.4,0,4.32,0,0,0,.39-.06,1.09-.28,4.43-1.71,21.28-7.91,30.87-7.18,11.1-6.43,75.16-6.43,75.16l-4.83,37.79s3,23.32,0,27.4c-2.69,3.62-6.29,89.92-7,108.61h-.32a9.09,9.09,0,0,0-7.26,4.43c-4,6.45-17.89,18.37-17.89,18.37-3,4.29-14.17,8.38-20.08,10.32a12.83,12.83,0,0,0-2.28,1,12,12,0,0,0-5.06,5.34,5.73,5.73,0,0,0-.55,4.45c1.52,3.7,32.89,6.29,40.82,2.59,6.25-2.92,31-6.74,41.24-8.24a8.49,8.49,0,0,0,7.34-7.34,4.84,4.84,0,0,0-1-3.67c-2-2.44-3-9.09-3.43-13.42a8.82,8.82,0,0,0,2.31-1.37,98.52,98.52,0,0,1,5.67-39.61c7.56-20,9.83-57,8-81.07,0,0,23.06-99.22,41.2-108.48.28.35,9.08,11.66,10.2,46.64,1.14,35.54,14,58.86,14,58.86s-5.67,60.35,0,82.93L930.22,726c-.54-.47-.89-.83-.89-.83s.22,1,.53,2.58l-.16.75.32.08c.84,4.46,2.09,12.22,1.58,16.78-.3,2.58-1,6.14-1.52,9.63-.78,5.48-1,10.8,1.89,12,4.72,1.9,32.51,4.49,37.23-1.61a8.77,8.77,0,0,0,1.38-9.15,9.13,9.13,0,0,0-1.38-2.33s-7.37-12.06-5.29-20.56a6.22,6.22,0,0,0-.88-4.89c.32-4.17,2-23.49,6.36-39.89,4.73-17.82,14.71-56.87,7.37-82.56-.28-1-.6-2-.94-3a110.7,110.7,0,0,1-4.16-43.31,88.07,88.07,0,0,1,0-37.76c4.54-20.74,7.7-41.1,7.7-41.1s2.51-27.38.32-44.18l-.15-1.08,1.2-.27s-6.42-28.5-8.69-46.64c-.54-4.28-1.24-9.71-2-15.5a38.37,38.37,0,0,0,6.17-1.53c20.34-7.06,26.73-70.73,26.73-70.73V280.69S1009.78,249.78,986,236.08ZM833.89,727.71c-.63-.32-1-.53-1-.53Z" transform="translate(-18.08 -92.14)"/><path class="cls-c-7" d="M973.64,603.51c8.85,25.46-1.48,66.77-6.28,85.22s-6.27,40.59-6.27,40.59c-18.81,2.95-32.46-.75-32.46-.75l7.74-38c-5.53-22.5,0-82.64,0-82.64s-12.54-23.24-13.65-58.66c-1.09-34.87-9.68-46.13-10-46.48-17.7,9.22-40.21,108.11-40.21,108.11,1.85,24-.37,60.86-7.74,80.78a100,100,0,0,0-5.54,39.48c-2.58,2.18-6.16,2.55-10,1.93-10.5-1.75-23.1-10.82-23.1-10.82s4-107.72,7-111.78,0-27.31,0-27.31l4.79-37.63s-.73-63.83,6.27-74.93c6.06-9.56,7.45-26.36,7.72-30.76a8,8,0,0,1,.06-1.09L862.6,426s103.31-7.74,111,0c1.91,1.91,3.08,6.23,3.78,11.67,2.12,16.74-.31,44-.31,44s-3.1,20.29-7.53,41a89.72,89.72,0,0,0,0,37.63,112.42,112.42,0,0,0,4,43.2Z" transform="translate(-18.08 -92.14)"/><path class="cls-c-8" d="M967.18,765.29c-4.61,6.08-31.73,3.5-36.34,1.61-2.82-1.17-2.6-6.47-1.84-11.93.48-3.48,1.19-7,1.48-9.6.74-6.65-2.22-20.12-2.22-20.12s6.09,6.46,7.56,0c.65-2.81,2.92-4.26,5.27-5a13.82,13.82,0,0,1,9.58.6c4.78,2.08,12.79,6.51,11.35,12.51-2,8.47,5.16,20.49,5.16,20.49a8.94,8.94,0,0,1,1.34,2.32A8.85,8.85,0,0,1,967.18,765.29Z" transform="translate(-18.08 -92.14)"/><path class="cls-c-9" d="M967.18,765.29c-4.61,6.08-31.73,3.5-36.34,1.61-2.82-1.17-2.6-6.47-1.84-11.93,2.91,1.36,7.86,2.5,16.11,1.73a46.94,46.94,0,0,1,5.81-.18,134.25,134.25,0,0,0,17.6-.35,8.84,8.84,0,0,1-1.34,9.12Z" transform="translate(-18.08 -92.14)"/><path class="cls-c-9" d="M872.55,610.9c1.85,24-.37,60.86-7.74,80.78a100,100,0,0,0-5.54,39.48c-2.58,2.18-6.16,2.55-10,1.93,2.23-15.59,11.71-82.61,17.83-135.57,6.88-60.32,39.25-101.82,39.25-101.82l6.45,7.1C895,512,872.55,610.9,872.55,610.9Z" transform="translate(-18.08 -92.14)"/><path class="cls-c-10" d="M956.11,223.15l-4.5,22.13-22.06,37.08-27.21-11.62s-37-38.74-13.74-44.27a20.52,20.52,0,0,0,7.72-3.44c4.56-3.44,6-8.44,6-13.34,0-8.08-3.77-15.87-3.77-15.87l47.58-15a76.14,76.14,0,0,0-3.41,19.28c-.36,13,4.45,19.35,8.4,22.39a14.35,14.35,0,0,0,5,2.65Z" transform="translate(-18.08 -92.14)"/><path class="cls-c-9" d="M946.15,178.88a76.14,76.14,0,0,0-3.41,19.28A35,35,0,0,1,940,201.1a37.62,37.62,0,0,1-37.63,8.59c0-8.08-3.77-15.87-3.77-15.87Z" transform="translate(-18.08 -92.14)"/><path class="cls-c-10" d="M951.61,172.8A37.63,37.63,0,1,1,914,135.16h0a37.47,37.47,0,0,1,37.59,37.35Z" transform="translate(-18.08 -92.14)"/><path class="cls-c-9" d="M956.11,223.15l-4.5,22.13-22.06,37.08-27.21-11.62s-37-38.74-13.74-44.27a20.52,20.52,0,0,0,7.72-3.44c-4.2,11.54,13.13,35.54,13.13,35.54,2,3,6.64,1.1,6.64,1.1,11.15-1.68,31.7-33.78,35-39.12a14.26,14.26,0,0,0,5,2.6Z" transform="translate(-18.08 -92.14)"/><path class="cls-c-9" d="M977.42,437.75c-6.55,1.49-42.8,9.52-56.54,7.51-15.12-2.21-44.53-3.68-44.53-3.68s-18.73,1-24.49-1.62a8,8,0,0,1,.06-1.09l10.67-12.79s103.31-7.74,111,0C975.55,428,976.72,432.29,977.42,437.75Z" transform="translate(-18.08 -92.14)"/><path class="cls-c-11" d="M909.45,259.67s-19.47-27-12.13-37.46l-32.88,13.48s-19.8-2.4-27,27.14a51,51,0,0,0-1.23,15c.26,4.46-.34,12.3-5.41,22.44-8.13,16.24-6.28,53.49,10.33,57.19s22.5,1.84,22.5,1.84-2.21,67.52-11.8,75.26,24.45,5.91,24.45,5.91,29.41,1.48,44.54,3.68,57.54-7.74,57.54-7.74S972.11,408,969.9,389.9s-7.38-56.57-7.38-56.57l37.64-50.95s6.63-30.8-16.61-44.45-32-17-32-17-23.32,38-35.49,39.84C916.09,260.78,911.46,262.64,909.45,259.67Z" transform="translate(-18.08 -92.14)"/><path class="cls-c-9" d="M866.28,270.37s-.37,12.18,1.84,17,10.33,31.37,10.33,31.37H860s10-10.7,9.22-15.87S866.28,270.37,866.28,270.37Z" transform="translate(-18.08 -92.14)"/><path class="cls-c-10" d="M920.89,362.24s-40.75-10-44.54-18.46-14.28-27.46-14.28-27.46l4.29-5.8,19.83,15.56s23.61,18.81,34.68,20.66,0,15.5,0,15.5Z" transform="translate(-18.08 -92.14)"/><path class="cls-c-12" d="M920.89,362.24s-40.75-10-44.54-18.46-14.28-27.46-14.28-27.46l4.29-5.8,19.83,15.56s23.61,18.81,34.68,20.66,0,15.5,0,15.5Z" transform="translate(-18.08 -92.14)"/><path class="cls-c-10" d="M956.11,314.28v22.1h-3.55a103.36,103.36,0,0,0-50.17,13l-6.65,3.7-1.79,1-11.44-25.75,10.7-9.59h.55c2.62.25,13.94,1.19,18.73-.42,4.56-1.55,10.21-6.46,23.63-3,6.62,1.69,12.26,9.1,18.68,6.78Z" transform="translate(-18.08 -92.14)"/><path class="cls-c-9" d="M991.71,274.07l7.39,8.29v20.11s-6.28,63.45-26.2,70.47-55.48-4.07-55.48-4.07-9.19-24.35-4.9-25.82,38-10.37,38-10.37-.47-37.22,6.9-48.29c0,0-4.79-34.67,11.81-35.41s22.51,25.09,22.51,25.09Z" transform="translate(-18.08 -92.14)"/><path class="cls-c-11" d="M992.82,274.07l7.38,8.29v20.11S994,365.92,974,372.94s-55.49-4.07-55.49-4.07-9.18-24.35-4.89-25.82,38-10.37,38-10.37-.48-37.22,6.9-48.29c0,0-4.79-34.67,11.81-35.41s22.55,25.09,22.55,25.09Z" transform="translate(-18.08 -92.14)"/><path class="cls-c-9" d="M941.29,188.78c.15-2.43.2-5-.84-7.18s-3.48-3.94-5.86-3.38c-3.15.74-4.51,4.85-7.61,5.84-2.61.82-5.46-1-6.69-3.46s-1.28-5.3-1.29-8v-9.25c0-3.35-.11-7-2.18-9.61-2.57-3.28-8.61-4.71-12.65-4.58a10.7,10.7,0,0,0-7.22,2.91c-2.16,1.83-4.66,3.19-7.61,2.7a6.57,6.57,0,0,1-5.29-4.57v-.12a37.62,37.62,0,1,1,60,45.41,37.11,37.11,0,0,1-4,4.54,101,101,0,0,0,1.29-11.26Z" transform="translate(-18.08 -92.14)"/><path class="cls-c-13" d="M889.32,153.64a6.55,6.55,0,0,1-5.29-4.58c-.31-1.19-.23-2.46-.58-3.65-.86-2.9-4-4.41-6-6.6-4.15-4.42-3.88-11.67-.94-17,2.38-4.28,7-7.88,11.8-7,3,.52,5.57,2.64,8.6,2.83s5.56-1.44,8.22-2.65a30.93,30.93,0,0,1,20.39-1.81,11.92,11.92,0,0,1,5.62,2.83,49.2,49.2,0,0,1,3,4.2c3.45,4.39,9.61,5.25,15.09,6.24s11.68,3.15,13.49,8.43c1.19,3.5,0,7.29-.65,10.93a3.18,3.18,0,0,0,.14,2.25c.86,1.42,3,.83,4.61,1.17,3.12.65,3.92,4.65,4,7.83.13,3.64.23,7.27.3,10.91a10.69,10.69,0,0,1-3.47,9.12l-12.18,14.64c-5.4,6.49-11.14,14.06-10.05,22.43-2.55,1.15-5.59-1.07-6.43-3.75s-.16-5.55.4-8.3a102.85,102.85,0,0,0,1.93-14.41c.15-2.44.2-5-.84-7.18s-3.48-4-5.86-3.39c-3.15.74-4.51,4.85-7.61,5.84-2.6.83-5.46-1-6.69-3.46s-1.28-5.3-1.29-8v-9.25c0-3.35-.11-7-2.18-9.62-2.57-3.28-8.61-4.71-12.65-4.58A10.66,10.66,0,0,0,897,151c-2.2,1.82-4.7,3.17-7.65,2.69Z" transform="translate(-18.08 -92.14)"/><path class="cls-c-9" d="M897.83,269.45l11.55,47.46S918.49,316.86,897.83,269.45Z" transform="translate(-18.08 -92.14)"/><path class="cls-c-9" d="M937.3,261.52s-15.13,24.77-9.22,50.38l2.82.21s-5-11.86,6.4-50.59Z" transform="translate(-18.08 -92.14)"/><path class="cls-c-9" d="M946.89,401.71s18.58-6.14,19.92,8.11C966.81,409.82,963.31,400.05,946.89,401.71Z" transform="translate(-18.08 -92.14)"/><path class="cls-c-9" d="M893.21,319.85s-3.69,25.83,3,36.16c0,0-13.51,5.54-32.47,4.43l-2.25-40.59Z" transform="translate(-18.08 -92.14)"/><path class="cls-c-9" d="M895.74,353.06l-1.79,1L882.51,328.3l10.7-9.59h.55C893.59,319.94,890.61,342.13,895.74,353.06Z" transform="translate(-18.08 -92.14)"/><path class="cls-c-11" d="M893.21,318.71s-3.69,25.81,3,36.14c0,0-13.51,5.54-32.47,4.43l-12.91-40.57Z" transform="translate(-18.08 -92.14)"/><path class="cls-c-8" d="M861.3,749.58a8.35,8.35,0,0,1-7.17,7.31c-10,1.5-34.14,5.31-40.24,8.21-7.74,3.69-38.37,1.11-39.84-2.58a5.81,5.81,0,0,1,.53-4.43,11.86,11.86,0,0,1,5-5.33,12.27,12.27,0,0,1,2.22-1c5.76-1.93,16.65-6,19.6-10.29,0,0,13.58-11.88,17.45-18.3a8.87,8.87,0,0,1,7.09-4.42c3.24-.15,6.83,1.48,8.3,8.56,0,0,17.71,10.1,22.49,1.24,0,0,.74,13.61,3.68,17.33A4.94,4.94,0,0,1,861.3,749.58Z" transform="translate(-18.08 -92.14)"/><path class="cls-c-9" d="M861.3,749.58a8.35,8.35,0,0,1-7.17,7.31c-10,1.5-34.14,5.31-40.24,8.21-7.74,3.69-38.37,1.11-39.84-2.58a5.81,5.81,0,0,1,.53-4.43,11.86,11.86,0,0,1,5-5.33c5,3.32,16.08,6.55,40.46,2.75,23.24-3.63,34.75-7.19,40.37-9.61a4.93,4.93,0,0,1,.9,3.68Z" transform="translate(-18.08 -92.14)"/><g class="cls-c-14"><path d="M962,146.31v-.18c.53-2.77,1.32-5.63,1.14-8.38a54.5,54.5,0,0,1-1.14,6.72A4.08,4.08,0,0,0,962,146.31Z" transform="translate(-18.08 -92.14)"/><path d="M940.44,180.84a10.91,10.91,0,0,1,.91,4.21,12.55,12.55,0,0,0-.91-5.87c-1-2.21-3.47-4-5.85-3.39-3.15.74-4.51,4.85-7.61,5.84-2.61.83-5.46-1-6.7-3.46s-1.27-5.29-1.28-8v-9.25c0-3.35-.11-7-2.18-9.62-2.57-3.28-8.62-4.71-12.65-4.58a10.66,10.66,0,0,0-7.22,2.92c-2.17,1.83-4.66,3.18-7.61,2.7a6.55,6.55,0,0,1-5.29-4.58c-.31-1.19-.23-2.46-.58-3.65-.87-2.9-4-4.4-6-6.6a12,12,0,0,1-3.1-7.81,12.61,12.61,0,0,0,3.1,9.47c2.08,2.19,5.17,3.71,6,6.61.35,1.18.27,2.45.58,3.64a6.55,6.55,0,0,0,5.29,4.58c3,.48,5.44-.87,7.61-2.71a10.7,10.7,0,0,1,7.22-2.91c4-.13,10.08,1.31,12.65,4.58,2.07,2.64,2.17,6.27,2.18,9.61v9.26c0,2.73,0,5.58,1.28,8s4.09,4.29,6.7,3.46c3.1-1,4.46-5.1,7.61-5.84C937,176.9,939.41,178.63,940.44,180.84Z" transform="translate(-18.08 -92.14)"/><path d="M970.76,170.68a14.07,14.07,0,0,1-3.14,5.07q-6.07,7.33-12.18,14.64c-5.12,6.16-10.56,13.3-10.16,21.16.37-7.21,5.4-13.78,10.16-19.5l12.18-14.63a14.11,14.11,0,0,0,3.14-5.08,13.8,13.8,0,0,0,.32-4,9.77,9.77,0,0,1-.32,2.34Z" transform="translate(-18.08 -92.14)"/><path d="M939,209.07a8.5,8.5,0,0,1-.36-2,9.9,9.9,0,0,0,.36,3.63c.84,2.68,3.89,4.89,6.44,3.74-.07-.54-.11-1.08-.13-1.62-2.57,1.06-5.53-1.12-6.31-3.76Z" transform="translate(-18.08 -92.14)"/></g><path class="cls-c-9" d="M816.37,726.49s3.85,6.79,17.82.81" transform="translate(-18.08 -92.14)"/><path class="cls-c-9" d="M934.5,728.16s12,14.19,27.24,4.65" transform="translate(-18.08 -92.14)"/><path class="cls-c-9" d="M969.58,560.34s-8.52,5.33-8.79,8.37,4.4-2.21,4.4-2.21Z" transform="translate(-18.08 -92.14)"/><path class="cls-c-9" d="M973,601.13a17.73,17.73,0,0,1-10.49,4.1c-6.37.28-5.84,8.58-1.68,6.09S973,601.13,973,601.13Z" transform="translate(-18.08 -92.14)"/><path class="cls-c-9" d="M974.56,606.46s-4.09,20.08-7.41,16.21" transform="translate(-18.08 -92.14)"/><path class="cls-c-15" d="M648.14,202.46,594.18,571,335.35,530.75l54-368.54" transform="translate(-18.08 -92.14)"/><path class="cls-c-16" d="M387.82,132.4l260.9,43.18" transform="translate(-18.08 -92.14)"/><path class="cls-c-17" d="M645,206,591.82,592.68,337.55,550.6l53.19-386.67" transform="translate(-18.08 -92.14)"/><path class="cls-c-18" d="M401.53,309.16l183.52,30.37-1.68,12.2L399.85,321.36Z" transform="translate(-18.08 -92.14)"/><path class="cls-c-18" d="M397.34,339.65,580.85,370l-1.68,12.2L395.66,351.85Z" transform="translate(-18.08 -92.14)"/><path class="cls-c-18" d="M503.93,226.28l94.54,15.65-1.68,12.2-94.54-15.65Z" transform="translate(-18.08 -92.14)"/><path class="cls-c-3" id="color-section" d="M508.08,258.17l77.86,12.88-1.68,12.2L506.4,270.37Z" transform="translate(-18.08 -92.14)"/><path class="cls-c-18" d="M393.14,370.15l161.27,26.69L552.74,409,391.46,382.36Z" transform="translate(-18.08 -92.14)"/><path class="cls-c-18" d="M388.94,400.65l139,23-1.68,12.2-139-23Z" transform="translate(-18.08 -92.14)"/><path class="cls-c-18" d="M384.74,431.15,507.09,451.4l-1.68,12.2L383.07,443.35Z" transform="translate(-18.08 -92.14)"/><path class="cls-c-18" d="M380.55,461.65l155.71,25.77-1.68,12.2L378.87,473.85Z" transform="translate(-18.08 -92.14)"/><path class="cls-c-3" id="color-section" d="M376.36,492.15l61.17,10.12-1.68,12.2-61.17-10.12Z" transform="translate(-18.08 -92.14)"/><path class="cls-c-19" d="M486,243.07c3.09-22.49-11-43.47-31.53-46.86s-39.62,12.1-42.71,34.58c-1.86,13.56,2.55,27.24,11.76,36.5v.18a13.26,13.26,0,0,0,3.81,3.66l.07-.18c1.51,1.92,8.47,5.75,16.89,7.12h.18a31.47,31.47,0,0,0,16.75-1.37l.16-.29a13.05,13.05,0,0,0,3.86-2.05l.12-.46C476.45,268,484.17,256.44,486,243.07Z" transform="translate(-18.08 -92.14)"/><ellipse class="cls-c-17" cx="430.65" cy="143.28" rx="36.41" ry="39.94"/><path class="cls-c-20" d="M432.13,248.58s-8.66-.65-8.78,16.87A13,13,0,0,0,427,269l7.29-17.12Z" transform="translate(-18.08 -92.14)"/><path class="cls-c-20" d="M460,253.19s8.47,2.19,3.85,19a12,12,0,0,1-4.48,2.19L457,255.63Z" transform="translate(-18.08 -92.14)"/><path class="cls-c-21" d="M436.36,220.56s-5.87,12.35-7.93,10.76c0,0,18.69,23.91,40.46,6.69a64.78,64.78,0,0,0-6.54-13.15Z" transform="translate(-18.08 -92.14)"/><ellipse class="cls-c-21" cx="432.26" cy="129.49" rx="16.14" ry="17.7"/><path class="cls-c-9" d="M459.8,253.16,432,248.56l-4.28,11.78s-2.3,5.4-.74,8.21,18.51,11.39,32.63,5.84a17.44,17.44,0,0,0,1.78-10.12c-.7-5.94-.32-.46-.32-.46Z" transform="translate(-18.08 -92.14)"/><path class="cls-c-9" d="M460.17,253.23l-27.84-4.6-4.27,11.77s-2.3,5.4-.74,8.21S445.83,280,460,274.45a17.44,17.44,0,0,0,1.78-10.12c-.7-5.94-.32-.47-.32-.47Z" transform="translate(-18.08 -92.14)"/><path class="cls-c-22" d="M460,253.19l-27.84-4.6-4.28,11.78s-2.3,5.4-.75,8.21,18.51,11.39,32.64,5.84a17.35,17.35,0,0,0,1.77-10.12c-.7-5.94-.31-.46-.31-.46Z" transform="translate(-18.08 -92.14)"/><path class="cls-c-9" d="M442.05,239.9l11.14,1.84-1.52,11a4.55,4.55,0,0,1-5.1,4.12l-2.28-.37a4.87,4.87,0,0,1-3.76-5.6l1.51-11Z" transform="translate(-18.08 -92.14)"/><path class="cls-c-20" d="M442.11,239.45l11.13,1.84-1.51,11a4.56,4.56,0,0,1-5.11,4.13l-2.27-.38a4.87,4.87,0,0,1-3.76-5.59l1.52-11Z" transform="translate(-18.08 -92.14)"/><path class="cls-c-9" d="M441.9,241.17A15,15,0,0,0,453,243.05l.2-1.5-11.13-1.84Z" transform="translate(-18.08 -92.14)"/><ellipse class="cls-c-20" cx="431.74" cy="133.28" rx="16.14" ry="17.7"/><path class="cls-c-21" d="M435.44,216.24l30.43,5s-.74-13.88-12.36-15S435.44,216.24,435.44,216.24Z" transform="translate(-18.08 -92.14)"/><ellipse class="cls-c-20" cx="434.28" cy="222.09" rx="3.08" ry="1.5" transform="translate(140.41 532.27) rotate(-82.65)"/><ellipse class="cls-c-20" cx="465.47" cy="227.25" rx="3.08" ry="1.5" transform="translate(162.48 567.7) rotate(-82.65)"/><path class="cls-c-9" d="M435.39,216.69l30.44,5s-.75-13.88-12.37-15S435.39,216.69,435.39,216.69Z" transform="translate(-18.08 -92.14)"/><path class="cls-c-23" d="M66.47,235.52l261.22-46.3L386,585.1,124.8,631.41,66.47,235.52" transform="translate(-18.08 -92.14)"/><path class="cls-c-17" d="M70,237.16l253.76-45.63,57.68,385.89L127.68,623.05,70,237.16" transform="translate(-18.08 -92.14)"/><path class="cls-c-18" d="M128.85,398.4,312,365.47l1.82,12.17L130.67,410.58Z" transform="translate(-18.08 -92.14)"/><path class="cls-c-18" d="M133.76,423.7l183.15-32.93L318.73,403,135.58,435.88Z" transform="translate(-18.08 -92.14)"/><path class="cls-c-18" d="M203.1,285l94.35-17,1.82,12.17-94.35,17Z" transform="translate(-18.08 -92.14)"/><path class="cls-c-3" id="color-section" d="M216,314l77.7-14,1.82,12.18-77.7,14Z" transform="translate(-18.08 -92.14)"/><path class="cls-c-18" d="M138,454l161-29,1.82,12.18-161,28.94Z" transform="translate(-18.08 -92.14)"/><path class="cls-c-18" d="M151.05,531,289.8,506.08l1.82,12.17-138.75,25Z" transform="translate(-18.08 -92.14)"/><path class="cls-c-18" d="M142.2,480.12l122.1-22,1.82,12.18-122.1,22Z" transform="translate(-18.08 -92.14)"/><path class="cls-c-18" d="M147.63,507.5,303,479.56l1.82,12.17-155.4,27.95Z" transform="translate(-18.08 -92.14)"/><path class="cls-c-24" d="M194.16,304.4c-3.46-23.07-23.3-38.7-44.33-34.91S114.54,295,118,318.11c2.08,13.91,10.34,25.76,22,31.63l.05.18a12.51,12.51,0,0,0,4.77,2.24V352c2,1.36,9.94,2.7,18.57,1.12h.18a33.57,33.57,0,0,0,16-7.14,1.24,1.24,0,0,1,.07-.33,14.54,14.54,0,0,0,3.19-3.35v-.48c9.15-9.65,13.39-23.63,11.33-37.38Z" transform="translate(-18.08 -92.14)"/><ellipse class="cls-c-17" cx="138" cy="219.09" rx="37.43" ry="41.06"/><path class="cls-c-25" d="M142.85,329.06c-1.77.83-7.34,4.68-3.31,19a.85.85,0,0,0,.33.49,12.21,12.21,0,0,0,3.39,1.73.83.83,0,0,0,1.1-.69l2-17.84a.86.86,0,0,0-.31-.75l-2.37-1.88A.83.83,0,0,0,142.85,329.06Z" transform="translate(-18.08 -92.14)"/><path class="cls-c-25" d="M172.27,324.54c2.12.27,8.11,2.32,8.47,16.77a1.35,1.35,0,0,1-.23.75,13.85,13.85,0,0,1-2.29,2.42,1.18,1.18,0,0,1-1.82-.46l-6.84-15.55a1.15,1.15,0,0,1,.09-1.12l1.51-2.29A1.15,1.15,0,0,1,172.27,324.54Z" transform="translate(-18.08 -92.14)"/><ellipse class="cls-c-21" cx="133.93" cy="205.13" rx="16.59" ry="18.2"/><path class="cls-c-25" d="M172.24,324.74,143.41,329l-.8,13s-.66,6.09,1.64,8.29,21.39,4.73,33.57-5.61h0c1.41-2.3,1.14-5.74-1.18-10.52-.22-.52-.42-.94-.58-1.28L174,330.09Z" transform="translate(-18.08 -92.14)"/><path class="cls-c-9" d="M149.67,318l11.43-2.06,1.71,11.44a4.89,4.89,0,0,1-3.7,5.65h0l-2.59.47a4.55,4.55,0,0,1-5.14-4.06h0L149.67,318Z" transform="translate(-18.08 -92.14)"/><path class="cls-c-26" d="M149.6,317.52l11.43-2,1.71,11.44a4.89,4.89,0,0,1-3.7,5.65h0l-2.58.46a4.55,4.55,0,0,1-5.15-4.06l-1.71-11.44Z" transform="translate(-18.08 -92.14)"/><path class="cls-c-9" d="M149.88,319.33a15.38,15.38,0,0,0,11.43-2l-.23-1.54-11.42,2.06Z" transform="translate(-18.08 -92.14)"/><path class="cls-c-9" d="M136.46,297.63,167.69,292s-4.74-13.35-16.41-10.34S136.46,297.63,136.46,297.63Z" transform="translate(-18.08 -92.14)"/><path class="cls-c-27" d="M254.49,653.16V253.27H518.35V653.16" transform="translate(-18.08 -92.14)"/><path class="cls-c-28" d="M257.85,256.22H515v391H257.85Z" transform="translate(-18.08 -92.14)"/><path class="cls-c-29" d="M292.19,345.69c0-23.9,17.67-43.28,39.46-43.28s39.46,19.38,39.45,43.29c0,14.41-6.54,27.87-17.44,35.91v.19a13.55,13.55,0,0,1-4.48,3.13l-.05-.19c-1.84,1.73-9.62,4.52-18.56,4.49h-.2a33.72,33.72,0,0,1-17.21-4.3l-.12-.33a14.38,14.38,0,0,1-3.72-2.8l-.06-.49C298.57,373.24,292.19,359.92,292.19,345.69Z" transform="translate(-18.08 -92.14)"/><ellipse class="cls-c-17" cx="313.56" cy="253.54" rx="38.27" ry="41.98"/><path class="cls-c-9" d="M325.71,350.9h11.83v12a4.72,4.72,0,0,1-4.48,4.92h-2.88a4.72,4.72,0,0,1-4.48-4.92h0v-12Z" transform="translate(-18.08 -92.14)"/><path class="cls-c-10" d="M325.71,350.42h11.83v12a4.71,4.71,0,0,1-4.48,4.91h-2.88a4.71,4.71,0,0,1-4.48-4.91h0v-12Z" transform="translate(-18.08 -92.14)"/><path class="cls-c-9" d="M325.73,352.26a15.63,15.63,0,0,0,11.83,0v-1.59H325.73Z" transform="translate(-18.08 -92.14)"/><path class="cls-c-18" d="M292.14,425.78H477.73v12.34H292.14Z" transform="translate(-18.08 -92.14)"/><path class="cls-c-18" d="M292.14,456.62H477.73V469H292.14Z" transform="translate(-18.08 -92.14)"/><path class="cls-c-18" d="M382.13,327.08h95.61v12.34H382.13Z" transform="translate(-18.08 -92.14)"/><path class="cls-c-3" id="color-section" d="M390.56,357.92H469.3v12.34H390.56Z" transform="translate(-18.08 -92.14)"/><path class="cls-c-18" d="M292.14,481.4h140.6v12.34H292.14Z" transform="translate(-18.08 -92.14)"/><path class="cls-c-18" d="M291.77,505.58H415.5v12.34H291.77Z" transform="translate(-18.08 -92.14)"/><path class="cls-c-18" d="M291.17,530.27H448.65v12.34H291.17Z" transform="translate(-18.08 -92.14)"/><path class="cls-c-3" id="color-section" d="M287.29,567.77h61.87v12.34H287.29Z" transform="translate(-18.08 -92.14)"/><path class="cls-c-30" d="M468.89,628.16c-31,0-56.21-27.6-56.21-61.65s25.17-61.65,56.21-61.65,56.21,27.6,56.21,61.65-25.17,61.65-56.21,61.65" transform="translate(-18.08 -92.14)"/><path class="cls-c-31" d="M468.89,624.53c-29.21,0-52.9-26-52.9-58s23.69-58,52.9-58,52.9,26,52.9,58-23.68,58-52.9,58" transform="translate(-18.08 -92.14)"/><path class="cls-c-28" d="M445.93,558.76l19.84,20,28.1-45.32,9.92,9.06-38,54.39-28.1-34.44Z" transform="translate(-18.08 -92.14)"/><path class="cls-c-21" d="M137.08,290.65s-.54,1.75-1.35,3.78c-1.76,4.45,2.15,20.59,7.43,21.88,5.92,1.44,13.6,2,21.24-1.09,6.63-2.69,7.07-21.49,1.84-25.6-.62-.5-1.25-.95-1.92-1.41Z" transform="translate(-18.08 -92.14)"/><ellipse class="cls-c-26" cx="134.97" cy="208.54" rx="16.59" ry="18.2"/><path class="cls-c-21" d="M136,297.63l31.71-5.89s-4.81-14-16.64-10.86S136,297.63,136,297.63Z" transform="translate(-18.08 -92.14)"/><ellipse class="cls-c-26" cx="169.64" cy="299.08" rx="1.55" ry="3.17" transform="translate(-57.91 -65.73) rotate(-7.97)"/><ellipse class="cls-c-26" cx="136.46" cy="305.39" rx="1.55" ry="3.18" transform="translate(-58.55 -70.62) rotate(-7.86)"/><circle class="cls-c-13" cx="313.57" cy="240.5" r="21.99"/><circle class="cls-c-10" cx="314.01" cy="244.86" r="20.19"/><path class="cls-c-9" d="M315.91,320.19s10.22,16.32,33.08,3.91L342.56,316l-10.22-2.54Z" transform="translate(-18.08 -92.14)"/><path class="cls-c-13" d="M315.89,319.94s10.21,16.32,33.08,3.91l-6.44-8.16-10.22-2.53Z" transform="translate(-18.08 -92.14)"/><path class="cls-c-13" d="M339.29,308.08a3.19,3.19,0,0,1-.85,4c2.57.68,4.35,1.32,4,3.78-.23,1.65.06,1.13-.57,2.31s-3.23,1.29-4.47,1.57c-3.63.82-22.78,4.46-22-1.24.11-.49,0-.26,0,0,.13-.93,1.68-2.67,2.95-3.53,3.8-2.6,9.27-4.23,13.16-7.12.81,1.16.05,1.88-1,2.44,3.13-.28,6.06-.57,8.8-2.22" transform="translate(-18.08 -92.14)"/><ellipse class="cls-c-10" cx="311.99" cy="339.03" rx="1.88" ry="3.52" transform="translate(-50.78 -58.84) rotate(-5.81)"/><ellipse class="cls-c-10" cx="350.98" cy="340.01" rx="3.52" ry="1.88" transform="matrix(0.15, -0.99, 0.99, 0.15, -56.09, 543.64)"/><path class="cls-c-32" d="M317.57,361.68s-8.95.66-7.42,18.46a12.33,12.33,0,0,0,4.12,3l5.87-18.49Z" transform="translate(-18.08 -92.14)"/><path class="cls-c-32" d="M346.29,362.22s8.91.93,5.74,18.67a13.47,13.47,0,0,1-4.39,2.86l-4.19-18.64Z" transform="translate(-18.08 -92.14)"/><path class="cls-c-32" d="M346.29,362.22l-29-.48L314,374.37s-1.83,5.85,0,8.45,20.08,8.76,34,.95a18,18,0,0,0,.87-10.54c-1.28-5.93-.37-.43-.37-.43Z" transform="translate(-18.08 -92.14)"/><path class="cls-c-10" d="M325.73,352.5h11.84v10.83a4.47,4.47,0,0,1-4.48,4.46h-2.88a4.47,4.47,0,0,1-4.48-4.46h0V352.5Z" transform="translate(-18.08 -92.14)"/>

</symbol>
</svg>