<svg xmlns="http://www.w3.org/2000/svg" version="1.1" id="Layer_1" x="0px" y="0px" viewBox="0 0 362.9 362.9" enable-background="new 0 0 362.9 362.9" xml:space="preserve"><path fill="#FFFFFF" d="M181.4 0C81.4 0 0 81.4 0 181.4s81.4 181.4 181.4 181.4 181.4-81.4 181.4-181.4S281.5 0 181.4 0zM181.4 25c68.8 0 127.3 44.6 148.2 106.4h-54.3C257.5 97.9 222.1 75 181.4 75c-17.6 0-34.2 4.3-48.8 11.9 -2.3 1.1-4.9 2.4-7.8 3.8 -15.2 7.5-38.1 18.8-59.3 28 -15.3 6.6-25.5 10.2-32.1 12.1C54.5 69.3 112.9 25 181.4 25zM206.4 231.4h39.2c-14.9 19.1-38.2 31.4-64.2 31.4 -44.9 0-81.4-36.5-81.4-81.4s36.5-81.4 81.4-81.4c26.1 0 49.3 12.3 64.2 31.4h-39.2l-25 25v49.9L206.4 231.4zM25 181.4c0-8.1 0.6-16 1.8-23.7 12.1-1.3 30-7.6 57.6-20.1C78.4 151 75 165.8 75 181.4c0 15.6 3.4 30.4 9.4 43.8 -27.7-12.5-45.6-18.7-57.6-20.1C25.6 197.4 25 189.5 25 181.4zM335.9 156.4c1.3 8.1 2 16.5 2 25 0 86.3-70.2 156.4-156.4 156.4 -68.6 0-126.9-44.3-148-105.8 6.6 1.9 16.8 5.5 32.1 12.1 21.2 9.1 44.1 20.5 59.3 28 2.7 1.3 5.2 2.6 7.4 3.6 14.7 7.7 31.5 12.1 49.3 12.1 50.1 0 92.2-34.8 103.5-81.4l-53.5 0v0c-13.8 0-25-11.2-25-25s11.2-25 25-25L335.9 156.4z"/></svg>